%TF.GenerationSoftware,KiCad,Pcbnew,9.0.5*%
%TF.CreationDate,2026-03-08T23:30:01-03:00*%
%TF.ProjectId,BillCold_V0.01,42696c6c-436f-46c6-945f-56302e30312e,rev?*%
%TF.SameCoordinates,Original*%
%TF.FileFunction,Legend,Bot*%
%TF.FilePolarity,Positive*%
%FSLAX46Y46*%
G04 Gerber Fmt 4.6, Leading zero omitted, Abs format (unit mm)*
G04 Created by KiCad (PCBNEW 9.0.5) date 2026-03-08 23:30:01*
%MOMM*%
%LPD*%
G01*
G04 APERTURE LIST*
G04 Aperture macros list*
%AMRoundRect*
0 Rectangle with rounded corners*
0 $1 Rounding radius*
0 $2 $3 $4 $5 $6 $7 $8 $9 X,Y pos of 4 corners*
0 Add a 4 corners polygon primitive as box body*
4,1,4,$2,$3,$4,$5,$6,$7,$8,$9,$2,$3,0*
0 Add four circle primitives for the rounded corners*
1,1,$1+$1,$2,$3*
1,1,$1+$1,$4,$5*
1,1,$1+$1,$6,$7*
1,1,$1+$1,$8,$9*
0 Add four rect primitives between the rounded corners*
20,1,$1+$1,$2,$3,$4,$5,0*
20,1,$1+$1,$4,$5,$6,$7,0*
20,1,$1+$1,$6,$7,$8,$9,0*
20,1,$1+$1,$8,$9,$2,$3,0*%
G04 Aperture macros list end*
%ADD10C,0.125000*%
%ADD11C,0.100000*%
%ADD12C,0.000000*%
%ADD13C,2.800000*%
%ADD14RoundRect,0.102000X-0.558800X0.558800X-0.558800X-0.558800X0.558800X-0.558800X0.558800X0.558800X0*%
%ADD15C,1.321600*%
%ADD16C,1.400000*%
%ADD17R,1.428000X1.428000*%
%ADD18C,1.428000*%
%ADD19C,3.316000*%
%ADD20RoundRect,0.250001X-1.149999X-1.149999X1.149999X-1.149999X1.149999X1.149999X-1.149999X1.149999X0*%
%ADD21C,0.850000*%
%ADD22C,2.500000*%
G04 APERTURE END LIST*
D10*
X164874204Y-129140287D02*
X165674204Y-129140287D01*
X165674204Y-128606954D02*
X165674204Y-128454573D01*
X165674204Y-128454573D02*
X165636109Y-128378383D01*
X165636109Y-128378383D02*
X165559919Y-128302192D01*
X165559919Y-128302192D02*
X165407538Y-128264097D01*
X165407538Y-128264097D02*
X165140871Y-128264097D01*
X165140871Y-128264097D02*
X164988490Y-128302192D01*
X164988490Y-128302192D02*
X164912300Y-128378383D01*
X164912300Y-128378383D02*
X164874204Y-128454573D01*
X164874204Y-128454573D02*
X164874204Y-128606954D01*
X164874204Y-128606954D02*
X164912300Y-128683145D01*
X164912300Y-128683145D02*
X164988490Y-128759335D01*
X164988490Y-128759335D02*
X165140871Y-128797431D01*
X165140871Y-128797431D02*
X165407538Y-128797431D01*
X165407538Y-128797431D02*
X165559919Y-128759335D01*
X165559919Y-128759335D02*
X165636109Y-128683145D01*
X165636109Y-128683145D02*
X165674204Y-128606954D01*
X164874204Y-127502193D02*
X164874204Y-127959336D01*
X164874204Y-127730764D02*
X165674204Y-127730764D01*
X165674204Y-127730764D02*
X165559919Y-127806955D01*
X165559919Y-127806955D02*
X165483728Y-127883145D01*
X165483728Y-127883145D02*
X165445633Y-127959336D01*
X165331347Y-127045050D02*
X165369442Y-127121240D01*
X165369442Y-127121240D02*
X165407538Y-127159335D01*
X165407538Y-127159335D02*
X165483728Y-127197431D01*
X165483728Y-127197431D02*
X165521823Y-127197431D01*
X165521823Y-127197431D02*
X165598014Y-127159335D01*
X165598014Y-127159335D02*
X165636109Y-127121240D01*
X165636109Y-127121240D02*
X165674204Y-127045050D01*
X165674204Y-127045050D02*
X165674204Y-126892669D01*
X165674204Y-126892669D02*
X165636109Y-126816478D01*
X165636109Y-126816478D02*
X165598014Y-126778383D01*
X165598014Y-126778383D02*
X165521823Y-126740288D01*
X165521823Y-126740288D02*
X165483728Y-126740288D01*
X165483728Y-126740288D02*
X165407538Y-126778383D01*
X165407538Y-126778383D02*
X165369442Y-126816478D01*
X165369442Y-126816478D02*
X165331347Y-126892669D01*
X165331347Y-126892669D02*
X165331347Y-127045050D01*
X165331347Y-127045050D02*
X165293252Y-127121240D01*
X165293252Y-127121240D02*
X165255157Y-127159335D01*
X165255157Y-127159335D02*
X165178966Y-127197431D01*
X165178966Y-127197431D02*
X165026585Y-127197431D01*
X165026585Y-127197431D02*
X164950395Y-127159335D01*
X164950395Y-127159335D02*
X164912300Y-127121240D01*
X164912300Y-127121240D02*
X164874204Y-127045050D01*
X164874204Y-127045050D02*
X164874204Y-126892669D01*
X164874204Y-126892669D02*
X164912300Y-126816478D01*
X164912300Y-126816478D02*
X164950395Y-126778383D01*
X164950395Y-126778383D02*
X165026585Y-126740288D01*
X165026585Y-126740288D02*
X165178966Y-126740288D01*
X165178966Y-126740288D02*
X165255157Y-126778383D01*
X165255157Y-126778383D02*
X165293252Y-126816478D01*
X165293252Y-126816478D02*
X165331347Y-126892669D01*
X159870404Y-129191087D02*
X160670404Y-129191087D01*
X160670404Y-128657754D02*
X160670404Y-128505373D01*
X160670404Y-128505373D02*
X160632309Y-128429183D01*
X160632309Y-128429183D02*
X160556119Y-128352992D01*
X160556119Y-128352992D02*
X160403738Y-128314897D01*
X160403738Y-128314897D02*
X160137071Y-128314897D01*
X160137071Y-128314897D02*
X159984690Y-128352992D01*
X159984690Y-128352992D02*
X159908500Y-128429183D01*
X159908500Y-128429183D02*
X159870404Y-128505373D01*
X159870404Y-128505373D02*
X159870404Y-128657754D01*
X159870404Y-128657754D02*
X159908500Y-128733945D01*
X159908500Y-128733945D02*
X159984690Y-128810135D01*
X159984690Y-128810135D02*
X160137071Y-128848231D01*
X160137071Y-128848231D02*
X160403738Y-128848231D01*
X160403738Y-128848231D02*
X160556119Y-128810135D01*
X160556119Y-128810135D02*
X160632309Y-128733945D01*
X160632309Y-128733945D02*
X160670404Y-128657754D01*
X159870404Y-127552993D02*
X159870404Y-128010136D01*
X159870404Y-127781564D02*
X160670404Y-127781564D01*
X160670404Y-127781564D02*
X160556119Y-127857755D01*
X160556119Y-127857755D02*
X160479928Y-127933945D01*
X160479928Y-127933945D02*
X160441833Y-128010136D01*
X160670404Y-127286326D02*
X160670404Y-126752992D01*
X160670404Y-126752992D02*
X159870404Y-127095850D01*
X155506309Y-128168240D02*
X155544404Y-128244430D01*
X155544404Y-128244430D02*
X155544404Y-128358716D01*
X155544404Y-128358716D02*
X155506309Y-128473002D01*
X155506309Y-128473002D02*
X155430119Y-128549192D01*
X155430119Y-128549192D02*
X155353928Y-128587287D01*
X155353928Y-128587287D02*
X155201547Y-128625383D01*
X155201547Y-128625383D02*
X155087261Y-128625383D01*
X155087261Y-128625383D02*
X154934880Y-128587287D01*
X154934880Y-128587287D02*
X154858690Y-128549192D01*
X154858690Y-128549192D02*
X154782500Y-128473002D01*
X154782500Y-128473002D02*
X154744404Y-128358716D01*
X154744404Y-128358716D02*
X154744404Y-128282525D01*
X154744404Y-128282525D02*
X154782500Y-128168240D01*
X154782500Y-128168240D02*
X154820595Y-128130144D01*
X154820595Y-128130144D02*
X155087261Y-128130144D01*
X155087261Y-128130144D02*
X155087261Y-128282525D01*
X154744404Y-127787287D02*
X155544404Y-127787287D01*
X155544404Y-127787287D02*
X154744404Y-127330144D01*
X154744404Y-127330144D02*
X155544404Y-127330144D01*
X154744404Y-126949192D02*
X155544404Y-126949192D01*
X155544404Y-126949192D02*
X155544404Y-126758716D01*
X155544404Y-126758716D02*
X155506309Y-126644430D01*
X155506309Y-126644430D02*
X155430119Y-126568240D01*
X155430119Y-126568240D02*
X155353928Y-126530145D01*
X155353928Y-126530145D02*
X155201547Y-126492049D01*
X155201547Y-126492049D02*
X155087261Y-126492049D01*
X155087261Y-126492049D02*
X154934880Y-126530145D01*
X154934880Y-126530145D02*
X154858690Y-126568240D01*
X154858690Y-126568240D02*
X154782500Y-126644430D01*
X154782500Y-126644430D02*
X154744404Y-126758716D01*
X154744404Y-126758716D02*
X154744404Y-126949192D01*
X169903404Y-129140287D02*
X170703404Y-129140287D01*
X170703404Y-128606954D02*
X170703404Y-128454573D01*
X170703404Y-128454573D02*
X170665309Y-128378383D01*
X170665309Y-128378383D02*
X170589119Y-128302192D01*
X170589119Y-128302192D02*
X170436738Y-128264097D01*
X170436738Y-128264097D02*
X170170071Y-128264097D01*
X170170071Y-128264097D02*
X170017690Y-128302192D01*
X170017690Y-128302192D02*
X169941500Y-128378383D01*
X169941500Y-128378383D02*
X169903404Y-128454573D01*
X169903404Y-128454573D02*
X169903404Y-128606954D01*
X169903404Y-128606954D02*
X169941500Y-128683145D01*
X169941500Y-128683145D02*
X170017690Y-128759335D01*
X170017690Y-128759335D02*
X170170071Y-128797431D01*
X170170071Y-128797431D02*
X170436738Y-128797431D01*
X170436738Y-128797431D02*
X170589119Y-128759335D01*
X170589119Y-128759335D02*
X170665309Y-128683145D01*
X170665309Y-128683145D02*
X170703404Y-128606954D01*
X170703404Y-127997431D02*
X170703404Y-127502193D01*
X170703404Y-127502193D02*
X170398642Y-127768859D01*
X170398642Y-127768859D02*
X170398642Y-127654574D01*
X170398642Y-127654574D02*
X170360547Y-127578383D01*
X170360547Y-127578383D02*
X170322452Y-127540288D01*
X170322452Y-127540288D02*
X170246261Y-127502193D01*
X170246261Y-127502193D02*
X170055785Y-127502193D01*
X170055785Y-127502193D02*
X169979595Y-127540288D01*
X169979595Y-127540288D02*
X169941500Y-127578383D01*
X169941500Y-127578383D02*
X169903404Y-127654574D01*
X169903404Y-127654574D02*
X169903404Y-127883145D01*
X169903404Y-127883145D02*
X169941500Y-127959336D01*
X169941500Y-127959336D02*
X169979595Y-127997431D01*
X170703404Y-127235526D02*
X170703404Y-126740288D01*
X170703404Y-126740288D02*
X170398642Y-127006954D01*
X170398642Y-127006954D02*
X170398642Y-126892669D01*
X170398642Y-126892669D02*
X170360547Y-126816478D01*
X170360547Y-126816478D02*
X170322452Y-126778383D01*
X170322452Y-126778383D02*
X170246261Y-126740288D01*
X170246261Y-126740288D02*
X170055785Y-126740288D01*
X170055785Y-126740288D02*
X169979595Y-126778383D01*
X169979595Y-126778383D02*
X169941500Y-126816478D01*
X169941500Y-126816478D02*
X169903404Y-126892669D01*
X169903404Y-126892669D02*
X169903404Y-127121240D01*
X169903404Y-127121240D02*
X169941500Y-127197431D01*
X169941500Y-127197431D02*
X169979595Y-127235526D01*
X174831004Y-129114887D02*
X175631004Y-129114887D01*
X175631004Y-128581554D02*
X175631004Y-128429173D01*
X175631004Y-128429173D02*
X175592909Y-128352983D01*
X175592909Y-128352983D02*
X175516719Y-128276792D01*
X175516719Y-128276792D02*
X175364338Y-128238697D01*
X175364338Y-128238697D02*
X175097671Y-128238697D01*
X175097671Y-128238697D02*
X174945290Y-128276792D01*
X174945290Y-128276792D02*
X174869100Y-128352983D01*
X174869100Y-128352983D02*
X174831004Y-128429173D01*
X174831004Y-128429173D02*
X174831004Y-128581554D01*
X174831004Y-128581554D02*
X174869100Y-128657745D01*
X174869100Y-128657745D02*
X174945290Y-128733935D01*
X174945290Y-128733935D02*
X175097671Y-128772031D01*
X175097671Y-128772031D02*
X175364338Y-128772031D01*
X175364338Y-128772031D02*
X175516719Y-128733935D01*
X175516719Y-128733935D02*
X175592909Y-128657745D01*
X175592909Y-128657745D02*
X175631004Y-128581554D01*
X175631004Y-127972031D02*
X175631004Y-127476793D01*
X175631004Y-127476793D02*
X175326242Y-127743459D01*
X175326242Y-127743459D02*
X175326242Y-127629174D01*
X175326242Y-127629174D02*
X175288147Y-127552983D01*
X175288147Y-127552983D02*
X175250052Y-127514888D01*
X175250052Y-127514888D02*
X175173861Y-127476793D01*
X175173861Y-127476793D02*
X174983385Y-127476793D01*
X174983385Y-127476793D02*
X174907195Y-127514888D01*
X174907195Y-127514888D02*
X174869100Y-127552983D01*
X174869100Y-127552983D02*
X174831004Y-127629174D01*
X174831004Y-127629174D02*
X174831004Y-127857745D01*
X174831004Y-127857745D02*
X174869100Y-127933936D01*
X174869100Y-127933936D02*
X174907195Y-127972031D01*
X175364338Y-126791078D02*
X174831004Y-126791078D01*
X175669100Y-126981554D02*
X175097671Y-127172031D01*
X175097671Y-127172031D02*
X175097671Y-126676792D01*
X179961804Y-129013287D02*
X180761804Y-129013287D01*
X180761804Y-128479954D02*
X180761804Y-128327573D01*
X180761804Y-128327573D02*
X180723709Y-128251383D01*
X180723709Y-128251383D02*
X180647519Y-128175192D01*
X180647519Y-128175192D02*
X180495138Y-128137097D01*
X180495138Y-128137097D02*
X180228471Y-128137097D01*
X180228471Y-128137097D02*
X180076090Y-128175192D01*
X180076090Y-128175192D02*
X179999900Y-128251383D01*
X179999900Y-128251383D02*
X179961804Y-128327573D01*
X179961804Y-128327573D02*
X179961804Y-128479954D01*
X179961804Y-128479954D02*
X179999900Y-128556145D01*
X179999900Y-128556145D02*
X180076090Y-128632335D01*
X180076090Y-128632335D02*
X180228471Y-128670431D01*
X180228471Y-128670431D02*
X180495138Y-128670431D01*
X180495138Y-128670431D02*
X180647519Y-128632335D01*
X180647519Y-128632335D02*
X180723709Y-128556145D01*
X180723709Y-128556145D02*
X180761804Y-128479954D01*
X180685614Y-127832336D02*
X180723709Y-127794240D01*
X180723709Y-127794240D02*
X180761804Y-127718050D01*
X180761804Y-127718050D02*
X180761804Y-127527574D01*
X180761804Y-127527574D02*
X180723709Y-127451383D01*
X180723709Y-127451383D02*
X180685614Y-127413288D01*
X180685614Y-127413288D02*
X180609423Y-127375193D01*
X180609423Y-127375193D02*
X180533233Y-127375193D01*
X180533233Y-127375193D02*
X180418947Y-127413288D01*
X180418947Y-127413288D02*
X179961804Y-127870431D01*
X179961804Y-127870431D02*
X179961804Y-127375193D01*
X179961804Y-126613288D02*
X179961804Y-127070431D01*
X179961804Y-126841859D02*
X180761804Y-126841859D01*
X180761804Y-126841859D02*
X180647519Y-126918050D01*
X180647519Y-126918050D02*
X180571328Y-126994240D01*
X180571328Y-126994240D02*
X180533233Y-127070431D01*
X145504404Y-127196335D02*
X145504404Y-127577287D01*
X145504404Y-127577287D02*
X145123452Y-127615383D01*
X145123452Y-127615383D02*
X145161547Y-127577287D01*
X145161547Y-127577287D02*
X145199642Y-127501097D01*
X145199642Y-127501097D02*
X145199642Y-127310621D01*
X145199642Y-127310621D02*
X145161547Y-127234430D01*
X145161547Y-127234430D02*
X145123452Y-127196335D01*
X145123452Y-127196335D02*
X145047261Y-127158240D01*
X145047261Y-127158240D02*
X144856785Y-127158240D01*
X144856785Y-127158240D02*
X144780595Y-127196335D01*
X144780595Y-127196335D02*
X144742500Y-127234430D01*
X144742500Y-127234430D02*
X144704404Y-127310621D01*
X144704404Y-127310621D02*
X144704404Y-127501097D01*
X144704404Y-127501097D02*
X144742500Y-127577287D01*
X144742500Y-127577287D02*
X144780595Y-127615383D01*
X145504404Y-126929668D02*
X144704404Y-126663001D01*
X144704404Y-126663001D02*
X145504404Y-126396335D01*
X150514404Y-128843478D02*
X150514404Y-128348240D01*
X150514404Y-128348240D02*
X150209642Y-128614906D01*
X150209642Y-128614906D02*
X150209642Y-128500621D01*
X150209642Y-128500621D02*
X150171547Y-128424430D01*
X150171547Y-128424430D02*
X150133452Y-128386335D01*
X150133452Y-128386335D02*
X150057261Y-128348240D01*
X150057261Y-128348240D02*
X149866785Y-128348240D01*
X149866785Y-128348240D02*
X149790595Y-128386335D01*
X149790595Y-128386335D02*
X149752500Y-128424430D01*
X149752500Y-128424430D02*
X149714404Y-128500621D01*
X149714404Y-128500621D02*
X149714404Y-128729192D01*
X149714404Y-128729192D02*
X149752500Y-128805383D01*
X149752500Y-128805383D02*
X149790595Y-128843478D01*
X149790595Y-128005382D02*
X149752500Y-127967287D01*
X149752500Y-127967287D02*
X149714404Y-128005382D01*
X149714404Y-128005382D02*
X149752500Y-128043478D01*
X149752500Y-128043478D02*
X149790595Y-128005382D01*
X149790595Y-128005382D02*
X149714404Y-128005382D01*
X150514404Y-127700621D02*
X150514404Y-127205383D01*
X150514404Y-127205383D02*
X150209642Y-127472049D01*
X150209642Y-127472049D02*
X150209642Y-127357764D01*
X150209642Y-127357764D02*
X150171547Y-127281573D01*
X150171547Y-127281573D02*
X150133452Y-127243478D01*
X150133452Y-127243478D02*
X150057261Y-127205383D01*
X150057261Y-127205383D02*
X149866785Y-127205383D01*
X149866785Y-127205383D02*
X149790595Y-127243478D01*
X149790595Y-127243478D02*
X149752500Y-127281573D01*
X149752500Y-127281573D02*
X149714404Y-127357764D01*
X149714404Y-127357764D02*
X149714404Y-127586335D01*
X149714404Y-127586335D02*
X149752500Y-127662526D01*
X149752500Y-127662526D02*
X149790595Y-127700621D01*
X150514404Y-126976811D02*
X149714404Y-126710144D01*
X149714404Y-126710144D02*
X150514404Y-126443478D01*
D11*
X141001666Y-104298980D02*
X141049285Y-104346600D01*
X141049285Y-104346600D02*
X141192142Y-104394219D01*
X141192142Y-104394219D02*
X141287380Y-104394219D01*
X141287380Y-104394219D02*
X141430237Y-104346600D01*
X141430237Y-104346600D02*
X141525475Y-104251361D01*
X141525475Y-104251361D02*
X141573094Y-104156123D01*
X141573094Y-104156123D02*
X141620713Y-103965647D01*
X141620713Y-103965647D02*
X141620713Y-103822790D01*
X141620713Y-103822790D02*
X141573094Y-103632314D01*
X141573094Y-103632314D02*
X141525475Y-103537076D01*
X141525475Y-103537076D02*
X141430237Y-103441838D01*
X141430237Y-103441838D02*
X141287380Y-103394219D01*
X141287380Y-103394219D02*
X141192142Y-103394219D01*
X141192142Y-103394219D02*
X141049285Y-103441838D01*
X141049285Y-103441838D02*
X141001666Y-103489457D01*
X140001666Y-104394219D02*
X140334999Y-103918028D01*
X140573094Y-104394219D02*
X140573094Y-103394219D01*
X140573094Y-103394219D02*
X140192142Y-103394219D01*
X140192142Y-103394219D02*
X140096904Y-103441838D01*
X140096904Y-103441838D02*
X140049285Y-103489457D01*
X140049285Y-103489457D02*
X140001666Y-103584695D01*
X140001666Y-103584695D02*
X140001666Y-103727552D01*
X140001666Y-103727552D02*
X140049285Y-103822790D01*
X140049285Y-103822790D02*
X140096904Y-103870409D01*
X140096904Y-103870409D02*
X140192142Y-103918028D01*
X140192142Y-103918028D02*
X140573094Y-103918028D01*
X139049285Y-104394219D02*
X139620713Y-104394219D01*
X139334999Y-104394219D02*
X139334999Y-103394219D01*
X139334999Y-103394219D02*
X139430237Y-103537076D01*
X139430237Y-103537076D02*
X139525475Y-103632314D01*
X139525475Y-103632314D02*
X139620713Y-103679933D01*
X185796666Y-121032180D02*
X185844285Y-121079800D01*
X185844285Y-121079800D02*
X185987142Y-121127419D01*
X185987142Y-121127419D02*
X186082380Y-121127419D01*
X186082380Y-121127419D02*
X186225237Y-121079800D01*
X186225237Y-121079800D02*
X186320475Y-120984561D01*
X186320475Y-120984561D02*
X186368094Y-120889323D01*
X186368094Y-120889323D02*
X186415713Y-120698847D01*
X186415713Y-120698847D02*
X186415713Y-120555990D01*
X186415713Y-120555990D02*
X186368094Y-120365514D01*
X186368094Y-120365514D02*
X186320475Y-120270276D01*
X186320475Y-120270276D02*
X186225237Y-120175038D01*
X186225237Y-120175038D02*
X186082380Y-120127419D01*
X186082380Y-120127419D02*
X185987142Y-120127419D01*
X185987142Y-120127419D02*
X185844285Y-120175038D01*
X185844285Y-120175038D02*
X185796666Y-120222657D01*
X184796666Y-121127419D02*
X185129999Y-120651228D01*
X185368094Y-121127419D02*
X185368094Y-120127419D01*
X185368094Y-120127419D02*
X184987142Y-120127419D01*
X184987142Y-120127419D02*
X184891904Y-120175038D01*
X184891904Y-120175038D02*
X184844285Y-120222657D01*
X184844285Y-120222657D02*
X184796666Y-120317895D01*
X184796666Y-120317895D02*
X184796666Y-120460752D01*
X184796666Y-120460752D02*
X184844285Y-120555990D01*
X184844285Y-120555990D02*
X184891904Y-120603609D01*
X184891904Y-120603609D02*
X184987142Y-120651228D01*
X184987142Y-120651228D02*
X185368094Y-120651228D01*
X184415713Y-120222657D02*
X184368094Y-120175038D01*
X184368094Y-120175038D02*
X184272856Y-120127419D01*
X184272856Y-120127419D02*
X184034761Y-120127419D01*
X184034761Y-120127419D02*
X183939523Y-120175038D01*
X183939523Y-120175038D02*
X183891904Y-120222657D01*
X183891904Y-120222657D02*
X183844285Y-120317895D01*
X183844285Y-120317895D02*
X183844285Y-120413133D01*
X183844285Y-120413133D02*
X183891904Y-120555990D01*
X183891904Y-120555990D02*
X184463332Y-121127419D01*
X184463332Y-121127419D02*
X183844285Y-121127419D01*
%TO.C,CR1*%
X145775000Y-108655000D02*
X145775000Y-103155000D01*
X150775000Y-108655000D02*
X145775000Y-108655000D01*
X150775000Y-108655000D02*
X155775000Y-108655000D01*
X155775000Y-108655000D02*
X155775000Y-103155000D01*
X164275000Y-90655000D02*
G75*
G02*
X137275000Y-90655000I-13500000J0D01*
G01*
X137275000Y-90655000D02*
G75*
G02*
X164275000Y-90655000I13500000J0D01*
G01*
D12*
%TO.C,LV-01*%
G36*
X170928953Y-78985000D02*
G01*
X170928953Y-80312500D01*
X170681405Y-80312500D01*
X170433856Y-80312500D01*
X170433856Y-78985000D01*
X170433856Y-77657500D01*
X170681405Y-77657500D01*
X170928953Y-77657500D01*
X170928953Y-78985000D01*
G37*
G36*
X171814128Y-79117500D02*
G01*
X171814128Y-80312500D01*
X171566579Y-80312500D01*
X171319030Y-80312500D01*
X171319030Y-79117500D01*
X171319030Y-77922500D01*
X171566579Y-77922500D01*
X171814128Y-77922500D01*
X171814128Y-79117500D01*
G37*
G36*
X172453003Y-78443703D02*
G01*
X172701802Y-78445000D01*
X172703066Y-79378750D01*
X172704329Y-80312500D01*
X172454267Y-80312500D01*
X172204204Y-80312500D01*
X172204204Y-79377453D01*
X172204204Y-78442406D01*
X172453003Y-78443703D01*
G37*
G36*
X165309097Y-78417514D02*
G01*
X165348805Y-78418933D01*
X165407899Y-78425583D01*
X165466646Y-78437094D01*
X165521976Y-78452823D01*
X165570817Y-78472131D01*
X165621670Y-78499162D01*
X165668237Y-78531358D01*
X165713217Y-78570806D01*
X165751014Y-78607365D01*
X165794483Y-78591712D01*
X165837951Y-78576058D01*
X165837951Y-78509279D01*
X165837951Y-78442500D01*
X166080499Y-78442500D01*
X166323047Y-78442500D01*
X166323047Y-79377500D01*
X166323047Y-80312500D01*
X166072997Y-80312500D01*
X165822948Y-80312500D01*
X165822948Y-79642500D01*
X165822948Y-78972500D01*
X165547894Y-78972500D01*
X165272840Y-78972500D01*
X165272840Y-78695000D01*
X165272840Y-78417500D01*
X165309097Y-78417514D01*
G37*
G36*
X170053781Y-79117500D02*
G01*
X170053781Y-80312500D01*
X169803732Y-80312500D01*
X169553683Y-80312500D01*
X169553683Y-79577500D01*
X169553683Y-78842500D01*
X169303633Y-78842500D01*
X169053584Y-78842500D01*
X169053584Y-79577500D01*
X169053584Y-80312500D01*
X168803535Y-80312500D01*
X168553486Y-80312500D01*
X168553515Y-79596250D01*
X168553518Y-79538994D01*
X168553528Y-79442366D01*
X168553559Y-79354926D01*
X168553627Y-79276152D01*
X168553746Y-79205520D01*
X168553933Y-79142507D01*
X168554202Y-79086589D01*
X168554569Y-79037244D01*
X168555049Y-78993947D01*
X168555659Y-78956176D01*
X168556412Y-78923407D01*
X168557325Y-78895117D01*
X168558413Y-78870783D01*
X168559691Y-78849880D01*
X168561175Y-78831887D01*
X168562880Y-78816279D01*
X168564822Y-78802533D01*
X168567015Y-78790126D01*
X168569476Y-78778535D01*
X168572220Y-78767236D01*
X168575262Y-78755706D01*
X168578618Y-78743421D01*
X168583727Y-78725942D01*
X168607869Y-78663353D01*
X168639226Y-78607280D01*
X168677510Y-78558053D01*
X168722433Y-78516003D01*
X168773706Y-78481459D01*
X168831040Y-78454752D01*
X168859498Y-78444822D01*
X168897685Y-78434294D01*
X168937623Y-78426811D01*
X168982020Y-78421894D01*
X169033580Y-78419066D01*
X169047801Y-78418666D01*
X169128010Y-78420282D01*
X169201599Y-78428860D01*
X169269219Y-78444590D01*
X169331526Y-78467658D01*
X169389173Y-78498253D01*
X169442814Y-78536562D01*
X169470007Y-78558706D01*
X169511845Y-78541939D01*
X169553683Y-78525172D01*
X169553683Y-78223836D01*
X169553683Y-77922500D01*
X169803732Y-77922500D01*
X170053781Y-77922500D01*
X170053781Y-79117500D01*
G37*
G36*
X165045286Y-79456878D02*
G01*
X165045250Y-79530439D01*
X165045177Y-79595263D01*
X165045057Y-79651985D01*
X165044880Y-79701239D01*
X165044634Y-79743662D01*
X165044310Y-79779889D01*
X165043896Y-79810553D01*
X165043384Y-79836292D01*
X165042761Y-79857739D01*
X165042018Y-79875531D01*
X165041143Y-79890302D01*
X165040128Y-79902687D01*
X165038961Y-79913321D01*
X165037631Y-79922841D01*
X165036129Y-79931880D01*
X165026039Y-79979425D01*
X165004519Y-80047941D01*
X164976017Y-80109300D01*
X164940552Y-80163483D01*
X164898145Y-80210473D01*
X164848815Y-80250253D01*
X164792583Y-80282805D01*
X164729467Y-80308111D01*
X164659487Y-80326154D01*
X164582665Y-80336915D01*
X164563732Y-80338542D01*
X164535076Y-80340611D01*
X164511312Y-80341523D01*
X164489185Y-80341289D01*
X164465437Y-80339921D01*
X164436812Y-80337431D01*
X164411863Y-80334593D01*
X164338338Y-80320375D01*
X164269465Y-80298006D01*
X164205949Y-80267752D01*
X164148499Y-80229875D01*
X164111872Y-80201754D01*
X164072299Y-80218377D01*
X164032726Y-80235000D01*
X164032661Y-80273750D01*
X164032596Y-80312500D01*
X163782546Y-80312500D01*
X163532497Y-80312500D01*
X163532497Y-79117500D01*
X163532497Y-78842500D01*
X164032596Y-78842500D01*
X164032596Y-79377500D01*
X164032596Y-79912500D01*
X164290146Y-79912500D01*
X164547697Y-79912500D01*
X164547697Y-79377500D01*
X164547697Y-78842500D01*
X164290146Y-78842500D01*
X164032596Y-78842500D01*
X163532497Y-78842500D01*
X163532497Y-77922500D01*
X163782546Y-77922500D01*
X164032596Y-77922500D01*
X164032596Y-78221589D01*
X164032596Y-78520678D01*
X164072541Y-78537166D01*
X164112485Y-78553655D01*
X164148806Y-78526022D01*
X164178592Y-78504839D01*
X164234692Y-78472583D01*
X164294305Y-78448038D01*
X164358464Y-78430889D01*
X164428200Y-78420821D01*
X164504547Y-78417520D01*
X164540447Y-78418163D01*
X164620535Y-78424870D01*
X164693911Y-78438835D01*
X164760519Y-78460024D01*
X164820300Y-78488399D01*
X164873197Y-78523925D01*
X164919153Y-78566567D01*
X164958111Y-78616287D01*
X164990013Y-78673050D01*
X165014801Y-78736821D01*
X165017102Y-78744104D01*
X165021642Y-78758572D01*
X165025668Y-78771998D01*
X165029208Y-78785030D01*
X165032296Y-78798318D01*
X165034961Y-78812511D01*
X165037235Y-78828260D01*
X165039148Y-78846213D01*
X165040732Y-78867021D01*
X165042018Y-78891332D01*
X165043037Y-78919798D01*
X165043820Y-78953066D01*
X165044397Y-78991787D01*
X165044801Y-79036610D01*
X165045062Y-79088186D01*
X165045210Y-79147163D01*
X165045278Y-79214191D01*
X165045296Y-79289920D01*
X165045295Y-79375000D01*
X165045295Y-79377500D01*
X165045286Y-79456878D01*
G37*
G36*
X174744704Y-79117328D02*
G01*
X174744704Y-79912500D01*
X174744704Y-80312500D01*
X174195846Y-80312448D01*
X174109792Y-80312394D01*
X174025765Y-80312244D01*
X173947551Y-80312001D01*
X173875617Y-80311671D01*
X173810427Y-80311257D01*
X173752446Y-80310762D01*
X173702141Y-80310192D01*
X173659976Y-80309549D01*
X173626416Y-80308839D01*
X173601928Y-80308064D01*
X173586976Y-80307230D01*
X173573082Y-80305935D01*
X173491967Y-80294027D01*
X173418182Y-80275322D01*
X173351731Y-80249822D01*
X173292616Y-80217532D01*
X173240841Y-80178453D01*
X173196410Y-80132590D01*
X173159326Y-80079944D01*
X173129593Y-80020520D01*
X173107214Y-79954319D01*
X173092194Y-79881346D01*
X173091525Y-79876444D01*
X173089121Y-79851092D01*
X173087184Y-79818135D01*
X173085724Y-79779485D01*
X173084755Y-79737052D01*
X173084288Y-79692746D01*
X173084334Y-79648479D01*
X173084906Y-79606160D01*
X173086015Y-79567700D01*
X173087674Y-79535010D01*
X173089893Y-79510000D01*
X173100277Y-79448010D01*
X173118968Y-79381046D01*
X173144518Y-79320893D01*
X173176801Y-79267754D01*
X173181322Y-79262415D01*
X173639487Y-79262415D01*
X173639487Y-79587457D01*
X173639487Y-79912500D01*
X173917078Y-79912500D01*
X174194669Y-79912500D01*
X174193382Y-79588750D01*
X174192096Y-79265000D01*
X173915791Y-79263707D01*
X173639487Y-79262415D01*
X173181322Y-79262415D01*
X173215691Y-79221832D01*
X173261059Y-79183329D01*
X173312781Y-79152450D01*
X173344429Y-79136873D01*
X173344429Y-79098259D01*
X173344429Y-79059646D01*
X173313173Y-79044170D01*
X173269087Y-79018545D01*
X173222466Y-78981046D01*
X173182442Y-78936140D01*
X173149094Y-78883954D01*
X173122501Y-78824616D01*
X173102743Y-78758255D01*
X173089900Y-78685000D01*
X173089312Y-78679817D01*
X173087061Y-78651092D01*
X173085488Y-78615406D01*
X173084576Y-78574879D01*
X173084311Y-78531629D01*
X173084680Y-78487773D01*
X173085667Y-78445429D01*
X173087258Y-78406716D01*
X173089438Y-78373751D01*
X173092194Y-78348653D01*
X173096870Y-78322500D01*
X173639487Y-78322500D01*
X173639487Y-78627500D01*
X173639487Y-78932500D01*
X173917041Y-78932500D01*
X174194596Y-78932500D01*
X174194596Y-78627500D01*
X174194596Y-78322500D01*
X173917041Y-78322500D01*
X173639487Y-78322500D01*
X173096870Y-78322500D01*
X173098841Y-78311477D01*
X173116954Y-78244771D01*
X173141963Y-78183603D01*
X173173487Y-78128698D01*
X173211143Y-78080781D01*
X173254550Y-78040576D01*
X173300797Y-78008703D01*
X173357329Y-77979315D01*
X173420833Y-77955370D01*
X173492261Y-77936453D01*
X173498345Y-77935140D01*
X173505761Y-77933648D01*
X173513476Y-77932317D01*
X173522061Y-77931136D01*
X173532086Y-77930093D01*
X173544123Y-77929177D01*
X173558742Y-77928379D01*
X173576515Y-77927686D01*
X173598010Y-77927087D01*
X173623801Y-77926572D01*
X173654456Y-77926129D01*
X173690547Y-77925748D01*
X173732645Y-77925417D01*
X173781321Y-77925126D01*
X173837145Y-77924863D01*
X173900687Y-77924617D01*
X173972519Y-77924378D01*
X174053212Y-77924133D01*
X174143336Y-77923873D01*
X174744704Y-77922156D01*
X174744704Y-78627500D01*
X174744704Y-79117328D01*
G37*
G36*
X168201350Y-79760920D02*
G01*
X168200886Y-79804746D01*
X168200365Y-79841074D01*
X168199745Y-79870879D01*
X168198984Y-79895136D01*
X168198042Y-79914821D01*
X168196876Y-79930909D01*
X168195446Y-79944376D01*
X168193709Y-79956196D01*
X168191625Y-79967346D01*
X168189152Y-79978801D01*
X168185257Y-79995325D01*
X168165126Y-80062273D01*
X168139791Y-80120931D01*
X168109068Y-80171613D01*
X168072777Y-80214629D01*
X168030735Y-80250291D01*
X168006558Y-80266415D01*
X167956568Y-80293094D01*
X167902129Y-80313519D01*
X167841797Y-80328180D01*
X167774124Y-80337569D01*
X167762670Y-80338499D01*
X167725907Y-80339868D01*
X167685018Y-80339522D01*
X167643517Y-80337599D01*
X167604920Y-80334239D01*
X167572742Y-80329581D01*
X167551466Y-80325113D01*
X167484695Y-80305034D01*
X167422332Y-80276869D01*
X167365461Y-80241172D01*
X167315166Y-80198492D01*
X167289586Y-80173273D01*
X167246403Y-80188959D01*
X167203220Y-80204644D01*
X167203220Y-80258572D01*
X167203220Y-80312500D01*
X166953171Y-80312500D01*
X166703121Y-80312500D01*
X166703121Y-79685156D01*
X167203220Y-79685156D01*
X167203220Y-79912500D01*
X167455770Y-79912500D01*
X167708319Y-79912500D01*
X167708319Y-79755000D01*
X167708301Y-79734562D01*
X167708172Y-79697651D01*
X167707931Y-79664777D01*
X167707596Y-79637132D01*
X167707181Y-79615909D01*
X167706705Y-79602301D01*
X167706182Y-79597500D01*
X167705524Y-79597356D01*
X167697530Y-79595249D01*
X167681369Y-79590867D01*
X167658143Y-79584516D01*
X167628958Y-79576502D01*
X167594916Y-79567130D01*
X167557123Y-79556706D01*
X167516681Y-79545535D01*
X167474695Y-79533923D01*
X167432268Y-79522175D01*
X167390505Y-79510597D01*
X167350509Y-79499496D01*
X167313385Y-79489175D01*
X167280236Y-79479942D01*
X167252166Y-79472101D01*
X167230280Y-79465958D01*
X167215680Y-79461820D01*
X167209471Y-79459990D01*
X167208059Y-79461102D01*
X167206765Y-79466492D01*
X167205706Y-79476930D01*
X167204865Y-79493121D01*
X167204220Y-79515774D01*
X167203753Y-79545597D01*
X167203444Y-79583297D01*
X167203273Y-79629581D01*
X167203220Y-79685156D01*
X166703121Y-79685156D01*
X166703121Y-79647302D01*
X166703133Y-79588747D01*
X166703219Y-79485409D01*
X166703387Y-79390292D01*
X166703635Y-79303574D01*
X166703962Y-79225434D01*
X166704367Y-79156049D01*
X166704849Y-79095597D01*
X166705406Y-79044256D01*
X166706037Y-79002202D01*
X166706740Y-78969616D01*
X166707515Y-78946673D01*
X166708360Y-78933552D01*
X166718636Y-78865182D01*
X166736607Y-78793835D01*
X166761175Y-78729489D01*
X166792224Y-78672500D01*
X166817608Y-78636732D01*
X166859853Y-78589680D01*
X166908570Y-78548543D01*
X166964028Y-78513217D01*
X167026494Y-78483602D01*
X167096233Y-78459592D01*
X167173514Y-78441086D01*
X167258602Y-78427980D01*
X167351765Y-78420171D01*
X167453269Y-78417557D01*
X167515950Y-78418393D01*
X167610227Y-78423458D01*
X167696262Y-78433223D01*
X167774485Y-78447814D01*
X167845322Y-78467358D01*
X167909203Y-78491981D01*
X167966556Y-78521810D01*
X168017809Y-78556970D01*
X168063389Y-78597589D01*
X168084245Y-78620243D01*
X168121141Y-78670292D01*
X168151069Y-78726303D01*
X168174145Y-78788622D01*
X168190484Y-78857595D01*
X168200203Y-78933570D01*
X168203417Y-79016891D01*
X168203417Y-79097500D01*
X167955954Y-79097500D01*
X167708491Y-79097500D01*
X167707155Y-78971250D01*
X167705819Y-78845000D01*
X167454449Y-78843703D01*
X167203079Y-78842407D01*
X167204400Y-79001010D01*
X167205720Y-79159613D01*
X167704860Y-79289806D01*
X168203999Y-79420000D01*
X168202059Y-79675000D01*
X168201798Y-79708619D01*
X168201401Y-79755000D01*
X168201350Y-79760920D01*
G37*
D11*
%TO.C,CR2*%
X168500000Y-90000000D02*
X168500000Y-95500000D01*
X173500000Y-90000000D02*
X168500000Y-90000000D01*
X173500000Y-90000000D02*
X178500000Y-90000000D01*
X178500000Y-90000000D02*
X178500000Y-95500000D01*
X187000000Y-108000000D02*
G75*
G02*
X160000000Y-108000000I-13500000J0D01*
G01*
X160000000Y-108000000D02*
G75*
G02*
X187000000Y-108000000I13500000J0D01*
G01*
%TD*%
%LPC*%
D13*
%TO.C,SW4*%
X139575000Y-110320000D03*
X139575000Y-90000000D03*
%TD*%
D14*
%TO.C,R13*%
X139600000Y-114961800D03*
D15*
X139600000Y-116638200D03*
%TD*%
D16*
%TO.C,R16*%
X187290000Y-96280000D03*
X182210000Y-96280000D03*
%TD*%
D17*
%TO.C,J1*%
X171970000Y-81515000D03*
D18*
X169470000Y-81515000D03*
X169470000Y-84715000D03*
X171970000Y-84715000D03*
D19*
X164700000Y-84225000D03*
X176740000Y-84225000D03*
%TD*%
D20*
%TO.C,J2*%
X145125000Y-124450000D03*
D13*
X150125000Y-124450000D03*
X155125000Y-124450000D03*
X160125000Y-124450000D03*
X165125000Y-124450000D03*
X170125000Y-124450000D03*
X175125000Y-124450000D03*
X180125000Y-124450000D03*
%TD*%
D16*
%TO.C,R15*%
X182170000Y-100150000D03*
X187250000Y-100150000D03*
%TD*%
D21*
%TO.C,SW2*%
X186625000Y-107500000D03*
X186625000Y-104500000D03*
%TD*%
D22*
%TO.C,CR1*%
X150775000Y-86925000D03*
X150775000Y-106595000D03*
%TD*%
%TO.C,CR2*%
X173500000Y-111730000D03*
X173500000Y-92060000D03*
%TD*%
%LPD*%
M02*
