%TF.GenerationSoftware,KiCad,Pcbnew,9.0.5*%
%TF.CreationDate,2025-12-19T23:17:11-03:00*%
%TF.ProjectId,BillCold_V0.01,42696c6c-436f-46c6-945f-56302e30312e,rev?*%
%TF.SameCoordinates,Original*%
%TF.FileFunction,Legend,Top*%
%TF.FilePolarity,Positive*%
%FSLAX46Y46*%
G04 Gerber Fmt 4.6, Leading zero omitted, Abs format (unit mm)*
G04 Created by KiCad (PCBNEW 9.0.5) date 2025-12-19 23:17:11*
%MOMM*%
%LPD*%
G01*
G04 APERTURE LIST*
G04 Aperture macros list*
%AMRoundRect*
0 Rectangle with rounded corners*
0 $1 Rounding radius*
0 $2 $3 $4 $5 $6 $7 $8 $9 X,Y pos of 4 corners*
0 Add a 4 corners polygon primitive as box body*
4,1,4,$2,$3,$4,$5,$6,$7,$8,$9,$2,$3,0*
0 Add four circle primitives for the rounded corners*
1,1,$1+$1,$2,$3*
1,1,$1+$1,$4,$5*
1,1,$1+$1,$6,$7*
1,1,$1+$1,$8,$9*
0 Add four rect primitives between the rounded corners*
20,1,$1+$1,$2,$3,$4,$5,0*
20,1,$1+$1,$4,$5,$6,$7,0*
20,1,$1+$1,$6,$7,$8,$9,0*
20,1,$1+$1,$8,$9,$2,$3,0*%
G04 Aperture macros list end*
%ADD10C,0.100000*%
%ADD11C,0.150000*%
%ADD12C,0.120000*%
%ADD13C,0.000000*%
%ADD14C,0.127000*%
%ADD15C,0.152400*%
%ADD16C,0.010000*%
%ADD17C,0.203200*%
%ADD18C,0.200000*%
%ADD19RoundRect,0.250000X0.325000X0.650000X-0.325000X0.650000X-0.325000X-0.650000X0.325000X-0.650000X0*%
%ADD20RoundRect,0.250000X0.312500X0.625000X-0.312500X0.625000X-0.312500X-0.625000X0.312500X-0.625000X0*%
%ADD21RoundRect,0.250000X-0.325000X-0.650000X0.325000X-0.650000X0.325000X0.650000X-0.325000X0.650000X0*%
%ADD22RoundRect,0.250000X-0.312500X-0.625000X0.312500X-0.625000X0.312500X0.625000X-0.312500X0.625000X0*%
%ADD23R,1.600000X0.850000*%
%ADD24RoundRect,0.250000X-0.375000X-0.625000X0.375000X-0.625000X0.375000X0.625000X-0.375000X0.625000X0*%
%ADD25RoundRect,0.102000X0.250000X0.250000X-0.250000X0.250000X-0.250000X-0.250000X0.250000X-0.250000X0*%
%ADD26RoundRect,0.050000X-0.350000X-0.050000X0.350000X-0.050000X0.350000X0.050000X-0.350000X0.050000X0*%
%ADD27RoundRect,0.050000X-0.050000X-0.350000X0.050000X-0.350000X0.050000X0.350000X-0.050000X0.350000X0*%
%ADD28R,4.000000X4.000000*%
%ADD29RoundRect,0.102000X-0.558800X-0.558800X0.558800X-0.558800X0.558800X0.558800X-0.558800X0.558800X0*%
%ADD30C,1.321600*%
%ADD31C,1.400000*%
%ADD32RoundRect,0.218750X0.381250X-0.218750X0.381250X0.218750X-0.381250X0.218750X-0.381250X-0.218750X0*%
%ADD33RoundRect,0.102000X-0.250000X-0.250000X0.250000X-0.250000X0.250000X0.250000X-0.250000X0.250000X0*%
%ADD34RoundRect,0.102000X-0.700000X-0.575000X0.700000X-0.575000X0.700000X0.575000X-0.700000X0.575000X0*%
%ADD35RoundRect,0.250000X-0.625000X0.312500X-0.625000X-0.312500X0.625000X-0.312500X0.625000X0.312500X0*%
%ADD36R,1.428000X1.428000*%
%ADD37C,1.428000*%
%ADD38C,3.316000*%
%ADD39RoundRect,0.054880X-0.852120X-0.337120X0.852120X-0.337120X0.852120X0.337120X-0.852120X0.337120X0*%
%ADD40R,0.900000X1.524000*%
%ADD41R,0.500000X1.320000*%
%ADD42RoundRect,0.375000X0.375000X-0.625000X0.375000X0.625000X-0.375000X0.625000X-0.375000X-0.625000X0*%
%ADD43RoundRect,0.500000X1.400000X-0.500000X1.400000X0.500000X-1.400000X0.500000X-1.400000X-0.500000X0*%
%ADD44C,2.500000*%
G04 APERTURE END LIST*
D10*
X168237217Y-127096895D02*
X168403884Y-127896895D01*
X168403884Y-127896895D02*
X168770550Y-127096895D01*
X169246741Y-127858800D02*
X169165788Y-127896895D01*
X169165788Y-127896895D02*
X169013407Y-127896895D01*
X169013407Y-127896895D02*
X168941979Y-127858800D01*
X168941979Y-127858800D02*
X168913407Y-127782609D01*
X168913407Y-127782609D02*
X168951503Y-127477847D01*
X168951503Y-127477847D02*
X168999122Y-127401657D01*
X168999122Y-127401657D02*
X169080074Y-127363561D01*
X169080074Y-127363561D02*
X169232455Y-127363561D01*
X169232455Y-127363561D02*
X169303883Y-127401657D01*
X169303883Y-127401657D02*
X169332455Y-127477847D01*
X169332455Y-127477847D02*
X169322931Y-127554038D01*
X169322931Y-127554038D02*
X168932455Y-127630228D01*
X169622931Y-127896895D02*
X169689597Y-127363561D01*
X169670550Y-127515942D02*
X169718169Y-127439752D01*
X169718169Y-127439752D02*
X169761026Y-127401657D01*
X169761026Y-127401657D02*
X169841978Y-127363561D01*
X169841978Y-127363561D02*
X169918169Y-127363561D01*
X170084835Y-127858800D02*
X170156264Y-127896895D01*
X170156264Y-127896895D02*
X170308645Y-127896895D01*
X170308645Y-127896895D02*
X170389597Y-127858800D01*
X170389597Y-127858800D02*
X170437216Y-127782609D01*
X170437216Y-127782609D02*
X170441978Y-127744514D01*
X170441978Y-127744514D02*
X170413407Y-127668323D01*
X170413407Y-127668323D02*
X170341978Y-127630228D01*
X170341978Y-127630228D02*
X170227693Y-127630228D01*
X170227693Y-127630228D02*
X170156264Y-127592133D01*
X170156264Y-127592133D02*
X170127693Y-127515942D01*
X170127693Y-127515942D02*
X170132455Y-127477847D01*
X170132455Y-127477847D02*
X170180074Y-127401657D01*
X170180074Y-127401657D02*
X170261026Y-127363561D01*
X170261026Y-127363561D02*
X170375312Y-127363561D01*
X170375312Y-127363561D02*
X170446740Y-127401657D01*
X171108645Y-127896895D02*
X171161026Y-127477847D01*
X171161026Y-127477847D02*
X171132454Y-127401657D01*
X171132454Y-127401657D02*
X171061026Y-127363561D01*
X171061026Y-127363561D02*
X170908645Y-127363561D01*
X170908645Y-127363561D02*
X170827693Y-127401657D01*
X171113407Y-127858800D02*
X171032454Y-127896895D01*
X171032454Y-127896895D02*
X170841978Y-127896895D01*
X170841978Y-127896895D02*
X170770550Y-127858800D01*
X170770550Y-127858800D02*
X170741978Y-127782609D01*
X170741978Y-127782609D02*
X170751502Y-127706419D01*
X170751502Y-127706419D02*
X170799121Y-127630228D01*
X170799121Y-127630228D02*
X170880074Y-127592133D01*
X170880074Y-127592133D02*
X171070550Y-127592133D01*
X171070550Y-127592133D02*
X171151502Y-127554038D01*
X170818169Y-127173085D02*
X170861026Y-127134990D01*
X170861026Y-127134990D02*
X170941978Y-127096895D01*
X170941978Y-127096895D02*
X171084835Y-127173085D01*
X171084835Y-127173085D02*
X171165788Y-127134990D01*
X171165788Y-127134990D02*
X171208645Y-127096895D01*
X171603884Y-127896895D02*
X171532455Y-127858800D01*
X171532455Y-127858800D02*
X171499122Y-127820704D01*
X171499122Y-127820704D02*
X171470550Y-127744514D01*
X171470550Y-127744514D02*
X171499122Y-127515942D01*
X171499122Y-127515942D02*
X171546741Y-127439752D01*
X171546741Y-127439752D02*
X171589598Y-127401657D01*
X171589598Y-127401657D02*
X171670550Y-127363561D01*
X171670550Y-127363561D02*
X171784836Y-127363561D01*
X171784836Y-127363561D02*
X171856264Y-127401657D01*
X171856264Y-127401657D02*
X171889598Y-127439752D01*
X171889598Y-127439752D02*
X171918169Y-127515942D01*
X171918169Y-127515942D02*
X171889598Y-127744514D01*
X171889598Y-127744514D02*
X171841979Y-127820704D01*
X171841979Y-127820704D02*
X171799122Y-127858800D01*
X171799122Y-127858800D02*
X171718169Y-127896895D01*
X171718169Y-127896895D02*
X171603884Y-127896895D01*
X173165789Y-127896895D02*
X173265789Y-127096895D01*
X173170551Y-127858800D02*
X173089598Y-127896895D01*
X173089598Y-127896895D02*
X172937218Y-127896895D01*
X172937218Y-127896895D02*
X172865789Y-127858800D01*
X172865789Y-127858800D02*
X172832456Y-127820704D01*
X172832456Y-127820704D02*
X172803884Y-127744514D01*
X172803884Y-127744514D02*
X172832456Y-127515942D01*
X172832456Y-127515942D02*
X172880075Y-127439752D01*
X172880075Y-127439752D02*
X172922932Y-127401657D01*
X172922932Y-127401657D02*
X173003884Y-127363561D01*
X173003884Y-127363561D02*
X173156265Y-127363561D01*
X173156265Y-127363561D02*
X173227694Y-127401657D01*
X173661028Y-127896895D02*
X173589599Y-127858800D01*
X173589599Y-127858800D02*
X173556266Y-127820704D01*
X173556266Y-127820704D02*
X173527694Y-127744514D01*
X173527694Y-127744514D02*
X173556266Y-127515942D01*
X173556266Y-127515942D02*
X173603885Y-127439752D01*
X173603885Y-127439752D02*
X173646742Y-127401657D01*
X173646742Y-127401657D02*
X173727694Y-127363561D01*
X173727694Y-127363561D02*
X173841980Y-127363561D01*
X173841980Y-127363561D02*
X173913408Y-127401657D01*
X173913408Y-127401657D02*
X173946742Y-127439752D01*
X173946742Y-127439752D02*
X173975313Y-127515942D01*
X173975313Y-127515942D02*
X173946742Y-127744514D01*
X173946742Y-127744514D02*
X173899123Y-127820704D01*
X173899123Y-127820704D02*
X173856266Y-127858800D01*
X173856266Y-127858800D02*
X173775313Y-127896895D01*
X173775313Y-127896895D02*
X173661028Y-127896895D01*
X174880076Y-127896895D02*
X174980076Y-127096895D01*
X175222933Y-127896895D02*
X175275314Y-127477847D01*
X175275314Y-127477847D02*
X175246742Y-127401657D01*
X175246742Y-127401657D02*
X175175314Y-127363561D01*
X175175314Y-127363561D02*
X175061028Y-127363561D01*
X175061028Y-127363561D02*
X174980076Y-127401657D01*
X174980076Y-127401657D02*
X174937219Y-127439752D01*
X175946743Y-127896895D02*
X175999124Y-127477847D01*
X175999124Y-127477847D02*
X175970552Y-127401657D01*
X175970552Y-127401657D02*
X175899124Y-127363561D01*
X175899124Y-127363561D02*
X175746743Y-127363561D01*
X175746743Y-127363561D02*
X175665791Y-127401657D01*
X175951505Y-127858800D02*
X175870552Y-127896895D01*
X175870552Y-127896895D02*
X175680076Y-127896895D01*
X175680076Y-127896895D02*
X175608648Y-127858800D01*
X175608648Y-127858800D02*
X175580076Y-127782609D01*
X175580076Y-127782609D02*
X175589600Y-127706419D01*
X175589600Y-127706419D02*
X175637219Y-127630228D01*
X175637219Y-127630228D02*
X175718172Y-127592133D01*
X175718172Y-127592133D02*
X175908648Y-127592133D01*
X175908648Y-127592133D02*
X175989600Y-127554038D01*
X176327696Y-127896895D02*
X176394362Y-127363561D01*
X176375315Y-127515942D02*
X176422934Y-127439752D01*
X176422934Y-127439752D02*
X176465791Y-127401657D01*
X176465791Y-127401657D02*
X176546743Y-127363561D01*
X176546743Y-127363561D02*
X176622934Y-127363561D01*
X177165791Y-127896895D02*
X177265791Y-127096895D01*
X177170553Y-127858800D02*
X177089600Y-127896895D01*
X177089600Y-127896895D02*
X176937220Y-127896895D01*
X176937220Y-127896895D02*
X176865791Y-127858800D01*
X176865791Y-127858800D02*
X176832458Y-127820704D01*
X176832458Y-127820704D02*
X176803886Y-127744514D01*
X176803886Y-127744514D02*
X176832458Y-127515942D01*
X176832458Y-127515942D02*
X176880077Y-127439752D01*
X176880077Y-127439752D02*
X176922934Y-127401657D01*
X176922934Y-127401657D02*
X177003886Y-127363561D01*
X177003886Y-127363561D02*
X177156267Y-127363561D01*
X177156267Y-127363561D02*
X177227696Y-127401657D01*
X177537220Y-127363561D02*
X177622934Y-127896895D01*
X177622934Y-127896895D02*
X177822934Y-127515942D01*
X177822934Y-127515942D02*
X177927696Y-127896895D01*
X177927696Y-127896895D02*
X178146744Y-127363561D01*
X178727696Y-127896895D02*
X178780077Y-127477847D01*
X178780077Y-127477847D02*
X178751505Y-127401657D01*
X178751505Y-127401657D02*
X178680077Y-127363561D01*
X178680077Y-127363561D02*
X178527696Y-127363561D01*
X178527696Y-127363561D02*
X178446744Y-127401657D01*
X178732458Y-127858800D02*
X178651505Y-127896895D01*
X178651505Y-127896895D02*
X178461029Y-127896895D01*
X178461029Y-127896895D02*
X178389601Y-127858800D01*
X178389601Y-127858800D02*
X178361029Y-127782609D01*
X178361029Y-127782609D02*
X178370553Y-127706419D01*
X178370553Y-127706419D02*
X178418172Y-127630228D01*
X178418172Y-127630228D02*
X178499125Y-127592133D01*
X178499125Y-127592133D02*
X178689601Y-127592133D01*
X178689601Y-127592133D02*
X178770553Y-127554038D01*
X179108649Y-127896895D02*
X179175315Y-127363561D01*
X179156268Y-127515942D02*
X179203887Y-127439752D01*
X179203887Y-127439752D02*
X179246744Y-127401657D01*
X179246744Y-127401657D02*
X179327696Y-127363561D01*
X179327696Y-127363561D02*
X179403887Y-127363561D01*
X179913411Y-127858800D02*
X179832458Y-127896895D01*
X179832458Y-127896895D02*
X179680077Y-127896895D01*
X179680077Y-127896895D02*
X179608649Y-127858800D01*
X179608649Y-127858800D02*
X179580077Y-127782609D01*
X179580077Y-127782609D02*
X179618173Y-127477847D01*
X179618173Y-127477847D02*
X179665792Y-127401657D01*
X179665792Y-127401657D02*
X179746744Y-127363561D01*
X179746744Y-127363561D02*
X179899125Y-127363561D01*
X179899125Y-127363561D02*
X179970553Y-127401657D01*
X179970553Y-127401657D02*
X179999125Y-127477847D01*
X179999125Y-127477847D02*
X179989601Y-127554038D01*
X179989601Y-127554038D02*
X179599125Y-127630228D01*
X180299125Y-127820704D02*
X180332458Y-127858800D01*
X180332458Y-127858800D02*
X180289601Y-127896895D01*
X180289601Y-127896895D02*
X180256267Y-127858800D01*
X180256267Y-127858800D02*
X180299125Y-127820704D01*
X180299125Y-127820704D02*
X180289601Y-127896895D01*
X180351506Y-127401657D02*
X180384839Y-127439752D01*
X180384839Y-127439752D02*
X180341982Y-127477847D01*
X180341982Y-127477847D02*
X180308648Y-127439752D01*
X180308648Y-127439752D02*
X180351506Y-127401657D01*
X180351506Y-127401657D02*
X180341982Y-127477847D01*
X181699124Y-127896895D02*
X181241982Y-127896895D01*
X181470553Y-127896895D02*
X181570553Y-127096895D01*
X181570553Y-127096895D02*
X181480077Y-127211180D01*
X181480077Y-127211180D02*
X181394363Y-127287371D01*
X181394363Y-127287371D02*
X181313410Y-127325466D01*
X182051506Y-127820704D02*
X182084839Y-127858800D01*
X182084839Y-127858800D02*
X182041982Y-127896895D01*
X182041982Y-127896895D02*
X182008648Y-127858800D01*
X182008648Y-127858800D02*
X182051506Y-127820704D01*
X182051506Y-127820704D02*
X182041982Y-127896895D01*
X182675315Y-127096895D02*
X182751505Y-127096895D01*
X182751505Y-127096895D02*
X182822934Y-127134990D01*
X182822934Y-127134990D02*
X182856267Y-127173085D01*
X182856267Y-127173085D02*
X182884839Y-127249276D01*
X182884839Y-127249276D02*
X182903886Y-127401657D01*
X182903886Y-127401657D02*
X182880077Y-127592133D01*
X182880077Y-127592133D02*
X182822934Y-127744514D01*
X182822934Y-127744514D02*
X182775315Y-127820704D01*
X182775315Y-127820704D02*
X182732458Y-127858800D01*
X182732458Y-127858800D02*
X182651505Y-127896895D01*
X182651505Y-127896895D02*
X182575315Y-127896895D01*
X182575315Y-127896895D02*
X182503886Y-127858800D01*
X182503886Y-127858800D02*
X182470553Y-127820704D01*
X182470553Y-127820704D02*
X182441981Y-127744514D01*
X182441981Y-127744514D02*
X182422934Y-127592133D01*
X182422934Y-127592133D02*
X182446743Y-127401657D01*
X182446743Y-127401657D02*
X182503886Y-127249276D01*
X182503886Y-127249276D02*
X182551505Y-127173085D01*
X182551505Y-127173085D02*
X182594362Y-127134990D01*
X182594362Y-127134990D02*
X182675315Y-127096895D01*
D11*
X138944642Y-92459580D02*
X138897023Y-92507200D01*
X138897023Y-92507200D02*
X138754166Y-92554819D01*
X138754166Y-92554819D02*
X138658928Y-92554819D01*
X138658928Y-92554819D02*
X138516071Y-92507200D01*
X138516071Y-92507200D02*
X138420833Y-92411961D01*
X138420833Y-92411961D02*
X138373214Y-92316723D01*
X138373214Y-92316723D02*
X138325595Y-92126247D01*
X138325595Y-92126247D02*
X138325595Y-91983390D01*
X138325595Y-91983390D02*
X138373214Y-91792914D01*
X138373214Y-91792914D02*
X138420833Y-91697676D01*
X138420833Y-91697676D02*
X138516071Y-91602438D01*
X138516071Y-91602438D02*
X138658928Y-91554819D01*
X138658928Y-91554819D02*
X138754166Y-91554819D01*
X138754166Y-91554819D02*
X138897023Y-91602438D01*
X138897023Y-91602438D02*
X138944642Y-91650057D01*
X139897023Y-92554819D02*
X139325595Y-92554819D01*
X139611309Y-92554819D02*
X139611309Y-91554819D01*
X139611309Y-91554819D02*
X139516071Y-91697676D01*
X139516071Y-91697676D02*
X139420833Y-91792914D01*
X139420833Y-91792914D02*
X139325595Y-91840533D01*
X140754166Y-91888152D02*
X140754166Y-92554819D01*
X140516071Y-91507200D02*
X140277976Y-92221485D01*
X140277976Y-92221485D02*
X140897023Y-92221485D01*
X163607142Y-108704819D02*
X163273809Y-108228628D01*
X163035714Y-108704819D02*
X163035714Y-107704819D01*
X163035714Y-107704819D02*
X163416666Y-107704819D01*
X163416666Y-107704819D02*
X163511904Y-107752438D01*
X163511904Y-107752438D02*
X163559523Y-107800057D01*
X163559523Y-107800057D02*
X163607142Y-107895295D01*
X163607142Y-107895295D02*
X163607142Y-108038152D01*
X163607142Y-108038152D02*
X163559523Y-108133390D01*
X163559523Y-108133390D02*
X163511904Y-108181009D01*
X163511904Y-108181009D02*
X163416666Y-108228628D01*
X163416666Y-108228628D02*
X163035714Y-108228628D01*
X164559523Y-108704819D02*
X163988095Y-108704819D01*
X164273809Y-108704819D02*
X164273809Y-107704819D01*
X164273809Y-107704819D02*
X164178571Y-107847676D01*
X164178571Y-107847676D02*
X164083333Y-107942914D01*
X164083333Y-107942914D02*
X163988095Y-107990533D01*
X165178571Y-107704819D02*
X165273809Y-107704819D01*
X165273809Y-107704819D02*
X165369047Y-107752438D01*
X165369047Y-107752438D02*
X165416666Y-107800057D01*
X165416666Y-107800057D02*
X165464285Y-107895295D01*
X165464285Y-107895295D02*
X165511904Y-108085771D01*
X165511904Y-108085771D02*
X165511904Y-108323866D01*
X165511904Y-108323866D02*
X165464285Y-108514342D01*
X165464285Y-108514342D02*
X165416666Y-108609580D01*
X165416666Y-108609580D02*
X165369047Y-108657200D01*
X165369047Y-108657200D02*
X165273809Y-108704819D01*
X165273809Y-108704819D02*
X165178571Y-108704819D01*
X165178571Y-108704819D02*
X165083333Y-108657200D01*
X165083333Y-108657200D02*
X165035714Y-108609580D01*
X165035714Y-108609580D02*
X164988095Y-108514342D01*
X164988095Y-108514342D02*
X164940476Y-108323866D01*
X164940476Y-108323866D02*
X164940476Y-108085771D01*
X164940476Y-108085771D02*
X164988095Y-107895295D01*
X164988095Y-107895295D02*
X165035714Y-107800057D01*
X165035714Y-107800057D02*
X165083333Y-107752438D01*
X165083333Y-107752438D02*
X165178571Y-107704819D01*
X157083333Y-112204819D02*
X156750000Y-111728628D01*
X156511905Y-112204819D02*
X156511905Y-111204819D01*
X156511905Y-111204819D02*
X156892857Y-111204819D01*
X156892857Y-111204819D02*
X156988095Y-111252438D01*
X156988095Y-111252438D02*
X157035714Y-111300057D01*
X157035714Y-111300057D02*
X157083333Y-111395295D01*
X157083333Y-111395295D02*
X157083333Y-111538152D01*
X157083333Y-111538152D02*
X157035714Y-111633390D01*
X157035714Y-111633390D02*
X156988095Y-111681009D01*
X156988095Y-111681009D02*
X156892857Y-111728628D01*
X156892857Y-111728628D02*
X156511905Y-111728628D01*
X157654762Y-111633390D02*
X157559524Y-111585771D01*
X157559524Y-111585771D02*
X157511905Y-111538152D01*
X157511905Y-111538152D02*
X157464286Y-111442914D01*
X157464286Y-111442914D02*
X157464286Y-111395295D01*
X157464286Y-111395295D02*
X157511905Y-111300057D01*
X157511905Y-111300057D02*
X157559524Y-111252438D01*
X157559524Y-111252438D02*
X157654762Y-111204819D01*
X157654762Y-111204819D02*
X157845238Y-111204819D01*
X157845238Y-111204819D02*
X157940476Y-111252438D01*
X157940476Y-111252438D02*
X157988095Y-111300057D01*
X157988095Y-111300057D02*
X158035714Y-111395295D01*
X158035714Y-111395295D02*
X158035714Y-111442914D01*
X158035714Y-111442914D02*
X157988095Y-111538152D01*
X157988095Y-111538152D02*
X157940476Y-111585771D01*
X157940476Y-111585771D02*
X157845238Y-111633390D01*
X157845238Y-111633390D02*
X157654762Y-111633390D01*
X157654762Y-111633390D02*
X157559524Y-111681009D01*
X157559524Y-111681009D02*
X157511905Y-111728628D01*
X157511905Y-111728628D02*
X157464286Y-111823866D01*
X157464286Y-111823866D02*
X157464286Y-112014342D01*
X157464286Y-112014342D02*
X157511905Y-112109580D01*
X157511905Y-112109580D02*
X157559524Y-112157200D01*
X157559524Y-112157200D02*
X157654762Y-112204819D01*
X157654762Y-112204819D02*
X157845238Y-112204819D01*
X157845238Y-112204819D02*
X157940476Y-112157200D01*
X157940476Y-112157200D02*
X157988095Y-112109580D01*
X157988095Y-112109580D02*
X158035714Y-112014342D01*
X158035714Y-112014342D02*
X158035714Y-111823866D01*
X158035714Y-111823866D02*
X157988095Y-111728628D01*
X157988095Y-111728628D02*
X157940476Y-111681009D01*
X157940476Y-111681009D02*
X157845238Y-111633390D01*
X185108333Y-100009580D02*
X185060714Y-100057200D01*
X185060714Y-100057200D02*
X184917857Y-100104819D01*
X184917857Y-100104819D02*
X184822619Y-100104819D01*
X184822619Y-100104819D02*
X184679762Y-100057200D01*
X184679762Y-100057200D02*
X184584524Y-99961961D01*
X184584524Y-99961961D02*
X184536905Y-99866723D01*
X184536905Y-99866723D02*
X184489286Y-99676247D01*
X184489286Y-99676247D02*
X184489286Y-99533390D01*
X184489286Y-99533390D02*
X184536905Y-99342914D01*
X184536905Y-99342914D02*
X184584524Y-99247676D01*
X184584524Y-99247676D02*
X184679762Y-99152438D01*
X184679762Y-99152438D02*
X184822619Y-99104819D01*
X184822619Y-99104819D02*
X184917857Y-99104819D01*
X184917857Y-99104819D02*
X185060714Y-99152438D01*
X185060714Y-99152438D02*
X185108333Y-99200057D01*
X185679762Y-99533390D02*
X185584524Y-99485771D01*
X185584524Y-99485771D02*
X185536905Y-99438152D01*
X185536905Y-99438152D02*
X185489286Y-99342914D01*
X185489286Y-99342914D02*
X185489286Y-99295295D01*
X185489286Y-99295295D02*
X185536905Y-99200057D01*
X185536905Y-99200057D02*
X185584524Y-99152438D01*
X185584524Y-99152438D02*
X185679762Y-99104819D01*
X185679762Y-99104819D02*
X185870238Y-99104819D01*
X185870238Y-99104819D02*
X185965476Y-99152438D01*
X185965476Y-99152438D02*
X186013095Y-99200057D01*
X186013095Y-99200057D02*
X186060714Y-99295295D01*
X186060714Y-99295295D02*
X186060714Y-99342914D01*
X186060714Y-99342914D02*
X186013095Y-99438152D01*
X186013095Y-99438152D02*
X185965476Y-99485771D01*
X185965476Y-99485771D02*
X185870238Y-99533390D01*
X185870238Y-99533390D02*
X185679762Y-99533390D01*
X185679762Y-99533390D02*
X185584524Y-99581009D01*
X185584524Y-99581009D02*
X185536905Y-99628628D01*
X185536905Y-99628628D02*
X185489286Y-99723866D01*
X185489286Y-99723866D02*
X185489286Y-99914342D01*
X185489286Y-99914342D02*
X185536905Y-100009580D01*
X185536905Y-100009580D02*
X185584524Y-100057200D01*
X185584524Y-100057200D02*
X185679762Y-100104819D01*
X185679762Y-100104819D02*
X185870238Y-100104819D01*
X185870238Y-100104819D02*
X185965476Y-100057200D01*
X185965476Y-100057200D02*
X186013095Y-100009580D01*
X186013095Y-100009580D02*
X186060714Y-99914342D01*
X186060714Y-99914342D02*
X186060714Y-99723866D01*
X186060714Y-99723866D02*
X186013095Y-99628628D01*
X186013095Y-99628628D02*
X185965476Y-99581009D01*
X185965476Y-99581009D02*
X185870238Y-99533390D01*
X172382142Y-112509580D02*
X172334523Y-112557200D01*
X172334523Y-112557200D02*
X172191666Y-112604819D01*
X172191666Y-112604819D02*
X172096428Y-112604819D01*
X172096428Y-112604819D02*
X171953571Y-112557200D01*
X171953571Y-112557200D02*
X171858333Y-112461961D01*
X171858333Y-112461961D02*
X171810714Y-112366723D01*
X171810714Y-112366723D02*
X171763095Y-112176247D01*
X171763095Y-112176247D02*
X171763095Y-112033390D01*
X171763095Y-112033390D02*
X171810714Y-111842914D01*
X171810714Y-111842914D02*
X171858333Y-111747676D01*
X171858333Y-111747676D02*
X171953571Y-111652438D01*
X171953571Y-111652438D02*
X172096428Y-111604819D01*
X172096428Y-111604819D02*
X172191666Y-111604819D01*
X172191666Y-111604819D02*
X172334523Y-111652438D01*
X172334523Y-111652438D02*
X172382142Y-111700057D01*
X173334523Y-112604819D02*
X172763095Y-112604819D01*
X173048809Y-112604819D02*
X173048809Y-111604819D01*
X173048809Y-111604819D02*
X172953571Y-111747676D01*
X172953571Y-111747676D02*
X172858333Y-111842914D01*
X172858333Y-111842914D02*
X172763095Y-111890533D01*
X173715476Y-111700057D02*
X173763095Y-111652438D01*
X173763095Y-111652438D02*
X173858333Y-111604819D01*
X173858333Y-111604819D02*
X174096428Y-111604819D01*
X174096428Y-111604819D02*
X174191666Y-111652438D01*
X174191666Y-111652438D02*
X174239285Y-111700057D01*
X174239285Y-111700057D02*
X174286904Y-111795295D01*
X174286904Y-111795295D02*
X174286904Y-111890533D01*
X174286904Y-111890533D02*
X174239285Y-112033390D01*
X174239285Y-112033390D02*
X173667857Y-112604819D01*
X173667857Y-112604819D02*
X174286904Y-112604819D01*
X157120833Y-108634819D02*
X156787500Y-108158628D01*
X156549405Y-108634819D02*
X156549405Y-107634819D01*
X156549405Y-107634819D02*
X156930357Y-107634819D01*
X156930357Y-107634819D02*
X157025595Y-107682438D01*
X157025595Y-107682438D02*
X157073214Y-107730057D01*
X157073214Y-107730057D02*
X157120833Y-107825295D01*
X157120833Y-107825295D02*
X157120833Y-107968152D01*
X157120833Y-107968152D02*
X157073214Y-108063390D01*
X157073214Y-108063390D02*
X157025595Y-108111009D01*
X157025595Y-108111009D02*
X156930357Y-108158628D01*
X156930357Y-108158628D02*
X156549405Y-108158628D01*
X157597024Y-108634819D02*
X157787500Y-108634819D01*
X157787500Y-108634819D02*
X157882738Y-108587200D01*
X157882738Y-108587200D02*
X157930357Y-108539580D01*
X157930357Y-108539580D02*
X158025595Y-108396723D01*
X158025595Y-108396723D02*
X158073214Y-108206247D01*
X158073214Y-108206247D02*
X158073214Y-107825295D01*
X158073214Y-107825295D02*
X158025595Y-107730057D01*
X158025595Y-107730057D02*
X157977976Y-107682438D01*
X157977976Y-107682438D02*
X157882738Y-107634819D01*
X157882738Y-107634819D02*
X157692262Y-107634819D01*
X157692262Y-107634819D02*
X157597024Y-107682438D01*
X157597024Y-107682438D02*
X157549405Y-107730057D01*
X157549405Y-107730057D02*
X157501786Y-107825295D01*
X157501786Y-107825295D02*
X157501786Y-108063390D01*
X157501786Y-108063390D02*
X157549405Y-108158628D01*
X157549405Y-108158628D02*
X157597024Y-108206247D01*
X157597024Y-108206247D02*
X157692262Y-108253866D01*
X157692262Y-108253866D02*
X157882738Y-108253866D01*
X157882738Y-108253866D02*
X157977976Y-108206247D01*
X157977976Y-108206247D02*
X158025595Y-108158628D01*
X158025595Y-108158628D02*
X158073214Y-108063390D01*
X165011905Y-92579819D02*
X165011905Y-91579819D01*
X165011905Y-91579819D02*
X165250000Y-91579819D01*
X165250000Y-91579819D02*
X165392857Y-91627438D01*
X165392857Y-91627438D02*
X165488095Y-91722676D01*
X165488095Y-91722676D02*
X165535714Y-91817914D01*
X165535714Y-91817914D02*
X165583333Y-92008390D01*
X165583333Y-92008390D02*
X165583333Y-92151247D01*
X165583333Y-92151247D02*
X165535714Y-92341723D01*
X165535714Y-92341723D02*
X165488095Y-92436961D01*
X165488095Y-92436961D02*
X165392857Y-92532200D01*
X165392857Y-92532200D02*
X165250000Y-92579819D01*
X165250000Y-92579819D02*
X165011905Y-92579819D01*
X165916667Y-91579819D02*
X166535714Y-91579819D01*
X166535714Y-91579819D02*
X166202381Y-91960771D01*
X166202381Y-91960771D02*
X166345238Y-91960771D01*
X166345238Y-91960771D02*
X166440476Y-92008390D01*
X166440476Y-92008390D02*
X166488095Y-92056009D01*
X166488095Y-92056009D02*
X166535714Y-92151247D01*
X166535714Y-92151247D02*
X166535714Y-92389342D01*
X166535714Y-92389342D02*
X166488095Y-92484580D01*
X166488095Y-92484580D02*
X166440476Y-92532200D01*
X166440476Y-92532200D02*
X166345238Y-92579819D01*
X166345238Y-92579819D02*
X166059524Y-92579819D01*
X166059524Y-92579819D02*
X165964286Y-92532200D01*
X165964286Y-92532200D02*
X165916667Y-92484580D01*
X162778571Y-94362295D02*
X162321428Y-94362295D01*
X162550000Y-94362295D02*
X162550000Y-93562295D01*
X162550000Y-93562295D02*
X162473809Y-93676580D01*
X162473809Y-93676580D02*
X162397619Y-93752771D01*
X162397619Y-93752771D02*
X162321428Y-93790866D01*
X169611905Y-103634819D02*
X169611905Y-102634819D01*
X169611905Y-102634819D02*
X169850000Y-102634819D01*
X169850000Y-102634819D02*
X169992857Y-102682438D01*
X169992857Y-102682438D02*
X170088095Y-102777676D01*
X170088095Y-102777676D02*
X170135714Y-102872914D01*
X170135714Y-102872914D02*
X170183333Y-103063390D01*
X170183333Y-103063390D02*
X170183333Y-103206247D01*
X170183333Y-103206247D02*
X170135714Y-103396723D01*
X170135714Y-103396723D02*
X170088095Y-103491961D01*
X170088095Y-103491961D02*
X169992857Y-103587200D01*
X169992857Y-103587200D02*
X169850000Y-103634819D01*
X169850000Y-103634819D02*
X169611905Y-103634819D01*
X170564286Y-102730057D02*
X170611905Y-102682438D01*
X170611905Y-102682438D02*
X170707143Y-102634819D01*
X170707143Y-102634819D02*
X170945238Y-102634819D01*
X170945238Y-102634819D02*
X171040476Y-102682438D01*
X171040476Y-102682438D02*
X171088095Y-102730057D01*
X171088095Y-102730057D02*
X171135714Y-102825295D01*
X171135714Y-102825295D02*
X171135714Y-102920533D01*
X171135714Y-102920533D02*
X171088095Y-103063390D01*
X171088095Y-103063390D02*
X170516667Y-103634819D01*
X170516667Y-103634819D02*
X171135714Y-103634819D01*
X154620833Y-88884819D02*
X154287500Y-88408628D01*
X154049405Y-88884819D02*
X154049405Y-87884819D01*
X154049405Y-87884819D02*
X154430357Y-87884819D01*
X154430357Y-87884819D02*
X154525595Y-87932438D01*
X154525595Y-87932438D02*
X154573214Y-87980057D01*
X154573214Y-87980057D02*
X154620833Y-88075295D01*
X154620833Y-88075295D02*
X154620833Y-88218152D01*
X154620833Y-88218152D02*
X154573214Y-88313390D01*
X154573214Y-88313390D02*
X154525595Y-88361009D01*
X154525595Y-88361009D02*
X154430357Y-88408628D01*
X154430357Y-88408628D02*
X154049405Y-88408628D01*
X155477976Y-88218152D02*
X155477976Y-88884819D01*
X155239881Y-87837200D02*
X155001786Y-88551485D01*
X155001786Y-88551485D02*
X155620833Y-88551485D01*
X175620833Y-92634819D02*
X175287500Y-92158628D01*
X175049405Y-92634819D02*
X175049405Y-91634819D01*
X175049405Y-91634819D02*
X175430357Y-91634819D01*
X175430357Y-91634819D02*
X175525595Y-91682438D01*
X175525595Y-91682438D02*
X175573214Y-91730057D01*
X175573214Y-91730057D02*
X175620833Y-91825295D01*
X175620833Y-91825295D02*
X175620833Y-91968152D01*
X175620833Y-91968152D02*
X175573214Y-92063390D01*
X175573214Y-92063390D02*
X175525595Y-92111009D01*
X175525595Y-92111009D02*
X175430357Y-92158628D01*
X175430357Y-92158628D02*
X175049405Y-92158628D01*
X176001786Y-91730057D02*
X176049405Y-91682438D01*
X176049405Y-91682438D02*
X176144643Y-91634819D01*
X176144643Y-91634819D02*
X176382738Y-91634819D01*
X176382738Y-91634819D02*
X176477976Y-91682438D01*
X176477976Y-91682438D02*
X176525595Y-91730057D01*
X176525595Y-91730057D02*
X176573214Y-91825295D01*
X176573214Y-91825295D02*
X176573214Y-91920533D01*
X176573214Y-91920533D02*
X176525595Y-92063390D01*
X176525595Y-92063390D02*
X175954167Y-92634819D01*
X175954167Y-92634819D02*
X176573214Y-92634819D01*
X174268601Y-100606605D02*
X174268601Y-99818904D01*
X174268601Y-99818904D02*
X174456149Y-99818904D01*
X174456149Y-99818904D02*
X174568678Y-99856414D01*
X174568678Y-99856414D02*
X174643697Y-99931433D01*
X174643697Y-99931433D02*
X174681207Y-100006452D01*
X174681207Y-100006452D02*
X174718716Y-100156490D01*
X174718716Y-100156490D02*
X174718716Y-100269019D01*
X174718716Y-100269019D02*
X174681207Y-100419057D01*
X174681207Y-100419057D02*
X174643697Y-100494076D01*
X174643697Y-100494076D02*
X174568678Y-100569096D01*
X174568678Y-100569096D02*
X174456149Y-100606605D01*
X174456149Y-100606605D02*
X174268601Y-100606605D01*
X175393889Y-100081471D02*
X175393889Y-100606605D01*
X175206341Y-99781395D02*
X175018793Y-100344038D01*
X175018793Y-100344038D02*
X175506417Y-100344038D01*
X167894642Y-98384819D02*
X167561309Y-97908628D01*
X167323214Y-98384819D02*
X167323214Y-97384819D01*
X167323214Y-97384819D02*
X167704166Y-97384819D01*
X167704166Y-97384819D02*
X167799404Y-97432438D01*
X167799404Y-97432438D02*
X167847023Y-97480057D01*
X167847023Y-97480057D02*
X167894642Y-97575295D01*
X167894642Y-97575295D02*
X167894642Y-97718152D01*
X167894642Y-97718152D02*
X167847023Y-97813390D01*
X167847023Y-97813390D02*
X167799404Y-97861009D01*
X167799404Y-97861009D02*
X167704166Y-97908628D01*
X167704166Y-97908628D02*
X167323214Y-97908628D01*
X168847023Y-98384819D02*
X168275595Y-98384819D01*
X168561309Y-98384819D02*
X168561309Y-97384819D01*
X168561309Y-97384819D02*
X168466071Y-97527676D01*
X168466071Y-97527676D02*
X168370833Y-97622914D01*
X168370833Y-97622914D02*
X168275595Y-97670533D01*
X169227976Y-97480057D02*
X169275595Y-97432438D01*
X169275595Y-97432438D02*
X169370833Y-97384819D01*
X169370833Y-97384819D02*
X169608928Y-97384819D01*
X169608928Y-97384819D02*
X169704166Y-97432438D01*
X169704166Y-97432438D02*
X169751785Y-97480057D01*
X169751785Y-97480057D02*
X169799404Y-97575295D01*
X169799404Y-97575295D02*
X169799404Y-97670533D01*
X169799404Y-97670533D02*
X169751785Y-97813390D01*
X169751785Y-97813390D02*
X169180357Y-98384819D01*
X169180357Y-98384819D02*
X169799404Y-98384819D01*
X142394642Y-123784819D02*
X142061309Y-123308628D01*
X141823214Y-123784819D02*
X141823214Y-122784819D01*
X141823214Y-122784819D02*
X142204166Y-122784819D01*
X142204166Y-122784819D02*
X142299404Y-122832438D01*
X142299404Y-122832438D02*
X142347023Y-122880057D01*
X142347023Y-122880057D02*
X142394642Y-122975295D01*
X142394642Y-122975295D02*
X142394642Y-123118152D01*
X142394642Y-123118152D02*
X142347023Y-123213390D01*
X142347023Y-123213390D02*
X142299404Y-123261009D01*
X142299404Y-123261009D02*
X142204166Y-123308628D01*
X142204166Y-123308628D02*
X141823214Y-123308628D01*
X143347023Y-123784819D02*
X142775595Y-123784819D01*
X143061309Y-123784819D02*
X143061309Y-122784819D01*
X143061309Y-122784819D02*
X142966071Y-122927676D01*
X142966071Y-122927676D02*
X142870833Y-123022914D01*
X142870833Y-123022914D02*
X142775595Y-123070533D01*
X144204166Y-123118152D02*
X144204166Y-123784819D01*
X143966071Y-122737200D02*
X143727976Y-123451485D01*
X143727976Y-123451485D02*
X144347023Y-123451485D01*
X148738095Y-95154819D02*
X148738095Y-95964342D01*
X148738095Y-95964342D02*
X148785714Y-96059580D01*
X148785714Y-96059580D02*
X148833333Y-96107200D01*
X148833333Y-96107200D02*
X148928571Y-96154819D01*
X148928571Y-96154819D02*
X149119047Y-96154819D01*
X149119047Y-96154819D02*
X149214285Y-96107200D01*
X149214285Y-96107200D02*
X149261904Y-96059580D01*
X149261904Y-96059580D02*
X149309523Y-95964342D01*
X149309523Y-95964342D02*
X149309523Y-95154819D01*
X150309523Y-96154819D02*
X149738095Y-96154819D01*
X150023809Y-96154819D02*
X150023809Y-95154819D01*
X150023809Y-95154819D02*
X149928571Y-95297676D01*
X149928571Y-95297676D02*
X149833333Y-95392914D01*
X149833333Y-95392914D02*
X149738095Y-95440533D01*
X175620833Y-103634819D02*
X175287500Y-103158628D01*
X175049405Y-103634819D02*
X175049405Y-102634819D01*
X175049405Y-102634819D02*
X175430357Y-102634819D01*
X175430357Y-102634819D02*
X175525595Y-102682438D01*
X175525595Y-102682438D02*
X175573214Y-102730057D01*
X175573214Y-102730057D02*
X175620833Y-102825295D01*
X175620833Y-102825295D02*
X175620833Y-102968152D01*
X175620833Y-102968152D02*
X175573214Y-103063390D01*
X175573214Y-103063390D02*
X175525595Y-103111009D01*
X175525595Y-103111009D02*
X175430357Y-103158628D01*
X175430357Y-103158628D02*
X175049405Y-103158628D01*
X176573214Y-103634819D02*
X176001786Y-103634819D01*
X176287500Y-103634819D02*
X176287500Y-102634819D01*
X176287500Y-102634819D02*
X176192262Y-102777676D01*
X176192262Y-102777676D02*
X176097024Y-102872914D01*
X176097024Y-102872914D02*
X176001786Y-102920533D01*
X143505542Y-126204819D02*
X143172209Y-125728628D01*
X142934114Y-126204819D02*
X142934114Y-125204819D01*
X142934114Y-125204819D02*
X143315066Y-125204819D01*
X143315066Y-125204819D02*
X143410304Y-125252438D01*
X143410304Y-125252438D02*
X143457923Y-125300057D01*
X143457923Y-125300057D02*
X143505542Y-125395295D01*
X143505542Y-125395295D02*
X143505542Y-125538152D01*
X143505542Y-125538152D02*
X143457923Y-125633390D01*
X143457923Y-125633390D02*
X143410304Y-125681009D01*
X143410304Y-125681009D02*
X143315066Y-125728628D01*
X143315066Y-125728628D02*
X142934114Y-125728628D01*
X144457923Y-126204819D02*
X143886495Y-126204819D01*
X144172209Y-126204819D02*
X144172209Y-125204819D01*
X144172209Y-125204819D02*
X144076971Y-125347676D01*
X144076971Y-125347676D02*
X143981733Y-125442914D01*
X143981733Y-125442914D02*
X143886495Y-125490533D01*
X144791257Y-125204819D02*
X145410304Y-125204819D01*
X145410304Y-125204819D02*
X145076971Y-125585771D01*
X145076971Y-125585771D02*
X145219828Y-125585771D01*
X145219828Y-125585771D02*
X145315066Y-125633390D01*
X145315066Y-125633390D02*
X145362685Y-125681009D01*
X145362685Y-125681009D02*
X145410304Y-125776247D01*
X145410304Y-125776247D02*
X145410304Y-126014342D01*
X145410304Y-126014342D02*
X145362685Y-126109580D01*
X145362685Y-126109580D02*
X145315066Y-126157200D01*
X145315066Y-126157200D02*
X145219828Y-126204819D01*
X145219828Y-126204819D02*
X144934114Y-126204819D01*
X144934114Y-126204819D02*
X144838876Y-126157200D01*
X144838876Y-126157200D02*
X144791257Y-126109580D01*
X140374819Y-109932857D02*
X139898628Y-110266190D01*
X140374819Y-110504285D02*
X139374819Y-110504285D01*
X139374819Y-110504285D02*
X139374819Y-110123333D01*
X139374819Y-110123333D02*
X139422438Y-110028095D01*
X139422438Y-110028095D02*
X139470057Y-109980476D01*
X139470057Y-109980476D02*
X139565295Y-109932857D01*
X139565295Y-109932857D02*
X139708152Y-109932857D01*
X139708152Y-109932857D02*
X139803390Y-109980476D01*
X139803390Y-109980476D02*
X139851009Y-110028095D01*
X139851009Y-110028095D02*
X139898628Y-110123333D01*
X139898628Y-110123333D02*
X139898628Y-110504285D01*
X140374819Y-108980476D02*
X140374819Y-109551904D01*
X140374819Y-109266190D02*
X139374819Y-109266190D01*
X139374819Y-109266190D02*
X139517676Y-109361428D01*
X139517676Y-109361428D02*
X139612914Y-109456666D01*
X139612914Y-109456666D02*
X139660533Y-109551904D01*
X139374819Y-108123333D02*
X139374819Y-108313809D01*
X139374819Y-108313809D02*
X139422438Y-108409047D01*
X139422438Y-108409047D02*
X139470057Y-108456666D01*
X139470057Y-108456666D02*
X139612914Y-108551904D01*
X139612914Y-108551904D02*
X139803390Y-108599523D01*
X139803390Y-108599523D02*
X140184342Y-108599523D01*
X140184342Y-108599523D02*
X140279580Y-108551904D01*
X140279580Y-108551904D02*
X140327200Y-108504285D01*
X140327200Y-108504285D02*
X140374819Y-108409047D01*
X140374819Y-108409047D02*
X140374819Y-108218571D01*
X140374819Y-108218571D02*
X140327200Y-108123333D01*
X140327200Y-108123333D02*
X140279580Y-108075714D01*
X140279580Y-108075714D02*
X140184342Y-108028095D01*
X140184342Y-108028095D02*
X139946247Y-108028095D01*
X139946247Y-108028095D02*
X139851009Y-108075714D01*
X139851009Y-108075714D02*
X139803390Y-108123333D01*
X139803390Y-108123333D02*
X139755771Y-108218571D01*
X139755771Y-108218571D02*
X139755771Y-108409047D01*
X139755771Y-108409047D02*
X139803390Y-108504285D01*
X139803390Y-108504285D02*
X139851009Y-108551904D01*
X139851009Y-108551904D02*
X139946247Y-108599523D01*
X139370833Y-99524819D02*
X139037500Y-99048628D01*
X138799405Y-99524819D02*
X138799405Y-98524819D01*
X138799405Y-98524819D02*
X139180357Y-98524819D01*
X139180357Y-98524819D02*
X139275595Y-98572438D01*
X139275595Y-98572438D02*
X139323214Y-98620057D01*
X139323214Y-98620057D02*
X139370833Y-98715295D01*
X139370833Y-98715295D02*
X139370833Y-98858152D01*
X139370833Y-98858152D02*
X139323214Y-98953390D01*
X139323214Y-98953390D02*
X139275595Y-99001009D01*
X139275595Y-99001009D02*
X139180357Y-99048628D01*
X139180357Y-99048628D02*
X138799405Y-99048628D01*
X140275595Y-98524819D02*
X139799405Y-98524819D01*
X139799405Y-98524819D02*
X139751786Y-99001009D01*
X139751786Y-99001009D02*
X139799405Y-98953390D01*
X139799405Y-98953390D02*
X139894643Y-98905771D01*
X139894643Y-98905771D02*
X140132738Y-98905771D01*
X140132738Y-98905771D02*
X140227976Y-98953390D01*
X140227976Y-98953390D02*
X140275595Y-99001009D01*
X140275595Y-99001009D02*
X140323214Y-99096247D01*
X140323214Y-99096247D02*
X140323214Y-99334342D01*
X140323214Y-99334342D02*
X140275595Y-99429580D01*
X140275595Y-99429580D02*
X140227976Y-99477200D01*
X140227976Y-99477200D02*
X140132738Y-99524819D01*
X140132738Y-99524819D02*
X139894643Y-99524819D01*
X139894643Y-99524819D02*
X139799405Y-99477200D01*
X139799405Y-99477200D02*
X139751786Y-99429580D01*
X175808333Y-112709580D02*
X175760714Y-112757200D01*
X175760714Y-112757200D02*
X175617857Y-112804819D01*
X175617857Y-112804819D02*
X175522619Y-112804819D01*
X175522619Y-112804819D02*
X175379762Y-112757200D01*
X175379762Y-112757200D02*
X175284524Y-112661961D01*
X175284524Y-112661961D02*
X175236905Y-112566723D01*
X175236905Y-112566723D02*
X175189286Y-112376247D01*
X175189286Y-112376247D02*
X175189286Y-112233390D01*
X175189286Y-112233390D02*
X175236905Y-112042914D01*
X175236905Y-112042914D02*
X175284524Y-111947676D01*
X175284524Y-111947676D02*
X175379762Y-111852438D01*
X175379762Y-111852438D02*
X175522619Y-111804819D01*
X175522619Y-111804819D02*
X175617857Y-111804819D01*
X175617857Y-111804819D02*
X175760714Y-111852438D01*
X175760714Y-111852438D02*
X175808333Y-111900057D01*
X176665476Y-112138152D02*
X176665476Y-112804819D01*
X176427381Y-111757200D02*
X176189286Y-112471485D01*
X176189286Y-112471485D02*
X176808333Y-112471485D01*
X170858333Y-109009580D02*
X170810714Y-109057200D01*
X170810714Y-109057200D02*
X170667857Y-109104819D01*
X170667857Y-109104819D02*
X170572619Y-109104819D01*
X170572619Y-109104819D02*
X170429762Y-109057200D01*
X170429762Y-109057200D02*
X170334524Y-108961961D01*
X170334524Y-108961961D02*
X170286905Y-108866723D01*
X170286905Y-108866723D02*
X170239286Y-108676247D01*
X170239286Y-108676247D02*
X170239286Y-108533390D01*
X170239286Y-108533390D02*
X170286905Y-108342914D01*
X170286905Y-108342914D02*
X170334524Y-108247676D01*
X170334524Y-108247676D02*
X170429762Y-108152438D01*
X170429762Y-108152438D02*
X170572619Y-108104819D01*
X170572619Y-108104819D02*
X170667857Y-108104819D01*
X170667857Y-108104819D02*
X170810714Y-108152438D01*
X170810714Y-108152438D02*
X170858333Y-108200057D01*
X171191667Y-108104819D02*
X171810714Y-108104819D01*
X171810714Y-108104819D02*
X171477381Y-108485771D01*
X171477381Y-108485771D02*
X171620238Y-108485771D01*
X171620238Y-108485771D02*
X171715476Y-108533390D01*
X171715476Y-108533390D02*
X171763095Y-108581009D01*
X171763095Y-108581009D02*
X171810714Y-108676247D01*
X171810714Y-108676247D02*
X171810714Y-108914342D01*
X171810714Y-108914342D02*
X171763095Y-109009580D01*
X171763095Y-109009580D02*
X171715476Y-109057200D01*
X171715476Y-109057200D02*
X171620238Y-109104819D01*
X171620238Y-109104819D02*
X171334524Y-109104819D01*
X171334524Y-109104819D02*
X171239286Y-109057200D01*
X171239286Y-109057200D02*
X171191667Y-109009580D01*
X145154819Y-90479166D02*
X145154819Y-90955356D01*
X145154819Y-90955356D02*
X144154819Y-90955356D01*
X145154819Y-89622023D02*
X145154819Y-90193451D01*
X145154819Y-89907737D02*
X144154819Y-89907737D01*
X144154819Y-89907737D02*
X144297676Y-90002975D01*
X144297676Y-90002975D02*
X144392914Y-90098213D01*
X144392914Y-90098213D02*
X144440533Y-90193451D01*
X170168601Y-92106605D02*
X170168601Y-91318904D01*
X170168601Y-91318904D02*
X170356149Y-91318904D01*
X170356149Y-91318904D02*
X170468678Y-91356414D01*
X170468678Y-91356414D02*
X170543697Y-91431433D01*
X170543697Y-91431433D02*
X170581207Y-91506452D01*
X170581207Y-91506452D02*
X170618716Y-91656490D01*
X170618716Y-91656490D02*
X170618716Y-91769019D01*
X170618716Y-91769019D02*
X170581207Y-91919057D01*
X170581207Y-91919057D02*
X170543697Y-91994076D01*
X170543697Y-91994076D02*
X170468678Y-92069096D01*
X170468678Y-92069096D02*
X170356149Y-92106605D01*
X170356149Y-92106605D02*
X170168601Y-92106605D01*
X171368908Y-92106605D02*
X170918793Y-92106605D01*
X171143850Y-92106605D02*
X171143850Y-91318904D01*
X171143850Y-91318904D02*
X171068831Y-91431433D01*
X171068831Y-91431433D02*
X170993812Y-91506452D01*
X170993812Y-91506452D02*
X170918793Y-91543962D01*
X160146917Y-89296607D02*
X160814460Y-90297922D01*
X160814460Y-89296607D02*
X160146917Y-90297922D01*
X161720411Y-90297922D02*
X161148231Y-90297922D01*
X161434321Y-90297922D02*
X161434321Y-89296607D01*
X161434321Y-89296607D02*
X161338958Y-89439652D01*
X161338958Y-89439652D02*
X161243595Y-89535016D01*
X161243595Y-89535016D02*
X161148231Y-89582697D01*
X180617606Y-107178822D02*
X180569987Y-107226442D01*
X180569987Y-107226442D02*
X180427130Y-107274061D01*
X180427130Y-107274061D02*
X180331892Y-107274061D01*
X180331892Y-107274061D02*
X180189035Y-107226442D01*
X180189035Y-107226442D02*
X180093797Y-107131203D01*
X180093797Y-107131203D02*
X180046178Y-107035965D01*
X180046178Y-107035965D02*
X179998559Y-106845489D01*
X179998559Y-106845489D02*
X179998559Y-106702632D01*
X179998559Y-106702632D02*
X180046178Y-106512156D01*
X180046178Y-106512156D02*
X180093797Y-106416918D01*
X180093797Y-106416918D02*
X180189035Y-106321680D01*
X180189035Y-106321680D02*
X180331892Y-106274061D01*
X180331892Y-106274061D02*
X180427130Y-106274061D01*
X180427130Y-106274061D02*
X180569987Y-106321680D01*
X180569987Y-106321680D02*
X180617606Y-106369299D01*
X180998559Y-106369299D02*
X181046178Y-106321680D01*
X181046178Y-106321680D02*
X181141416Y-106274061D01*
X181141416Y-106274061D02*
X181379511Y-106274061D01*
X181379511Y-106274061D02*
X181474749Y-106321680D01*
X181474749Y-106321680D02*
X181522368Y-106369299D01*
X181522368Y-106369299D02*
X181569987Y-106464537D01*
X181569987Y-106464537D02*
X181569987Y-106559775D01*
X181569987Y-106559775D02*
X181522368Y-106702632D01*
X181522368Y-106702632D02*
X180950940Y-107274061D01*
X180950940Y-107274061D02*
X181569987Y-107274061D01*
X158358333Y-95509580D02*
X158310714Y-95557200D01*
X158310714Y-95557200D02*
X158167857Y-95604819D01*
X158167857Y-95604819D02*
X158072619Y-95604819D01*
X158072619Y-95604819D02*
X157929762Y-95557200D01*
X157929762Y-95557200D02*
X157834524Y-95461961D01*
X157834524Y-95461961D02*
X157786905Y-95366723D01*
X157786905Y-95366723D02*
X157739286Y-95176247D01*
X157739286Y-95176247D02*
X157739286Y-95033390D01*
X157739286Y-95033390D02*
X157786905Y-94842914D01*
X157786905Y-94842914D02*
X157834524Y-94747676D01*
X157834524Y-94747676D02*
X157929762Y-94652438D01*
X157929762Y-94652438D02*
X158072619Y-94604819D01*
X158072619Y-94604819D02*
X158167857Y-94604819D01*
X158167857Y-94604819D02*
X158310714Y-94652438D01*
X158310714Y-94652438D02*
X158358333Y-94700057D01*
X158834524Y-95604819D02*
X159025000Y-95604819D01*
X159025000Y-95604819D02*
X159120238Y-95557200D01*
X159120238Y-95557200D02*
X159167857Y-95509580D01*
X159167857Y-95509580D02*
X159263095Y-95366723D01*
X159263095Y-95366723D02*
X159310714Y-95176247D01*
X159310714Y-95176247D02*
X159310714Y-94795295D01*
X159310714Y-94795295D02*
X159263095Y-94700057D01*
X159263095Y-94700057D02*
X159215476Y-94652438D01*
X159215476Y-94652438D02*
X159120238Y-94604819D01*
X159120238Y-94604819D02*
X158929762Y-94604819D01*
X158929762Y-94604819D02*
X158834524Y-94652438D01*
X158834524Y-94652438D02*
X158786905Y-94700057D01*
X158786905Y-94700057D02*
X158739286Y-94795295D01*
X158739286Y-94795295D02*
X158739286Y-95033390D01*
X158739286Y-95033390D02*
X158786905Y-95128628D01*
X158786905Y-95128628D02*
X158834524Y-95176247D01*
X158834524Y-95176247D02*
X158929762Y-95223866D01*
X158929762Y-95223866D02*
X159120238Y-95223866D01*
X159120238Y-95223866D02*
X159215476Y-95176247D01*
X159215476Y-95176247D02*
X159263095Y-95128628D01*
X159263095Y-95128628D02*
X159310714Y-95033390D01*
X179620833Y-96134819D02*
X179287500Y-95658628D01*
X179049405Y-96134819D02*
X179049405Y-95134819D01*
X179049405Y-95134819D02*
X179430357Y-95134819D01*
X179430357Y-95134819D02*
X179525595Y-95182438D01*
X179525595Y-95182438D02*
X179573214Y-95230057D01*
X179573214Y-95230057D02*
X179620833Y-95325295D01*
X179620833Y-95325295D02*
X179620833Y-95468152D01*
X179620833Y-95468152D02*
X179573214Y-95563390D01*
X179573214Y-95563390D02*
X179525595Y-95611009D01*
X179525595Y-95611009D02*
X179430357Y-95658628D01*
X179430357Y-95658628D02*
X179049405Y-95658628D01*
X179954167Y-95134819D02*
X180573214Y-95134819D01*
X180573214Y-95134819D02*
X180239881Y-95515771D01*
X180239881Y-95515771D02*
X180382738Y-95515771D01*
X180382738Y-95515771D02*
X180477976Y-95563390D01*
X180477976Y-95563390D02*
X180525595Y-95611009D01*
X180525595Y-95611009D02*
X180573214Y-95706247D01*
X180573214Y-95706247D02*
X180573214Y-95944342D01*
X180573214Y-95944342D02*
X180525595Y-96039580D01*
X180525595Y-96039580D02*
X180477976Y-96087200D01*
X180477976Y-96087200D02*
X180382738Y-96134819D01*
X180382738Y-96134819D02*
X180097024Y-96134819D01*
X180097024Y-96134819D02*
X180001786Y-96087200D01*
X180001786Y-96087200D02*
X179954167Y-96039580D01*
X147274819Y-109129166D02*
X146798628Y-109462499D01*
X147274819Y-109700594D02*
X146274819Y-109700594D01*
X146274819Y-109700594D02*
X146274819Y-109319642D01*
X146274819Y-109319642D02*
X146322438Y-109224404D01*
X146322438Y-109224404D02*
X146370057Y-109176785D01*
X146370057Y-109176785D02*
X146465295Y-109129166D01*
X146465295Y-109129166D02*
X146608152Y-109129166D01*
X146608152Y-109129166D02*
X146703390Y-109176785D01*
X146703390Y-109176785D02*
X146751009Y-109224404D01*
X146751009Y-109224404D02*
X146798628Y-109319642D01*
X146798628Y-109319642D02*
X146798628Y-109700594D01*
X146274819Y-108272023D02*
X146274819Y-108462499D01*
X146274819Y-108462499D02*
X146322438Y-108557737D01*
X146322438Y-108557737D02*
X146370057Y-108605356D01*
X146370057Y-108605356D02*
X146512914Y-108700594D01*
X146512914Y-108700594D02*
X146703390Y-108748213D01*
X146703390Y-108748213D02*
X147084342Y-108748213D01*
X147084342Y-108748213D02*
X147179580Y-108700594D01*
X147179580Y-108700594D02*
X147227200Y-108652975D01*
X147227200Y-108652975D02*
X147274819Y-108557737D01*
X147274819Y-108557737D02*
X147274819Y-108367261D01*
X147274819Y-108367261D02*
X147227200Y-108272023D01*
X147227200Y-108272023D02*
X147179580Y-108224404D01*
X147179580Y-108224404D02*
X147084342Y-108176785D01*
X147084342Y-108176785D02*
X146846247Y-108176785D01*
X146846247Y-108176785D02*
X146751009Y-108224404D01*
X146751009Y-108224404D02*
X146703390Y-108272023D01*
X146703390Y-108272023D02*
X146655771Y-108367261D01*
X146655771Y-108367261D02*
X146655771Y-108557737D01*
X146655771Y-108557737D02*
X146703390Y-108652975D01*
X146703390Y-108652975D02*
X146751009Y-108700594D01*
X146751009Y-108700594D02*
X146846247Y-108748213D01*
X167085817Y-76497529D02*
X167085817Y-77212765D01*
X167085817Y-77212765D02*
X167038135Y-77355813D01*
X167038135Y-77355813D02*
X166942770Y-77451178D01*
X166942770Y-77451178D02*
X166799723Y-77498860D01*
X166799723Y-77498860D02*
X166704358Y-77498860D01*
X168087148Y-77498860D02*
X167514959Y-77498860D01*
X167801054Y-77498860D02*
X167801054Y-76497529D01*
X167801054Y-76497529D02*
X167705689Y-76640576D01*
X167705689Y-76640576D02*
X167610324Y-76735941D01*
X167610324Y-76735941D02*
X167514959Y-76783624D01*
X163644642Y-112384819D02*
X163311309Y-111908628D01*
X163073214Y-112384819D02*
X163073214Y-111384819D01*
X163073214Y-111384819D02*
X163454166Y-111384819D01*
X163454166Y-111384819D02*
X163549404Y-111432438D01*
X163549404Y-111432438D02*
X163597023Y-111480057D01*
X163597023Y-111480057D02*
X163644642Y-111575295D01*
X163644642Y-111575295D02*
X163644642Y-111718152D01*
X163644642Y-111718152D02*
X163597023Y-111813390D01*
X163597023Y-111813390D02*
X163549404Y-111861009D01*
X163549404Y-111861009D02*
X163454166Y-111908628D01*
X163454166Y-111908628D02*
X163073214Y-111908628D01*
X164597023Y-112384819D02*
X164025595Y-112384819D01*
X164311309Y-112384819D02*
X164311309Y-111384819D01*
X164311309Y-111384819D02*
X164216071Y-111527676D01*
X164216071Y-111527676D02*
X164120833Y-111622914D01*
X164120833Y-111622914D02*
X164025595Y-111670533D01*
X165549404Y-112384819D02*
X164977976Y-112384819D01*
X165263690Y-112384819D02*
X165263690Y-111384819D01*
X165263690Y-111384819D02*
X165168452Y-111527676D01*
X165168452Y-111527676D02*
X165073214Y-111622914D01*
X165073214Y-111622914D02*
X164977976Y-111670533D01*
X180608333Y-103509580D02*
X180560714Y-103557200D01*
X180560714Y-103557200D02*
X180417857Y-103604819D01*
X180417857Y-103604819D02*
X180322619Y-103604819D01*
X180322619Y-103604819D02*
X180179762Y-103557200D01*
X180179762Y-103557200D02*
X180084524Y-103461961D01*
X180084524Y-103461961D02*
X180036905Y-103366723D01*
X180036905Y-103366723D02*
X179989286Y-103176247D01*
X179989286Y-103176247D02*
X179989286Y-103033390D01*
X179989286Y-103033390D02*
X180036905Y-102842914D01*
X180036905Y-102842914D02*
X180084524Y-102747676D01*
X180084524Y-102747676D02*
X180179762Y-102652438D01*
X180179762Y-102652438D02*
X180322619Y-102604819D01*
X180322619Y-102604819D02*
X180417857Y-102604819D01*
X180417857Y-102604819D02*
X180560714Y-102652438D01*
X180560714Y-102652438D02*
X180608333Y-102700057D01*
X181560714Y-103604819D02*
X180989286Y-103604819D01*
X181275000Y-103604819D02*
X181275000Y-102604819D01*
X181275000Y-102604819D02*
X181179762Y-102747676D01*
X181179762Y-102747676D02*
X181084524Y-102842914D01*
X181084524Y-102842914D02*
X180989286Y-102890533D01*
X148332142Y-120009580D02*
X148284523Y-120057200D01*
X148284523Y-120057200D02*
X148141666Y-120104819D01*
X148141666Y-120104819D02*
X148046428Y-120104819D01*
X148046428Y-120104819D02*
X147903571Y-120057200D01*
X147903571Y-120057200D02*
X147808333Y-119961961D01*
X147808333Y-119961961D02*
X147760714Y-119866723D01*
X147760714Y-119866723D02*
X147713095Y-119676247D01*
X147713095Y-119676247D02*
X147713095Y-119533390D01*
X147713095Y-119533390D02*
X147760714Y-119342914D01*
X147760714Y-119342914D02*
X147808333Y-119247676D01*
X147808333Y-119247676D02*
X147903571Y-119152438D01*
X147903571Y-119152438D02*
X148046428Y-119104819D01*
X148046428Y-119104819D02*
X148141666Y-119104819D01*
X148141666Y-119104819D02*
X148284523Y-119152438D01*
X148284523Y-119152438D02*
X148332142Y-119200057D01*
X149284523Y-120104819D02*
X148713095Y-120104819D01*
X148998809Y-120104819D02*
X148998809Y-119104819D01*
X148998809Y-119104819D02*
X148903571Y-119247676D01*
X148903571Y-119247676D02*
X148808333Y-119342914D01*
X148808333Y-119342914D02*
X148713095Y-119390533D01*
X150236904Y-120104819D02*
X149665476Y-120104819D01*
X149951190Y-120104819D02*
X149951190Y-119104819D01*
X149951190Y-119104819D02*
X149855952Y-119247676D01*
X149855952Y-119247676D02*
X149760714Y-119342914D01*
X149760714Y-119342914D02*
X149665476Y-119390533D01*
X157753095Y-99502819D02*
X157753095Y-100312342D01*
X157753095Y-100312342D02*
X157800714Y-100407580D01*
X157800714Y-100407580D02*
X157848333Y-100455200D01*
X157848333Y-100455200D02*
X157943571Y-100502819D01*
X157943571Y-100502819D02*
X158134047Y-100502819D01*
X158134047Y-100502819D02*
X158229285Y-100455200D01*
X158229285Y-100455200D02*
X158276904Y-100407580D01*
X158276904Y-100407580D02*
X158324523Y-100312342D01*
X158324523Y-100312342D02*
X158324523Y-99502819D01*
X158705476Y-99502819D02*
X159324523Y-99502819D01*
X159324523Y-99502819D02*
X158991190Y-99883771D01*
X158991190Y-99883771D02*
X159134047Y-99883771D01*
X159134047Y-99883771D02*
X159229285Y-99931390D01*
X159229285Y-99931390D02*
X159276904Y-99979009D01*
X159276904Y-99979009D02*
X159324523Y-100074247D01*
X159324523Y-100074247D02*
X159324523Y-100312342D01*
X159324523Y-100312342D02*
X159276904Y-100407580D01*
X159276904Y-100407580D02*
X159229285Y-100455200D01*
X159229285Y-100455200D02*
X159134047Y-100502819D01*
X159134047Y-100502819D02*
X158848333Y-100502819D01*
X158848333Y-100502819D02*
X158753095Y-100455200D01*
X158753095Y-100455200D02*
X158705476Y-100407580D01*
X179608333Y-100009580D02*
X179560714Y-100057200D01*
X179560714Y-100057200D02*
X179417857Y-100104819D01*
X179417857Y-100104819D02*
X179322619Y-100104819D01*
X179322619Y-100104819D02*
X179179762Y-100057200D01*
X179179762Y-100057200D02*
X179084524Y-99961961D01*
X179084524Y-99961961D02*
X179036905Y-99866723D01*
X179036905Y-99866723D02*
X178989286Y-99676247D01*
X178989286Y-99676247D02*
X178989286Y-99533390D01*
X178989286Y-99533390D02*
X179036905Y-99342914D01*
X179036905Y-99342914D02*
X179084524Y-99247676D01*
X179084524Y-99247676D02*
X179179762Y-99152438D01*
X179179762Y-99152438D02*
X179322619Y-99104819D01*
X179322619Y-99104819D02*
X179417857Y-99104819D01*
X179417857Y-99104819D02*
X179560714Y-99152438D01*
X179560714Y-99152438D02*
X179608333Y-99200057D01*
X179941667Y-99104819D02*
X180608333Y-99104819D01*
X180608333Y-99104819D02*
X180179762Y-100104819D01*
X148211190Y-77612104D02*
X148687380Y-77612104D01*
X148115952Y-77897819D02*
X148449285Y-76897819D01*
X148449285Y-76897819D02*
X148782618Y-77897819D01*
X149115952Y-77897819D02*
X149115952Y-76897819D01*
X149115952Y-76897819D02*
X149687380Y-77897819D01*
X149687380Y-77897819D02*
X149687380Y-76897819D01*
X150020714Y-76897819D02*
X150592142Y-76897819D01*
X150306428Y-77897819D02*
X150306428Y-76897819D01*
X150925476Y-77374009D02*
X151258809Y-77374009D01*
X151401666Y-77897819D02*
X150925476Y-77897819D01*
X150925476Y-77897819D02*
X150925476Y-76897819D01*
X150925476Y-76897819D02*
X151401666Y-76897819D01*
X151830238Y-77897819D02*
X151830238Y-76897819D01*
X151830238Y-76897819D02*
X152401666Y-77897819D01*
X152401666Y-77897819D02*
X152401666Y-76897819D01*
X152830238Y-77612104D02*
X153306428Y-77612104D01*
X152735000Y-77897819D02*
X153068333Y-76897819D01*
X153068333Y-76897819D02*
X153401666Y-77897819D01*
X154258809Y-77897819D02*
X153687381Y-77897819D01*
X153973095Y-77897819D02*
X153973095Y-76897819D01*
X153973095Y-76897819D02*
X153877857Y-77040676D01*
X153877857Y-77040676D02*
X153782619Y-77135914D01*
X153782619Y-77135914D02*
X153687381Y-77183533D01*
X157358333Y-123009580D02*
X157310714Y-123057200D01*
X157310714Y-123057200D02*
X157167857Y-123104819D01*
X157167857Y-123104819D02*
X157072619Y-123104819D01*
X157072619Y-123104819D02*
X156929762Y-123057200D01*
X156929762Y-123057200D02*
X156834524Y-122961961D01*
X156834524Y-122961961D02*
X156786905Y-122866723D01*
X156786905Y-122866723D02*
X156739286Y-122676247D01*
X156739286Y-122676247D02*
X156739286Y-122533390D01*
X156739286Y-122533390D02*
X156786905Y-122342914D01*
X156786905Y-122342914D02*
X156834524Y-122247676D01*
X156834524Y-122247676D02*
X156929762Y-122152438D01*
X156929762Y-122152438D02*
X157072619Y-122104819D01*
X157072619Y-122104819D02*
X157167857Y-122104819D01*
X157167857Y-122104819D02*
X157310714Y-122152438D01*
X157310714Y-122152438D02*
X157358333Y-122200057D01*
X158215476Y-122104819D02*
X158025000Y-122104819D01*
X158025000Y-122104819D02*
X157929762Y-122152438D01*
X157929762Y-122152438D02*
X157882143Y-122200057D01*
X157882143Y-122200057D02*
X157786905Y-122342914D01*
X157786905Y-122342914D02*
X157739286Y-122533390D01*
X157739286Y-122533390D02*
X157739286Y-122914342D01*
X157739286Y-122914342D02*
X157786905Y-123009580D01*
X157786905Y-123009580D02*
X157834524Y-123057200D01*
X157834524Y-123057200D02*
X157929762Y-123104819D01*
X157929762Y-123104819D02*
X158120238Y-123104819D01*
X158120238Y-123104819D02*
X158215476Y-123057200D01*
X158215476Y-123057200D02*
X158263095Y-123009580D01*
X158263095Y-123009580D02*
X158310714Y-122914342D01*
X158310714Y-122914342D02*
X158310714Y-122676247D01*
X158310714Y-122676247D02*
X158263095Y-122581009D01*
X158263095Y-122581009D02*
X158215476Y-122533390D01*
X158215476Y-122533390D02*
X158120238Y-122485771D01*
X158120238Y-122485771D02*
X157929762Y-122485771D01*
X157929762Y-122485771D02*
X157834524Y-122533390D01*
X157834524Y-122533390D02*
X157786905Y-122581009D01*
X157786905Y-122581009D02*
X157739286Y-122676247D01*
X179382142Y-78509580D02*
X179334523Y-78557200D01*
X179334523Y-78557200D02*
X179191666Y-78604819D01*
X179191666Y-78604819D02*
X179096428Y-78604819D01*
X179096428Y-78604819D02*
X178953571Y-78557200D01*
X178953571Y-78557200D02*
X178858333Y-78461961D01*
X178858333Y-78461961D02*
X178810714Y-78366723D01*
X178810714Y-78366723D02*
X178763095Y-78176247D01*
X178763095Y-78176247D02*
X178763095Y-78033390D01*
X178763095Y-78033390D02*
X178810714Y-77842914D01*
X178810714Y-77842914D02*
X178858333Y-77747676D01*
X178858333Y-77747676D02*
X178953571Y-77652438D01*
X178953571Y-77652438D02*
X179096428Y-77604819D01*
X179096428Y-77604819D02*
X179191666Y-77604819D01*
X179191666Y-77604819D02*
X179334523Y-77652438D01*
X179334523Y-77652438D02*
X179382142Y-77700057D01*
X180334523Y-78604819D02*
X179763095Y-78604819D01*
X180048809Y-78604819D02*
X180048809Y-77604819D01*
X180048809Y-77604819D02*
X179953571Y-77747676D01*
X179953571Y-77747676D02*
X179858333Y-77842914D01*
X179858333Y-77842914D02*
X179763095Y-77890533D01*
X180953571Y-77604819D02*
X181048809Y-77604819D01*
X181048809Y-77604819D02*
X181144047Y-77652438D01*
X181144047Y-77652438D02*
X181191666Y-77700057D01*
X181191666Y-77700057D02*
X181239285Y-77795295D01*
X181239285Y-77795295D02*
X181286904Y-77985771D01*
X181286904Y-77985771D02*
X181286904Y-78223866D01*
X181286904Y-78223866D02*
X181239285Y-78414342D01*
X181239285Y-78414342D02*
X181191666Y-78509580D01*
X181191666Y-78509580D02*
X181144047Y-78557200D01*
X181144047Y-78557200D02*
X181048809Y-78604819D01*
X181048809Y-78604819D02*
X180953571Y-78604819D01*
X180953571Y-78604819D02*
X180858333Y-78557200D01*
X180858333Y-78557200D02*
X180810714Y-78509580D01*
X180810714Y-78509580D02*
X180763095Y-78414342D01*
X180763095Y-78414342D02*
X180715476Y-78223866D01*
X180715476Y-78223866D02*
X180715476Y-77985771D01*
X180715476Y-77985771D02*
X180763095Y-77795295D01*
X180763095Y-77795295D02*
X180810714Y-77700057D01*
X180810714Y-77700057D02*
X180858333Y-77652438D01*
X180858333Y-77652438D02*
X180953571Y-77604819D01*
X144204819Y-115392857D02*
X143728628Y-115726190D01*
X144204819Y-115964285D02*
X143204819Y-115964285D01*
X143204819Y-115964285D02*
X143204819Y-115583333D01*
X143204819Y-115583333D02*
X143252438Y-115488095D01*
X143252438Y-115488095D02*
X143300057Y-115440476D01*
X143300057Y-115440476D02*
X143395295Y-115392857D01*
X143395295Y-115392857D02*
X143538152Y-115392857D01*
X143538152Y-115392857D02*
X143633390Y-115440476D01*
X143633390Y-115440476D02*
X143681009Y-115488095D01*
X143681009Y-115488095D02*
X143728628Y-115583333D01*
X143728628Y-115583333D02*
X143728628Y-115964285D01*
X144204819Y-114440476D02*
X144204819Y-115011904D01*
X144204819Y-114726190D02*
X143204819Y-114726190D01*
X143204819Y-114726190D02*
X143347676Y-114821428D01*
X143347676Y-114821428D02*
X143442914Y-114916666D01*
X143442914Y-114916666D02*
X143490533Y-115011904D01*
X143204819Y-113535714D02*
X143204819Y-114011904D01*
X143204819Y-114011904D02*
X143681009Y-114059523D01*
X143681009Y-114059523D02*
X143633390Y-114011904D01*
X143633390Y-114011904D02*
X143585771Y-113916666D01*
X143585771Y-113916666D02*
X143585771Y-113678571D01*
X143585771Y-113678571D02*
X143633390Y-113583333D01*
X143633390Y-113583333D02*
X143681009Y-113535714D01*
X143681009Y-113535714D02*
X143776247Y-113488095D01*
X143776247Y-113488095D02*
X144014342Y-113488095D01*
X144014342Y-113488095D02*
X144109580Y-113535714D01*
X144109580Y-113535714D02*
X144157200Y-113583333D01*
X144157200Y-113583333D02*
X144204819Y-113678571D01*
X144204819Y-113678571D02*
X144204819Y-113916666D01*
X144204819Y-113916666D02*
X144157200Y-114011904D01*
X144157200Y-114011904D02*
X144109580Y-114059523D01*
X177654819Y-88611904D02*
X178464342Y-88611904D01*
X178464342Y-88611904D02*
X178559580Y-88564285D01*
X178559580Y-88564285D02*
X178607200Y-88516666D01*
X178607200Y-88516666D02*
X178654819Y-88421428D01*
X178654819Y-88421428D02*
X178654819Y-88230952D01*
X178654819Y-88230952D02*
X178607200Y-88135714D01*
X178607200Y-88135714D02*
X178559580Y-88088095D01*
X178559580Y-88088095D02*
X178464342Y-88040476D01*
X178464342Y-88040476D02*
X177654819Y-88040476D01*
X177750057Y-87611904D02*
X177702438Y-87564285D01*
X177702438Y-87564285D02*
X177654819Y-87469047D01*
X177654819Y-87469047D02*
X177654819Y-87230952D01*
X177654819Y-87230952D02*
X177702438Y-87135714D01*
X177702438Y-87135714D02*
X177750057Y-87088095D01*
X177750057Y-87088095D02*
X177845295Y-87040476D01*
X177845295Y-87040476D02*
X177940533Y-87040476D01*
X177940533Y-87040476D02*
X178083390Y-87088095D01*
X178083390Y-87088095D02*
X178654819Y-87659523D01*
X178654819Y-87659523D02*
X178654819Y-87040476D01*
X157120833Y-116134819D02*
X156787500Y-115658628D01*
X156549405Y-116134819D02*
X156549405Y-115134819D01*
X156549405Y-115134819D02*
X156930357Y-115134819D01*
X156930357Y-115134819D02*
X157025595Y-115182438D01*
X157025595Y-115182438D02*
X157073214Y-115230057D01*
X157073214Y-115230057D02*
X157120833Y-115325295D01*
X157120833Y-115325295D02*
X157120833Y-115468152D01*
X157120833Y-115468152D02*
X157073214Y-115563390D01*
X157073214Y-115563390D02*
X157025595Y-115611009D01*
X157025595Y-115611009D02*
X156930357Y-115658628D01*
X156930357Y-115658628D02*
X156549405Y-115658628D01*
X157454167Y-115134819D02*
X158120833Y-115134819D01*
X158120833Y-115134819D02*
X157692262Y-116134819D01*
X184858333Y-96009580D02*
X184810714Y-96057200D01*
X184810714Y-96057200D02*
X184667857Y-96104819D01*
X184667857Y-96104819D02*
X184572619Y-96104819D01*
X184572619Y-96104819D02*
X184429762Y-96057200D01*
X184429762Y-96057200D02*
X184334524Y-95961961D01*
X184334524Y-95961961D02*
X184286905Y-95866723D01*
X184286905Y-95866723D02*
X184239286Y-95676247D01*
X184239286Y-95676247D02*
X184239286Y-95533390D01*
X184239286Y-95533390D02*
X184286905Y-95342914D01*
X184286905Y-95342914D02*
X184334524Y-95247676D01*
X184334524Y-95247676D02*
X184429762Y-95152438D01*
X184429762Y-95152438D02*
X184572619Y-95104819D01*
X184572619Y-95104819D02*
X184667857Y-95104819D01*
X184667857Y-95104819D02*
X184810714Y-95152438D01*
X184810714Y-95152438D02*
X184858333Y-95200057D01*
X185763095Y-95104819D02*
X185286905Y-95104819D01*
X185286905Y-95104819D02*
X185239286Y-95581009D01*
X185239286Y-95581009D02*
X185286905Y-95533390D01*
X185286905Y-95533390D02*
X185382143Y-95485771D01*
X185382143Y-95485771D02*
X185620238Y-95485771D01*
X185620238Y-95485771D02*
X185715476Y-95533390D01*
X185715476Y-95533390D02*
X185763095Y-95581009D01*
X185763095Y-95581009D02*
X185810714Y-95676247D01*
X185810714Y-95676247D02*
X185810714Y-95914342D01*
X185810714Y-95914342D02*
X185763095Y-96009580D01*
X185763095Y-96009580D02*
X185715476Y-96057200D01*
X185715476Y-96057200D02*
X185620238Y-96104819D01*
X185620238Y-96104819D02*
X185382143Y-96104819D01*
X185382143Y-96104819D02*
X185286905Y-96057200D01*
X185286905Y-96057200D02*
X185239286Y-96009580D01*
X138882142Y-95959580D02*
X138834523Y-96007200D01*
X138834523Y-96007200D02*
X138691666Y-96054819D01*
X138691666Y-96054819D02*
X138596428Y-96054819D01*
X138596428Y-96054819D02*
X138453571Y-96007200D01*
X138453571Y-96007200D02*
X138358333Y-95911961D01*
X138358333Y-95911961D02*
X138310714Y-95816723D01*
X138310714Y-95816723D02*
X138263095Y-95626247D01*
X138263095Y-95626247D02*
X138263095Y-95483390D01*
X138263095Y-95483390D02*
X138310714Y-95292914D01*
X138310714Y-95292914D02*
X138358333Y-95197676D01*
X138358333Y-95197676D02*
X138453571Y-95102438D01*
X138453571Y-95102438D02*
X138596428Y-95054819D01*
X138596428Y-95054819D02*
X138691666Y-95054819D01*
X138691666Y-95054819D02*
X138834523Y-95102438D01*
X138834523Y-95102438D02*
X138882142Y-95150057D01*
X139834523Y-96054819D02*
X139263095Y-96054819D01*
X139548809Y-96054819D02*
X139548809Y-95054819D01*
X139548809Y-95054819D02*
X139453571Y-95197676D01*
X139453571Y-95197676D02*
X139358333Y-95292914D01*
X139358333Y-95292914D02*
X139263095Y-95340533D01*
X140739285Y-95054819D02*
X140263095Y-95054819D01*
X140263095Y-95054819D02*
X140215476Y-95531009D01*
X140215476Y-95531009D02*
X140263095Y-95483390D01*
X140263095Y-95483390D02*
X140358333Y-95435771D01*
X140358333Y-95435771D02*
X140596428Y-95435771D01*
X140596428Y-95435771D02*
X140691666Y-95483390D01*
X140691666Y-95483390D02*
X140739285Y-95531009D01*
X140739285Y-95531009D02*
X140786904Y-95626247D01*
X140786904Y-95626247D02*
X140786904Y-95864342D01*
X140786904Y-95864342D02*
X140739285Y-95959580D01*
X140739285Y-95959580D02*
X140691666Y-96007200D01*
X140691666Y-96007200D02*
X140596428Y-96054819D01*
X140596428Y-96054819D02*
X140358333Y-96054819D01*
X140358333Y-96054819D02*
X140263095Y-96007200D01*
X140263095Y-96007200D02*
X140215476Y-95959580D01*
D12*
%TO.C,C14*%
X140298752Y-91160000D02*
X138876248Y-91160000D01*
X140298752Y-89340000D02*
X138876248Y-89340000D01*
D13*
%TO.C,G\u002A\u002A\u002A*%
G36*
X175590666Y-125499999D02*
G01*
X175590666Y-125962714D01*
X175516000Y-125962714D01*
X175441333Y-125962714D01*
X175441333Y-125499999D01*
X175441333Y-125037284D01*
X175516000Y-125037284D01*
X175590666Y-125037284D01*
X175590666Y-125499999D01*
G37*
G36*
X176441333Y-125499999D02*
G01*
X176441333Y-125962714D01*
X176366666Y-125962714D01*
X176292000Y-125962714D01*
X176292000Y-125499999D01*
X176292000Y-125037284D01*
X176366666Y-125037284D01*
X176441333Y-125037284D01*
X176441333Y-125499999D01*
G37*
G36*
X172935956Y-125028300D02*
G01*
X172940359Y-125028757D01*
X172940702Y-125028934D01*
X172941164Y-125031989D01*
X172941548Y-125039747D01*
X172941846Y-125051576D01*
X172942048Y-125066844D01*
X172942145Y-125084921D01*
X172942129Y-125105176D01*
X172942036Y-125121462D01*
X172941333Y-125211969D01*
X172803333Y-125212660D01*
X172665333Y-125213350D01*
X172665333Y-125588032D01*
X172665333Y-125962714D01*
X172590666Y-125962714D01*
X172516000Y-125962714D01*
X172516000Y-125499999D01*
X172516000Y-125037284D01*
X172590579Y-125037284D01*
X172665158Y-125037284D01*
X172665912Y-125066926D01*
X172666666Y-125096568D01*
X172683508Y-125103472D01*
X172694701Y-125107464D01*
X172701678Y-125108509D01*
X172703805Y-125107834D01*
X172707526Y-125104952D01*
X172714008Y-125099806D01*
X172721869Y-125093494D01*
X172722122Y-125093290D01*
X172750527Y-125073250D01*
X172781489Y-125057060D01*
X172815404Y-125044580D01*
X172852667Y-125035670D01*
X172893671Y-125030191D01*
X172902805Y-125029463D01*
X172916137Y-125028667D01*
X172927535Y-125028275D01*
X172935956Y-125028300D01*
G37*
G36*
X176114405Y-125047285D02*
G01*
X176111730Y-125050790D01*
X176106038Y-125058220D01*
X176097564Y-125069271D01*
X176086541Y-125083637D01*
X176073203Y-125101016D01*
X176057784Y-125121101D01*
X176040517Y-125143590D01*
X176021636Y-125168177D01*
X176001375Y-125194558D01*
X175979967Y-125222429D01*
X175957646Y-125251485D01*
X175947374Y-125264856D01*
X175787903Y-125472427D01*
X175952759Y-125714237D01*
X175974791Y-125746557D01*
X175995996Y-125777669D01*
X176016177Y-125807286D01*
X176035140Y-125835122D01*
X176052689Y-125860889D01*
X176068629Y-125884302D01*
X176082765Y-125905072D01*
X176094902Y-125922914D01*
X176104845Y-125937540D01*
X176112398Y-125948664D01*
X176117366Y-125956000D01*
X176119554Y-125959259D01*
X176119632Y-125959381D01*
X176119188Y-125960332D01*
X176116293Y-125961096D01*
X176110504Y-125961688D01*
X176101380Y-125962128D01*
X176088480Y-125962432D01*
X176071363Y-125962618D01*
X176049588Y-125962704D01*
X176036033Y-125962714D01*
X175950418Y-125962714D01*
X175847442Y-125807365D01*
X175828182Y-125778304D01*
X175808181Y-125748115D01*
X175787897Y-125717490D01*
X175767786Y-125687119D01*
X175748306Y-125657693D01*
X175729914Y-125629902D01*
X175713067Y-125604437D01*
X175698222Y-125581989D01*
X175685838Y-125563248D01*
X175685096Y-125562124D01*
X175625725Y-125472234D01*
X175787529Y-125254905D01*
X175949333Y-125037575D01*
X176035649Y-125037429D01*
X176121966Y-125037284D01*
X176114405Y-125047285D01*
G37*
G36*
X171159333Y-124784548D02*
G01*
X171232000Y-124785257D01*
X171232692Y-124911271D01*
X171233385Y-125037284D01*
X171334692Y-125037284D01*
X171436000Y-125037284D01*
X171436000Y-125099957D01*
X171436000Y-125162630D01*
X171334666Y-125162630D01*
X171233333Y-125162630D01*
X171233333Y-125499999D01*
X171233333Y-125837368D01*
X171334666Y-125837368D01*
X171436000Y-125837368D01*
X171436000Y-125900041D01*
X171436000Y-125962714D01*
X171346000Y-125962368D01*
X171323609Y-125962217D01*
X171302063Y-125961950D01*
X171282165Y-125961586D01*
X171264718Y-125961143D01*
X171250526Y-125960642D01*
X171240392Y-125960101D01*
X171236658Y-125959772D01*
X171204336Y-125953997D01*
X171175967Y-125944655D01*
X171151557Y-125931749D01*
X171131110Y-125915282D01*
X171114634Y-125895258D01*
X171105378Y-125878944D01*
X171102694Y-125873412D01*
X171100280Y-125868378D01*
X171098120Y-125863547D01*
X171096202Y-125858622D01*
X171094510Y-125853308D01*
X171093030Y-125847308D01*
X171091749Y-125840327D01*
X171090652Y-125832068D01*
X171089725Y-125822237D01*
X171088953Y-125810536D01*
X171088322Y-125796671D01*
X171087819Y-125780344D01*
X171087429Y-125761261D01*
X171087137Y-125739125D01*
X171086930Y-125713641D01*
X171086793Y-125684512D01*
X171086712Y-125651443D01*
X171086673Y-125614137D01*
X171086662Y-125572300D01*
X171086664Y-125525634D01*
X171086666Y-125489444D01*
X171086666Y-125162630D01*
X171015999Y-125162630D01*
X170945333Y-125162630D01*
X170945333Y-125099957D01*
X170945333Y-125037284D01*
X171015999Y-125037284D01*
X171086666Y-125037284D01*
X171086666Y-124910561D01*
X171086666Y-124783838D01*
X171159333Y-124784548D01*
G37*
G36*
X177855091Y-125029240D02*
G01*
X177875233Y-125030169D01*
X177892467Y-125031551D01*
X177902778Y-125032896D01*
X177935586Y-125039861D01*
X177963806Y-125049196D01*
X177987703Y-125061065D01*
X178007546Y-125075631D01*
X178023600Y-125093060D01*
X178036133Y-125113515D01*
X178037009Y-125115325D01*
X178041025Y-125124030D01*
X178044323Y-125132074D01*
X178046976Y-125140088D01*
X178049052Y-125148706D01*
X178050621Y-125158558D01*
X178051754Y-125170276D01*
X178052520Y-125184493D01*
X178052990Y-125201840D01*
X178053234Y-125222950D01*
X178053321Y-125248454D01*
X178053328Y-125262641D01*
X178053296Y-125288715D01*
X178053187Y-125310067D01*
X178052975Y-125327307D01*
X178052637Y-125341048D01*
X178052146Y-125351899D01*
X178051480Y-125360473D01*
X178050611Y-125367381D01*
X178049516Y-125373233D01*
X178048700Y-125376653D01*
X178039765Y-125402529D01*
X178027054Y-125425058D01*
X178010458Y-125444312D01*
X177989868Y-125460366D01*
X177965174Y-125473292D01*
X177936270Y-125483166D01*
X177903045Y-125490059D01*
X177876804Y-125493182D01*
X177837624Y-125495379D01*
X177799536Y-125494793D01*
X177776361Y-125493160D01*
X177739997Y-125488218D01*
X177707966Y-125480203D01*
X177680218Y-125469080D01*
X177656703Y-125454813D01*
X177637370Y-125437368D01*
X177622168Y-125416708D01*
X177611047Y-125392800D01*
X177610813Y-125391988D01*
X177724000Y-125391988D01*
X177828000Y-125391988D01*
X177932000Y-125391988D01*
X177932000Y-125261307D01*
X177932000Y-125130627D01*
X177828000Y-125130627D01*
X177724000Y-125130627D01*
X177724000Y-125261307D01*
X177724000Y-125391988D01*
X177610813Y-125391988D01*
X177605668Y-125374126D01*
X177604344Y-125365259D01*
X177603240Y-125351902D01*
X177602356Y-125334893D01*
X177601693Y-125315071D01*
X177601252Y-125293276D01*
X177601035Y-125270345D01*
X177601038Y-125261307D01*
X177601043Y-125247118D01*
X177601277Y-125224434D01*
X177601738Y-125203132D01*
X177602428Y-125184050D01*
X177603347Y-125168028D01*
X177604497Y-125155904D01*
X177605345Y-125150629D01*
X177613058Y-125124730D01*
X177624708Y-125102041D01*
X177640399Y-125082483D01*
X177660237Y-125065972D01*
X177684325Y-125052429D01*
X177712770Y-125041772D01*
X177745674Y-125033920D01*
X177758666Y-125031759D01*
X177772819Y-125030264D01*
X177790906Y-125029275D01*
X177811559Y-125028782D01*
X177833410Y-125028774D01*
X177855091Y-125029240D01*
G37*
G36*
X177124739Y-125029336D02*
G01*
X177164173Y-125033552D01*
X177199405Y-125040361D01*
X177230995Y-125049947D01*
X177259501Y-125062496D01*
X177285481Y-125078194D01*
X177296432Y-125086283D01*
X177318070Y-125106499D01*
X177336840Y-125130837D01*
X177352374Y-125158707D01*
X177364304Y-125189519D01*
X177367317Y-125199968D01*
X177373333Y-125222637D01*
X177373333Y-125499999D01*
X177373333Y-125777361D01*
X177365988Y-125803647D01*
X177354498Y-125836388D01*
X177339314Y-125865480D01*
X177320378Y-125890962D01*
X177297631Y-125912874D01*
X177271014Y-125931258D01*
X177240466Y-125946153D01*
X177205931Y-125957599D01*
X177167347Y-125965637D01*
X177124656Y-125970307D01*
X177121105Y-125970534D01*
X177074776Y-125971520D01*
X177031125Y-125968740D01*
X176990442Y-125962251D01*
X176953017Y-125952109D01*
X176919137Y-125938369D01*
X176899682Y-125927853D01*
X176878000Y-125914821D01*
X176861000Y-125924329D01*
X176844000Y-125933837D01*
X176844000Y-126074956D01*
X176844000Y-126216074D01*
X176772444Y-126216074D01*
X176753421Y-126216010D01*
X176736169Y-126215831D01*
X176721400Y-126215552D01*
X176709826Y-126215192D01*
X176702159Y-126214768D01*
X176699112Y-126214297D01*
X176699111Y-126214296D01*
X176698942Y-126211499D01*
X176698778Y-126203610D01*
X176698620Y-126190870D01*
X176698467Y-126173521D01*
X176698320Y-126151803D01*
X176698181Y-126125960D01*
X176698049Y-126096231D01*
X176697927Y-126062860D01*
X176697813Y-126026086D01*
X176697710Y-125986152D01*
X176697618Y-125943300D01*
X176697537Y-125897770D01*
X176697469Y-125849805D01*
X176697455Y-125837368D01*
X176844000Y-125837368D01*
X177036000Y-125837368D01*
X177228000Y-125837368D01*
X177228000Y-125499999D01*
X177228000Y-125162630D01*
X177036000Y-125162630D01*
X176844000Y-125162630D01*
X176844000Y-125499999D01*
X176844000Y-125837368D01*
X176697455Y-125837368D01*
X176697414Y-125799645D01*
X176697372Y-125747533D01*
X176697345Y-125693709D01*
X176697333Y-125638416D01*
X176697333Y-125624901D01*
X176697333Y-125499999D01*
X176697333Y-125037284D01*
X176770666Y-125037284D01*
X176844000Y-125037284D01*
X176844000Y-125051915D01*
X176844000Y-125066547D01*
X176861673Y-125075457D01*
X176879346Y-125084368D01*
X176900355Y-125071741D01*
X176930723Y-125056316D01*
X176964889Y-125044128D01*
X177002337Y-125035272D01*
X177042552Y-125029846D01*
X177085019Y-125027948D01*
X177124739Y-125029336D01*
G37*
G36*
X173527149Y-125028885D02*
G01*
X173549063Y-125029637D01*
X173568755Y-125030952D01*
X173584738Y-125032817D01*
X173585749Y-125032979D01*
X173624536Y-125041705D01*
X173661018Y-125054650D01*
X173694584Y-125071563D01*
X173718666Y-125087587D01*
X173730687Y-125095748D01*
X173740788Y-125100525D01*
X173748545Y-125102412D01*
X173754562Y-125103104D01*
X173759443Y-125102788D01*
X173764499Y-125100958D01*
X173771040Y-125097108D01*
X173780377Y-125090730D01*
X173782312Y-125089376D01*
X173815375Y-125069378D01*
X173851931Y-125053199D01*
X173891616Y-125040967D01*
X173934069Y-125032816D01*
X173941333Y-125031870D01*
X173959152Y-125030242D01*
X173980144Y-125029195D01*
X174002962Y-125028720D01*
X174026262Y-125028806D01*
X174048698Y-125029443D01*
X174068925Y-125030623D01*
X174085598Y-125032334D01*
X174089749Y-125032957D01*
X174128152Y-125041357D01*
X174162494Y-125053210D01*
X174192804Y-125068544D01*
X174219111Y-125087388D01*
X174241444Y-125109773D01*
X174259833Y-125135728D01*
X174274308Y-125165281D01*
X174284896Y-125198463D01*
X174291628Y-125235303D01*
X174291710Y-125235971D01*
X174292203Y-125242477D01*
X174292650Y-125253601D01*
X174293050Y-125269409D01*
X174293405Y-125289969D01*
X174293714Y-125315349D01*
X174293979Y-125345615D01*
X174294199Y-125380835D01*
X174294376Y-125421076D01*
X174294509Y-125466406D01*
X174294600Y-125516892D01*
X174294649Y-125572600D01*
X174294659Y-125611344D01*
X174294666Y-125962714D01*
X174220000Y-125962714D01*
X174145333Y-125962714D01*
X174145333Y-125562672D01*
X174145333Y-125162630D01*
X173961333Y-125162630D01*
X173777333Y-125162630D01*
X173777333Y-125562672D01*
X173777333Y-125962714D01*
X173704000Y-125962714D01*
X173630666Y-125962714D01*
X173630666Y-125562672D01*
X173630666Y-125162630D01*
X173446666Y-125162630D01*
X173262666Y-125162630D01*
X173262666Y-125562672D01*
X173262666Y-125962714D01*
X173188000Y-125962714D01*
X173113333Y-125962714D01*
X173113333Y-125499999D01*
X173113333Y-125037284D01*
X173188000Y-125037284D01*
X173262666Y-125037284D01*
X173262666Y-125053310D01*
X173262666Y-125069337D01*
X173279583Y-125077680D01*
X173296499Y-125086022D01*
X173314916Y-125075131D01*
X173342665Y-125060976D01*
X173374288Y-125048832D01*
X173408572Y-125039095D01*
X173444308Y-125032163D01*
X173446987Y-125031771D01*
X173462931Y-125030140D01*
X173482597Y-125029124D01*
X173504498Y-125028710D01*
X173527149Y-125028885D01*
G37*
G36*
X171987927Y-125028833D02*
G01*
X172026428Y-125031242D01*
X172062979Y-125035319D01*
X172096580Y-125041065D01*
X172126231Y-125048478D01*
X172129387Y-125049452D01*
X172163108Y-125062244D01*
X172192434Y-125078023D01*
X172217479Y-125096924D01*
X172238354Y-125119083D01*
X172255173Y-125144636D01*
X172268048Y-125173716D01*
X172277092Y-125206461D01*
X172281237Y-125231901D01*
X172281811Y-125239348D01*
X172282338Y-125251599D01*
X172282808Y-125268125D01*
X172283212Y-125288396D01*
X172283543Y-125311884D01*
X172283790Y-125338059D01*
X172283945Y-125366391D01*
X172283999Y-125396352D01*
X172284000Y-125396585D01*
X172284000Y-125538670D01*
X172025333Y-125538670D01*
X171766666Y-125538670D01*
X171766666Y-125688019D01*
X171766666Y-125837368D01*
X171950666Y-125837368D01*
X172134666Y-125837368D01*
X172134666Y-125748025D01*
X172134666Y-125658682D01*
X172209333Y-125658682D01*
X172284000Y-125658682D01*
X172284000Y-125702090D01*
X172283549Y-125731572D01*
X172282128Y-125756849D01*
X172279628Y-125778979D01*
X172275944Y-125799020D01*
X172273072Y-125810663D01*
X172262474Y-125840846D01*
X172247864Y-125867781D01*
X172229188Y-125891502D01*
X172206394Y-125912046D01*
X172179428Y-125929448D01*
X172148237Y-125943741D01*
X172112769Y-125954962D01*
X172072971Y-125963146D01*
X172036000Y-125967713D01*
X172009827Y-125969662D01*
X171981500Y-125971029D01*
X171953224Y-125971744D01*
X171927203Y-125971733D01*
X171918666Y-125971533D01*
X171870556Y-125968640D01*
X171826974Y-125963054D01*
X171787816Y-125954728D01*
X171752977Y-125943614D01*
X171722354Y-125929662D01*
X171695842Y-125912825D01*
X171673337Y-125893055D01*
X171654735Y-125870302D01*
X171639931Y-125844519D01*
X171638540Y-125841516D01*
X171633945Y-125830122D01*
X171629159Y-125816234D01*
X171625110Y-125802577D01*
X171624590Y-125800589D01*
X171618666Y-125777361D01*
X171618666Y-125499999D01*
X171618666Y-125426658D01*
X171766666Y-125426658D01*
X171950666Y-125426658D01*
X172134666Y-125426658D01*
X172134666Y-125294644D01*
X172134666Y-125162630D01*
X171950666Y-125162630D01*
X171766666Y-125162630D01*
X171766666Y-125294644D01*
X171766666Y-125426658D01*
X171618666Y-125426658D01*
X171618666Y-125294644D01*
X171618666Y-125222637D01*
X171624768Y-125198634D01*
X171635145Y-125166686D01*
X171649168Y-125138437D01*
X171666993Y-125113730D01*
X171688775Y-125092407D01*
X171714672Y-125074309D01*
X171744838Y-125059280D01*
X171771945Y-125049423D01*
X171801156Y-125041820D01*
X171834413Y-125035885D01*
X171870719Y-125031619D01*
X171909073Y-125029022D01*
X171948475Y-125028093D01*
X171987927Y-125028833D01*
G37*
G36*
X174917110Y-125029312D02*
G01*
X174963822Y-125032867D01*
X175005789Y-125038544D01*
X175043213Y-125046465D01*
X175076295Y-125056755D01*
X175105235Y-125069538D01*
X175130235Y-125084938D01*
X175151495Y-125103079D01*
X175169217Y-125124084D01*
X175183601Y-125148077D01*
X175194848Y-125175182D01*
X175203160Y-125205523D01*
X175203184Y-125205633D01*
X175203968Y-125209552D01*
X175204663Y-125213817D01*
X175205274Y-125218757D01*
X175205806Y-125224703D01*
X175206264Y-125231985D01*
X175206655Y-125240933D01*
X175206982Y-125251876D01*
X175207252Y-125265145D01*
X175207471Y-125281070D01*
X175207643Y-125299981D01*
X175207773Y-125322207D01*
X175207868Y-125348080D01*
X175207933Y-125377928D01*
X175207973Y-125412082D01*
X175207993Y-125450872D01*
X175207999Y-125494627D01*
X175208000Y-125499999D01*
X175208000Y-125545577D01*
X175207992Y-125586158D01*
X175207959Y-125622077D01*
X175207883Y-125653672D01*
X175207749Y-125681278D01*
X175207541Y-125705232D01*
X175207242Y-125725870D01*
X175206836Y-125743529D01*
X175206306Y-125758544D01*
X175205636Y-125771253D01*
X175204810Y-125781991D01*
X175203811Y-125791096D01*
X175202624Y-125798902D01*
X175201231Y-125805747D01*
X175199616Y-125811967D01*
X175197763Y-125817899D01*
X175195656Y-125823878D01*
X175193278Y-125830241D01*
X175191745Y-125834300D01*
X175178748Y-125861471D01*
X175161350Y-125885667D01*
X175139589Y-125906868D01*
X175113507Y-125925053D01*
X175083143Y-125940201D01*
X175048535Y-125952291D01*
X175009726Y-125961301D01*
X174966753Y-125967211D01*
X174936000Y-125969410D01*
X174912344Y-125970492D01*
X174892835Y-125971251D01*
X174876298Y-125971699D01*
X174861558Y-125971847D01*
X174847438Y-125971708D01*
X174832764Y-125971292D01*
X174816359Y-125970612D01*
X174816000Y-125970596D01*
X174768071Y-125966845D01*
X174724585Y-125960200D01*
X174685550Y-125950664D01*
X174650974Y-125938239D01*
X174620864Y-125922929D01*
X174595230Y-125904736D01*
X174574078Y-125883662D01*
X174573841Y-125883379D01*
X174560797Y-125864954D01*
X174549016Y-125842855D01*
X174546805Y-125837368D01*
X174675999Y-125837368D01*
X174868000Y-125837368D01*
X175060000Y-125837368D01*
X175060000Y-125499999D01*
X175060000Y-125162630D01*
X174868000Y-125162630D01*
X174675999Y-125162630D01*
X174675999Y-125499999D01*
X174675999Y-125837368D01*
X174546805Y-125837368D01*
X174539292Y-125818720D01*
X174534101Y-125801364D01*
X174528000Y-125777361D01*
X174528000Y-125499999D01*
X174528000Y-125222637D01*
X174533982Y-125199164D01*
X174543973Y-125168036D01*
X174557273Y-125140541D01*
X174574116Y-125116465D01*
X174594735Y-125095592D01*
X174619365Y-125077709D01*
X174648240Y-125062600D01*
X174681594Y-125050050D01*
X174703261Y-125043813D01*
X174726278Y-125038869D01*
X174753572Y-125034776D01*
X174784143Y-125031600D01*
X174816992Y-125029408D01*
X174851120Y-125028270D01*
X174885528Y-125028253D01*
X174917110Y-125029312D01*
G37*
D12*
%TO.C,R10*%
X164939564Y-109090000D02*
X163485436Y-109090000D01*
X164939564Y-110910000D02*
X163485436Y-110910000D01*
%TO.C,R8*%
X157977064Y-112840000D02*
X156522936Y-112840000D01*
X157977064Y-114660000D02*
X156522936Y-114660000D01*
%TO.C,C8*%
X184563748Y-100590000D02*
X185986252Y-100590000D01*
X184563748Y-102410000D02*
X185986252Y-102410000D01*
%TO.C,C12*%
X172313748Y-113090000D02*
X173736252Y-113090000D01*
X172313748Y-114910000D02*
X173736252Y-114910000D01*
%TO.C,R9*%
X156560436Y-109090000D02*
X158014564Y-109090000D01*
X156560436Y-110910000D02*
X158014564Y-110910000D01*
%TO.C,D3*%
X162950000Y-92875000D02*
X162950000Y-96875000D01*
X162950000Y-92875000D02*
X168550000Y-92875000D01*
X162950000Y-96875000D02*
X167950000Y-96875000D01*
X168550000Y-96275000D02*
X167950000Y-96875000D01*
X168550000Y-96275000D02*
X168550000Y-92875000D01*
%TO.C,D2*%
X168065000Y-103865000D02*
X168065000Y-106135000D01*
X168065000Y-106135000D02*
X171950000Y-106135000D01*
X171950000Y-103865000D02*
X168065000Y-103865000D01*
%TO.C,R4*%
X154060436Y-89340000D02*
X155514564Y-89340000D01*
X154060436Y-91160000D02*
X155514564Y-91160000D01*
%TO.C,R2*%
X175060436Y-93090000D02*
X176514564Y-93090000D01*
X175060436Y-94910000D02*
X176514564Y-94910000D01*
D14*
%TO.C,D4*%
X174000000Y-100875000D02*
X174400000Y-100875000D01*
X174400000Y-100875000D02*
X175700000Y-100875000D01*
X174400000Y-102125000D02*
X174000000Y-102125000D01*
X174400000Y-102125000D02*
X174400000Y-100875000D01*
X175700000Y-102125000D02*
X174400000Y-102125000D01*
D12*
%TO.C,R12*%
X167810436Y-98840000D02*
X169264564Y-98840000D01*
X167810436Y-100660000D02*
X169264564Y-100660000D01*
%TO.C,R14*%
X143764564Y-120590000D02*
X142310436Y-120590000D01*
X143764564Y-122410000D02*
X142310436Y-122410000D01*
%TO.C,U1*%
X145890000Y-97540000D02*
X145890000Y-97130000D01*
X145890000Y-104110000D02*
X145890000Y-103460000D01*
X146540000Y-96890000D02*
X146190000Y-96890000D01*
X146540000Y-104110000D02*
X145890000Y-104110000D01*
X152460000Y-96890000D02*
X153110000Y-96890000D01*
X152460000Y-104110000D02*
X153110000Y-104110000D01*
X153110000Y-96890000D02*
X153110000Y-97540000D01*
X153110000Y-104110000D02*
X153110000Y-103460000D01*
X145890000Y-96890000D02*
X145650000Y-96560000D01*
X146130000Y-96560000D01*
X145890000Y-96890000D01*
G36*
X145890000Y-96890000D02*
G01*
X145650000Y-96560000D01*
X146130000Y-96560000D01*
X145890000Y-96890000D01*
G37*
%TO.C,R1*%
X175060436Y-104090000D02*
X176514564Y-104090000D01*
X175060436Y-105910000D02*
X176514564Y-105910000D01*
D15*
%TO.C,R13*%
X143208599Y-124861000D02*
G75*
G02*
X145316800Y-124886400I1043444J-897196D01*
G01*
X145316800Y-126613599D02*
G75*
G02*
X143208600Y-126639000I-1064757J871793D01*
G01*
D13*
%TO.C,REF\u002A\u002A*%
G36*
X187229339Y-113992414D02*
G01*
X183733777Y-113992414D01*
X183733777Y-113141218D01*
X187229339Y-113141218D01*
X187229339Y-113992414D01*
G37*
G36*
X186209894Y-111410495D02*
G01*
X186215855Y-111410949D01*
X186221729Y-111411695D01*
X186227508Y-111412727D01*
X186233187Y-111414038D01*
X186238756Y-111415620D01*
X186244210Y-111417465D01*
X186249540Y-111419567D01*
X186254739Y-111421917D01*
X186259800Y-111424509D01*
X186264715Y-111427336D01*
X186269477Y-111430389D01*
X186274079Y-111433661D01*
X186278513Y-111437146D01*
X186282772Y-111440835D01*
X186286848Y-111444721D01*
X186290735Y-111448798D01*
X186294424Y-111453057D01*
X186297908Y-111457491D01*
X186301181Y-111462093D01*
X186304234Y-111466855D01*
X186307060Y-111471770D01*
X186309652Y-111476831D01*
X186312003Y-111482030D01*
X186314105Y-111487360D01*
X186315950Y-111492813D01*
X186317532Y-111498383D01*
X186318842Y-111504061D01*
X186319875Y-111509841D01*
X186320621Y-111515715D01*
X186321074Y-111521675D01*
X186321227Y-111527715D01*
X186321074Y-111533755D01*
X186320621Y-111539715D01*
X186319875Y-111545589D01*
X186318842Y-111551368D01*
X186317532Y-111557046D01*
X186315950Y-111562616D01*
X186314105Y-111568069D01*
X186312003Y-111573399D01*
X186309652Y-111578597D01*
X186307060Y-111583658D01*
X186304234Y-111588573D01*
X186301181Y-111593334D01*
X186297908Y-111597936D01*
X186294424Y-111602369D01*
X186290735Y-111606628D01*
X186286848Y-111610703D01*
X186282772Y-111614589D01*
X186278513Y-111618278D01*
X186274079Y-111621762D01*
X186269477Y-111625034D01*
X186264715Y-111628087D01*
X186259800Y-111630913D01*
X186254739Y-111633504D01*
X186249540Y-111635855D01*
X186244210Y-111637956D01*
X186238756Y-111639801D01*
X186233187Y-111641383D01*
X186227508Y-111642693D01*
X186221729Y-111643725D01*
X186215855Y-111644471D01*
X186209894Y-111644925D01*
X186203855Y-111645077D01*
X186197815Y-111644925D01*
X186191855Y-111644471D01*
X186185981Y-111643725D01*
X186180201Y-111642693D01*
X186174523Y-111641383D01*
X186168953Y-111639801D01*
X186163500Y-111637956D01*
X186158170Y-111635855D01*
X186152970Y-111633504D01*
X186147910Y-111630913D01*
X186142994Y-111628087D01*
X186138232Y-111625034D01*
X186133630Y-111621762D01*
X186129196Y-111618278D01*
X186124937Y-111614589D01*
X186120861Y-111610703D01*
X186116975Y-111606628D01*
X186113285Y-111602369D01*
X186109801Y-111597936D01*
X186106528Y-111593334D01*
X186103475Y-111588572D01*
X186100649Y-111583658D01*
X186098057Y-111578597D01*
X186095706Y-111573399D01*
X186093605Y-111568069D01*
X186091759Y-111562616D01*
X186090178Y-111557046D01*
X186088867Y-111551368D01*
X186087835Y-111545589D01*
X186087088Y-111539715D01*
X186086635Y-111533755D01*
X186086482Y-111527715D01*
X186086635Y-111521676D01*
X186087088Y-111515715D01*
X186087835Y-111509841D01*
X186088867Y-111504062D01*
X186090178Y-111498383D01*
X186091759Y-111492814D01*
X186093605Y-111487360D01*
X186095706Y-111482030D01*
X186098057Y-111476831D01*
X186100649Y-111471770D01*
X186103475Y-111466855D01*
X186106528Y-111462093D01*
X186109801Y-111457491D01*
X186113285Y-111453057D01*
X186116975Y-111448798D01*
X186120861Y-111444722D01*
X186124937Y-111440835D01*
X186129196Y-111437146D01*
X186133630Y-111433661D01*
X186138232Y-111430389D01*
X186142994Y-111427336D01*
X186147910Y-111424510D01*
X186152970Y-111421917D01*
X186158170Y-111419567D01*
X186163500Y-111417465D01*
X186168953Y-111415620D01*
X186174523Y-111414038D01*
X186180201Y-111412727D01*
X186185981Y-111411695D01*
X186191855Y-111410949D01*
X186197815Y-111410495D01*
X186203855Y-111410343D01*
X186209894Y-111410495D01*
G37*
G36*
X187620808Y-108127235D02*
G01*
X186697785Y-109067430D01*
X186716999Y-109067430D01*
X186716999Y-109488117D01*
X186442209Y-109488117D01*
X186295478Y-111062478D01*
X187380875Y-112205587D01*
X187308868Y-112273925D01*
X186546551Y-111469773D01*
X186547664Y-111476862D01*
X186548634Y-111483998D01*
X186549459Y-111491180D01*
X186550138Y-111498405D01*
X186550669Y-111505672D01*
X186551050Y-111512981D01*
X186551280Y-111520329D01*
X186551357Y-111527715D01*
X186550905Y-111545598D01*
X186549563Y-111563246D01*
X186547353Y-111580637D01*
X186544297Y-111597750D01*
X186540417Y-111614562D01*
X186535734Y-111631052D01*
X186530271Y-111647198D01*
X186524049Y-111662979D01*
X186517090Y-111678371D01*
X186509416Y-111693355D01*
X186501049Y-111707907D01*
X186492010Y-111722005D01*
X186482322Y-111735629D01*
X186472006Y-111748756D01*
X186461084Y-111761365D01*
X186449578Y-111773433D01*
X186437510Y-111784938D01*
X186424902Y-111795860D01*
X186411774Y-111806176D01*
X186398150Y-111815864D01*
X186384052Y-111824902D01*
X186369500Y-111833269D01*
X186354516Y-111840942D01*
X186339124Y-111847901D01*
X186323344Y-111854123D01*
X186307198Y-111859586D01*
X186290708Y-111864268D01*
X186273896Y-111868148D01*
X186256784Y-111871204D01*
X186239393Y-111873413D01*
X186221746Y-111874755D01*
X186203864Y-111875207D01*
X186179092Y-111874338D01*
X186154788Y-111871769D01*
X186131012Y-111867559D01*
X186107821Y-111861766D01*
X186085276Y-111854449D01*
X186063433Y-111845666D01*
X186042352Y-111835475D01*
X186022091Y-111823936D01*
X186002709Y-111811106D01*
X185984264Y-111797045D01*
X185966814Y-111781810D01*
X185950419Y-111765460D01*
X185935136Y-111748054D01*
X185921024Y-111729649D01*
X185908143Y-111710305D01*
X185896549Y-111690080D01*
X185046771Y-111690080D01*
X185046771Y-111871608D01*
X184823196Y-111871608D01*
X184823196Y-111689617D01*
X184820746Y-111689211D01*
X184818305Y-111688684D01*
X184815879Y-111688039D01*
X184813471Y-111687282D01*
X184811085Y-111686415D01*
X184808726Y-111685442D01*
X184806396Y-111684366D01*
X184804101Y-111683192D01*
X184799629Y-111680563D01*
X184795342Y-111677582D01*
X184791272Y-111674280D01*
X184787450Y-111670687D01*
X184783909Y-111666830D01*
X184780680Y-111662739D01*
X184777795Y-111658445D01*
X184776492Y-111656230D01*
X184775287Y-111653975D01*
X184774184Y-111651684D01*
X184773188Y-111649360D01*
X184772301Y-111647007D01*
X184771528Y-111644628D01*
X184770874Y-111642228D01*
X184770341Y-111639809D01*
X184769934Y-111637377D01*
X184769658Y-111634933D01*
X184721921Y-111080073D01*
X183537530Y-112286503D01*
X183466728Y-112216928D01*
X184695348Y-110966662D01*
X184833250Y-110966662D01*
X184885100Y-111569440D01*
X185858826Y-111569440D01*
X185858252Y-111564297D01*
X185857752Y-111559133D01*
X185857327Y-111553946D01*
X185856978Y-111548740D01*
X185856706Y-111543512D01*
X185856510Y-111538265D01*
X185856392Y-111533000D01*
X185856352Y-111527715D01*
X186023131Y-111527715D01*
X186023366Y-111537015D01*
X186024064Y-111546193D01*
X186025213Y-111555237D01*
X186026802Y-111564136D01*
X186028820Y-111572880D01*
X186031255Y-111581456D01*
X186034096Y-111589853D01*
X186037332Y-111598060D01*
X186040951Y-111606065D01*
X186044942Y-111613857D01*
X186049293Y-111621425D01*
X186053994Y-111628758D01*
X186059032Y-111635844D01*
X186064397Y-111642671D01*
X186070077Y-111649228D01*
X186076061Y-111655505D01*
X186082337Y-111661489D01*
X186088895Y-111667169D01*
X186095722Y-111672534D01*
X186102807Y-111677573D01*
X186110140Y-111682274D01*
X186117708Y-111686626D01*
X186125500Y-111690617D01*
X186133506Y-111694236D01*
X186141713Y-111697472D01*
X186150110Y-111700313D01*
X186158686Y-111702749D01*
X186167430Y-111704767D01*
X186176330Y-111706356D01*
X186185375Y-111707506D01*
X186194554Y-111708204D01*
X186203854Y-111708439D01*
X186213154Y-111708204D01*
X186222332Y-111707506D01*
X186231376Y-111706356D01*
X186240276Y-111704767D01*
X186249019Y-111702749D01*
X186257595Y-111700313D01*
X186265992Y-111697472D01*
X186274199Y-111694236D01*
X186282204Y-111690617D01*
X186289997Y-111686626D01*
X186297565Y-111682274D01*
X186304897Y-111677573D01*
X186311983Y-111672534D01*
X186318810Y-111667169D01*
X186325368Y-111661489D01*
X186331644Y-111655505D01*
X186337628Y-111649228D01*
X186343309Y-111642671D01*
X186348674Y-111635844D01*
X186353712Y-111628758D01*
X186358413Y-111621425D01*
X186362765Y-111613857D01*
X186366756Y-111606065D01*
X186370375Y-111598060D01*
X186373611Y-111589853D01*
X186376453Y-111581456D01*
X186378888Y-111572880D01*
X186380906Y-111564136D01*
X186382496Y-111555237D01*
X186383645Y-111546193D01*
X186384343Y-111537015D01*
X186384578Y-111527715D01*
X186384343Y-111518415D01*
X186383645Y-111509236D01*
X186382496Y-111500191D01*
X186380906Y-111491291D01*
X186378888Y-111482547D01*
X186376453Y-111473971D01*
X186373611Y-111465574D01*
X186370375Y-111457366D01*
X186366756Y-111449361D01*
X186362765Y-111441568D01*
X186358413Y-111434000D01*
X186353712Y-111426668D01*
X186348674Y-111419582D01*
X186343309Y-111412755D01*
X186337628Y-111406198D01*
X186331644Y-111399922D01*
X186325368Y-111393938D01*
X186318810Y-111388258D01*
X186311983Y-111382893D01*
X186304897Y-111377854D01*
X186297565Y-111373154D01*
X186289997Y-111368802D01*
X186282204Y-111364812D01*
X186274199Y-111361193D01*
X186265992Y-111357957D01*
X186257595Y-111355116D01*
X186249019Y-111352681D01*
X186240276Y-111350663D01*
X186231376Y-111349074D01*
X186222332Y-111347924D01*
X186213154Y-111347226D01*
X186203854Y-111346991D01*
X186194554Y-111347226D01*
X186185375Y-111347924D01*
X186176331Y-111349074D01*
X186167430Y-111350663D01*
X186158687Y-111352681D01*
X186150110Y-111355116D01*
X186141713Y-111357957D01*
X186133506Y-111361193D01*
X186125500Y-111364812D01*
X186117708Y-111368802D01*
X186110140Y-111373154D01*
X186102807Y-111377854D01*
X186095722Y-111382893D01*
X186088895Y-111388258D01*
X186082337Y-111393938D01*
X186076061Y-111399922D01*
X186070077Y-111406198D01*
X186064397Y-111412755D01*
X186059032Y-111419582D01*
X186053994Y-111426668D01*
X186049293Y-111434000D01*
X186044942Y-111441568D01*
X186040951Y-111449361D01*
X186037332Y-111457366D01*
X186034096Y-111465574D01*
X186031255Y-111473971D01*
X186028820Y-111482547D01*
X186026802Y-111491291D01*
X186025213Y-111500191D01*
X186024064Y-111509236D01*
X186023366Y-111518415D01*
X186023131Y-111527715D01*
X185856352Y-111527715D01*
X185856742Y-111511109D01*
X185857900Y-111494704D01*
X185859808Y-111478517D01*
X185862449Y-111462567D01*
X185865806Y-111446869D01*
X185869860Y-111431442D01*
X185874595Y-111416304D01*
X185879994Y-111401471D01*
X185886038Y-111386961D01*
X185892710Y-111372792D01*
X185899993Y-111358980D01*
X185907869Y-111345545D01*
X185916321Y-111332502D01*
X185925332Y-111319870D01*
X185934883Y-111307665D01*
X185944958Y-111295906D01*
X185955539Y-111284610D01*
X185966609Y-111273794D01*
X185978150Y-111263476D01*
X185990144Y-111253673D01*
X186002574Y-111244402D01*
X186015424Y-111235682D01*
X186028674Y-111227529D01*
X186042308Y-111219961D01*
X186056309Y-111212996D01*
X186070658Y-111206651D01*
X186085339Y-111200943D01*
X186100334Y-111195890D01*
X186115626Y-111191509D01*
X186131196Y-111187818D01*
X186147029Y-111184835D01*
X186163105Y-111182576D01*
X186173059Y-111075790D01*
X185462239Y-110325971D01*
X184833250Y-110966662D01*
X184695348Y-110966662D01*
X184710811Y-110950928D01*
X184588783Y-109532325D01*
X184709876Y-109532325D01*
X184822161Y-110837617D01*
X185393077Y-110256637D01*
X185530306Y-110256637D01*
X186185124Y-110946273D01*
X186321016Y-109488117D01*
X186307613Y-109488117D01*
X186307613Y-109464852D01*
X185530306Y-110256637D01*
X185393077Y-110256637D01*
X185394826Y-110254857D01*
X184709876Y-109532325D01*
X184588783Y-109532325D01*
X184576698Y-109391838D01*
X183393162Y-108143362D01*
X183393162Y-108005871D01*
X184563497Y-109238432D01*
X184533091Y-108884957D01*
X184654186Y-108884957D01*
X184696654Y-109378667D01*
X185462862Y-110185615D01*
X185916074Y-109724430D01*
X185277112Y-109724430D01*
X185277112Y-109483130D01*
X186016103Y-109483130D01*
X186016103Y-109622632D01*
X186254902Y-109379632D01*
X186452303Y-109379632D01*
X186611411Y-109379632D01*
X186611411Y-109175935D01*
X186591272Y-109175935D01*
X186458707Y-109310962D01*
X186452303Y-109379632D01*
X186254902Y-109379632D01*
X186307613Y-109325993D01*
X186307613Y-109067451D01*
X186360217Y-109067451D01*
X186377218Y-108884957D01*
X184654186Y-108884957D01*
X184533091Y-108884957D01*
X184532661Y-108879960D01*
X184387318Y-108879960D01*
X184387318Y-108759310D01*
X184515197Y-108759310D01*
X184970490Y-108759310D01*
X186372483Y-108759310D01*
X186366864Y-108747341D01*
X186360344Y-108735769D01*
X186352951Y-108724589D01*
X186344715Y-108713794D01*
X186335665Y-108703377D01*
X186325829Y-108693332D01*
X186315238Y-108683652D01*
X186303921Y-108674330D01*
X186291906Y-108665360D01*
X186279224Y-108656736D01*
X186265903Y-108648451D01*
X186251973Y-108640498D01*
X186222400Y-108625564D01*
X186190741Y-108611880D01*
X186157229Y-108599394D01*
X186122098Y-108588055D01*
X186085583Y-108577809D01*
X186047916Y-108568604D01*
X186009332Y-108560387D01*
X185970064Y-108553107D01*
X185930348Y-108546710D01*
X185890426Y-108541146D01*
X185890426Y-108653752D01*
X185297240Y-108653752D01*
X185297240Y-108533102D01*
X185297240Y-108528457D01*
X185257367Y-108531714D01*
X185216719Y-108535631D01*
X185175545Y-108540258D01*
X185134095Y-108545644D01*
X185092615Y-108551842D01*
X185051356Y-108558900D01*
X185010564Y-108566870D01*
X184970490Y-108575802D01*
X184970490Y-108759310D01*
X184515197Y-108759310D01*
X184515200Y-108759300D01*
X184644192Y-108759300D01*
X184764319Y-108759300D01*
X184764319Y-108649519D01*
X184754255Y-108655142D01*
X184744485Y-108660921D01*
X184735019Y-108666857D01*
X184725867Y-108672953D01*
X184717039Y-108679210D01*
X184708546Y-108685631D01*
X184700396Y-108692218D01*
X184692601Y-108698973D01*
X184685171Y-108705897D01*
X184678114Y-108712994D01*
X184671441Y-108720265D01*
X184665163Y-108727711D01*
X184659289Y-108735336D01*
X184653829Y-108743141D01*
X184648793Y-108751129D01*
X184644192Y-108759300D01*
X184515200Y-108759300D01*
X184516056Y-108756716D01*
X184516985Y-108754017D01*
X184517986Y-108751215D01*
X184519060Y-108748314D01*
X184520211Y-108745315D01*
X184521441Y-108742222D01*
X184522751Y-108739038D01*
X184524145Y-108735763D01*
X184532643Y-108717663D01*
X184542168Y-108700207D01*
X184552687Y-108683386D01*
X184564165Y-108667187D01*
X184576569Y-108651599D01*
X184589864Y-108636612D01*
X184604016Y-108622214D01*
X184618991Y-108608392D01*
X184634755Y-108595137D01*
X184651274Y-108582436D01*
X184660683Y-108575802D01*
X184668514Y-108570279D01*
X184686440Y-108558654D01*
X184705019Y-108547549D01*
X184724216Y-108536954D01*
X184743997Y-108526857D01*
X184764329Y-108517246D01*
X184764329Y-108477784D01*
X185417870Y-108477784D01*
X185417870Y-108533102D01*
X185769756Y-108533102D01*
X185769756Y-108477784D01*
X185417870Y-108477784D01*
X184764329Y-108477784D01*
X184764329Y-108437507D01*
X184970490Y-108437507D01*
X184970490Y-108449843D01*
X185011029Y-108441106D01*
X185051982Y-108433370D01*
X185093185Y-108426580D01*
X185134476Y-108420682D01*
X185175690Y-108415622D01*
X185216664Y-108411345D01*
X185257235Y-108407796D01*
X185297240Y-108404921D01*
X185297240Y-108357144D01*
X185890426Y-108357144D01*
X185890426Y-108418295D01*
X185970683Y-108429867D01*
X186010604Y-108436957D01*
X186050157Y-108444986D01*
X186089173Y-108454006D01*
X186127483Y-108464072D01*
X186164918Y-108475236D01*
X186201310Y-108487550D01*
X186236488Y-108501068D01*
X186270283Y-108515842D01*
X186302527Y-108531926D01*
X186333051Y-108549371D01*
X186361685Y-108568232D01*
X186388260Y-108588561D01*
X186412607Y-108610411D01*
X186434557Y-108633834D01*
X186440267Y-108626964D01*
X186446344Y-108620424D01*
X186452772Y-108614229D01*
X186459535Y-108608395D01*
X186466617Y-108602938D01*
X186474003Y-108597874D01*
X186481678Y-108593217D01*
X186489625Y-108588984D01*
X186497830Y-108585190D01*
X186506275Y-108581852D01*
X186514946Y-108578984D01*
X186523828Y-108576602D01*
X186532903Y-108574723D01*
X186542157Y-108573361D01*
X186551575Y-108572532D01*
X186561139Y-108572253D01*
X186569418Y-108572462D01*
X186577588Y-108573083D01*
X186585639Y-108574106D01*
X186593561Y-108575521D01*
X186601344Y-108577317D01*
X186608978Y-108579484D01*
X186616452Y-108582013D01*
X186623758Y-108584894D01*
X186630884Y-108588115D01*
X186637820Y-108591667D01*
X186644557Y-108595541D01*
X186651083Y-108599725D01*
X186657390Y-108604210D01*
X186663467Y-108608985D01*
X186669304Y-108614041D01*
X186674891Y-108619368D01*
X186680217Y-108624954D01*
X186685273Y-108630791D01*
X186690049Y-108636868D01*
X186694534Y-108643175D01*
X186698718Y-108649702D01*
X186702591Y-108656439D01*
X186706144Y-108663375D01*
X186709365Y-108670501D01*
X186712245Y-108677806D01*
X186714774Y-108685281D01*
X186716942Y-108692915D01*
X186718738Y-108700698D01*
X186720153Y-108708620D01*
X186721176Y-108716671D01*
X186721797Y-108724841D01*
X186722006Y-108733119D01*
X186721797Y-108741397D01*
X186721176Y-108749566D01*
X186720153Y-108757616D01*
X186718738Y-108765538D01*
X186716942Y-108773320D01*
X186714774Y-108780954D01*
X186712245Y-108788428D01*
X186709365Y-108795733D01*
X186706144Y-108802859D01*
X186702591Y-108809795D01*
X186698718Y-108816532D01*
X186694534Y-108823059D01*
X186690049Y-108829366D01*
X186685273Y-108835443D01*
X186680217Y-108841280D01*
X186674891Y-108846867D01*
X186669304Y-108852194D01*
X186663467Y-108857250D01*
X186657390Y-108862026D01*
X186651083Y-108866511D01*
X186644557Y-108870695D01*
X186637820Y-108874569D01*
X186630884Y-108878122D01*
X186623758Y-108881343D01*
X186616452Y-108884224D01*
X186608978Y-108886753D01*
X186601344Y-108888921D01*
X186593561Y-108890717D01*
X186585639Y-108892132D01*
X186577588Y-108893155D01*
X186569418Y-108893777D01*
X186561139Y-108893986D01*
X186557004Y-108893934D01*
X186552895Y-108893778D01*
X186548812Y-108893521D01*
X186544758Y-108893162D01*
X186540732Y-108892704D01*
X186536738Y-108892147D01*
X186532775Y-108891493D01*
X186528845Y-108890743D01*
X186524950Y-108889899D01*
X186521091Y-108888961D01*
X186517268Y-108887930D01*
X186513484Y-108886809D01*
X186509739Y-108885598D01*
X186506034Y-108884298D01*
X186502372Y-108882911D01*
X186498753Y-108881438D01*
X186481410Y-109067440D01*
X186561702Y-109067440D01*
X187620808Y-107989674D01*
X187620808Y-108127235D01*
G37*
%TO.C,LV-01*%
G36*
X168434396Y-122627453D02*
G01*
X168434396Y-123562500D01*
X168184333Y-123562500D01*
X167934271Y-123562500D01*
X167935534Y-122628750D01*
X167936798Y-121695000D01*
X168185597Y-121693703D01*
X168434396Y-121692406D01*
X168434396Y-122627453D01*
G37*
G36*
X169319570Y-122367500D02*
G01*
X169319570Y-123562500D01*
X169072021Y-123562500D01*
X168824472Y-123562500D01*
X168824472Y-122367500D01*
X168824472Y-121172500D01*
X169072021Y-121172500D01*
X169319570Y-121172500D01*
X169319570Y-122367500D01*
G37*
G36*
X170204744Y-122235000D02*
G01*
X170204744Y-123562500D01*
X169957195Y-123562500D01*
X169709647Y-123562500D01*
X169709647Y-122235000D01*
X169709647Y-120907500D01*
X169957195Y-120907500D01*
X170204744Y-120907500D01*
X170204744Y-122235000D01*
G37*
G36*
X175365760Y-121945000D02*
G01*
X175365760Y-122222500D01*
X175090706Y-122222500D01*
X174815652Y-122222500D01*
X174815652Y-122892500D01*
X174815652Y-123562500D01*
X174565603Y-123562500D01*
X174315553Y-123562500D01*
X174315553Y-122627500D01*
X174315553Y-121692500D01*
X174558101Y-121692500D01*
X174800649Y-121692500D01*
X174800649Y-121759279D01*
X174800649Y-121826058D01*
X174844117Y-121841712D01*
X174887586Y-121857365D01*
X174925383Y-121820806D01*
X174970363Y-121781358D01*
X175016930Y-121749162D01*
X175067783Y-121722131D01*
X175116624Y-121702823D01*
X175171954Y-121687094D01*
X175230701Y-121675583D01*
X175289795Y-121668933D01*
X175329503Y-121667514D01*
X175365760Y-121667500D01*
X175365760Y-121945000D01*
G37*
G36*
X171084917Y-121473836D02*
G01*
X171084917Y-121775172D01*
X171126755Y-121791939D01*
X171168593Y-121808706D01*
X171195786Y-121786562D01*
X171249427Y-121748253D01*
X171307074Y-121717658D01*
X171369381Y-121694590D01*
X171437001Y-121678860D01*
X171510590Y-121670282D01*
X171590799Y-121668666D01*
X171605020Y-121669066D01*
X171656580Y-121671894D01*
X171700977Y-121676811D01*
X171740915Y-121684294D01*
X171779102Y-121694822D01*
X171807560Y-121704752D01*
X171864894Y-121731459D01*
X171916167Y-121766003D01*
X171961090Y-121808053D01*
X171999374Y-121857280D01*
X172030731Y-121913353D01*
X172054873Y-121975942D01*
X172059982Y-121993421D01*
X172063338Y-122005706D01*
X172066380Y-122017236D01*
X172069124Y-122028535D01*
X172071585Y-122040126D01*
X172073778Y-122052533D01*
X172075720Y-122066279D01*
X172077425Y-122081887D01*
X172078909Y-122099880D01*
X172080187Y-122120783D01*
X172081275Y-122145117D01*
X172082188Y-122173407D01*
X172082941Y-122206176D01*
X172083551Y-122243947D01*
X172084031Y-122287244D01*
X172084398Y-122336589D01*
X172084667Y-122392507D01*
X172084854Y-122455520D01*
X172084973Y-122526152D01*
X172085041Y-122604926D01*
X172085072Y-122692366D01*
X172085082Y-122788994D01*
X172085085Y-122846250D01*
X172085114Y-123562500D01*
X171835065Y-123562500D01*
X171585016Y-123562500D01*
X171585016Y-122827500D01*
X171585016Y-122092500D01*
X171334967Y-122092500D01*
X171084917Y-122092500D01*
X171084917Y-122827500D01*
X171084917Y-123562500D01*
X170834868Y-123562500D01*
X170584819Y-123562500D01*
X170584819Y-122367500D01*
X170584819Y-121172500D01*
X170834868Y-121172500D01*
X171084917Y-121172500D01*
X171084917Y-121473836D01*
G37*
G36*
X177106103Y-122367500D02*
G01*
X177106103Y-123562500D01*
X176856054Y-123562500D01*
X176606004Y-123562500D01*
X176605939Y-123523750D01*
X176605874Y-123485000D01*
X176566301Y-123468377D01*
X176526728Y-123451754D01*
X176490101Y-123479875D01*
X176432651Y-123517752D01*
X176369135Y-123548006D01*
X176300262Y-123570375D01*
X176226737Y-123584593D01*
X176201788Y-123587431D01*
X176173163Y-123589921D01*
X176149415Y-123591289D01*
X176127288Y-123591523D01*
X176103524Y-123590611D01*
X176074868Y-123588542D01*
X176055935Y-123586915D01*
X175979113Y-123576154D01*
X175909133Y-123558111D01*
X175846017Y-123532805D01*
X175789785Y-123500253D01*
X175740455Y-123460473D01*
X175698048Y-123413483D01*
X175662583Y-123359300D01*
X175634081Y-123297941D01*
X175612561Y-123229425D01*
X175602471Y-123181880D01*
X175600969Y-123172841D01*
X175599639Y-123163321D01*
X175599549Y-123162500D01*
X176090903Y-123162500D01*
X176348454Y-123162500D01*
X176606004Y-123162500D01*
X176606004Y-122627500D01*
X176606004Y-122092500D01*
X176348454Y-122092500D01*
X176090903Y-122092500D01*
X176090903Y-122627500D01*
X176090903Y-123162500D01*
X175599549Y-123162500D01*
X175598472Y-123152687D01*
X175597457Y-123140302D01*
X175596582Y-123125531D01*
X175595839Y-123107739D01*
X175595216Y-123086292D01*
X175594704Y-123060553D01*
X175594290Y-123029889D01*
X175593966Y-122993662D01*
X175593720Y-122951239D01*
X175593543Y-122901985D01*
X175593423Y-122845263D01*
X175593350Y-122780439D01*
X175593314Y-122706878D01*
X175593305Y-122627500D01*
X175593305Y-122625000D01*
X175593304Y-122539920D01*
X175593322Y-122464191D01*
X175593390Y-122397163D01*
X175593538Y-122338186D01*
X175593799Y-122286610D01*
X175594203Y-122241787D01*
X175594780Y-122203066D01*
X175595563Y-122169798D01*
X175596582Y-122141332D01*
X175597868Y-122117021D01*
X175599452Y-122096213D01*
X175601365Y-122078260D01*
X175603639Y-122062511D01*
X175606304Y-122048318D01*
X175609392Y-122035030D01*
X175612932Y-122021998D01*
X175616958Y-122008572D01*
X175621498Y-121994104D01*
X175623799Y-121986821D01*
X175648587Y-121923050D01*
X175680489Y-121866287D01*
X175719447Y-121816567D01*
X175765403Y-121773925D01*
X175818300Y-121738399D01*
X175878081Y-121710024D01*
X175944689Y-121688835D01*
X176018065Y-121674870D01*
X176098153Y-121668163D01*
X176134053Y-121667520D01*
X176210400Y-121670821D01*
X176280136Y-121680889D01*
X176344295Y-121698038D01*
X176403908Y-121722583D01*
X176460008Y-121754839D01*
X176489794Y-121776022D01*
X176526115Y-121803655D01*
X176566059Y-121787166D01*
X176606004Y-121770678D01*
X176606004Y-121471589D01*
X176606004Y-121172500D01*
X176856054Y-121172500D01*
X177106103Y-121172500D01*
X177106103Y-122367500D01*
G37*
G36*
X166495264Y-121173873D02*
G01*
X166585388Y-121174133D01*
X166666081Y-121174378D01*
X166737913Y-121174617D01*
X166801455Y-121174863D01*
X166857279Y-121175126D01*
X166905955Y-121175417D01*
X166948053Y-121175748D01*
X166984144Y-121176129D01*
X167014799Y-121176572D01*
X167040590Y-121177087D01*
X167062085Y-121177686D01*
X167079858Y-121178379D01*
X167094477Y-121179177D01*
X167106514Y-121180093D01*
X167116539Y-121181136D01*
X167125124Y-121182317D01*
X167132839Y-121183648D01*
X167140255Y-121185140D01*
X167146339Y-121186453D01*
X167217767Y-121205370D01*
X167281271Y-121229315D01*
X167337803Y-121258703D01*
X167384050Y-121290576D01*
X167427457Y-121330781D01*
X167465113Y-121378698D01*
X167496637Y-121433603D01*
X167521646Y-121494771D01*
X167539759Y-121561477D01*
X167546406Y-121598653D01*
X167549162Y-121623751D01*
X167551342Y-121656716D01*
X167552933Y-121695429D01*
X167553920Y-121737773D01*
X167554289Y-121781629D01*
X167554024Y-121824879D01*
X167553112Y-121865406D01*
X167551539Y-121901092D01*
X167549288Y-121929817D01*
X167548700Y-121935000D01*
X167535857Y-122008255D01*
X167516099Y-122074616D01*
X167489506Y-122133954D01*
X167456158Y-122186140D01*
X167416134Y-122231046D01*
X167369513Y-122268545D01*
X167325427Y-122294170D01*
X167294171Y-122309646D01*
X167294171Y-122348259D01*
X167294171Y-122386873D01*
X167325819Y-122402450D01*
X167377541Y-122433329D01*
X167422909Y-122471832D01*
X167461799Y-122517754D01*
X167494082Y-122570893D01*
X167519632Y-122631046D01*
X167538323Y-122698010D01*
X167548707Y-122760000D01*
X167550926Y-122785010D01*
X167552585Y-122817700D01*
X167553694Y-122856160D01*
X167554266Y-122898479D01*
X167554312Y-122942746D01*
X167553845Y-122987052D01*
X167552876Y-123029485D01*
X167551416Y-123068135D01*
X167549479Y-123101092D01*
X167547075Y-123126444D01*
X167546406Y-123131346D01*
X167531386Y-123204319D01*
X167509007Y-123270520D01*
X167479274Y-123329944D01*
X167442190Y-123382590D01*
X167397759Y-123428453D01*
X167345984Y-123467532D01*
X167286869Y-123499822D01*
X167220418Y-123525322D01*
X167146633Y-123544027D01*
X167065518Y-123555935D01*
X167051624Y-123557230D01*
X167036672Y-123558064D01*
X167012184Y-123558839D01*
X166978624Y-123559549D01*
X166936459Y-123560192D01*
X166886154Y-123560762D01*
X166828173Y-123561257D01*
X166762983Y-123561671D01*
X166691049Y-123562001D01*
X166612835Y-123562244D01*
X166528808Y-123562394D01*
X166442754Y-123562448D01*
X165893896Y-123562500D01*
X165893896Y-123162500D01*
X166443931Y-123162500D01*
X166721522Y-123162500D01*
X166999113Y-123162500D01*
X166999113Y-122837457D01*
X166999113Y-122512415D01*
X166722809Y-122513707D01*
X166446504Y-122515000D01*
X166445218Y-122838750D01*
X166443931Y-123162500D01*
X165893896Y-123162500D01*
X165893896Y-122367328D01*
X165893896Y-122182500D01*
X166444004Y-122182500D01*
X166721559Y-122182500D01*
X166999113Y-122182500D01*
X166999113Y-121877500D01*
X166999113Y-121572500D01*
X166721559Y-121572500D01*
X166444004Y-121572500D01*
X166444004Y-121877500D01*
X166444004Y-122182500D01*
X165893896Y-122182500D01*
X165893896Y-121877500D01*
X165893896Y-121172156D01*
X166495264Y-121173873D01*
G37*
G36*
X173286835Y-121670171D02*
G01*
X173379998Y-121677980D01*
X173465086Y-121691086D01*
X173542367Y-121709592D01*
X173612106Y-121733602D01*
X173674572Y-121763217D01*
X173730030Y-121798543D01*
X173778747Y-121839680D01*
X173820992Y-121886732D01*
X173846376Y-121922500D01*
X173877425Y-121979489D01*
X173901993Y-122043835D01*
X173919964Y-122115182D01*
X173930240Y-122183552D01*
X173931085Y-122196673D01*
X173931860Y-122219616D01*
X173932563Y-122252202D01*
X173933194Y-122294256D01*
X173933751Y-122345597D01*
X173934233Y-122406049D01*
X173934638Y-122475434D01*
X173934965Y-122553574D01*
X173935213Y-122640292D01*
X173935381Y-122735409D01*
X173935467Y-122838747D01*
X173935479Y-122897302D01*
X173935479Y-123562500D01*
X173685429Y-123562500D01*
X173435380Y-123562500D01*
X173435380Y-123508572D01*
X173435380Y-123454644D01*
X173392197Y-123438959D01*
X173349014Y-123423273D01*
X173323434Y-123448492D01*
X173273139Y-123491172D01*
X173216268Y-123526869D01*
X173153905Y-123555034D01*
X173087134Y-123575113D01*
X173065858Y-123579581D01*
X173033680Y-123584239D01*
X172995083Y-123587599D01*
X172953582Y-123589522D01*
X172912693Y-123589868D01*
X172875930Y-123588499D01*
X172864476Y-123587569D01*
X172796803Y-123578180D01*
X172736471Y-123563519D01*
X172682032Y-123543094D01*
X172632042Y-123516415D01*
X172607865Y-123500291D01*
X172565823Y-123464629D01*
X172529532Y-123421613D01*
X172498809Y-123370931D01*
X172473474Y-123312273D01*
X172453343Y-123245325D01*
X172449448Y-123228801D01*
X172446975Y-123217346D01*
X172444891Y-123206196D01*
X172443154Y-123194376D01*
X172441724Y-123180909D01*
X172440558Y-123164821D01*
X172440447Y-123162500D01*
X172930281Y-123162500D01*
X173182830Y-123162500D01*
X173435380Y-123162500D01*
X173435380Y-122935156D01*
X173435327Y-122879581D01*
X173435156Y-122833297D01*
X173434847Y-122795597D01*
X173434380Y-122765774D01*
X173433735Y-122743121D01*
X173432894Y-122726930D01*
X173431835Y-122716492D01*
X173430541Y-122711102D01*
X173429129Y-122709990D01*
X173422920Y-122711820D01*
X173408320Y-122715958D01*
X173386434Y-122722101D01*
X173358364Y-122729942D01*
X173325215Y-122739175D01*
X173288091Y-122749496D01*
X173248095Y-122760597D01*
X173206332Y-122772175D01*
X173163905Y-122783923D01*
X173121919Y-122795535D01*
X173081477Y-122806706D01*
X173043684Y-122817130D01*
X173009642Y-122826502D01*
X172980457Y-122834516D01*
X172957231Y-122840867D01*
X172941070Y-122845249D01*
X172933076Y-122847356D01*
X172932418Y-122847500D01*
X172931895Y-122852301D01*
X172931419Y-122865909D01*
X172931004Y-122887132D01*
X172930669Y-122914777D01*
X172930428Y-122947651D01*
X172930299Y-122984562D01*
X172930281Y-123005000D01*
X172930281Y-123162500D01*
X172440447Y-123162500D01*
X172439616Y-123145136D01*
X172438855Y-123120879D01*
X172438235Y-123091074D01*
X172437714Y-123054746D01*
X172437250Y-123010920D01*
X172437199Y-123005000D01*
X172436802Y-122958619D01*
X172436541Y-122925000D01*
X172434601Y-122670000D01*
X172933740Y-122539806D01*
X173432880Y-122409613D01*
X173434200Y-122251010D01*
X173435521Y-122092407D01*
X173184151Y-122093703D01*
X172932781Y-122095000D01*
X172931445Y-122221250D01*
X172930109Y-122347500D01*
X172682646Y-122347500D01*
X172435183Y-122347500D01*
X172435183Y-122266891D01*
X172438397Y-122183570D01*
X172448116Y-122107595D01*
X172464455Y-122038622D01*
X172487531Y-121976303D01*
X172517459Y-121920292D01*
X172554355Y-121870243D01*
X172575211Y-121847589D01*
X172620791Y-121806970D01*
X172672044Y-121771810D01*
X172729397Y-121741981D01*
X172793278Y-121717358D01*
X172864115Y-121697814D01*
X172942338Y-121683223D01*
X173028373Y-121673458D01*
X173122650Y-121668393D01*
X173185331Y-121667557D01*
X173286835Y-121670171D01*
G37*
D12*
%TO.C,R16*%
X137080000Y-107370000D02*
X137080000Y-111210000D01*
X138920000Y-107370000D02*
X138920000Y-111210000D01*
%TO.C,R5*%
X140264564Y-96340000D02*
X138810436Y-96340000D01*
X140264564Y-98160000D02*
X138810436Y-98160000D01*
%TO.C,C4*%
X176686252Y-109590000D02*
X175263748Y-109590000D01*
X176686252Y-111410000D02*
X175263748Y-111410000D01*
%TO.C,C3*%
X170313748Y-109590000D02*
X171736252Y-109590000D01*
X170313748Y-111410000D02*
X171736252Y-111410000D01*
D16*
%TO.C,REF\u002A\u002A*%
X182487528Y-117484619D02*
X182498908Y-117503693D01*
X182524488Y-117547421D01*
X182563002Y-117613619D01*
X182613186Y-117700102D01*
X182673775Y-117804685D01*
X182743503Y-117925183D01*
X182821107Y-118059412D01*
X182905320Y-118205187D01*
X182994879Y-118360323D01*
X183086998Y-118520000D01*
X183181076Y-118683117D01*
X183271402Y-118839709D01*
X183356665Y-118987506D01*
X183435557Y-119124240D01*
X183506769Y-119247642D01*
X183568991Y-119355444D01*
X183620913Y-119445377D01*
X183661228Y-119515173D01*
X183688624Y-119562564D01*
X183701507Y-119584786D01*
X183722507Y-119622330D01*
X183733925Y-119645831D01*
X183734551Y-119649920D01*
X183720636Y-119642242D01*
X183681941Y-119620203D01*
X183620487Y-119584971D01*
X183538298Y-119537711D01*
X183437396Y-119479589D01*
X183319805Y-119411771D01*
X183187546Y-119335424D01*
X183042642Y-119251714D01*
X182887117Y-119161806D01*
X182722992Y-119066867D01*
X182660549Y-119030732D01*
X182493487Y-118934083D01*
X182334074Y-118841938D01*
X182184355Y-118755475D01*
X182046376Y-118675871D01*
X181922185Y-118604305D01*
X181813827Y-118541955D01*
X181723348Y-118489998D01*
X181652796Y-118449613D01*
X181604215Y-118421978D01*
X181579654Y-118408272D01*
X181577085Y-118406974D01*
X181584569Y-118395220D01*
X181610614Y-118363795D01*
X181652559Y-118315594D01*
X181707746Y-118253510D01*
X181773517Y-118180439D01*
X181847212Y-118099276D01*
X181926173Y-118012916D01*
X182007740Y-117924253D01*
X182089254Y-117836182D01*
X182168057Y-117751599D01*
X182241490Y-117673397D01*
X182306893Y-117604472D01*
X182361608Y-117547719D01*
X182402977Y-117506032D01*
X182417164Y-117492363D01*
X182464180Y-117448201D01*
X182487528Y-117484619D01*
G36*
X182487528Y-117484619D02*
G01*
X182498908Y-117503693D01*
X182524488Y-117547421D01*
X182563002Y-117613619D01*
X182613186Y-117700102D01*
X182673775Y-117804685D01*
X182743503Y-117925183D01*
X182821107Y-118059412D01*
X182905320Y-118205187D01*
X182994879Y-118360323D01*
X183086998Y-118520000D01*
X183181076Y-118683117D01*
X183271402Y-118839709D01*
X183356665Y-118987506D01*
X183435557Y-119124240D01*
X183506769Y-119247642D01*
X183568991Y-119355444D01*
X183620913Y-119445377D01*
X183661228Y-119515173D01*
X183688624Y-119562564D01*
X183701507Y-119584786D01*
X183722507Y-119622330D01*
X183733925Y-119645831D01*
X183734551Y-119649920D01*
X183720636Y-119642242D01*
X183681941Y-119620203D01*
X183620487Y-119584971D01*
X183538298Y-119537711D01*
X183437396Y-119479589D01*
X183319805Y-119411771D01*
X183187546Y-119335424D01*
X183042642Y-119251714D01*
X182887117Y-119161806D01*
X182722992Y-119066867D01*
X182660549Y-119030732D01*
X182493487Y-118934083D01*
X182334074Y-118841938D01*
X182184355Y-118755475D01*
X182046376Y-118675871D01*
X181922185Y-118604305D01*
X181813827Y-118541955D01*
X181723348Y-118489998D01*
X181652796Y-118449613D01*
X181604215Y-118421978D01*
X181579654Y-118408272D01*
X181577085Y-118406974D01*
X181584569Y-118395220D01*
X181610614Y-118363795D01*
X181652559Y-118315594D01*
X181707746Y-118253510D01*
X181773517Y-118180439D01*
X181847212Y-118099276D01*
X181926173Y-118012916D01*
X182007740Y-117924253D01*
X182089254Y-117836182D01*
X182168057Y-117751599D01*
X182241490Y-117673397D01*
X182306893Y-117604472D01*
X182361608Y-117547719D01*
X182402977Y-117506032D01*
X182417164Y-117492363D01*
X182464180Y-117448201D01*
X182487528Y-117484619D01*
G37*
X180664043Y-114335835D02*
X180687065Y-114373245D01*
X180722534Y-114432514D01*
X180768996Y-114511118D01*
X180824996Y-114606538D01*
X180889081Y-114716250D01*
X180959796Y-114837734D01*
X181035687Y-114968468D01*
X181115299Y-115105930D01*
X181197178Y-115247598D01*
X181279870Y-115390951D01*
X181361921Y-115533467D01*
X181441876Y-115672624D01*
X181518281Y-115805901D01*
X181589682Y-115930776D01*
X181654624Y-116044727D01*
X181711653Y-116145233D01*
X181759315Y-116229772D01*
X181796155Y-116295822D01*
X181820720Y-116340862D01*
X181831554Y-116362370D01*
X181831951Y-116363714D01*
X181818501Y-116381965D01*
X181781114Y-116409882D01*
X181724235Y-116444725D01*
X181652312Y-116483754D01*
X181577015Y-116520843D01*
X181474560Y-116565817D01*
X181366817Y-116606226D01*
X181250073Y-116642969D01*
X181120618Y-116676942D01*
X180974740Y-116709044D01*
X180808726Y-116740173D01*
X180618866Y-116771227D01*
X180422469Y-116800145D01*
X180251834Y-116825800D01*
X180108545Y-116851198D01*
X179989008Y-116877602D01*
X179889630Y-116906273D01*
X179806818Y-116938473D01*
X179736978Y-116975465D01*
X179676518Y-117018512D01*
X179621845Y-117068875D01*
X179604214Y-117087583D01*
X179566000Y-117131139D01*
X179537732Y-117166682D01*
X179524618Y-117187583D01*
X179524268Y-117189297D01*
X179519680Y-117199806D01*
X179503758Y-117199924D01*
X179473266Y-117188254D01*
X179424968Y-117163396D01*
X179355627Y-117123952D01*
X179307439Y-117095587D01*
X179235583Y-117051247D01*
X179179742Y-117013279D01*
X179143667Y-116984416D01*
X179131113Y-116967388D01*
X179131121Y-116967264D01*
X179138906Y-116951037D01*
X179160892Y-116910400D01*
X179195803Y-116847567D01*
X179242363Y-116764752D01*
X179299295Y-116664172D01*
X179365323Y-116548040D01*
X179439172Y-116418571D01*
X179519564Y-116277980D01*
X179605224Y-116128482D01*
X179694876Y-115972292D01*
X179787243Y-115811624D01*
X179881049Y-115648693D01*
X179975018Y-115485713D01*
X180067874Y-115324900D01*
X180158340Y-115168468D01*
X180245141Y-115018633D01*
X180327000Y-114877608D01*
X180402641Y-114747609D01*
X180470787Y-114630849D01*
X180530163Y-114529545D01*
X180579493Y-114445911D01*
X180617500Y-114382162D01*
X180642907Y-114340511D01*
X180654440Y-114323175D01*
X180654923Y-114322805D01*
X180664043Y-114335835D01*
G36*
X180664043Y-114335835D02*
G01*
X180687065Y-114373245D01*
X180722534Y-114432514D01*
X180768996Y-114511118D01*
X180824996Y-114606538D01*
X180889081Y-114716250D01*
X180959796Y-114837734D01*
X181035687Y-114968468D01*
X181115299Y-115105930D01*
X181197178Y-115247598D01*
X181279870Y-115390951D01*
X181361921Y-115533467D01*
X181441876Y-115672624D01*
X181518281Y-115805901D01*
X181589682Y-115930776D01*
X181654624Y-116044727D01*
X181711653Y-116145233D01*
X181759315Y-116229772D01*
X181796155Y-116295822D01*
X181820720Y-116340862D01*
X181831554Y-116362370D01*
X181831951Y-116363714D01*
X181818501Y-116381965D01*
X181781114Y-116409882D01*
X181724235Y-116444725D01*
X181652312Y-116483754D01*
X181577015Y-116520843D01*
X181474560Y-116565817D01*
X181366817Y-116606226D01*
X181250073Y-116642969D01*
X181120618Y-116676942D01*
X180974740Y-116709044D01*
X180808726Y-116740173D01*
X180618866Y-116771227D01*
X180422469Y-116800145D01*
X180251834Y-116825800D01*
X180108545Y-116851198D01*
X179989008Y-116877602D01*
X179889630Y-116906273D01*
X179806818Y-116938473D01*
X179736978Y-116975465D01*
X179676518Y-117018512D01*
X179621845Y-117068875D01*
X179604214Y-117087583D01*
X179566000Y-117131139D01*
X179537732Y-117166682D01*
X179524618Y-117187583D01*
X179524268Y-117189297D01*
X179519680Y-117199806D01*
X179503758Y-117199924D01*
X179473266Y-117188254D01*
X179424968Y-117163396D01*
X179355627Y-117123952D01*
X179307439Y-117095587D01*
X179235583Y-117051247D01*
X179179742Y-117013279D01*
X179143667Y-116984416D01*
X179131113Y-116967388D01*
X179131121Y-116967264D01*
X179138906Y-116951037D01*
X179160892Y-116910400D01*
X179195803Y-116847567D01*
X179242363Y-116764752D01*
X179299295Y-116664172D01*
X179365323Y-116548040D01*
X179439172Y-116418571D01*
X179519564Y-116277980D01*
X179605224Y-116128482D01*
X179694876Y-115972292D01*
X179787243Y-115811624D01*
X179881049Y-115648693D01*
X179975018Y-115485713D01*
X180067874Y-115324900D01*
X180158340Y-115168468D01*
X180245141Y-115018633D01*
X180327000Y-114877608D01*
X180402641Y-114747609D01*
X180470787Y-114630849D01*
X180530163Y-114529545D01*
X180579493Y-114445911D01*
X180617500Y-114382162D01*
X180642907Y-114340511D01*
X180654440Y-114323175D01*
X180654923Y-114322805D01*
X180664043Y-114335835D01*
G37*
X178822094Y-117541158D02*
X178854619Y-117553736D01*
X178904193Y-117578712D01*
X178975374Y-117617876D01*
X178980916Y-117620988D01*
X179046474Y-117658476D01*
X179101798Y-117691319D01*
X179141455Y-117716205D01*
X179160012Y-117729820D01*
X179160531Y-117730487D01*
X179156048Y-117749390D01*
X179135486Y-117791605D01*
X179100183Y-117854832D01*
X179051480Y-117936772D01*
X178990718Y-118035122D01*
X178919236Y-118147585D01*
X178901445Y-118175165D01*
X178855093Y-118251699D01*
X178821342Y-118317556D01*
X178803153Y-118366782D01*
X178801286Y-118376507D01*
X178802115Y-118419312D01*
X178811394Y-118487209D01*
X178827968Y-118575843D01*
X178850680Y-118680859D01*
X178878373Y-118797902D01*
X178909890Y-118922616D01*
X178944075Y-119050645D01*
X178979771Y-119177634D01*
X179015821Y-119299228D01*
X179051068Y-119411072D01*
X179084356Y-119508810D01*
X179114528Y-119588087D01*
X179135561Y-119635122D01*
X179160337Y-119685225D01*
X179183730Y-119733168D01*
X179184997Y-119735793D01*
X179223699Y-119784220D01*
X179280184Y-119816828D01*
X179345939Y-119832454D01*
X179412451Y-119829937D01*
X179471205Y-119808114D01*
X179504258Y-119779382D01*
X179551859Y-119700583D01*
X179586739Y-119602378D01*
X179605877Y-119494779D01*
X179608588Y-119433780D01*
X179597670Y-119319935D01*
X179565624Y-119225660D01*
X179510726Y-119146379D01*
X179493607Y-119128733D01*
X179442661Y-119079235D01*
X179439163Y-118729362D01*
X179435664Y-118379489D01*
X179524818Y-118244531D01*
X179566654Y-118183445D01*
X179606945Y-118128493D01*
X179639943Y-118087336D01*
X179654126Y-118072192D01*
X179694281Y-118034810D01*
X179748665Y-118064098D01*
X179783039Y-118085084D01*
X179801846Y-118101378D01*
X179803049Y-118104307D01*
X179815903Y-118116728D01*
X179837896Y-118125977D01*
X179859150Y-118134313D01*
X179891694Y-118150149D01*
X179938322Y-118175033D01*
X180001829Y-118210509D01*
X180085008Y-118258123D01*
X180190653Y-118319422D01*
X180248062Y-118352932D01*
X180315594Y-118393071D01*
X180359885Y-118421659D01*
X180384855Y-118442039D01*
X180394423Y-118457553D01*
X180392508Y-118471546D01*
X180390911Y-118474796D01*
X180375376Y-118495266D01*
X180342136Y-118533665D01*
X180295062Y-118585696D01*
X180238028Y-118647066D01*
X180188700Y-118699090D01*
X180075030Y-118822567D01*
X179986105Y-118929591D01*
X179921134Y-119021240D01*
X179879321Y-119098588D01*
X179865217Y-119137866D01*
X179859392Y-119172249D01*
X179853375Y-119230899D01*
X179847696Y-119307117D01*
X179842884Y-119394202D01*
X179840619Y-119449268D01*
X179837459Y-119544464D01*
X179836069Y-119614062D01*
X179836858Y-119663409D01*
X179840235Y-119697854D01*
X179846608Y-119722743D01*
X179856387Y-119743425D01*
X179864067Y-119756053D01*
X179908421Y-119804726D01*
X179965574Y-119838645D01*
X180025708Y-119853438D01*
X180070773Y-119848086D01*
X180111576Y-119824930D01*
X180162724Y-119783462D01*
X180217042Y-119730912D01*
X180267357Y-119674516D01*
X180306494Y-119621505D01*
X180320905Y-119595889D01*
X180342491Y-119560814D01*
X180381753Y-119507389D01*
X180435102Y-119439789D01*
X180498952Y-119362190D01*
X180569715Y-119278768D01*
X180643804Y-119193698D01*
X180717632Y-119111155D01*
X180787611Y-119035316D01*
X180850155Y-118970356D01*
X180899260Y-118922669D01*
X180953779Y-118875032D01*
X180999642Y-118839908D01*
X181031811Y-118820949D01*
X181042489Y-118818864D01*
X181058853Y-118827274D01*
X181099671Y-118849846D01*
X181162586Y-118885224D01*
X181245244Y-118932054D01*
X181345289Y-118988981D01*
X181460366Y-119054649D01*
X181588119Y-119127703D01*
X181726194Y-119206788D01*
X181872234Y-119290548D01*
X182023884Y-119377629D01*
X182178790Y-119466676D01*
X182334595Y-119556332D01*
X182488944Y-119645243D01*
X182639482Y-119732054D01*
X182783854Y-119815409D01*
X182919704Y-119893954D01*
X183044677Y-119966333D01*
X183156417Y-120031190D01*
X183252570Y-120087171D01*
X183330779Y-120132920D01*
X183388689Y-120167083D01*
X183423946Y-120188304D01*
X183434165Y-120194963D01*
X183420402Y-120196280D01*
X183377104Y-120197559D01*
X183305714Y-120198796D01*
X183207673Y-120199983D01*
X183084422Y-120201115D01*
X182937403Y-120202186D01*
X182768057Y-120203189D01*
X182577826Y-120204119D01*
X182368151Y-120204968D01*
X182140473Y-120205732D01*
X181896235Y-120206403D01*
X181636877Y-120206976D01*
X181363841Y-120207444D01*
X181078568Y-120207802D01*
X180782500Y-120208042D01*
X180477079Y-120208159D01*
X180348924Y-120208171D01*
X177248970Y-120208171D01*
X177470053Y-119824847D01*
X177516856Y-119743680D01*
X177577102Y-119639166D01*
X177648778Y-119514801D01*
X177729869Y-119374082D01*
X177818362Y-119220503D01*
X177912240Y-119057562D01*
X178009491Y-118888754D01*
X178108100Y-118717575D01*
X178206053Y-118547521D01*
X178230825Y-118504512D01*
X178321152Y-118347857D01*
X178407289Y-118198803D01*
X178487942Y-118059568D01*
X178561816Y-117932371D01*
X178627617Y-117819432D01*
X178684050Y-117722968D01*
X178729821Y-117645200D01*
X178763635Y-117588346D01*
X178784198Y-117554625D01*
X178789953Y-117546040D01*
X178802058Y-117539189D01*
X178822094Y-117541158D01*
G36*
X178822094Y-117541158D02*
G01*
X178854619Y-117553736D01*
X178904193Y-117578712D01*
X178975374Y-117617876D01*
X178980916Y-117620988D01*
X179046474Y-117658476D01*
X179101798Y-117691319D01*
X179141455Y-117716205D01*
X179160012Y-117729820D01*
X179160531Y-117730487D01*
X179156048Y-117749390D01*
X179135486Y-117791605D01*
X179100183Y-117854832D01*
X179051480Y-117936772D01*
X178990718Y-118035122D01*
X178919236Y-118147585D01*
X178901445Y-118175165D01*
X178855093Y-118251699D01*
X178821342Y-118317556D01*
X178803153Y-118366782D01*
X178801286Y-118376507D01*
X178802115Y-118419312D01*
X178811394Y-118487209D01*
X178827968Y-118575843D01*
X178850680Y-118680859D01*
X178878373Y-118797902D01*
X178909890Y-118922616D01*
X178944075Y-119050645D01*
X178979771Y-119177634D01*
X179015821Y-119299228D01*
X179051068Y-119411072D01*
X179084356Y-119508810D01*
X179114528Y-119588087D01*
X179135561Y-119635122D01*
X179160337Y-119685225D01*
X179183730Y-119733168D01*
X179184997Y-119735793D01*
X179223699Y-119784220D01*
X179280184Y-119816828D01*
X179345939Y-119832454D01*
X179412451Y-119829937D01*
X179471205Y-119808114D01*
X179504258Y-119779382D01*
X179551859Y-119700583D01*
X179586739Y-119602378D01*
X179605877Y-119494779D01*
X179608588Y-119433780D01*
X179597670Y-119319935D01*
X179565624Y-119225660D01*
X179510726Y-119146379D01*
X179493607Y-119128733D01*
X179442661Y-119079235D01*
X179439163Y-118729362D01*
X179435664Y-118379489D01*
X179524818Y-118244531D01*
X179566654Y-118183445D01*
X179606945Y-118128493D01*
X179639943Y-118087336D01*
X179654126Y-118072192D01*
X179694281Y-118034810D01*
X179748665Y-118064098D01*
X179783039Y-118085084D01*
X179801846Y-118101378D01*
X179803049Y-118104307D01*
X179815903Y-118116728D01*
X179837896Y-118125977D01*
X179859150Y-118134313D01*
X179891694Y-118150149D01*
X179938322Y-118175033D01*
X180001829Y-118210509D01*
X180085008Y-118258123D01*
X180190653Y-118319422D01*
X180248062Y-118352932D01*
X180315594Y-118393071D01*
X180359885Y-118421659D01*
X180384855Y-118442039D01*
X180394423Y-118457553D01*
X180392508Y-118471546D01*
X180390911Y-118474796D01*
X180375376Y-118495266D01*
X180342136Y-118533665D01*
X180295062Y-118585696D01*
X180238028Y-118647066D01*
X180188700Y-118699090D01*
X180075030Y-118822567D01*
X179986105Y-118929591D01*
X179921134Y-119021240D01*
X179879321Y-119098588D01*
X179865217Y-119137866D01*
X179859392Y-119172249D01*
X179853375Y-119230899D01*
X179847696Y-119307117D01*
X179842884Y-119394202D01*
X179840619Y-119449268D01*
X179837459Y-119544464D01*
X179836069Y-119614062D01*
X179836858Y-119663409D01*
X179840235Y-119697854D01*
X179846608Y-119722743D01*
X179856387Y-119743425D01*
X179864067Y-119756053D01*
X179908421Y-119804726D01*
X179965574Y-119838645D01*
X180025708Y-119853438D01*
X180070773Y-119848086D01*
X180111576Y-119824930D01*
X180162724Y-119783462D01*
X180217042Y-119730912D01*
X180267357Y-119674516D01*
X180306494Y-119621505D01*
X180320905Y-119595889D01*
X180342491Y-119560814D01*
X180381753Y-119507389D01*
X180435102Y-119439789D01*
X180498952Y-119362190D01*
X180569715Y-119278768D01*
X180643804Y-119193698D01*
X180717632Y-119111155D01*
X180787611Y-119035316D01*
X180850155Y-118970356D01*
X180899260Y-118922669D01*
X180953779Y-118875032D01*
X180999642Y-118839908D01*
X181031811Y-118820949D01*
X181042489Y-118818864D01*
X181058853Y-118827274D01*
X181099671Y-118849846D01*
X181162586Y-118885224D01*
X181245244Y-118932054D01*
X181345289Y-118988981D01*
X181460366Y-119054649D01*
X181588119Y-119127703D01*
X181726194Y-119206788D01*
X181872234Y-119290548D01*
X182023884Y-119377629D01*
X182178790Y-119466676D01*
X182334595Y-119556332D01*
X182488944Y-119645243D01*
X182639482Y-119732054D01*
X182783854Y-119815409D01*
X182919704Y-119893954D01*
X183044677Y-119966333D01*
X183156417Y-120031190D01*
X183252570Y-120087171D01*
X183330779Y-120132920D01*
X183388689Y-120167083D01*
X183423946Y-120188304D01*
X183434165Y-120194963D01*
X183420402Y-120196280D01*
X183377104Y-120197559D01*
X183305714Y-120198796D01*
X183207673Y-120199983D01*
X183084422Y-120201115D01*
X182937403Y-120202186D01*
X182768057Y-120203189D01*
X182577826Y-120204119D01*
X182368151Y-120204968D01*
X182140473Y-120205732D01*
X181896235Y-120206403D01*
X181636877Y-120206976D01*
X181363841Y-120207444D01*
X181078568Y-120207802D01*
X180782500Y-120208042D01*
X180477079Y-120208159D01*
X180348924Y-120208171D01*
X177248970Y-120208171D01*
X177470053Y-119824847D01*
X177516856Y-119743680D01*
X177577102Y-119639166D01*
X177648778Y-119514801D01*
X177729869Y-119374082D01*
X177818362Y-119220503D01*
X177912240Y-119057562D01*
X178009491Y-118888754D01*
X178108100Y-118717575D01*
X178206053Y-118547521D01*
X178230825Y-118504512D01*
X178321152Y-118347857D01*
X178407289Y-118198803D01*
X178487942Y-118059568D01*
X178561816Y-117932371D01*
X178627617Y-117819432D01*
X178684050Y-117722968D01*
X178729821Y-117645200D01*
X178763635Y-117588346D01*
X178784198Y-117554625D01*
X178789953Y-117546040D01*
X178802058Y-117539189D01*
X178822094Y-117541158D01*
G37*
D12*
%TO.C,L1*%
X145690000Y-90712122D02*
X145690000Y-89912878D01*
X146810000Y-90712122D02*
X146810000Y-89912878D01*
D14*
%TO.C,D1*%
X168050000Y-89875000D02*
X169350000Y-89875000D01*
X169350000Y-89875000D02*
X169350000Y-91125000D01*
X169350000Y-89875000D02*
X169750000Y-89875000D01*
X169350000Y-91125000D02*
X168050000Y-91125000D01*
X169750000Y-91125000D02*
X169350000Y-91125000D01*
D17*
%TO.C,X1*%
X158050000Y-90850000D02*
X162250000Y-90850000D01*
X158050000Y-94250000D02*
X158050000Y-90850000D01*
X162250000Y-90850000D02*
X162250000Y-94250000D01*
X162250000Y-94250000D02*
X158050000Y-94250000D01*
D12*
%TO.C,C2*%
X180073021Y-107759242D02*
X181495525Y-107759242D01*
X180073021Y-109579242D02*
X181495525Y-109579242D01*
%TO.C,C9*%
X157813748Y-96090000D02*
X159236252Y-96090000D01*
X157813748Y-97910000D02*
X159236252Y-97910000D01*
%TO.C,R3*%
X179060436Y-96590000D02*
X180514564Y-96590000D01*
X179060436Y-98410000D02*
X180514564Y-98410000D01*
%TO.C,R6*%
X144090000Y-108235436D02*
X144090000Y-109689564D01*
X145910000Y-108235436D02*
X145910000Y-109689564D01*
D14*
%TO.C,J1*%
X164250000Y-78110000D02*
X176250000Y-78110000D01*
X164250000Y-82810000D02*
X164250000Y-78110000D01*
X164250000Y-86610000D02*
X164250000Y-89260000D01*
X164250000Y-89260000D02*
X176250000Y-89260000D01*
X176250000Y-78110000D02*
X176250000Y-82810000D01*
X176250000Y-89260000D02*
X176250000Y-86610000D01*
D18*
X177200000Y-82000000D02*
G75*
G02*
X176800000Y-82000000I-200000J0D01*
G01*
X176800000Y-82000000D02*
G75*
G02*
X177200000Y-82000000I200000J0D01*
G01*
D12*
%TO.C,R11*%
X163560436Y-112840000D02*
X165014564Y-112840000D01*
X163560436Y-114660000D02*
X165014564Y-114660000D01*
%TO.C,C1*%
X180063748Y-104090000D02*
X181486252Y-104090000D01*
X180063748Y-105910000D02*
X181486252Y-105910000D01*
%TO.C,C11*%
X148263748Y-120590000D02*
X149686252Y-120590000D01*
X148263748Y-122410000D02*
X149686252Y-122410000D01*
D14*
%TO.C,U3*%
X157360000Y-101110000D02*
X162640000Y-101110000D01*
X157360000Y-106390000D02*
X162640000Y-106390000D01*
D18*
X154885000Y-101845000D02*
G75*
G02*
X154685000Y-101845000I-100000J0D01*
G01*
X154685000Y-101845000D02*
G75*
G02*
X154885000Y-101845000I100000J0D01*
G01*
D12*
%TO.C,C7*%
X179063748Y-100590000D02*
X180486252Y-100590000D01*
X179063748Y-102410000D02*
X180486252Y-102410000D01*
%TO.C,ANTENA1*%
X143511000Y-78197000D02*
X159513000Y-78197000D01*
X143511000Y-87803000D02*
X159513000Y-87803000D01*
%TO.C,C6*%
X156813748Y-123590000D02*
X158236252Y-123590000D01*
X156813748Y-125410000D02*
X158236252Y-125410000D01*
%TO.C,C10*%
X179313748Y-79090000D02*
X180736252Y-79090000D01*
X179313748Y-80910000D02*
X180736252Y-80910000D01*
%TO.C,R15*%
X137080000Y-119420000D02*
X137080000Y-115580000D01*
X138920000Y-119420000D02*
X138920000Y-115580000D01*
%TO.C,U2*%
X179290000Y-85940000D02*
X180550000Y-85940000D01*
X179290000Y-89700000D02*
X179290000Y-85940000D01*
X186110000Y-85940000D02*
X184850000Y-85940000D01*
X186110000Y-89700000D02*
X186110000Y-85940000D01*
X179390000Y-90980000D02*
X179060000Y-91220000D01*
X179060000Y-90740000D01*
X179390000Y-90980000D01*
G36*
X179390000Y-90980000D02*
G01*
X179060000Y-91220000D01*
X179060000Y-90740000D01*
X179390000Y-90980000D01*
G37*
%TO.C,R7*%
X156560436Y-116590000D02*
X158014564Y-116590000D01*
X156560436Y-118410000D02*
X158014564Y-118410000D01*
%TO.C,C5*%
X184313748Y-96590000D02*
X185736252Y-96590000D01*
X184313748Y-98410000D02*
X185736252Y-98410000D01*
%TO.C,C15*%
X140236252Y-92840000D02*
X138813748Y-92840000D01*
X140236252Y-94660000D02*
X138813748Y-94660000D01*
%TD*%
%LPC*%
D19*
%TO.C,C14*%
X141062500Y-90250000D03*
X138112500Y-90250000D03*
%TD*%
D20*
%TO.C,R10*%
X165675000Y-110000000D03*
X162750000Y-110000000D03*
%TD*%
%TO.C,R8*%
X158712500Y-113750000D03*
X155787500Y-113750000D03*
%TD*%
D21*
%TO.C,C8*%
X183800000Y-101500000D03*
X186750000Y-101500000D03*
%TD*%
%TO.C,C12*%
X171550000Y-114000000D03*
X174500000Y-114000000D03*
%TD*%
D22*
%TO.C,R9*%
X155825000Y-110000000D03*
X158750000Y-110000000D03*
%TD*%
D23*
%TO.C,D3*%
X164000000Y-94000000D03*
X164000000Y-95750000D03*
X167500000Y-95750000D03*
X167500000Y-94000000D03*
%TD*%
D24*
%TO.C,D2*%
X168950000Y-105000000D03*
X171750000Y-105000000D03*
%TD*%
D22*
%TO.C,R4*%
X153325000Y-90250000D03*
X156250000Y-90250000D03*
%TD*%
%TO.C,R2*%
X174325000Y-94000000D03*
X177250000Y-94000000D03*
%TD*%
D25*
%TO.C,D4*%
X173750000Y-101500000D03*
X175950000Y-101500000D03*
%TD*%
D22*
%TO.C,R12*%
X167075000Y-99750000D03*
X170000000Y-99750000D03*
%TD*%
D20*
%TO.C,R14*%
X144500000Y-121500000D03*
X141575000Y-121500000D03*
%TD*%
D26*
%TO.C,U1*%
X146050000Y-97900000D03*
X146050000Y-98300000D03*
X146050000Y-98700000D03*
X146050000Y-99100000D03*
X146050000Y-99500000D03*
X146050000Y-99900000D03*
X146050000Y-100300000D03*
X146050000Y-100700000D03*
X146050000Y-101100000D03*
X146050000Y-101500000D03*
X146050000Y-101900000D03*
X146050000Y-102300000D03*
X146050000Y-102700000D03*
X146050000Y-103100000D03*
D27*
X146900000Y-103950000D03*
X147300000Y-103950000D03*
X147700000Y-103950000D03*
X148100000Y-103950000D03*
X148500000Y-103950000D03*
X148900000Y-103950000D03*
X149300000Y-103950000D03*
X149700000Y-103950000D03*
X150100000Y-103950000D03*
X150500000Y-103950000D03*
X150900000Y-103950000D03*
X151300000Y-103950000D03*
X151700000Y-103950000D03*
X152100000Y-103950000D03*
D26*
X152950000Y-103100000D03*
X152950000Y-102700000D03*
X152950000Y-102300000D03*
X152950000Y-101900000D03*
X152950000Y-101500000D03*
X152950000Y-101100000D03*
X152950000Y-100700000D03*
X152950000Y-100300000D03*
X152950000Y-99900000D03*
X152950000Y-99500000D03*
X152950000Y-99100000D03*
X152950000Y-98700000D03*
X152950000Y-98300000D03*
X152950000Y-97900000D03*
D27*
X152100000Y-97050000D03*
X151700000Y-97050000D03*
X151300000Y-97050000D03*
X150900000Y-97050000D03*
X150500000Y-97050000D03*
X150100000Y-97050000D03*
X149700000Y-97050000D03*
X149300000Y-97050000D03*
X148900000Y-97050000D03*
X148500000Y-97050000D03*
X148100000Y-97050000D03*
X147700000Y-97050000D03*
X147300000Y-97050000D03*
X146900000Y-97050000D03*
D28*
X149500000Y-100500000D03*
%TD*%
D22*
%TO.C,R1*%
X174325000Y-105000000D03*
X177250000Y-105000000D03*
%TD*%
D29*
%TO.C,R13*%
X143411800Y-125750000D03*
D30*
X145088200Y-125750000D03*
%TD*%
D31*
%TO.C,R16*%
X138000000Y-106750000D03*
X138000000Y-111830000D03*
%TD*%
D20*
%TO.C,R5*%
X141000000Y-97250000D03*
X138075000Y-97250000D03*
%TD*%
D19*
%TO.C,C4*%
X177450000Y-110500000D03*
X174500000Y-110500000D03*
%TD*%
D21*
%TO.C,C3*%
X169550000Y-110500000D03*
X172500000Y-110500000D03*
%TD*%
D32*
%TO.C,L1*%
X146250000Y-91375000D03*
X146250000Y-89250000D03*
%TD*%
D33*
%TO.C,D1*%
X170000000Y-90500000D03*
X167800000Y-90500000D03*
%TD*%
D34*
%TO.C,X1*%
X159050000Y-93350000D03*
X161250000Y-93350000D03*
X161250000Y-91750000D03*
X159050000Y-91750000D03*
%TD*%
D21*
%TO.C,C2*%
X179309273Y-108669242D03*
X182259273Y-108669242D03*
%TD*%
%TO.C,C9*%
X157050000Y-97000000D03*
X160000000Y-97000000D03*
%TD*%
D22*
%TO.C,R3*%
X178325000Y-97500000D03*
X181250000Y-97500000D03*
%TD*%
D35*
%TO.C,R6*%
X145000000Y-107500000D03*
X145000000Y-110425000D03*
%TD*%
D36*
%TO.C,J1*%
X171500000Y-82000000D03*
D37*
X169000000Y-82000000D03*
X169000000Y-85200000D03*
X171500000Y-85200000D03*
D38*
X164230000Y-84710000D03*
X176270000Y-84710000D03*
%TD*%
D22*
%TO.C,R11*%
X162825000Y-113750000D03*
X165750000Y-113750000D03*
%TD*%
D21*
%TO.C,C1*%
X179300000Y-105000000D03*
X182250000Y-105000000D03*
%TD*%
%TO.C,C11*%
X147500000Y-121500000D03*
X150450000Y-121500000D03*
%TD*%
D39*
%TO.C,U3*%
X156395000Y-101845000D03*
X156395000Y-103115000D03*
X156395000Y-104385000D03*
X156395000Y-105655000D03*
X163605000Y-105655000D03*
X163605000Y-104385000D03*
X163605000Y-103115000D03*
X163605000Y-101845000D03*
%TD*%
D21*
%TO.C,C7*%
X178300000Y-101500000D03*
X181250000Y-101500000D03*
%TD*%
D40*
%TO.C,ANTENA1*%
X144215000Y-86383000D03*
D41*
X146315000Y-86473000D03*
%TD*%
D21*
%TO.C,C6*%
X156050000Y-124500000D03*
X159000000Y-124500000D03*
%TD*%
%TO.C,C10*%
X178550000Y-80000000D03*
X181500000Y-80000000D03*
%TD*%
D31*
%TO.C,R15*%
X138000000Y-120040000D03*
X138000000Y-114960000D03*
%TD*%
D42*
%TO.C,U2*%
X180400000Y-91000000D03*
X182700000Y-91000000D03*
D43*
X182700000Y-84700000D03*
D42*
X185000000Y-91000000D03*
%TD*%
D22*
%TO.C,R7*%
X155825000Y-117500000D03*
X158750000Y-117500000D03*
%TD*%
D21*
%TO.C,C5*%
X183550000Y-97500000D03*
X186500000Y-97500000D03*
%TD*%
D19*
%TO.C,C15*%
X141000000Y-93750000D03*
X138050000Y-93750000D03*
%TD*%
D44*
%TO.C,CR1*%
X151000000Y-92270000D03*
X151000000Y-111940000D03*
%TD*%
%TO.C,CR2*%
X173000000Y-117730000D03*
X173000000Y-98060000D03*
%TD*%
%LPD*%
M02*
