%TF.GenerationSoftware,KiCad,Pcbnew,9.0.5*%
%TF.CreationDate,2025-12-19T23:17:11-03:00*%
%TF.ProjectId,BillCold_V0.01,42696c6c-436f-46c6-945f-56302e30312e,rev?*%
%TF.SameCoordinates,Original*%
%TF.FileFunction,Legend,Bot*%
%TF.FilePolarity,Positive*%
%FSLAX46Y46*%
G04 Gerber Fmt 4.6, Leading zero omitted, Abs format (unit mm)*
G04 Created by KiCad (PCBNEW 9.0.5) date 2025-12-19 23:17:11*
%MOMM*%
%LPD*%
G01*
G04 APERTURE LIST*
G04 Aperture macros list*
%AMRoundRect*
0 Rectangle with rounded corners*
0 $1 Rounding radius*
0 $2 $3 $4 $5 $6 $7 $8 $9 X,Y pos of 4 corners*
0 Add a 4 corners polygon primitive as box body*
4,1,4,$2,$3,$4,$5,$6,$7,$8,$9,$2,$3,0*
0 Add four circle primitives for the rounded corners*
1,1,$1+$1,$2,$3*
1,1,$1+$1,$4,$5*
1,1,$1+$1,$6,$7*
1,1,$1+$1,$8,$9*
0 Add four rect primitives between the rounded corners*
20,1,$1+$1,$2,$3,$4,$5,0*
20,1,$1+$1,$4,$5,$6,$7,0*
20,1,$1+$1,$6,$7,$8,$9,0*
20,1,$1+$1,$8,$9,$2,$3,0*%
G04 Aperture macros list end*
%ADD10C,0.100000*%
%ADD11C,0.000000*%
%ADD12R,0.500000X1.320000*%
%ADD13RoundRect,0.102000X-0.558800X-0.558800X0.558800X-0.558800X0.558800X0.558800X-0.558800X0.558800X0*%
%ADD14C,1.321600*%
%ADD15C,1.400000*%
%ADD16R,1.428000X1.428000*%
%ADD17C,1.428000*%
%ADD18C,3.316000*%
%ADD19C,2.500000*%
G04 APERTURE END LIST*
D10*
X140254166Y-85112180D02*
X140301785Y-85159800D01*
X140301785Y-85159800D02*
X140444642Y-85207419D01*
X140444642Y-85207419D02*
X140539880Y-85207419D01*
X140539880Y-85207419D02*
X140682737Y-85159800D01*
X140682737Y-85159800D02*
X140777975Y-85064561D01*
X140777975Y-85064561D02*
X140825594Y-84969323D01*
X140825594Y-84969323D02*
X140873213Y-84778847D01*
X140873213Y-84778847D02*
X140873213Y-84635990D01*
X140873213Y-84635990D02*
X140825594Y-84445514D01*
X140825594Y-84445514D02*
X140777975Y-84350276D01*
X140777975Y-84350276D02*
X140682737Y-84255038D01*
X140682737Y-84255038D02*
X140539880Y-84207419D01*
X140539880Y-84207419D02*
X140444642Y-84207419D01*
X140444642Y-84207419D02*
X140301785Y-84255038D01*
X140301785Y-84255038D02*
X140254166Y-84302657D01*
X139254166Y-85207419D02*
X139587499Y-84731228D01*
X139825594Y-85207419D02*
X139825594Y-84207419D01*
X139825594Y-84207419D02*
X139444642Y-84207419D01*
X139444642Y-84207419D02*
X139349404Y-84255038D01*
X139349404Y-84255038D02*
X139301785Y-84302657D01*
X139301785Y-84302657D02*
X139254166Y-84397895D01*
X139254166Y-84397895D02*
X139254166Y-84540752D01*
X139254166Y-84540752D02*
X139301785Y-84635990D01*
X139301785Y-84635990D02*
X139349404Y-84683609D01*
X139349404Y-84683609D02*
X139444642Y-84731228D01*
X139444642Y-84731228D02*
X139825594Y-84731228D01*
X138301785Y-85207419D02*
X138873213Y-85207419D01*
X138587499Y-85207419D02*
X138587499Y-84207419D01*
X138587499Y-84207419D02*
X138682737Y-84350276D01*
X138682737Y-84350276D02*
X138777975Y-84445514D01*
X138777975Y-84445514D02*
X138873213Y-84493133D01*
X144333333Y-125637819D02*
X144285714Y-125590200D01*
X144285714Y-125590200D02*
X144142857Y-125542580D01*
X144142857Y-125542580D02*
X144047619Y-125542580D01*
X144047619Y-125542580D02*
X143904762Y-125590200D01*
X143904762Y-125590200D02*
X143809524Y-125685438D01*
X143809524Y-125685438D02*
X143761905Y-125780676D01*
X143761905Y-125780676D02*
X143714286Y-125971152D01*
X143714286Y-125971152D02*
X143714286Y-126114009D01*
X143714286Y-126114009D02*
X143761905Y-126304485D01*
X143761905Y-126304485D02*
X143809524Y-126399723D01*
X143809524Y-126399723D02*
X143904762Y-126494961D01*
X143904762Y-126494961D02*
X144047619Y-126542580D01*
X144047619Y-126542580D02*
X144142857Y-126542580D01*
X144142857Y-126542580D02*
X144285714Y-126494961D01*
X144285714Y-126494961D02*
X144333333Y-126447342D01*
X145333333Y-125542580D02*
X145000000Y-126018771D01*
X144761905Y-125542580D02*
X144761905Y-126542580D01*
X144761905Y-126542580D02*
X145142857Y-126542580D01*
X145142857Y-126542580D02*
X145238095Y-126494961D01*
X145238095Y-126494961D02*
X145285714Y-126447342D01*
X145285714Y-126447342D02*
X145333333Y-126352104D01*
X145333333Y-126352104D02*
X145333333Y-126209247D01*
X145333333Y-126209247D02*
X145285714Y-126114009D01*
X145285714Y-126114009D02*
X145238095Y-126066390D01*
X145238095Y-126066390D02*
X145142857Y-126018771D01*
X145142857Y-126018771D02*
X144761905Y-126018771D01*
X145714286Y-126447342D02*
X145761905Y-126494961D01*
X145761905Y-126494961D02*
X145857143Y-126542580D01*
X145857143Y-126542580D02*
X146095238Y-126542580D01*
X146095238Y-126542580D02*
X146190476Y-126494961D01*
X146190476Y-126494961D02*
X146238095Y-126447342D01*
X146238095Y-126447342D02*
X146285714Y-126352104D01*
X146285714Y-126352104D02*
X146285714Y-126256866D01*
X146285714Y-126256866D02*
X146238095Y-126114009D01*
X146238095Y-126114009D02*
X145666667Y-125542580D01*
X145666667Y-125542580D02*
X146285714Y-125542580D01*
%TO.C,CR1*%
X146000000Y-114000000D02*
X146000000Y-108500000D01*
X151000000Y-114000000D02*
X146000000Y-114000000D01*
X151000000Y-114000000D02*
X156000000Y-114000000D01*
X156000000Y-114000000D02*
X156000000Y-108500000D01*
X164500000Y-96000000D02*
G75*
G02*
X137500000Y-96000000I-13500000J0D01*
G01*
X137500000Y-96000000D02*
G75*
G02*
X164500000Y-96000000I13500000J0D01*
G01*
D11*
%TO.C,LV-01*%
G36*
X153260437Y-78955711D02*
G01*
X153260437Y-80283211D01*
X153012889Y-80283211D01*
X152765340Y-80283211D01*
X152765340Y-78955711D01*
X152765340Y-77628211D01*
X153012889Y-77628211D01*
X153260437Y-77628211D01*
X153260437Y-78955711D01*
G37*
G36*
X154145612Y-79088211D02*
G01*
X154145612Y-80283211D01*
X153898063Y-80283211D01*
X153650514Y-80283211D01*
X153650514Y-79088211D01*
X153650514Y-77893211D01*
X153898063Y-77893211D01*
X154145612Y-77893211D01*
X154145612Y-79088211D01*
G37*
G36*
X154784487Y-78414414D02*
G01*
X155033286Y-78415711D01*
X155034550Y-79349461D01*
X155035813Y-80283211D01*
X154785751Y-80283211D01*
X154535688Y-80283211D01*
X154535688Y-79348164D01*
X154535688Y-78413117D01*
X154784487Y-78414414D01*
G37*
G36*
X147640581Y-78388225D02*
G01*
X147680289Y-78389644D01*
X147739383Y-78396294D01*
X147798130Y-78407805D01*
X147853460Y-78423534D01*
X147902301Y-78442842D01*
X147953154Y-78469873D01*
X147999721Y-78502069D01*
X148044701Y-78541517D01*
X148082498Y-78578076D01*
X148125967Y-78562423D01*
X148169435Y-78546769D01*
X148169435Y-78479990D01*
X148169435Y-78413211D01*
X148411983Y-78413211D01*
X148654531Y-78413211D01*
X148654531Y-79348211D01*
X148654531Y-80283211D01*
X148404481Y-80283211D01*
X148154432Y-80283211D01*
X148154432Y-79613211D01*
X148154432Y-78943211D01*
X147879378Y-78943211D01*
X147604324Y-78943211D01*
X147604324Y-78665711D01*
X147604324Y-78388211D01*
X147640581Y-78388225D01*
G37*
G36*
X152385265Y-79088211D02*
G01*
X152385265Y-80283211D01*
X152135216Y-80283211D01*
X151885167Y-80283211D01*
X151885167Y-79548211D01*
X151885167Y-78813211D01*
X151635117Y-78813211D01*
X151385068Y-78813211D01*
X151385068Y-79548211D01*
X151385068Y-80283211D01*
X151135019Y-80283211D01*
X150884970Y-80283211D01*
X150884999Y-79566961D01*
X150885002Y-79509705D01*
X150885012Y-79413077D01*
X150885043Y-79325637D01*
X150885111Y-79246863D01*
X150885230Y-79176231D01*
X150885417Y-79113218D01*
X150885686Y-79057300D01*
X150886053Y-79007955D01*
X150886533Y-78964658D01*
X150887143Y-78926887D01*
X150887896Y-78894118D01*
X150888809Y-78865828D01*
X150889897Y-78841494D01*
X150891175Y-78820591D01*
X150892659Y-78802598D01*
X150894364Y-78786990D01*
X150896306Y-78773244D01*
X150898499Y-78760837D01*
X150900960Y-78749246D01*
X150903704Y-78737947D01*
X150906746Y-78726417D01*
X150910102Y-78714132D01*
X150915211Y-78696653D01*
X150939353Y-78634064D01*
X150970710Y-78577991D01*
X151008994Y-78528764D01*
X151053917Y-78486714D01*
X151105190Y-78452170D01*
X151162524Y-78425463D01*
X151190982Y-78415533D01*
X151229169Y-78405005D01*
X151269107Y-78397522D01*
X151313504Y-78392605D01*
X151365064Y-78389777D01*
X151379285Y-78389377D01*
X151459494Y-78390993D01*
X151533083Y-78399571D01*
X151600703Y-78415301D01*
X151663010Y-78438369D01*
X151720657Y-78468964D01*
X151774298Y-78507273D01*
X151801491Y-78529417D01*
X151843329Y-78512650D01*
X151885167Y-78495883D01*
X151885167Y-78194547D01*
X151885167Y-77893211D01*
X152135216Y-77893211D01*
X152385265Y-77893211D01*
X152385265Y-79088211D01*
G37*
G36*
X147376770Y-79427589D02*
G01*
X147376734Y-79501150D01*
X147376661Y-79565974D01*
X147376541Y-79622696D01*
X147376364Y-79671950D01*
X147376118Y-79714373D01*
X147375794Y-79750600D01*
X147375380Y-79781264D01*
X147374868Y-79807003D01*
X147374245Y-79828450D01*
X147373502Y-79846242D01*
X147372627Y-79861013D01*
X147371612Y-79873398D01*
X147370445Y-79884032D01*
X147369115Y-79893552D01*
X147367613Y-79902591D01*
X147357523Y-79950136D01*
X147336003Y-80018652D01*
X147307501Y-80080011D01*
X147272036Y-80134194D01*
X147229629Y-80181184D01*
X147180299Y-80220964D01*
X147124067Y-80253516D01*
X147060951Y-80278822D01*
X146990971Y-80296865D01*
X146914149Y-80307626D01*
X146895216Y-80309253D01*
X146866560Y-80311322D01*
X146842796Y-80312234D01*
X146820669Y-80312000D01*
X146796921Y-80310632D01*
X146768296Y-80308142D01*
X146743347Y-80305304D01*
X146669822Y-80291086D01*
X146600949Y-80268717D01*
X146537433Y-80238463D01*
X146479983Y-80200586D01*
X146443356Y-80172465D01*
X146403783Y-80189088D01*
X146364210Y-80205711D01*
X146364145Y-80244461D01*
X146364080Y-80283211D01*
X146114030Y-80283211D01*
X145863981Y-80283211D01*
X145863981Y-79088211D01*
X145863981Y-78813211D01*
X146364080Y-78813211D01*
X146364080Y-79348211D01*
X146364080Y-79883211D01*
X146621630Y-79883211D01*
X146879181Y-79883211D01*
X146879181Y-79348211D01*
X146879181Y-78813211D01*
X146621630Y-78813211D01*
X146364080Y-78813211D01*
X145863981Y-78813211D01*
X145863981Y-77893211D01*
X146114030Y-77893211D01*
X146364080Y-77893211D01*
X146364080Y-78192300D01*
X146364080Y-78491389D01*
X146404025Y-78507877D01*
X146443969Y-78524366D01*
X146480290Y-78496733D01*
X146510076Y-78475550D01*
X146566176Y-78443294D01*
X146625789Y-78418749D01*
X146689948Y-78401600D01*
X146759684Y-78391532D01*
X146836031Y-78388231D01*
X146871931Y-78388874D01*
X146952019Y-78395581D01*
X147025395Y-78409546D01*
X147092003Y-78430735D01*
X147151784Y-78459110D01*
X147204681Y-78494636D01*
X147250637Y-78537278D01*
X147289595Y-78586998D01*
X147321497Y-78643761D01*
X147346285Y-78707532D01*
X147348586Y-78714815D01*
X147353126Y-78729283D01*
X147357152Y-78742709D01*
X147360692Y-78755741D01*
X147363780Y-78769029D01*
X147366445Y-78783222D01*
X147368719Y-78798971D01*
X147370632Y-78816924D01*
X147372216Y-78837732D01*
X147373502Y-78862043D01*
X147374521Y-78890509D01*
X147375304Y-78923777D01*
X147375881Y-78962498D01*
X147376285Y-79007321D01*
X147376546Y-79058897D01*
X147376694Y-79117874D01*
X147376762Y-79184902D01*
X147376780Y-79260631D01*
X147376779Y-79345711D01*
X147376779Y-79348211D01*
X147376770Y-79427589D01*
G37*
G36*
X157076188Y-79088039D02*
G01*
X157076188Y-79883211D01*
X157076188Y-80283211D01*
X156527330Y-80283159D01*
X156441276Y-80283105D01*
X156357249Y-80282955D01*
X156279035Y-80282712D01*
X156207101Y-80282382D01*
X156141911Y-80281968D01*
X156083930Y-80281473D01*
X156033625Y-80280903D01*
X155991460Y-80280260D01*
X155957900Y-80279550D01*
X155933412Y-80278775D01*
X155918460Y-80277941D01*
X155904566Y-80276646D01*
X155823451Y-80264738D01*
X155749666Y-80246033D01*
X155683215Y-80220533D01*
X155624100Y-80188243D01*
X155572325Y-80149164D01*
X155527894Y-80103301D01*
X155490810Y-80050655D01*
X155461077Y-79991231D01*
X155438698Y-79925030D01*
X155423678Y-79852057D01*
X155423009Y-79847155D01*
X155420605Y-79821803D01*
X155418668Y-79788846D01*
X155417208Y-79750196D01*
X155416239Y-79707763D01*
X155415772Y-79663457D01*
X155415818Y-79619190D01*
X155416390Y-79576871D01*
X155417499Y-79538411D01*
X155419158Y-79505721D01*
X155421377Y-79480711D01*
X155431761Y-79418721D01*
X155450452Y-79351757D01*
X155476002Y-79291604D01*
X155508285Y-79238465D01*
X155512806Y-79233126D01*
X155970971Y-79233126D01*
X155970971Y-79558168D01*
X155970971Y-79883211D01*
X156248562Y-79883211D01*
X156526153Y-79883211D01*
X156524866Y-79559461D01*
X156523580Y-79235711D01*
X156247275Y-79234418D01*
X155970971Y-79233126D01*
X155512806Y-79233126D01*
X155547175Y-79192543D01*
X155592543Y-79154040D01*
X155644265Y-79123161D01*
X155675913Y-79107584D01*
X155675913Y-79068970D01*
X155675913Y-79030357D01*
X155644657Y-79014881D01*
X155600571Y-78989256D01*
X155553950Y-78951757D01*
X155513926Y-78906851D01*
X155480578Y-78854665D01*
X155453985Y-78795327D01*
X155434227Y-78728966D01*
X155421384Y-78655711D01*
X155420796Y-78650528D01*
X155418545Y-78621803D01*
X155416972Y-78586117D01*
X155416060Y-78545590D01*
X155415795Y-78502340D01*
X155416164Y-78458484D01*
X155417151Y-78416140D01*
X155418742Y-78377427D01*
X155420922Y-78344462D01*
X155423678Y-78319364D01*
X155428354Y-78293211D01*
X155970971Y-78293211D01*
X155970971Y-78598211D01*
X155970971Y-78903211D01*
X156248525Y-78903211D01*
X156526080Y-78903211D01*
X156526080Y-78598211D01*
X156526080Y-78293211D01*
X156248525Y-78293211D01*
X155970971Y-78293211D01*
X155428354Y-78293211D01*
X155430325Y-78282188D01*
X155448438Y-78215482D01*
X155473447Y-78154314D01*
X155504971Y-78099409D01*
X155542627Y-78051492D01*
X155586034Y-78011287D01*
X155632281Y-77979414D01*
X155688813Y-77950026D01*
X155752317Y-77926081D01*
X155823745Y-77907164D01*
X155829829Y-77905851D01*
X155837245Y-77904359D01*
X155844960Y-77903028D01*
X155853545Y-77901847D01*
X155863570Y-77900804D01*
X155875607Y-77899888D01*
X155890226Y-77899090D01*
X155907999Y-77898397D01*
X155929494Y-77897798D01*
X155955285Y-77897283D01*
X155985940Y-77896840D01*
X156022031Y-77896459D01*
X156064129Y-77896128D01*
X156112805Y-77895837D01*
X156168629Y-77895574D01*
X156232171Y-77895328D01*
X156304003Y-77895089D01*
X156384696Y-77894844D01*
X156474820Y-77894584D01*
X157076188Y-77892867D01*
X157076188Y-78598211D01*
X157076188Y-79088039D01*
G37*
G36*
X150532834Y-79731631D02*
G01*
X150532370Y-79775457D01*
X150531849Y-79811785D01*
X150531229Y-79841590D01*
X150530468Y-79865847D01*
X150529526Y-79885532D01*
X150528360Y-79901620D01*
X150526930Y-79915087D01*
X150525193Y-79926907D01*
X150523109Y-79938057D01*
X150520636Y-79949512D01*
X150516741Y-79966036D01*
X150496610Y-80032984D01*
X150471275Y-80091642D01*
X150440552Y-80142324D01*
X150404261Y-80185340D01*
X150362219Y-80221002D01*
X150338042Y-80237126D01*
X150288052Y-80263805D01*
X150233613Y-80284230D01*
X150173281Y-80298891D01*
X150105608Y-80308280D01*
X150094154Y-80309210D01*
X150057391Y-80310579D01*
X150016502Y-80310233D01*
X149975001Y-80308310D01*
X149936404Y-80304950D01*
X149904226Y-80300292D01*
X149882950Y-80295824D01*
X149816179Y-80275745D01*
X149753816Y-80247580D01*
X149696945Y-80211883D01*
X149646650Y-80169203D01*
X149621070Y-80143984D01*
X149577887Y-80159670D01*
X149534704Y-80175355D01*
X149534704Y-80229283D01*
X149534704Y-80283211D01*
X149284655Y-80283211D01*
X149034605Y-80283211D01*
X149034605Y-79655867D01*
X149534704Y-79655867D01*
X149534704Y-79883211D01*
X149787254Y-79883211D01*
X150039803Y-79883211D01*
X150039803Y-79725711D01*
X150039785Y-79705273D01*
X150039656Y-79668362D01*
X150039415Y-79635488D01*
X150039080Y-79607843D01*
X150038665Y-79586620D01*
X150038189Y-79573012D01*
X150037666Y-79568211D01*
X150037008Y-79568067D01*
X150029014Y-79565960D01*
X150012853Y-79561578D01*
X149989627Y-79555227D01*
X149960442Y-79547213D01*
X149926400Y-79537841D01*
X149888607Y-79527417D01*
X149848165Y-79516246D01*
X149806179Y-79504634D01*
X149763752Y-79492886D01*
X149721989Y-79481308D01*
X149681993Y-79470207D01*
X149644869Y-79459886D01*
X149611720Y-79450653D01*
X149583650Y-79442812D01*
X149561764Y-79436669D01*
X149547164Y-79432531D01*
X149540955Y-79430701D01*
X149539543Y-79431813D01*
X149538249Y-79437203D01*
X149537190Y-79447641D01*
X149536349Y-79463832D01*
X149535704Y-79486485D01*
X149535237Y-79516308D01*
X149534928Y-79554008D01*
X149534757Y-79600292D01*
X149534704Y-79655867D01*
X149034605Y-79655867D01*
X149034605Y-79618013D01*
X149034617Y-79559458D01*
X149034703Y-79456120D01*
X149034871Y-79361003D01*
X149035119Y-79274285D01*
X149035446Y-79196145D01*
X149035851Y-79126760D01*
X149036333Y-79066308D01*
X149036890Y-79014967D01*
X149037521Y-78972913D01*
X149038224Y-78940327D01*
X149038999Y-78917384D01*
X149039844Y-78904263D01*
X149050120Y-78835893D01*
X149068091Y-78764546D01*
X149092659Y-78700200D01*
X149123708Y-78643211D01*
X149149092Y-78607443D01*
X149191337Y-78560391D01*
X149240054Y-78519254D01*
X149295512Y-78483928D01*
X149357978Y-78454313D01*
X149427717Y-78430303D01*
X149504998Y-78411797D01*
X149590086Y-78398691D01*
X149683249Y-78390882D01*
X149784753Y-78388268D01*
X149847434Y-78389104D01*
X149941711Y-78394169D01*
X150027746Y-78403934D01*
X150105969Y-78418525D01*
X150176806Y-78438069D01*
X150240687Y-78462692D01*
X150298040Y-78492521D01*
X150349293Y-78527681D01*
X150394873Y-78568300D01*
X150415729Y-78590954D01*
X150452625Y-78641003D01*
X150482553Y-78697014D01*
X150505629Y-78759333D01*
X150521968Y-78828306D01*
X150531687Y-78904281D01*
X150534901Y-78987602D01*
X150534901Y-79068211D01*
X150287438Y-79068211D01*
X150039975Y-79068211D01*
X150038639Y-78941961D01*
X150037303Y-78815711D01*
X149785933Y-78814414D01*
X149534563Y-78813118D01*
X149535884Y-78971721D01*
X149537204Y-79130324D01*
X150036344Y-79260517D01*
X150535483Y-79390711D01*
X150533543Y-79645711D01*
X150533282Y-79679330D01*
X150532885Y-79725711D01*
X150532834Y-79731631D01*
G37*
D10*
%TO.C,CR2*%
X168000000Y-96000000D02*
X168000000Y-101500000D01*
X173000000Y-96000000D02*
X168000000Y-96000000D01*
X173000000Y-96000000D02*
X178000000Y-96000000D01*
X178000000Y-96000000D02*
X178000000Y-101500000D01*
X186500000Y-114000000D02*
G75*
G02*
X159500000Y-114000000I-13500000J0D01*
G01*
X159500000Y-114000000D02*
G75*
G02*
X186500000Y-114000000I13500000J0D01*
G01*
%TD*%
D12*
%TO.C,ANTENA1*%
X146315000Y-86473000D03*
%TD*%
%LPC*%
D13*
%TO.C,R13*%
X143411800Y-125750000D03*
D14*
X145088200Y-125750000D03*
%TD*%
D15*
%TO.C,R16*%
X138000000Y-106750000D03*
X138000000Y-111830000D03*
%TD*%
D16*
%TO.C,J1*%
X171500000Y-82000000D03*
D17*
X169000000Y-82000000D03*
X169000000Y-85200000D03*
X171500000Y-85200000D03*
D18*
X164230000Y-84710000D03*
X176270000Y-84710000D03*
%TD*%
D15*
%TO.C,R15*%
X138000000Y-120040000D03*
X138000000Y-114960000D03*
%TD*%
D19*
%TO.C,CR1*%
X151000000Y-92270000D03*
X151000000Y-111940000D03*
%TD*%
%TO.C,CR2*%
X173000000Y-117730000D03*
X173000000Y-98060000D03*
%TD*%
%LPD*%
M02*
