%TF.GenerationSoftware,KiCad,Pcbnew,9.0.5*%
%TF.CreationDate,2025-12-19T23:17:11-03:00*%
%TF.ProjectId,BillCold_V0.01,42696c6c-436f-46c6-945f-56302e30312e,rev?*%
%TF.SameCoordinates,Original*%
%TF.FileFunction,Copper,L1,Top*%
%TF.FilePolarity,Positive*%
%FSLAX46Y46*%
G04 Gerber Fmt 4.6, Leading zero omitted, Abs format (unit mm)*
G04 Created by KiCad (PCBNEW 9.0.5) date 2025-12-19 23:17:11*
%MOMM*%
%LPD*%
G01*
G04 APERTURE LIST*
G04 Aperture macros list*
%AMRoundRect*
0 Rectangle with rounded corners*
0 $1 Rounding radius*
0 $2 $3 $4 $5 $6 $7 $8 $9 X,Y pos of 4 corners*
0 Add a 4 corners polygon primitive as box body*
4,1,4,$2,$3,$4,$5,$6,$7,$8,$9,$2,$3,0*
0 Add four circle primitives for the rounded corners*
1,1,$1+$1,$2,$3*
1,1,$1+$1,$4,$5*
1,1,$1+$1,$6,$7*
1,1,$1+$1,$8,$9*
0 Add four rect primitives between the rounded corners*
20,1,$1+$1,$2,$3,$4,$5,0*
20,1,$1+$1,$4,$5,$6,$7,0*
20,1,$1+$1,$6,$7,$8,$9,0*
20,1,$1+$1,$8,$9,$2,$3,0*%
G04 Aperture macros list end*
%TA.AperFunction,EtchedComponent*%
%ADD10C,0.900000*%
%TD*%
%TA.AperFunction,EtchedComponent*%
%ADD11C,0.500000*%
%TD*%
%TA.AperFunction,EtchedComponent*%
%ADD12C,0.120000*%
%TD*%
%TA.AperFunction,SMDPad,CuDef*%
%ADD13RoundRect,0.250000X0.325000X0.650000X-0.325000X0.650000X-0.325000X-0.650000X0.325000X-0.650000X0*%
%TD*%
%TA.AperFunction,SMDPad,CuDef*%
%ADD14RoundRect,0.250000X0.312500X0.625000X-0.312500X0.625000X-0.312500X-0.625000X0.312500X-0.625000X0*%
%TD*%
%TA.AperFunction,SMDPad,CuDef*%
%ADD15RoundRect,0.250000X-0.325000X-0.650000X0.325000X-0.650000X0.325000X0.650000X-0.325000X0.650000X0*%
%TD*%
%TA.AperFunction,SMDPad,CuDef*%
%ADD16RoundRect,0.250000X-0.312500X-0.625000X0.312500X-0.625000X0.312500X0.625000X-0.312500X0.625000X0*%
%TD*%
%TA.AperFunction,SMDPad,CuDef*%
%ADD17R,1.600000X0.850000*%
%TD*%
%TA.AperFunction,SMDPad,CuDef*%
%ADD18RoundRect,0.250000X-0.375000X-0.625000X0.375000X-0.625000X0.375000X0.625000X-0.375000X0.625000X0*%
%TD*%
%TA.AperFunction,SMDPad,CuDef*%
%ADD19R,0.500000X0.500000*%
%TD*%
%TA.AperFunction,SMDPad,CuDef*%
%ADD20RoundRect,0.050000X-0.350000X-0.050000X0.350000X-0.050000X0.350000X0.050000X-0.350000X0.050000X0*%
%TD*%
%TA.AperFunction,SMDPad,CuDef*%
%ADD21RoundRect,0.050000X-0.050000X-0.350000X0.050000X-0.350000X0.050000X0.350000X-0.050000X0.350000X0*%
%TD*%
%TA.AperFunction,HeatsinkPad*%
%ADD22R,4.000000X4.000000*%
%TD*%
%TA.AperFunction,ComponentPad*%
%ADD23R,1.117600X1.117600*%
%TD*%
%TA.AperFunction,ComponentPad*%
%ADD24C,1.117600*%
%TD*%
%TA.AperFunction,ComponentPad*%
%ADD25C,1.400000*%
%TD*%
%TA.AperFunction,SMDPad,CuDef*%
%ADD26RoundRect,0.218750X0.381250X-0.218750X0.381250X0.218750X-0.381250X0.218750X-0.381250X-0.218750X0*%
%TD*%
%TA.AperFunction,SMDPad,CuDef*%
%ADD27R,1.400000X1.150000*%
%TD*%
%TA.AperFunction,SMDPad,CuDef*%
%ADD28RoundRect,0.250000X-0.625000X0.312500X-0.625000X-0.312500X0.625000X-0.312500X0.625000X0.312500X0*%
%TD*%
%TA.AperFunction,ComponentPad*%
%ADD29R,1.428000X1.428000*%
%TD*%
%TA.AperFunction,ComponentPad*%
%ADD30C,1.428000*%
%TD*%
%TA.AperFunction,ComponentPad*%
%ADD31C,3.316000*%
%TD*%
%TA.AperFunction,SMDPad,CuDef*%
%ADD32RoundRect,0.040600X-0.764400X-0.249400X0.764400X-0.249400X0.764400X0.249400X-0.764400X0.249400X0*%
%TD*%
%TA.AperFunction,SMDPad,CuDef*%
%ADD33R,0.900000X1.524000*%
%TD*%
%TA.AperFunction,SMDPad,CuDef*%
%ADD34R,0.500000X1.320000*%
%TD*%
%TA.AperFunction,SMDPad,CuDef*%
%ADD35RoundRect,0.375000X0.375000X-0.625000X0.375000X0.625000X-0.375000X0.625000X-0.375000X-0.625000X0*%
%TD*%
%TA.AperFunction,SMDPad,CuDef*%
%ADD36RoundRect,0.500000X1.400000X-0.500000X1.400000X0.500000X-1.400000X0.500000X-1.400000X-0.500000X0*%
%TD*%
%TA.AperFunction,ComponentPad*%
%ADD37C,2.500000*%
%TD*%
%TA.AperFunction,ViaPad*%
%ADD38C,0.600000*%
%TD*%
%TA.AperFunction,Conductor*%
%ADD39C,0.200000*%
%TD*%
G04 APERTURE END LIST*
D10*
%TO.C,ANTENA1*%
X144215000Y-85653000D02*
X144215000Y-80753000D01*
D11*
X146315000Y-85883000D02*
X146315000Y-80583000D01*
X149595000Y-80553000D02*
X144055000Y-80553000D01*
X149595000Y-83193000D02*
X149595000Y-80553000D01*
X151595000Y-83193000D02*
X149595000Y-83193000D01*
X151595000Y-83193000D02*
X151595000Y-80553000D01*
X154295000Y-80553000D02*
X151595000Y-80553000D01*
X154295000Y-83193000D02*
X154295000Y-80553000D01*
X156295000Y-83193000D02*
X154295000Y-83193000D01*
X156305000Y-83193000D02*
X156305000Y-79253000D01*
X159005000Y-79253000D02*
X156305000Y-79253000D01*
X159005000Y-83193000D02*
X159005000Y-79253000D01*
D12*
X144255000Y-80793000D02*
X143825000Y-80873000D01*
X143825000Y-80363000D01*
X144145000Y-80363000D01*
X144255000Y-80793000D01*
%TA.AperFunction,EtchedComponent*%
G36*
X144255000Y-80793000D02*
G01*
X143825000Y-80873000D01*
X143825000Y-80363000D01*
X144145000Y-80363000D01*
X144255000Y-80793000D01*
G37*
%TD.AperFunction*%
%TD*%
D13*
%TO.P,C14,1*%
%TO.N,Net-(ANTENA1-Pad2)*%
X141062500Y-90250000D03*
%TO.P,C14,2*%
%TO.N,GND*%
X138112500Y-90250000D03*
%TD*%
D14*
%TO.P,R10,1*%
%TO.N,/SPID*%
X165675000Y-110000000D03*
%TO.P,R10,2*%
%TO.N,Net-(U3-DI(IO0))*%
X162750000Y-110000000D03*
%TD*%
%TO.P,R8,1*%
%TO.N,/SPIWP*%
X158712500Y-113750000D03*
%TO.P,R8,2*%
%TO.N,Net-(U3-{slash}WP(IO2))*%
X155787500Y-113750000D03*
%TD*%
D15*
%TO.P,C8,1*%
%TO.N,Net-(U2-VO)*%
X183800000Y-101500000D03*
%TO.P,C8,2*%
%TO.N,GND*%
X186750000Y-101500000D03*
%TD*%
%TO.P,C12,1*%
%TO.N,/VDD33*%
X171550000Y-114000000D03*
%TO.P,C12,2*%
%TO.N,GND*%
X174500000Y-114000000D03*
%TD*%
D16*
%TO.P,R9,1*%
%TO.N,/SPIQ*%
X155825000Y-110000000D03*
%TO.P,R9,2*%
%TO.N,Net-(U3-DO(IO1))*%
X158750000Y-110000000D03*
%TD*%
D17*
%TO.P,D3,1,DOUT*%
%TO.N,unconnected-(D3-DOUT-Pad1)*%
X164000000Y-94000000D03*
%TO.P,D3,2,VSS*%
%TO.N,GND*%
X164000000Y-95750000D03*
%TO.P,D3,3,DIN*%
%TO.N,Net-(D3-DIN)*%
X167500000Y-95750000D03*
%TO.P,D3,4,VDD*%
%TO.N,/VDD33*%
X167500000Y-94000000D03*
%TD*%
D18*
%TO.P,D2,1,K*%
%TO.N,GND*%
X168950000Y-105000000D03*
%TO.P,D2,2,A*%
%TO.N,Net-(D2-A)*%
X171750000Y-105000000D03*
%TD*%
D16*
%TO.P,R4,1*%
%TO.N,Net-(C9-Pad1)*%
X153325000Y-90250000D03*
%TO.P,R4,2*%
%TO.N,/XTAL_P*%
X156250000Y-90250000D03*
%TD*%
%TO.P,R2,1*%
%TO.N,Net-(J1-D-)*%
X174325000Y-94000000D03*
%TO.P,R2,2*%
%TO.N,/D-*%
X177250000Y-94000000D03*
%TD*%
D19*
%TO.P,D4,1*%
%TO.N,/VDD33*%
X173750000Y-101500000D03*
%TO.P,D4,2*%
%TO.N,Net-(U2-VO)*%
X175950000Y-101500000D03*
%TD*%
D16*
%TO.P,R12,1*%
%TO.N,/DATA_LED*%
X167075000Y-99750000D03*
%TO.P,R12,2*%
%TO.N,Net-(D3-DIN)*%
X170000000Y-99750000D03*
%TD*%
D14*
%TO.P,R14,1*%
%TO.N,GND*%
X144500000Y-121500000D03*
%TO.P,R14,2*%
%TO.N,/GPIO2*%
X141575000Y-121500000D03*
%TD*%
D20*
%TO.P,U1,1,LNA_IN*%
%TO.N,/LNA_IN*%
X146050000Y-97900000D03*
%TO.P,U1,2,VDD3P3*%
%TO.N,/VDD33*%
X146050000Y-98300000D03*
%TO.P,U1,3,VDD3P3*%
X146050000Y-98700000D03*
%TO.P,U1,4,CHIP_PU*%
%TO.N,unconnected-(U1-CHIP_PU-Pad4)*%
X146050000Y-99100000D03*
%TO.P,U1,5,GPIO0*%
%TO.N,unconnected-(U1-GPIO0-Pad5)*%
X146050000Y-99500000D03*
%TO.P,U1,6,GPIO1*%
%TO.N,/GPIO1*%
X146050000Y-99900000D03*
%TO.P,U1,7,GPIO2*%
%TO.N,/GPIO2*%
X146050000Y-100300000D03*
%TO.P,U1,8,GPIO3*%
%TO.N,unconnected-(U1-GPIO3-Pad8)*%
X146050000Y-100700000D03*
%TO.P,U1,9,GPIO4*%
%TO.N,unconnected-(U1-GPIO4-Pad9)*%
X146050000Y-101100000D03*
%TO.P,U1,10,GPIO5*%
%TO.N,unconnected-(U1-GPIO5-Pad10)*%
X146050000Y-101500000D03*
%TO.P,U1,11,GPIO6*%
%TO.N,unconnected-(U1-GPIO6-Pad11)*%
X146050000Y-101900000D03*
%TO.P,U1,12,GPIO7*%
%TO.N,unconnected-(U1-GPIO7-Pad12)*%
X146050000Y-102300000D03*
%TO.P,U1,13,GPIO8*%
%TO.N,unconnected-(U1-GPIO8-Pad13)*%
X146050000Y-102700000D03*
%TO.P,U1,14,GPIO9*%
%TO.N,unconnected-(U1-GPIO9-Pad14)*%
X146050000Y-103100000D03*
D21*
%TO.P,U1,15,GPIO10*%
%TO.N,/DATA_LED*%
X146900000Y-103950000D03*
%TO.P,U1,16,GPIO11*%
%TO.N,unconnected-(U1-GPIO11-Pad16)*%
X147300000Y-103950000D03*
%TO.P,U1,17,GPIO12*%
%TO.N,unconnected-(U1-GPIO12-Pad17)*%
X147700000Y-103950000D03*
%TO.P,U1,18,GPIO13*%
%TO.N,unconnected-(U1-GPIO13-Pad18)*%
X148100000Y-103950000D03*
%TO.P,U1,19,GPIO14*%
%TO.N,unconnected-(U1-GPIO14-Pad19)*%
X148500000Y-103950000D03*
%TO.P,U1,20,VDD3P3_RTC*%
%TO.N,/VDD33*%
X148900000Y-103950000D03*
%TO.P,U1,21,XTAL_32K_P*%
%TO.N,unconnected-(U1-XTAL_32K_P-Pad21)*%
X149300000Y-103950000D03*
%TO.P,U1,22,XTAL_32K_N*%
%TO.N,unconnected-(U1-XTAL_32K_N-Pad22)*%
X149700000Y-103950000D03*
%TO.P,U1,23,GPIO17*%
%TO.N,unconnected-(U1-GPIO17-Pad23)*%
X150100000Y-103950000D03*
%TO.P,U1,24,GPIO18*%
%TO.N,unconnected-(U1-GPIO18-Pad24)*%
X150500000Y-103950000D03*
%TO.P,U1,25,GPIO19/USB_D-*%
%TO.N,/D-*%
X150900000Y-103950000D03*
%TO.P,U1,26,GPIO20/USB_D+*%
%TO.N,/D+*%
X151300000Y-103950000D03*
%TO.P,U1,27,GPIO21*%
%TO.N,unconnected-(U1-GPIO21-Pad27)*%
X151700000Y-103950000D03*
%TO.P,U1,28,SPICS1*%
%TO.N,unconnected-(U1-SPICS1-Pad28)*%
X152100000Y-103950000D03*
D20*
%TO.P,U1,29,VDD_SPI*%
%TO.N,/VDD_SPI*%
X152950000Y-103100000D03*
%TO.P,U1,30,SPIHD*%
%TO.N,/SPIHD*%
X152950000Y-102700000D03*
%TO.P,U1,31,SPIWP*%
%TO.N,/SPIWP*%
X152950000Y-102300000D03*
%TO.P,U1,32,SPICS0*%
%TO.N,/SPICS0*%
X152950000Y-101900000D03*
%TO.P,U1,33,SPICLK*%
%TO.N,/SPICLK*%
X152950000Y-101500000D03*
%TO.P,U1,34,SPIQ*%
%TO.N,/SPIQ*%
X152950000Y-101100000D03*
%TO.P,U1,35,SPID*%
%TO.N,/SPID*%
X152950000Y-100700000D03*
%TO.P,U1,36,SPICLK_N*%
%TO.N,unconnected-(U1-SPICLK_N-Pad36)*%
X152950000Y-100300000D03*
%TO.P,U1,37,SPICLK_P*%
%TO.N,unconnected-(U1-SPICLK_P-Pad37)*%
X152950000Y-99900000D03*
%TO.P,U1,38,GPIO33*%
%TO.N,unconnected-(U1-GPIO33-Pad38)*%
X152950000Y-99500000D03*
%TO.P,U1,39,GPIO34*%
%TO.N,unconnected-(U1-GPIO34-Pad39)*%
X152950000Y-99100000D03*
%TO.P,U1,40,GPIO35*%
%TO.N,unconnected-(U1-GPIO35-Pad40)*%
X152950000Y-98700000D03*
%TO.P,U1,41,GPIO36*%
%TO.N,unconnected-(U1-GPIO36-Pad41)*%
X152950000Y-98300000D03*
%TO.P,U1,42,GPIO37*%
%TO.N,unconnected-(U1-GPIO37-Pad42)*%
X152950000Y-97900000D03*
D21*
%TO.P,U1,43,GPIO38*%
%TO.N,unconnected-(U1-GPIO38-Pad43)*%
X152100000Y-97050000D03*
%TO.P,U1,44,MTCK*%
%TO.N,unconnected-(U1-MTCK-Pad44)*%
X151700000Y-97050000D03*
%TO.P,U1,45,MTDO*%
%TO.N,unconnected-(U1-MTDO-Pad45)*%
X151300000Y-97050000D03*
%TO.P,U1,46,VDD3P3_CPU*%
%TO.N,/VDD33*%
X150900000Y-97050000D03*
%TO.P,U1,47,MTDI*%
%TO.N,unconnected-(U1-MTDI-Pad47)*%
X150500000Y-97050000D03*
%TO.P,U1,48,MTMS*%
%TO.N,unconnected-(U1-MTMS-Pad48)*%
X150100000Y-97050000D03*
%TO.P,U1,49,U0TXD*%
%TO.N,/M_TXD0*%
X149700000Y-97050000D03*
%TO.P,U1,50,U0RXD*%
%TO.N,unconnected-(U1-U0RXD-Pad50)*%
X149300000Y-97050000D03*
%TO.P,U1,51,GPIO45*%
%TO.N,/GPIO45*%
X148900000Y-97050000D03*
%TO.P,U1,52,GPIO46*%
%TO.N,unconnected-(U1-GPIO46-Pad52)*%
X148500000Y-97050000D03*
%TO.P,U1,53,XTAL_N*%
%TO.N,/XTAL_N*%
X148100000Y-97050000D03*
%TO.P,U1,54,XTAL_P*%
%TO.N,/XTAL_P*%
X147700000Y-97050000D03*
%TO.P,U1,55,VDDA*%
%TO.N,/VDD33*%
X147300000Y-97050000D03*
%TO.P,U1,56,VDDA*%
X146900000Y-97050000D03*
D22*
%TO.P,U1,57,GND*%
%TO.N,unconnected-(U1-GND-Pad57)*%
X149500000Y-100500000D03*
%TD*%
D16*
%TO.P,R1,1*%
%TO.N,Net-(J1-D+)*%
X174325000Y-105000000D03*
%TO.P,R1,2*%
%TO.N,/D+*%
X177250000Y-105000000D03*
%TD*%
D23*
%TO.P,R13,1*%
%TO.N,/GPIO2*%
X143411800Y-125750000D03*
D24*
%TO.P,R13,2,2*%
%TO.N,Net-(R13-Pad2)*%
X145088200Y-125750000D03*
%TD*%
D25*
%TO.P,R16,1*%
%TO.N,Net-(R13-Pad2)*%
X138000000Y-106750000D03*
%TO.P,R16,2*%
%TO.N,/GPIO1*%
X138000000Y-111830000D03*
%TD*%
D14*
%TO.P,R5,1*%
%TO.N,/VDD33*%
X141000000Y-97250000D03*
%TO.P,R5,2*%
%TO.N,/GPIO45*%
X138075000Y-97250000D03*
%TD*%
D13*
%TO.P,C4,1*%
%TO.N,GND*%
X177450000Y-110500000D03*
%TO.P,C4,2*%
%TO.N,/VDD33*%
X174500000Y-110500000D03*
%TD*%
D15*
%TO.P,C3,1*%
%TO.N,GND*%
X169550000Y-110500000D03*
%TO.P,C3,2*%
%TO.N,/VDD33*%
X172500000Y-110500000D03*
%TD*%
D26*
%TO.P,L1,1,1*%
%TO.N,/LNA_IN*%
X146250000Y-91375000D03*
%TO.P,L1,2,2*%
%TO.N,Net-(ANTENA1-Pad2)*%
X146250000Y-89250000D03*
%TD*%
D19*
%TO.P,D1,1*%
%TO.N,/VIN_5V*%
X170000000Y-90500000D03*
%TO.P,D1,2*%
%TO.N,Net-(J1-VBUS)*%
X167800000Y-90500000D03*
%TD*%
D27*
%TO.P,X1,1*%
%TO.N,Net-(C9-Pad1)*%
X159050000Y-93350000D03*
%TO.P,X1,2*%
%TO.N,GND*%
X161250000Y-93350000D03*
%TO.P,X1,3*%
%TO.N,/XTAL_N*%
X161250000Y-91750000D03*
%TO.P,X1,4*%
%TO.N,GND*%
X159050000Y-91750000D03*
%TD*%
D15*
%TO.P,C2,1*%
%TO.N,Net-(J1-D-)*%
X179309273Y-108669242D03*
%TO.P,C2,2*%
%TO.N,GND*%
X182259273Y-108669242D03*
%TD*%
%TO.P,C9,1*%
%TO.N,Net-(C9-Pad1)*%
X157050000Y-97000000D03*
%TO.P,C9,2*%
%TO.N,GND*%
X160000000Y-97000000D03*
%TD*%
D16*
%TO.P,R3,1*%
%TO.N,Net-(D2-A)*%
X178325000Y-97500000D03*
%TO.P,R3,2*%
%TO.N,/VIN_5V*%
X181250000Y-97500000D03*
%TD*%
D28*
%TO.P,R6,1*%
%TO.N,/M_TXD0*%
X145000000Y-107500000D03*
%TO.P,R6,2*%
%TO.N,/TXD0*%
X145000000Y-110425000D03*
%TD*%
D29*
%TO.P,J1,1,VBUS*%
%TO.N,Net-(J1-VBUS)*%
X171500000Y-82000000D03*
D30*
%TO.P,J1,2,D-*%
%TO.N,Net-(J1-D-)*%
X169000000Y-82000000D03*
%TO.P,J1,3,D+*%
%TO.N,Net-(J1-D+)*%
X169000000Y-85200000D03*
%TO.P,J1,4,GND*%
%TO.N,GND*%
X171500000Y-85200000D03*
D31*
%TO.P,J1,5,Shield*%
X164230000Y-84710000D03*
X176270000Y-84710000D03*
%TD*%
D16*
%TO.P,R11,1*%
%TO.N,/SPICLK*%
X162825000Y-113750000D03*
%TO.P,R11,2*%
%TO.N,Net-(U3-CLK)*%
X165750000Y-113750000D03*
%TD*%
D15*
%TO.P,C1,1*%
%TO.N,Net-(J1-D+)*%
X179300000Y-105000000D03*
%TO.P,C1,2*%
%TO.N,GND*%
X182250000Y-105000000D03*
%TD*%
%TO.P,C11,1*%
%TO.N,/VDD33*%
X147500000Y-121500000D03*
%TO.P,C11,2*%
%TO.N,GND*%
X150450000Y-121500000D03*
%TD*%
D32*
%TO.P,U3,1,/CS*%
%TO.N,/SPICS0*%
X156395000Y-101845000D03*
%TO.P,U3,2,DO(IO1)*%
%TO.N,Net-(U3-DO(IO1))*%
X156395000Y-103115000D03*
%TO.P,U3,3,/WP(IO2)*%
%TO.N,Net-(U3-{slash}WP(IO2))*%
X156395000Y-104385000D03*
%TO.P,U3,4,GND*%
%TO.N,GND*%
X156395000Y-105655000D03*
%TO.P,U3,5,DI(IO0)*%
%TO.N,Net-(U3-DI(IO0))*%
X163605000Y-105655000D03*
%TO.P,U3,6,CLK*%
%TO.N,Net-(U3-CLK)*%
X163605000Y-104385000D03*
%TO.P,U3,7,/HOLD/RESET(IO3)*%
%TO.N,Net-(U3-{slash}HOLD{slash}RESET(IO3))*%
X163605000Y-103115000D03*
%TO.P,U3,8,VCC*%
%TO.N,/VDD_SPI*%
X163605000Y-101845000D03*
%TD*%
D15*
%TO.P,C7,1*%
%TO.N,/VIN_5V*%
X178300000Y-101500000D03*
%TO.P,C7,2*%
%TO.N,GND*%
X181250000Y-101500000D03*
%TD*%
D33*
%TO.P,ANTENA1,1,1*%
%TO.N,GND*%
X144215000Y-86383000D03*
D34*
%TO.P,ANTENA1,2,2*%
%TO.N,Net-(ANTENA1-Pad2)*%
X146315000Y-86473000D03*
%TD*%
D15*
%TO.P,C6,1*%
%TO.N,GND*%
X156050000Y-124500000D03*
%TO.P,C6,2*%
%TO.N,/VDD_SPI*%
X159000000Y-124500000D03*
%TD*%
%TO.P,C10,1*%
%TO.N,/XTAL_N*%
X178550000Y-80000000D03*
%TO.P,C10,2*%
%TO.N,GND*%
X181500000Y-80000000D03*
%TD*%
D25*
%TO.P,R15,1*%
%TO.N,/VDD33*%
X138000000Y-120040000D03*
%TO.P,R15,2*%
%TO.N,Net-(R13-Pad2)*%
X138000000Y-114960000D03*
%TD*%
D35*
%TO.P,U2,1,ADJ*%
%TO.N,GND*%
X180400000Y-91000000D03*
%TO.P,U2,2,VO*%
%TO.N,Net-(U2-VO)*%
X182700000Y-91000000D03*
D36*
X182700000Y-84700000D03*
D35*
%TO.P,U2,3,VI*%
%TO.N,/VIN_5V*%
X185000000Y-91000000D03*
%TD*%
D16*
%TO.P,R7,1*%
%TO.N,/SPIHD*%
X155825000Y-117500000D03*
%TO.P,R7,2*%
%TO.N,Net-(U3-{slash}HOLD{slash}RESET(IO3))*%
X158750000Y-117500000D03*
%TD*%
D15*
%TO.P,C5,1*%
%TO.N,GND*%
X183550000Y-97500000D03*
%TO.P,C5,2*%
%TO.N,/VDD_SPI*%
X186500000Y-97500000D03*
%TD*%
D13*
%TO.P,C15,1*%
%TO.N,/LNA_IN*%
X141000000Y-93750000D03*
%TO.P,C15,2*%
%TO.N,GND*%
X138050000Y-93750000D03*
%TD*%
D37*
%TO.P,CR1,1,-*%
%TO.N,GND*%
X151000000Y-92270000D03*
%TO.P,CR1,2,+*%
%TO.N,/VDD33*%
X151000000Y-111940000D03*
%TD*%
%TO.P,CR2,1,-*%
%TO.N,GND*%
X173000000Y-117730000D03*
%TO.P,CR2,2,+*%
%TO.N,/VDD33*%
X173000000Y-98060000D03*
%TD*%
D38*
%TO.N,Net-(J1-D+)*%
X171750000Y-100750000D03*
%TO.N,GND*%
X180750000Y-89000000D03*
X158500000Y-102250000D03*
X144000000Y-88500000D03*
X143250000Y-91750000D03*
X182250000Y-86750000D03*
X158000000Y-105000000D03*
X182500000Y-95000000D03*
X180750000Y-93250000D03*
%TO.N,Net-(J1-D-)*%
X172250000Y-91500000D03*
X173750000Y-83750000D03*
%TO.N,/VDD_SPI*%
X158250000Y-122750000D03*
X161000000Y-102750000D03*
X185000000Y-95000000D03*
X159750000Y-100000000D03*
X154750000Y-103000000D03*
%TO.N,Net-(J1-VBUS)*%
X170250000Y-87750000D03*
%TO.N,Net-(D2-A)*%
X176750000Y-97000000D03*
X172250000Y-99750000D03*
%TO.N,/D+*%
X152000000Y-106250000D03*
X156500000Y-108500000D03*
X157250000Y-107000000D03*
X169000000Y-107500000D03*
%TO.N,/D-*%
X150000000Y-106750000D03*
X176000000Y-91750000D03*
X172000000Y-93500000D03*
X168000000Y-91750000D03*
%TO.N,/VDD33*%
X147000000Y-93000000D03*
X174500000Y-102500000D03*
X153250000Y-93500000D03*
X141000000Y-109500000D03*
X148500000Y-114750000D03*
X144549265Y-96299265D03*
X146850000Y-95750000D03*
X165250000Y-90250000D03*
X173500000Y-108500000D03*
X142250000Y-119000000D03*
%TO.N,Net-(C9-Pad1)*%
X157500000Y-92000000D03*
X155750000Y-94250000D03*
%TO.N,/XTAL_N*%
X158500000Y-89750000D03*
X149000000Y-94250000D03*
%TO.N,/GPIO45*%
X149750000Y-93500000D03*
X145500000Y-94250000D03*
%TO.N,/M_TXD0*%
X143000000Y-101000000D03*
X150000000Y-95000000D03*
%TO.N,/SPIHD*%
X152750000Y-104000000D03*
X152000002Y-102500000D03*
%TO.N,/SPIWP*%
X153900000Y-107250000D03*
X154000000Y-102500000D03*
%TO.N,Net-(R13-Pad2)*%
X140500000Y-122750000D03*
X139500000Y-112750000D03*
X144000000Y-123500000D03*
%TO.N,/SPIQ*%
X157000000Y-101000000D03*
X158000000Y-106000000D03*
X154250000Y-101250000D03*
X155500000Y-107500000D03*
%TO.N,/SPID*%
X159500000Y-99000000D03*
X157000000Y-99000000D03*
%TO.N,/SPICLK*%
X151000000Y-105750000D03*
X152000000Y-100000000D03*
%TO.N,Net-(U2-VO)*%
X177500000Y-99250000D03*
X183250000Y-86750000D03*
X183250000Y-88500000D03*
X182500000Y-101250000D03*
%TD*%
D39*
%TO.N,Net-(J1-D+)*%
X174325000Y-105000000D02*
X174325000Y-103325000D01*
X179300000Y-105000000D02*
X177550000Y-103250000D01*
X174250000Y-103250000D02*
X171750000Y-100750000D01*
X174325000Y-103325000D02*
X174250000Y-103250000D01*
X177550000Y-103250000D02*
X174250000Y-103250000D01*
%TO.N,GND*%
X180400000Y-92900000D02*
X180750000Y-93250000D01*
X179490000Y-111240000D02*
X173000000Y-117730000D01*
X168000000Y-105950000D02*
X168950000Y-105000000D01*
X158050000Y-126500000D02*
X164230000Y-126500000D01*
X164230000Y-126500000D02*
X173000000Y-117730000D01*
X181500000Y-80000000D02*
X176790000Y-84710000D01*
X160000000Y-96250000D02*
X160000000Y-97000000D01*
X174500000Y-116230000D02*
X173000000Y-117730000D01*
X181250000Y-101500000D02*
X182750000Y-100000000D01*
X171500000Y-85200000D02*
X168950000Y-87750000D01*
X138525000Y-90775000D02*
X139500000Y-91750000D01*
X161125000Y-93350000D02*
X159525000Y-91750000D01*
X171500000Y-85200000D02*
X175780000Y-85200000D01*
X150450000Y-121500000D02*
X153450000Y-124500000D01*
X150450000Y-121500000D02*
X150450000Y-122550000D01*
X164000000Y-95750000D02*
X162750000Y-94500000D01*
X156050000Y-124500000D02*
X156050000Y-124200000D01*
X176270000Y-84710000D02*
X178310000Y-86750000D01*
X149250000Y-123750000D02*
X145250000Y-123750000D01*
X162750000Y-94500000D02*
X162750000Y-89500000D01*
X144500000Y-123000000D02*
X144500000Y-121500000D01*
X169550000Y-110500000D02*
X168000000Y-108950000D01*
X182750000Y-100000000D02*
X185250000Y-100000000D01*
X153450000Y-124500000D02*
X156050000Y-124500000D01*
X182250000Y-102500000D02*
X181250000Y-101500000D01*
X185250000Y-100000000D02*
X186750000Y-101500000D01*
X169550000Y-114280000D02*
X173000000Y-117730000D01*
X182500000Y-95000000D02*
X183550000Y-96050000D01*
X182250000Y-108659969D02*
X182259273Y-108669242D01*
X182250000Y-105000000D02*
X182250000Y-108659969D01*
X160000000Y-97000000D02*
X161250000Y-95750000D01*
X168000000Y-108950000D02*
X168000000Y-105950000D01*
X161250000Y-93350000D02*
X161125000Y-93350000D01*
X183550000Y-96050000D02*
X183550000Y-97500000D01*
X164230000Y-86730000D02*
X164230000Y-84710000D01*
X180750000Y-89000000D02*
X180400000Y-89350000D01*
X150450000Y-122550000D02*
X149250000Y-123750000D01*
X176790000Y-84710000D02*
X176270000Y-84710000D01*
X183550000Y-97500000D02*
X183550000Y-99200000D01*
X162750000Y-89500000D02*
X164875000Y-87375000D01*
X164875000Y-87375000D02*
X164230000Y-86730000D01*
X138050000Y-93750000D02*
X138050000Y-92700000D01*
X174500000Y-114000000D02*
X174500000Y-116230000D01*
X139500000Y-91750000D02*
X143250000Y-91750000D01*
X159250000Y-95500000D02*
X160000000Y-96250000D01*
X138525000Y-90250000D02*
X138525000Y-90775000D01*
X138050000Y-92700000D02*
X139000000Y-91750000D01*
X159525000Y-91750000D02*
X159050000Y-91750000D01*
X157345000Y-105655000D02*
X158000000Y-105000000D01*
X183550000Y-99200000D02*
X181250000Y-101500000D01*
X158500000Y-102250000D02*
X158500000Y-95500000D01*
X169550000Y-110500000D02*
X169550000Y-114280000D01*
X158500000Y-95500000D02*
X159250000Y-95500000D01*
X139000000Y-91750000D02*
X139500000Y-91750000D01*
X182250000Y-105000000D02*
X182250000Y-102500000D01*
X168950000Y-87750000D02*
X165250000Y-87750000D01*
X182259273Y-108669242D02*
X182060758Y-108669242D01*
X144000000Y-88500000D02*
X144000000Y-86598000D01*
X161250000Y-95000000D02*
X162000000Y-95750000D01*
X182060758Y-108669242D02*
X179490000Y-111240000D01*
X161250000Y-95750000D02*
X162000000Y-95750000D01*
X158500000Y-95500000D02*
X155270000Y-92270000D01*
X165250000Y-87750000D02*
X164875000Y-87375000D01*
X145250000Y-123750000D02*
X144500000Y-123000000D01*
X144194000Y-86404000D02*
X144215000Y-86404000D01*
X175780000Y-85200000D02*
X176270000Y-84710000D01*
X177450000Y-110500000D02*
X178190000Y-111240000D01*
X180400000Y-89350000D02*
X180400000Y-91000000D01*
X178310000Y-86750000D02*
X182250000Y-86750000D01*
X156395000Y-105655000D02*
X157345000Y-105655000D01*
X155270000Y-92270000D02*
X151000000Y-92270000D01*
X178190000Y-111240000D02*
X179490000Y-111240000D01*
X156050000Y-124500000D02*
X158050000Y-126500000D01*
X180400000Y-91000000D02*
X180400000Y-92900000D01*
X162000000Y-95750000D02*
X164000000Y-95750000D01*
X161250000Y-93350000D02*
X161250000Y-95000000D01*
X144000000Y-86598000D02*
X144194000Y-86404000D01*
%TO.N,Net-(J1-D-)*%
X174325000Y-94000000D02*
X172250000Y-91925000D01*
X172250000Y-91925000D02*
X172250000Y-91500000D01*
X170750000Y-83750000D02*
X169000000Y-82000000D01*
X180500000Y-107478515D02*
X180500000Y-104000000D01*
X175000000Y-102000000D02*
X175000000Y-94675000D01*
X179309273Y-108669242D02*
X180500000Y-107478515D01*
X179250000Y-102750000D02*
X175750000Y-102750000D01*
X180500000Y-104000000D02*
X179250000Y-102750000D01*
X175000000Y-94675000D02*
X174325000Y-94000000D01*
X175750000Y-102750000D02*
X175000000Y-102000000D01*
X173750000Y-83750000D02*
X170750000Y-83750000D01*
%TO.N,/VDD_SPI*%
X163605000Y-101845000D02*
X161760000Y-100000000D01*
X154750000Y-103000000D02*
X154649000Y-103101000D01*
X154649000Y-103101000D02*
X152950000Y-103101000D01*
X186500000Y-97500000D02*
X186500000Y-96500000D01*
X161905000Y-101845000D02*
X161000000Y-102750000D01*
X159000000Y-123500000D02*
X158250000Y-122750000D01*
X186500000Y-96500000D02*
X185000000Y-95000000D01*
X161760000Y-100000000D02*
X159750000Y-100000000D01*
X163605000Y-101845000D02*
X161905000Y-101845000D01*
X159000000Y-124500000D02*
X159000000Y-123500000D01*
%TO.N,/VIN_5V*%
X185000000Y-91250000D02*
X181250000Y-95000000D01*
X181250000Y-99500000D02*
X181250000Y-97500000D01*
X178300000Y-101500000D02*
X179250000Y-101500000D01*
X185000000Y-88500000D02*
X185000000Y-91000000D01*
X170000000Y-90500000D02*
X176500000Y-90500000D01*
X184250000Y-87750000D02*
X185000000Y-88500000D01*
X179250000Y-87750000D02*
X184250000Y-87750000D01*
X181250000Y-95000000D02*
X181250000Y-97500000D01*
X185000000Y-91000000D02*
X185000000Y-91250000D01*
X176500000Y-90500000D02*
X179250000Y-87750000D01*
X179250000Y-101500000D02*
X181250000Y-99500000D01*
%TO.N,Net-(J1-VBUS)*%
X167800000Y-90500000D02*
X167800000Y-89200000D01*
X169250000Y-88750000D02*
X170250000Y-87750000D01*
X168250000Y-88750000D02*
X169250000Y-88750000D01*
X167800000Y-89200000D02*
X168250000Y-88750000D01*
%TO.N,Net-(D2-A)*%
X171750000Y-99750000D02*
X172250000Y-99750000D01*
X170750000Y-100750000D02*
X171750000Y-99750000D01*
X170750000Y-102250000D02*
X170750000Y-100750000D01*
X171750000Y-103250000D02*
X170750000Y-102250000D01*
X177825000Y-97000000D02*
X178325000Y-97500000D01*
X176750000Y-97000000D02*
X177825000Y-97000000D01*
X171750000Y-105000000D02*
X171750000Y-103250000D01*
%TO.N,/D+*%
X151300000Y-105050000D02*
X151300000Y-103950000D01*
X152000000Y-105750000D02*
X151300000Y-105050000D01*
X176000000Y-107500000D02*
X169000000Y-107500000D01*
X177250000Y-106250000D02*
X176000000Y-107500000D01*
X157250000Y-107000000D02*
X157250000Y-107750000D01*
X157250000Y-107750000D02*
X156500000Y-108500000D01*
X177250000Y-105000000D02*
X177250000Y-106250000D01*
X152000000Y-106250000D02*
X152000000Y-105750000D01*
%TO.N,/D-*%
X150900000Y-104600000D02*
X150000000Y-105500000D01*
X177250000Y-93000000D02*
X176000000Y-91750000D01*
X150000000Y-105500000D02*
X150000000Y-106750000D01*
X169750000Y-93500000D02*
X168000000Y-91750000D01*
X150900000Y-103950000D02*
X150900000Y-104600000D01*
X172000000Y-93500000D02*
X169750000Y-93500000D01*
X177250000Y-94000000D02*
X177250000Y-93000000D01*
%TO.N,Net-(ANTENA1-Pad2)*%
X144500000Y-89250000D02*
X143500000Y-90250000D01*
X146315000Y-86473000D02*
X146315000Y-89185000D01*
X146315000Y-89185000D02*
X146250000Y-89250000D01*
X143500000Y-90250000D02*
X140650000Y-90250000D01*
X146250000Y-89250000D02*
X144500000Y-89250000D01*
%TO.N,/LNA_IN*%
X143250000Y-94000000D02*
X141250000Y-94000000D01*
X145875000Y-91375000D02*
X143250000Y-94000000D01*
X141250000Y-94000000D02*
X141000000Y-93750000D01*
X146250000Y-91375000D02*
X145875000Y-91375000D01*
X146050000Y-97900000D02*
X146250000Y-97700000D01*
X146250000Y-97700000D02*
X146250000Y-91375000D01*
%TO.N,/VDD33*%
X170250000Y-94750000D02*
X170250000Y-96500000D01*
X147300000Y-97050000D02*
X147300000Y-96200000D01*
X146900000Y-97050000D02*
X147300000Y-97050000D01*
X142250000Y-119000000D02*
X146500000Y-119000000D01*
X170250000Y-96500000D02*
X171810000Y-98060000D01*
X169500000Y-94000000D02*
X170250000Y-94750000D01*
X171550000Y-111450000D02*
X172500000Y-110500000D01*
X174500000Y-99560000D02*
X173000000Y-98060000D01*
X167500000Y-92500000D02*
X167500000Y-94000000D01*
X173000000Y-100750000D02*
X173750000Y-101500000D01*
X174500000Y-109500000D02*
X173500000Y-108500000D01*
X141000000Y-97250000D02*
X141750000Y-97250000D01*
X174500000Y-110500000D02*
X174500000Y-109500000D01*
X144549265Y-96299265D02*
X143598530Y-97250000D01*
X167500000Y-94000000D02*
X169500000Y-94000000D01*
X143598530Y-97250000D02*
X141750000Y-97250000D01*
X142450000Y-98700000D02*
X141000000Y-97250000D01*
X150750000Y-108500000D02*
X152500000Y-108500000D01*
X172500000Y-110500000D02*
X174500000Y-110500000D01*
X146500000Y-119000000D02*
X147500000Y-120000000D01*
X141750000Y-97250000D02*
X142801000Y-98301000D01*
X147000000Y-95600000D02*
X146850000Y-95750000D01*
X150900000Y-95850000D02*
X153250000Y-93500000D01*
X171810000Y-98060000D02*
X173000000Y-98060000D01*
X147000000Y-93000000D02*
X147000000Y-95600000D01*
X173000000Y-98060000D02*
X173000000Y-100750000D01*
X141000000Y-97250000D02*
X141000000Y-109500000D01*
X165250000Y-90250000D02*
X167500000Y-92500000D01*
X152500000Y-110440000D02*
X151000000Y-111940000D01*
X147500000Y-120000000D02*
X147500000Y-121500000D01*
X147500000Y-115750000D02*
X148500000Y-114750000D01*
X148900000Y-106650000D02*
X150750000Y-108500000D01*
X142801000Y-98301000D02*
X145883900Y-98301000D01*
X152500000Y-108500000D02*
X152500000Y-110440000D01*
X148900000Y-103950000D02*
X148900000Y-106650000D01*
X150900000Y-97050000D02*
X150900000Y-95850000D01*
X174500000Y-102500000D02*
X174500000Y-99560000D01*
X146050000Y-98700000D02*
X142450000Y-98700000D01*
X147500000Y-121500000D02*
X147500000Y-115750000D01*
X171550000Y-114000000D02*
X171550000Y-111450000D01*
X147300000Y-96200000D02*
X146850000Y-95750000D01*
%TO.N,Net-(C9-Pad1)*%
X157500000Y-92000000D02*
X158850000Y-93350000D01*
X159050000Y-93350000D02*
X157600000Y-93350000D01*
X154500000Y-90250000D02*
X153325000Y-90250000D01*
X157050000Y-97000000D02*
X157050000Y-95550000D01*
X157050000Y-95550000D02*
X155750000Y-94250000D01*
X158850000Y-93350000D02*
X159050000Y-93350000D01*
X157600000Y-93350000D02*
X154500000Y-90250000D01*
%TO.N,/XTAL_N*%
X161601000Y-91399000D02*
X161250000Y-91750000D01*
X161601000Y-82899000D02*
X161601000Y-91399000D01*
X165500000Y-79000000D02*
X161601000Y-82899000D01*
X178550000Y-80000000D02*
X177550000Y-79000000D01*
X148100000Y-95150000D02*
X148100000Y-97050000D01*
X149000000Y-94250000D02*
X148100000Y-95150000D01*
X177550000Y-79000000D02*
X165500000Y-79000000D01*
X161250000Y-91750000D02*
X159250000Y-89750000D01*
X159250000Y-89750000D02*
X158500000Y-89750000D01*
%TO.N,/XTAL_P*%
X147700000Y-90800000D02*
X147700000Y-97050000D01*
X156250000Y-90250000D02*
X155074000Y-89074000D01*
X155074000Y-89074000D02*
X149426000Y-89074000D01*
X149426000Y-89074000D02*
X147700000Y-90800000D01*
%TO.N,/GPIO45*%
X140075000Y-95250000D02*
X142750000Y-95250000D01*
X143750000Y-94250000D02*
X145500000Y-94250000D01*
X138075000Y-97250000D02*
X140075000Y-95250000D01*
X148900000Y-95250057D02*
X148900000Y-97050000D01*
X149750000Y-94400057D02*
X148900000Y-95250057D01*
X142750000Y-95250000D02*
X143750000Y-94250000D01*
X149750000Y-93500000D02*
X149750000Y-94400057D01*
%TO.N,/M_TXD0*%
X142750000Y-106000000D02*
X142651000Y-105901000D01*
X149700000Y-95300000D02*
X149700000Y-97050000D01*
X142651000Y-101349000D02*
X143000000Y-101000000D01*
X142651000Y-104500000D02*
X142651000Y-101349000D01*
X144250000Y-107500000D02*
X142750000Y-106000000D01*
X150000000Y-95000000D02*
X149700000Y-95300000D01*
X145000000Y-107500000D02*
X144250000Y-107500000D01*
X142651000Y-105901000D02*
X142651000Y-104500000D01*
%TO.N,/GPIO2*%
X141575000Y-121825000D02*
X143411800Y-123661800D01*
X143411800Y-123661800D02*
X143411800Y-125750000D01*
X142250000Y-100567100D02*
X142517100Y-100300000D01*
X141575000Y-119825000D02*
X140000000Y-118250000D01*
X142517100Y-100300000D02*
X146050000Y-100300000D01*
X140000000Y-113500000D02*
X142250000Y-111250000D01*
X142250000Y-111250000D02*
X142250000Y-100567100D01*
X140000000Y-118250000D02*
X140000000Y-113500000D01*
X141575000Y-121500000D02*
X141575000Y-121825000D01*
X141575000Y-121500000D02*
X141575000Y-119825000D01*
%TO.N,/SPIHD*%
X153401000Y-113901000D02*
X153401000Y-107901000D01*
X155825000Y-117500000D02*
X155825000Y-116325000D01*
X152750000Y-107250000D02*
X152750000Y-104000000D01*
X153401000Y-107901000D02*
X152750000Y-107250000D01*
X155825000Y-116325000D02*
X153401000Y-113901000D01*
X152000002Y-102500000D02*
X152200002Y-102700000D01*
X152200002Y-102700000D02*
X152950000Y-102700000D01*
%TO.N,Net-(U3-{slash}HOLD{slash}RESET(IO3))*%
X163605000Y-103115000D02*
X162800001Y-103115000D01*
X162800001Y-103115000D02*
X160750000Y-105165001D01*
X160750000Y-115500000D02*
X158750000Y-117500000D01*
X160750000Y-105165001D02*
X160750000Y-115500000D01*
%TO.N,Net-(U3-{slash}WP(IO2))*%
X155787500Y-113750000D02*
X154500000Y-112462500D01*
X154500000Y-105000000D02*
X155115000Y-104385000D01*
X155115000Y-104385000D02*
X156395000Y-104385000D01*
X154500000Y-112462500D02*
X154500000Y-105000000D01*
%TO.N,/SPIWP*%
X153800000Y-102300000D02*
X154000000Y-102500000D01*
X157250000Y-115250000D02*
X157250000Y-115212500D01*
X152950000Y-102300000D02*
X153800000Y-102300000D01*
X153900000Y-107250000D02*
X153900000Y-113650000D01*
X157250000Y-115212500D02*
X158712500Y-113750000D01*
X153900000Y-113650000D02*
X155500000Y-115250000D01*
X155500000Y-115250000D02*
X157250000Y-115250000D01*
%TO.N,Net-(R13-Pad2)*%
X139500000Y-121750000D02*
X139500000Y-116460000D01*
X139500000Y-113460000D02*
X139500000Y-112750000D01*
X144000000Y-124661800D02*
X144000000Y-123500000D01*
X140500000Y-122750000D02*
X139500000Y-121750000D01*
X139500000Y-116460000D02*
X138000000Y-114960000D01*
X145088200Y-125750000D02*
X144000000Y-124661800D01*
X138000000Y-114960000D02*
X139500000Y-113460000D01*
%TO.N,/SPIQ*%
X156754000Y-106246000D02*
X157754000Y-106246000D01*
X157000000Y-101000000D02*
X154500000Y-101000000D01*
X154250000Y-101250000D02*
X154100000Y-101100000D01*
X155825000Y-107825000D02*
X155500000Y-107500000D01*
X155500000Y-107500000D02*
X156754000Y-106246000D01*
X154100000Y-101100000D02*
X152950000Y-101100000D01*
X155825000Y-110000000D02*
X155825000Y-107825000D01*
X154500000Y-101000000D02*
X154250000Y-101250000D01*
X157754000Y-106246000D02*
X158000000Y-106000000D01*
%TO.N,Net-(U3-DO(IO1))*%
X156395000Y-103115000D02*
X157199999Y-103115000D01*
X157199999Y-103115000D02*
X158750000Y-104665001D01*
X158750000Y-104665001D02*
X158750000Y-110000000D01*
%TO.N,Net-(U3-DI(IO0))*%
X162750000Y-106510000D02*
X163605000Y-105655000D01*
X162750000Y-110000000D02*
X162750000Y-106510000D01*
%TO.N,/SPID*%
X164250000Y-99250000D02*
X159750000Y-99250000D01*
X159750000Y-99250000D02*
X159500000Y-99000000D01*
X165675000Y-110000000D02*
X165675000Y-100675000D01*
X155500000Y-99000000D02*
X153800000Y-100700000D01*
X153800000Y-100700000D02*
X152950000Y-100700000D01*
X165675000Y-100675000D02*
X164250000Y-99250000D01*
X157000000Y-99000000D02*
X155500000Y-99000000D01*
%TO.N,Net-(U3-CLK)*%
X162000000Y-111750000D02*
X163750000Y-111750000D01*
X161500000Y-105750000D02*
X161500000Y-111250000D01*
X163605000Y-104385000D02*
X162865000Y-104385000D01*
X162865000Y-104385000D02*
X161500000Y-105750000D01*
X163750000Y-111750000D02*
X165750000Y-113750000D01*
X161500000Y-111250000D02*
X162000000Y-111750000D01*
%TO.N,/SPICLK*%
X162825000Y-113750000D02*
X162825000Y-114925000D01*
X154250000Y-119250000D02*
X153000000Y-118000000D01*
X159500000Y-120250000D02*
X155250000Y-120250000D01*
X152000000Y-101500000D02*
X152950000Y-101500000D01*
X155250000Y-120250000D02*
X154250000Y-119250000D01*
X152000000Y-100000000D02*
X152000000Y-101500000D01*
X151000000Y-106250000D02*
X151000000Y-105750000D01*
X153000000Y-108250000D02*
X152500000Y-107750000D01*
X162825000Y-114925000D02*
X161250000Y-116500000D01*
X153000000Y-109000000D02*
X153000000Y-108250000D01*
X161250000Y-116500000D02*
X161250000Y-118500000D01*
X161250000Y-118500000D02*
X159500000Y-120250000D01*
X153000000Y-118000000D02*
X153000000Y-109000000D01*
X152500000Y-107750000D02*
X151000000Y-106250000D01*
%TO.N,/SPICS0*%
X156340000Y-101900000D02*
X152950000Y-101900000D01*
X156395000Y-101845000D02*
X156340000Y-101900000D01*
%TO.N,Net-(D3-DIN)*%
X167500000Y-97250000D02*
X170000000Y-99750000D01*
X167500000Y-95750000D02*
X167500000Y-97250000D01*
%TO.N,/DATA_LED*%
X162250000Y-121750000D02*
X155250000Y-121750000D01*
X167500000Y-102750000D02*
X167500000Y-116500000D01*
X167075000Y-99750000D02*
X167075000Y-102325000D01*
X151250000Y-115250000D02*
X146900000Y-110900000D01*
X167075000Y-102325000D02*
X167500000Y-102750000D01*
X151250000Y-117750000D02*
X151250000Y-115250000D01*
X146900000Y-110900000D02*
X146900000Y-103950000D01*
X167500000Y-116500000D02*
X162250000Y-121750000D01*
X155250000Y-121750000D02*
X151250000Y-117750000D01*
%TO.N,Net-(U2-VO)*%
X183250000Y-86750000D02*
X183250000Y-86250000D01*
X182700000Y-92750000D02*
X182700000Y-91000000D01*
X182750000Y-101500000D02*
X182500000Y-101250000D01*
X176700000Y-99250000D02*
X175950000Y-98500000D01*
X175950000Y-101500000D02*
X175950000Y-98500000D01*
X182700000Y-85700000D02*
X182700000Y-84700000D01*
X179950000Y-95500000D02*
X182700000Y-92750000D01*
X183250000Y-86250000D02*
X182700000Y-85700000D01*
X175950000Y-98500000D02*
X175950000Y-95800000D01*
X182700000Y-89050000D02*
X183250000Y-88500000D01*
X175950000Y-95800000D02*
X176250000Y-95500000D01*
X177500000Y-99250000D02*
X176700000Y-99250000D01*
X183800000Y-101500000D02*
X182750000Y-101500000D01*
X176250000Y-95500000D02*
X179950000Y-95500000D01*
X182700000Y-91000000D02*
X182700000Y-89050000D01*
X182700000Y-92800000D02*
X182700000Y-92750000D01*
%TO.N,/GPIO1*%
X146050000Y-99900000D02*
X142350000Y-99900000D01*
X141750000Y-110750000D02*
X140670000Y-111830000D01*
X142350000Y-99900000D02*
X141750000Y-100500000D01*
X140670000Y-111830000D02*
X138000000Y-111830000D01*
X141750000Y-100500000D02*
X141750000Y-110750000D01*
%TD*%
%TA.AperFunction,Conductor*%
%TO.N,GND*%
G36*
X141442539Y-76520186D02*
G01*
X141488294Y-76572990D01*
X141499500Y-76624501D01*
X141499500Y-88619412D01*
X141499515Y-88619647D01*
X141499515Y-88633302D01*
X141529909Y-88805705D01*
X141589778Y-88970210D01*
X141589779Y-88970212D01*
X141589780Y-88970214D01*
X141595582Y-88980263D01*
X141677307Y-89121823D01*
X141677309Y-89121826D01*
X141789836Y-89255936D01*
X141789844Y-89255944D01*
X141923942Y-89368469D01*
X141923948Y-89368474D01*
X142009925Y-89418113D01*
X142058141Y-89468680D01*
X142071363Y-89537287D01*
X142045395Y-89602152D01*
X141988481Y-89642680D01*
X141947925Y-89649500D01*
X141643348Y-89649500D01*
X141576309Y-89629815D01*
X141530554Y-89577011D01*
X141525642Y-89564504D01*
X141525049Y-89562713D01*
X141525045Y-89562707D01*
X141525044Y-89562704D01*
X141436783Y-89419612D01*
X141436780Y-89419608D01*
X141317891Y-89300719D01*
X141317887Y-89300716D01*
X141174795Y-89212455D01*
X141174789Y-89212452D01*
X141174787Y-89212451D01*
X141015185Y-89159564D01*
X141015183Y-89159563D01*
X140916681Y-89149500D01*
X140916674Y-89149500D01*
X140383326Y-89149500D01*
X140383318Y-89149500D01*
X140284816Y-89159563D01*
X140284815Y-89159564D01*
X140237593Y-89175212D01*
X140125215Y-89212450D01*
X140125204Y-89212455D01*
X139982112Y-89300716D01*
X139982108Y-89300719D01*
X139863219Y-89419608D01*
X139863216Y-89419612D01*
X139774955Y-89562704D01*
X139774950Y-89562715D01*
X139751671Y-89632967D01*
X139722064Y-89722315D01*
X139722064Y-89722316D01*
X139722063Y-89722316D01*
X139712000Y-89820818D01*
X139712000Y-90679181D01*
X139722063Y-90777683D01*
X139774950Y-90937284D01*
X139774955Y-90937295D01*
X139863216Y-91080387D01*
X139863219Y-91080391D01*
X139982108Y-91199280D01*
X139982112Y-91199283D01*
X140125204Y-91287544D01*
X140125207Y-91287545D01*
X140125213Y-91287549D01*
X140284815Y-91340436D01*
X140383326Y-91350500D01*
X140383331Y-91350500D01*
X140916669Y-91350500D01*
X140916674Y-91350500D01*
X141015185Y-91340436D01*
X141174787Y-91287549D01*
X141317891Y-91199281D01*
X141436781Y-91080391D01*
X141525049Y-90937287D01*
X141525642Y-90935494D01*
X141526380Y-90934428D01*
X141528099Y-90930744D01*
X141528728Y-90931037D01*
X141565415Y-90878051D01*
X141629930Y-90851228D01*
X141643348Y-90850500D01*
X143413331Y-90850500D01*
X143413347Y-90850501D01*
X143420943Y-90850501D01*
X143579054Y-90850501D01*
X143579057Y-90850501D01*
X143731785Y-90809577D01*
X143752057Y-90797873D01*
X143787022Y-90777686D01*
X143787023Y-90777685D01*
X143868716Y-90730520D01*
X143980520Y-90618716D01*
X143980520Y-90618714D01*
X143990724Y-90608511D01*
X143990727Y-90608506D01*
X144712417Y-89886819D01*
X144773740Y-89853334D01*
X144800098Y-89850500D01*
X145189945Y-89850500D01*
X145256984Y-89870185D01*
X145295483Y-89909403D01*
X145300716Y-89917887D01*
X145300719Y-89917891D01*
X145419608Y-90036780D01*
X145419612Y-90036783D01*
X145562704Y-90125044D01*
X145562707Y-90125045D01*
X145562713Y-90125049D01*
X145722315Y-90177936D01*
X145820826Y-90188000D01*
X145820831Y-90188000D01*
X146679169Y-90188000D01*
X146679174Y-90188000D01*
X146777685Y-90177936D01*
X146937287Y-90125049D01*
X147080391Y-90036781D01*
X147199281Y-89917891D01*
X147287549Y-89774787D01*
X147340436Y-89615185D01*
X147350500Y-89516674D01*
X147350500Y-88983326D01*
X147340436Y-88884815D01*
X147287549Y-88725213D01*
X147287545Y-88725207D01*
X147287544Y-88725204D01*
X147199283Y-88582112D01*
X147199280Y-88582108D01*
X147080390Y-88463218D01*
X146974402Y-88397843D01*
X146927678Y-88345895D01*
X146915500Y-88292305D01*
X146915500Y-87541230D01*
X146935185Y-87474191D01*
X146940233Y-87466919D01*
X146999048Y-87388352D01*
X147008796Y-87375331D01*
X147059091Y-87240483D01*
X147065500Y-87180873D01*
X147065499Y-85964529D01*
X147065500Y-85964513D01*
X147065500Y-81427500D01*
X147085185Y-81360461D01*
X147137989Y-81314706D01*
X147189500Y-81303500D01*
X148720500Y-81303500D01*
X148787539Y-81323185D01*
X148833294Y-81375989D01*
X148844500Y-81427500D01*
X148844500Y-83119082D01*
X148844500Y-83266918D01*
X148844500Y-83266920D01*
X148844499Y-83266920D01*
X148873340Y-83411907D01*
X148873343Y-83411917D01*
X148929912Y-83548488D01*
X148929919Y-83548501D01*
X149012048Y-83671415D01*
X149012051Y-83671419D01*
X149116580Y-83775948D01*
X149116584Y-83775951D01*
X149239498Y-83858080D01*
X149239511Y-83858087D01*
X149376082Y-83914656D01*
X149376087Y-83914658D01*
X149376091Y-83914658D01*
X149376092Y-83914659D01*
X149521079Y-83943500D01*
X149521082Y-83943500D01*
X151668920Y-83943500D01*
X151766462Y-83924096D01*
X151813913Y-83914658D01*
X151950495Y-83858084D01*
X152073416Y-83775951D01*
X152177951Y-83671416D01*
X152260084Y-83548495D01*
X152316658Y-83411913D01*
X152345500Y-83266918D01*
X152345500Y-81427500D01*
X152365185Y-81360461D01*
X152417989Y-81314706D01*
X152469500Y-81303500D01*
X153420500Y-81303500D01*
X153487539Y-81323185D01*
X153533294Y-81375989D01*
X153544500Y-81427500D01*
X153544500Y-83119082D01*
X153544500Y-83266918D01*
X153544500Y-83266920D01*
X153544499Y-83266920D01*
X153573340Y-83411907D01*
X153573343Y-83411917D01*
X153629912Y-83548488D01*
X153629919Y-83548501D01*
X153712048Y-83671415D01*
X153712051Y-83671419D01*
X153816580Y-83775948D01*
X153816584Y-83775951D01*
X153939498Y-83858080D01*
X153939511Y-83858087D01*
X154076082Y-83914656D01*
X154076087Y-83914658D01*
X154076091Y-83914658D01*
X154076092Y-83914659D01*
X154221079Y-83943500D01*
X154221082Y-83943500D01*
X156378920Y-83943500D01*
X156476462Y-83924096D01*
X156523913Y-83914658D01*
X156660495Y-83858084D01*
X156783416Y-83775951D01*
X156887951Y-83671416D01*
X156970084Y-83548495D01*
X157026658Y-83411913D01*
X157055500Y-83266918D01*
X157055500Y-80127500D01*
X157075185Y-80060461D01*
X157127989Y-80014706D01*
X157179500Y-80003500D01*
X158130500Y-80003500D01*
X158197539Y-80023185D01*
X158243294Y-80075989D01*
X158254500Y-80127500D01*
X158254500Y-83266918D01*
X158254500Y-83266920D01*
X158254499Y-83266920D01*
X158283340Y-83411907D01*
X158283343Y-83411917D01*
X158339912Y-83548488D01*
X158339919Y-83548501D01*
X158422048Y-83671415D01*
X158422051Y-83671419D01*
X158526580Y-83775948D01*
X158526584Y-83775951D01*
X158649498Y-83858080D01*
X158649511Y-83858087D01*
X158786082Y-83914656D01*
X158786087Y-83914658D01*
X158786091Y-83914658D01*
X158786092Y-83914659D01*
X158931079Y-83943500D01*
X158931082Y-83943500D01*
X159078920Y-83943500D01*
X159176462Y-83924096D01*
X159223913Y-83914658D01*
X159328048Y-83871523D01*
X159397517Y-83864055D01*
X159459996Y-83895330D01*
X159495648Y-83955419D01*
X159499500Y-83986085D01*
X159499500Y-89033569D01*
X159479815Y-89100608D01*
X159427011Y-89146363D01*
X159370788Y-89157479D01*
X159356861Y-89156949D01*
X159329057Y-89149499D01*
X159170943Y-89149499D01*
X159170939Y-89149500D01*
X159079766Y-89149500D01*
X159012727Y-89129815D01*
X159010875Y-89128602D01*
X158879185Y-89040609D01*
X158879172Y-89040602D01*
X158733501Y-88980264D01*
X158733489Y-88980261D01*
X158578845Y-88949500D01*
X158578842Y-88949500D01*
X158421158Y-88949500D01*
X158421155Y-88949500D01*
X158266510Y-88980261D01*
X158266498Y-88980264D01*
X158120827Y-89040602D01*
X158120814Y-89040609D01*
X157989711Y-89128210D01*
X157989707Y-89128213D01*
X157878213Y-89239707D01*
X157878210Y-89239711D01*
X157790609Y-89370814D01*
X157790602Y-89370827D01*
X157730264Y-89516498D01*
X157730261Y-89516510D01*
X157699500Y-89671153D01*
X157699500Y-89828846D01*
X157730261Y-89983489D01*
X157730264Y-89983501D01*
X157790602Y-90129172D01*
X157790609Y-90129185D01*
X157878210Y-90260288D01*
X157878213Y-90260292D01*
X157989707Y-90371786D01*
X157989711Y-90371789D01*
X158120814Y-90459390D01*
X158120821Y-90459394D01*
X158169386Y-90479510D01*
X158223789Y-90523350D01*
X158245855Y-90589643D01*
X158228577Y-90657343D01*
X158177440Y-90704954D01*
X158165269Y-90710252D01*
X158107916Y-90731644D01*
X158107906Y-90731649D01*
X157992812Y-90817809D01*
X157992809Y-90817812D01*
X157906649Y-90932906D01*
X157906645Y-90932913D01*
X157856403Y-91067620D01*
X157856401Y-91067626D01*
X157851202Y-91115980D01*
X157824463Y-91180531D01*
X157767069Y-91220377D01*
X157703722Y-91224339D01*
X157578846Y-91199500D01*
X157578842Y-91199500D01*
X157421158Y-91199500D01*
X157417322Y-91199500D01*
X157350283Y-91179815D01*
X157304528Y-91127011D01*
X157294584Y-91057853D01*
X157299616Y-91036496D01*
X157302499Y-91027797D01*
X157313000Y-90925009D01*
X157312999Y-89574992D01*
X157310278Y-89548359D01*
X157302499Y-89472203D01*
X157302498Y-89472200D01*
X157289536Y-89433084D01*
X157247314Y-89305666D01*
X157155212Y-89156344D01*
X157031156Y-89032288D01*
X156927273Y-88968213D01*
X156881836Y-88940187D01*
X156881831Y-88940185D01*
X156880362Y-88939698D01*
X156715297Y-88885001D01*
X156715295Y-88885000D01*
X156612510Y-88874500D01*
X155887498Y-88874500D01*
X155887480Y-88874501D01*
X155797530Y-88883690D01*
X155795607Y-88883332D01*
X155793775Y-88884016D01*
X155761408Y-88876974D01*
X155728837Y-88870920D01*
X155726806Y-88869447D01*
X155725502Y-88869164D01*
X155697248Y-88848013D01*
X155561590Y-88712355D01*
X155561588Y-88712352D01*
X155442717Y-88593481D01*
X155442716Y-88593480D01*
X155355904Y-88543360D01*
X155355904Y-88543359D01*
X155355900Y-88543358D01*
X155305785Y-88514423D01*
X155153057Y-88473499D01*
X154994943Y-88473499D01*
X154987347Y-88473499D01*
X154987331Y-88473500D01*
X149512670Y-88473500D01*
X149512654Y-88473499D01*
X149505058Y-88473499D01*
X149346943Y-88473499D01*
X149277349Y-88492147D01*
X149194214Y-88514423D01*
X149194209Y-88514426D01*
X149057290Y-88593475D01*
X149057282Y-88593481D01*
X147219481Y-90431282D01*
X147219477Y-90431287D01*
X147179972Y-90499713D01*
X147129405Y-90547929D01*
X147060798Y-90561152D01*
X147007489Y-90543252D01*
X146966703Y-90518095D01*
X146937289Y-90499952D01*
X146937284Y-90499950D01*
X146887632Y-90483497D01*
X146777685Y-90447064D01*
X146777683Y-90447063D01*
X146679181Y-90437000D01*
X146679174Y-90437000D01*
X145820826Y-90437000D01*
X145820818Y-90437000D01*
X145722316Y-90447063D01*
X145722315Y-90447064D01*
X145643219Y-90473273D01*
X145562715Y-90499950D01*
X145562704Y-90499955D01*
X145419612Y-90588216D01*
X145419608Y-90588219D01*
X145300719Y-90707108D01*
X145300716Y-90707112D01*
X145212455Y-90850204D01*
X145212452Y-90850211D01*
X145212451Y-90850213D01*
X145159564Y-91009815D01*
X145159564Y-91009816D01*
X145159563Y-91009816D01*
X145149500Y-91108318D01*
X145149500Y-91199902D01*
X145129815Y-91266941D01*
X145113181Y-91287583D01*
X143037584Y-93363181D01*
X142976261Y-93396666D01*
X142949903Y-93399500D01*
X142199499Y-93399500D01*
X142132460Y-93379815D01*
X142086705Y-93327011D01*
X142075499Y-93275500D01*
X142075499Y-93049998D01*
X142075498Y-93049981D01*
X142064999Y-92947203D01*
X142064998Y-92947200D01*
X142056529Y-92921642D01*
X142009814Y-92780666D01*
X141917712Y-92631344D01*
X141793656Y-92507288D01*
X141672369Y-92432478D01*
X141644336Y-92415187D01*
X141644331Y-92415185D01*
X141615164Y-92405520D01*
X141477797Y-92360001D01*
X141477795Y-92360000D01*
X141375010Y-92349500D01*
X140624998Y-92349500D01*
X140624980Y-92349501D01*
X140522203Y-92360000D01*
X140522200Y-92360001D01*
X140355668Y-92415185D01*
X140355663Y-92415187D01*
X140206342Y-92507289D01*
X140082289Y-92631342D01*
X139990187Y-92780663D01*
X139990185Y-92780668D01*
X139986892Y-92790606D01*
X139935001Y-92947203D01*
X139935001Y-92947204D01*
X139935000Y-92947204D01*
X139924500Y-93049983D01*
X139924500Y-94450001D01*
X139924501Y-94450018D01*
X139935509Y-94557771D01*
X139922739Y-94626463D01*
X139874858Y-94677348D01*
X139868768Y-94680692D01*
X139857007Y-94686727D01*
X139843215Y-94690423D01*
X139793140Y-94719334D01*
X139790497Y-94720859D01*
X139790489Y-94720864D01*
X139706285Y-94769479D01*
X139706282Y-94769481D01*
X139594478Y-94881286D01*
X138627750Y-95848013D01*
X138566427Y-95881498D01*
X138527467Y-95883690D01*
X138437511Y-95874500D01*
X137712498Y-95874500D01*
X137712480Y-95874501D01*
X137609703Y-95885000D01*
X137609700Y-95885001D01*
X137443168Y-95940185D01*
X137443163Y-95940187D01*
X137293842Y-96032289D01*
X137169789Y-96156342D01*
X137077687Y-96305663D01*
X137077685Y-96305668D01*
X137075527Y-96312181D01*
X137022501Y-96472203D01*
X137022501Y-96472204D01*
X137022500Y-96472204D01*
X137012000Y-96574983D01*
X137012000Y-97925001D01*
X137012001Y-97925018D01*
X137022500Y-98027796D01*
X137022501Y-98027799D01*
X137077685Y-98194331D01*
X137077687Y-98194336D01*
X137081192Y-98200018D01*
X137169788Y-98343656D01*
X137293844Y-98467712D01*
X137443166Y-98559814D01*
X137609703Y-98614999D01*
X137712491Y-98625500D01*
X138437508Y-98625499D01*
X138437516Y-98625498D01*
X138437519Y-98625498D01*
X138504497Y-98618656D01*
X138540297Y-98614999D01*
X138706834Y-98559814D01*
X138856156Y-98467712D01*
X138980212Y-98343656D01*
X139072314Y-98194334D01*
X139127499Y-98027797D01*
X139138000Y-97925009D01*
X139137999Y-97087595D01*
X139157683Y-97020557D01*
X139174313Y-96999920D01*
X139728971Y-96445263D01*
X139790291Y-96411780D01*
X139859983Y-96416764D01*
X139915916Y-96458636D01*
X139940333Y-96524100D01*
X139940007Y-96545546D01*
X139937001Y-96574976D01*
X139937000Y-96574996D01*
X139937000Y-97925001D01*
X139937001Y-97925018D01*
X139947500Y-98027796D01*
X139947501Y-98027799D01*
X140002685Y-98194331D01*
X140002687Y-98194336D01*
X140006192Y-98200018D01*
X140094788Y-98343656D01*
X140218844Y-98467712D01*
X140340597Y-98542809D01*
X140387321Y-98594755D01*
X140399500Y-98648347D01*
X140399500Y-108920234D01*
X140379815Y-108987273D01*
X140378602Y-108989125D01*
X140290609Y-109120814D01*
X140290602Y-109120827D01*
X140230264Y-109266498D01*
X140230261Y-109266510D01*
X140199500Y-109421153D01*
X140199500Y-109578846D01*
X140230261Y-109733489D01*
X140230264Y-109733501D01*
X140290602Y-109879172D01*
X140290609Y-109879185D01*
X140378210Y-110010288D01*
X140378213Y-110010292D01*
X140489707Y-110121786D01*
X140489711Y-110121789D01*
X140620814Y-110209390D01*
X140620827Y-110209397D01*
X140718853Y-110250000D01*
X140766503Y-110269737D01*
X140882966Y-110292903D01*
X140921153Y-110300499D01*
X140921156Y-110300500D01*
X141025500Y-110300500D01*
X141034185Y-110303050D01*
X141043147Y-110301762D01*
X141067187Y-110312740D01*
X141092539Y-110320185D01*
X141098466Y-110327025D01*
X141106703Y-110330787D01*
X141120992Y-110353021D01*
X141138294Y-110372989D01*
X141140581Y-110383503D01*
X141144477Y-110389565D01*
X141149500Y-110424500D01*
X141149500Y-110449902D01*
X141129815Y-110516941D01*
X141113181Y-110537583D01*
X140457584Y-111193181D01*
X140396261Y-111226666D01*
X140369903Y-111229500D01*
X139110792Y-111229500D01*
X139043753Y-111209815D01*
X139010474Y-111178386D01*
X139005063Y-111170938D01*
X138915690Y-111047927D01*
X138782073Y-110914310D01*
X138629199Y-110803240D01*
X138598323Y-110787508D01*
X138460836Y-110717454D01*
X138281118Y-110659059D01*
X138094486Y-110629500D01*
X138094481Y-110629500D01*
X137905519Y-110629500D01*
X137905514Y-110629500D01*
X137718881Y-110659059D01*
X137539163Y-110717454D01*
X137370800Y-110803240D01*
X137283579Y-110866610D01*
X137217927Y-110914310D01*
X137217925Y-110914312D01*
X137217924Y-110914312D01*
X137084312Y-111047924D01*
X137084312Y-111047925D01*
X137084310Y-111047927D01*
X137060076Y-111081282D01*
X136973240Y-111200800D01*
X136887454Y-111369163D01*
X136829059Y-111548881D01*
X136799500Y-111735513D01*
X136799500Y-111924486D01*
X136829059Y-112111118D01*
X136887454Y-112290836D01*
X136963552Y-112440185D01*
X136973240Y-112459199D01*
X137084310Y-112612073D01*
X137217927Y-112745690D01*
X137370801Y-112856760D01*
X137422571Y-112883138D01*
X137539163Y-112942545D01*
X137539165Y-112942545D01*
X137539168Y-112942547D01*
X137630430Y-112972200D01*
X137718881Y-113000940D01*
X137905514Y-113030500D01*
X137905519Y-113030500D01*
X138094486Y-113030500D01*
X138281118Y-113000940D01*
X138460832Y-112942547D01*
X138552119Y-112896033D01*
X138620787Y-112883138D01*
X138685527Y-112909414D01*
X138721604Y-112955885D01*
X138727306Y-112968631D01*
X138730263Y-112983497D01*
X138790606Y-113129179D01*
X138816380Y-113167752D01*
X138820653Y-113177305D01*
X138824004Y-113201971D01*
X138831442Y-113225725D01*
X138828625Y-113235990D01*
X138830059Y-113246538D01*
X138819543Y-113269099D01*
X138812958Y-113293105D01*
X138801756Y-113307262D01*
X138800542Y-113309867D01*
X138798848Y-113310936D01*
X138795143Y-113315620D01*
X138360830Y-113749933D01*
X138299507Y-113783418D01*
X138253751Y-113784725D01*
X138094486Y-113759500D01*
X138094481Y-113759500D01*
X137905519Y-113759500D01*
X137905514Y-113759500D01*
X137718881Y-113789059D01*
X137539163Y-113847454D01*
X137370800Y-113933240D01*
X137306078Y-113980264D01*
X137217927Y-114044310D01*
X137217925Y-114044312D01*
X137217924Y-114044312D01*
X137084312Y-114177924D01*
X137084312Y-114177925D01*
X137084310Y-114177927D01*
X137069263Y-114198638D01*
X136973240Y-114330800D01*
X136887454Y-114499163D01*
X136829059Y-114678881D01*
X136799500Y-114865513D01*
X136799500Y-115054486D01*
X136829059Y-115241118D01*
X136887454Y-115420836D01*
X136970883Y-115584573D01*
X136973240Y-115589199D01*
X137084310Y-115742073D01*
X137217927Y-115875690D01*
X137370801Y-115986760D01*
X137450347Y-116027290D01*
X137539163Y-116072545D01*
X137539165Y-116072545D01*
X137539168Y-116072547D01*
X137617544Y-116098013D01*
X137718881Y-116130940D01*
X137905514Y-116160500D01*
X137905519Y-116160500D01*
X138094486Y-116160500D01*
X138211017Y-116142042D01*
X138253753Y-116135274D01*
X138323045Y-116144228D01*
X138360831Y-116170066D01*
X138863181Y-116672416D01*
X138896666Y-116733739D01*
X138899500Y-116760097D01*
X138899500Y-118966261D01*
X138879815Y-119033300D01*
X138827011Y-119079055D01*
X138757853Y-119088999D01*
X138702615Y-119066579D01*
X138629202Y-119013242D01*
X138629201Y-119013241D01*
X138629199Y-119013240D01*
X138576620Y-118986450D01*
X138460836Y-118927454D01*
X138281118Y-118869059D01*
X138094486Y-118839500D01*
X138094481Y-118839500D01*
X137905519Y-118839500D01*
X137905514Y-118839500D01*
X137718881Y-118869059D01*
X137539163Y-118927454D01*
X137370800Y-119013240D01*
X137283579Y-119076610D01*
X137217927Y-119124310D01*
X137217925Y-119124312D01*
X137217924Y-119124312D01*
X137084312Y-119257924D01*
X137084312Y-119257925D01*
X137084310Y-119257927D01*
X137051640Y-119302893D01*
X136973240Y-119410800D01*
X136887454Y-119579163D01*
X136829059Y-119758881D01*
X136799500Y-119945513D01*
X136799500Y-120134486D01*
X136829059Y-120321118D01*
X136887454Y-120500836D01*
X136973240Y-120669199D01*
X137084310Y-120822073D01*
X137217927Y-120955690D01*
X137370801Y-121066760D01*
X137450347Y-121107290D01*
X137539163Y-121152545D01*
X137539165Y-121152545D01*
X137539168Y-121152547D01*
X137635497Y-121183846D01*
X137718881Y-121210940D01*
X137905514Y-121240500D01*
X137905519Y-121240500D01*
X138094486Y-121240500D01*
X138281118Y-121210940D01*
X138460832Y-121152547D01*
X138629199Y-121066760D01*
X138702615Y-121013419D01*
X138768420Y-120989940D01*
X138836474Y-121005765D01*
X138885169Y-121055870D01*
X138899500Y-121113738D01*
X138899500Y-121663330D01*
X138899499Y-121663348D01*
X138899499Y-121829054D01*
X138899498Y-121829054D01*
X138940423Y-121981785D01*
X138969358Y-122031900D01*
X138969359Y-122031904D01*
X138969360Y-122031904D01*
X139013582Y-122108501D01*
X139019479Y-122118714D01*
X139019481Y-122118717D01*
X139138349Y-122237585D01*
X139138355Y-122237590D01*
X139665425Y-122764660D01*
X139698910Y-122825983D01*
X139699361Y-122828149D01*
X139730261Y-122983491D01*
X139730264Y-122983501D01*
X139790602Y-123129172D01*
X139790609Y-123129185D01*
X139878210Y-123260288D01*
X139878213Y-123260292D01*
X139989707Y-123371786D01*
X139994419Y-123375653D01*
X139992589Y-123377882D01*
X140029519Y-123421978D01*
X140038299Y-123491294D01*
X140008210Y-123554353D01*
X139948806Y-123591134D01*
X139878946Y-123589960D01*
X139868422Y-123586148D01*
X139676630Y-123506705D01*
X139500060Y-123459394D01*
X139410666Y-123435441D01*
X139410660Y-123435440D01*
X139410655Y-123435439D01*
X139137684Y-123399502D01*
X139137679Y-123399501D01*
X139137674Y-123399501D01*
X138862326Y-123399501D01*
X138862320Y-123399501D01*
X138862315Y-123399502D01*
X138589344Y-123435439D01*
X138589337Y-123435440D01*
X138589334Y-123435441D01*
X138533125Y-123450501D01*
X138323369Y-123506705D01*
X138068982Y-123612076D01*
X138068971Y-123612081D01*
X137830516Y-123749755D01*
X137612073Y-123917371D01*
X137612066Y-123917377D01*
X137417376Y-124112067D01*
X137417370Y-124112074D01*
X137249754Y-124330517D01*
X137112080Y-124568972D01*
X137112075Y-124568983D01*
X137006704Y-124823370D01*
X136973077Y-124948871D01*
X136936946Y-125083717D01*
X136935441Y-125089332D01*
X136935438Y-125089345D01*
X136899501Y-125362316D01*
X136899500Y-125362333D01*
X136899500Y-125637668D01*
X136899501Y-125637685D01*
X136935438Y-125910656D01*
X136935439Y-125910661D01*
X136935440Y-125910667D01*
X136935441Y-125910669D01*
X137006704Y-126176631D01*
X137112075Y-126431018D01*
X137112080Y-126431029D01*
X137181420Y-126551128D01*
X137249751Y-126669480D01*
X137249753Y-126669483D01*
X137249754Y-126669484D01*
X137417370Y-126887927D01*
X137417376Y-126887934D01*
X137612066Y-127082624D01*
X137612072Y-127082629D01*
X137830521Y-127250250D01*
X137983778Y-127338733D01*
X138068971Y-127387920D01*
X138068976Y-127387922D01*
X138068979Y-127387924D01*
X138323368Y-127493296D01*
X138589334Y-127564561D01*
X138862326Y-127600501D01*
X138862333Y-127600501D01*
X139137667Y-127600501D01*
X139137674Y-127600501D01*
X139410666Y-127564561D01*
X139676632Y-127493296D01*
X139931021Y-127387924D01*
X140169479Y-127250250D01*
X140387928Y-127082629D01*
X140582628Y-126887929D01*
X140750249Y-126669480D01*
X140887923Y-126431022D01*
X140993295Y-126176633D01*
X141064560Y-125910667D01*
X141100500Y-125637675D01*
X141100500Y-125362327D01*
X141064560Y-125089335D01*
X140993295Y-124823369D01*
X140887923Y-124568980D01*
X140887921Y-124568977D01*
X140887919Y-124568972D01*
X140818874Y-124449384D01*
X140750249Y-124330522D01*
X140582628Y-124112073D01*
X140582623Y-124112067D01*
X140387933Y-123917377D01*
X140387926Y-123917371D01*
X140169480Y-123749753D01*
X140169481Y-123749753D01*
X140169479Y-123749752D01*
X140151582Y-123739419D01*
X140103367Y-123688852D01*
X140090145Y-123620245D01*
X140116113Y-123555380D01*
X140173028Y-123514852D01*
X140242819Y-123511529D01*
X140261034Y-123517471D01*
X140266503Y-123519737D01*
X140421153Y-123550499D01*
X140421156Y-123550500D01*
X140421158Y-123550500D01*
X140578844Y-123550500D01*
X140578845Y-123550499D01*
X140733497Y-123519737D01*
X140879179Y-123459394D01*
X141010289Y-123371789D01*
X141121789Y-123260289D01*
X141209394Y-123129179D01*
X141212854Y-123120827D01*
X141229755Y-123080022D01*
X141269737Y-122983497D01*
X141271365Y-122975310D01*
X141303748Y-122913399D01*
X141364463Y-122878823D01*
X141392983Y-122875499D01*
X141724902Y-122875499D01*
X141791941Y-122895184D01*
X141812583Y-122911818D01*
X142774981Y-123874216D01*
X142808466Y-123935539D01*
X142811300Y-123961897D01*
X142811300Y-124586478D01*
X142791615Y-124653517D01*
X142738811Y-124699272D01*
X142730633Y-124702660D01*
X142610671Y-124747402D01*
X142610664Y-124747406D01*
X142495455Y-124833652D01*
X142495452Y-124833655D01*
X142409206Y-124948864D01*
X142409202Y-124948871D01*
X142358908Y-125083717D01*
X142352501Y-125143316D01*
X142352500Y-125143335D01*
X142352500Y-126356670D01*
X142352501Y-126356676D01*
X142358908Y-126416283D01*
X142409202Y-126551128D01*
X142409206Y-126551135D01*
X142495452Y-126666344D01*
X142495455Y-126666347D01*
X142610664Y-126752593D01*
X142610671Y-126752597D01*
X142745517Y-126802891D01*
X142745516Y-126802891D01*
X142752444Y-126803635D01*
X142805127Y-126809300D01*
X144018472Y-126809299D01*
X144078083Y-126802891D01*
X144212931Y-126752596D01*
X144328146Y-126666346D01*
X144332654Y-126660323D01*
X144388581Y-126618452D01*
X144458273Y-126613463D01*
X144500812Y-126631528D01*
X144586434Y-126688739D01*
X144779214Y-126768591D01*
X144779218Y-126768591D01*
X144779219Y-126768592D01*
X144983865Y-126809300D01*
X144983868Y-126809300D01*
X145192534Y-126809300D01*
X145330214Y-126781912D01*
X145397186Y-126768591D01*
X145589966Y-126688739D01*
X145589966Y-126688738D01*
X145589968Y-126688738D01*
X145676133Y-126631163D01*
X145763464Y-126572812D01*
X145911012Y-126425264D01*
X146026939Y-126251766D01*
X146106791Y-126058986D01*
X146136296Y-125910656D01*
X146147500Y-125854334D01*
X146147500Y-125645665D01*
X146106792Y-125441019D01*
X146106791Y-125441018D01*
X146106791Y-125441014D01*
X146026939Y-125248234D01*
X146026938Y-125248231D01*
X145994702Y-125199986D01*
X154975001Y-125199986D01*
X154985494Y-125302697D01*
X155040641Y-125469119D01*
X155040643Y-125469124D01*
X155132684Y-125618345D01*
X155256654Y-125742315D01*
X155405875Y-125834356D01*
X155405880Y-125834358D01*
X155572302Y-125889505D01*
X155572309Y-125889506D01*
X155675019Y-125899999D01*
X155799999Y-125899999D01*
X156300000Y-125899999D01*
X156424972Y-125899999D01*
X156424986Y-125899998D01*
X156527697Y-125889505D01*
X156694119Y-125834358D01*
X156694124Y-125834356D01*
X156843345Y-125742315D01*
X156967315Y-125618345D01*
X157059356Y-125469124D01*
X157059358Y-125469119D01*
X157114505Y-125302697D01*
X157114506Y-125302690D01*
X157124999Y-125199986D01*
X157125000Y-125199973D01*
X157125000Y-124750000D01*
X156300000Y-124750000D01*
X156300000Y-125899999D01*
X155799999Y-125899999D01*
X155800000Y-125899998D01*
X155800000Y-124750000D01*
X154975001Y-124750000D01*
X154975001Y-125199986D01*
X145994702Y-125199986D01*
X145911015Y-125074740D01*
X145911009Y-125074732D01*
X145763467Y-124927190D01*
X145763459Y-124927184D01*
X145589968Y-124811261D01*
X145397186Y-124731409D01*
X145397180Y-124731407D01*
X145192534Y-124690700D01*
X145192532Y-124690700D01*
X144983868Y-124690700D01*
X144960680Y-124695312D01*
X144891089Y-124689083D01*
X144848810Y-124661375D01*
X144636819Y-124449384D01*
X144603334Y-124388061D01*
X144600500Y-124361703D01*
X144600500Y-124079765D01*
X144620185Y-124012726D01*
X144621398Y-124010874D01*
X144654124Y-123961897D01*
X144709394Y-123879179D01*
X144742179Y-123800028D01*
X144742185Y-123800013D01*
X154975000Y-123800013D01*
X154975000Y-124250000D01*
X155800000Y-124250000D01*
X156300000Y-124250000D01*
X157124999Y-124250000D01*
X157124999Y-123800028D01*
X157124998Y-123800013D01*
X157114505Y-123697302D01*
X157059358Y-123530880D01*
X157059356Y-123530875D01*
X156967315Y-123381654D01*
X156843345Y-123257684D01*
X156694124Y-123165643D01*
X156694119Y-123165641D01*
X156527697Y-123110494D01*
X156527690Y-123110493D01*
X156424986Y-123100000D01*
X156300000Y-123100000D01*
X156300000Y-124250000D01*
X155800000Y-124250000D01*
X155800000Y-123100000D01*
X155675027Y-123100000D01*
X155675012Y-123100001D01*
X155572302Y-123110494D01*
X155405880Y-123165641D01*
X155405875Y-123165643D01*
X155256654Y-123257684D01*
X155132684Y-123381654D01*
X155040643Y-123530875D01*
X155040641Y-123530880D01*
X154985494Y-123697302D01*
X154985493Y-123697309D01*
X154975000Y-123800013D01*
X144742185Y-123800013D01*
X144763145Y-123749412D01*
X144763145Y-123749411D01*
X144769737Y-123733497D01*
X144800500Y-123578842D01*
X144800500Y-123421158D01*
X144800500Y-123421155D01*
X144800499Y-123421153D01*
X144769738Y-123266510D01*
X144769737Y-123266503D01*
X144766084Y-123257684D01*
X144709397Y-123120827D01*
X144709390Y-123120814D01*
X144674027Y-123067890D01*
X144653149Y-123001213D01*
X144671633Y-122933833D01*
X144723612Y-122887142D01*
X144777129Y-122874999D01*
X144862472Y-122874999D01*
X144862486Y-122874998D01*
X144965197Y-122864505D01*
X145131619Y-122809358D01*
X145131624Y-122809356D01*
X145280845Y-122717315D01*
X145404815Y-122593345D01*
X145496856Y-122444124D01*
X145496858Y-122444119D01*
X145552005Y-122277697D01*
X145552006Y-122277690D01*
X145562499Y-122174986D01*
X145562500Y-122174973D01*
X145562500Y-121750000D01*
X143437501Y-121750000D01*
X143437501Y-122174986D01*
X143447994Y-122277697D01*
X143503141Y-122444119D01*
X143503143Y-122444124D01*
X143595184Y-122593345D01*
X143616861Y-122615022D01*
X143626956Y-122633510D01*
X143641035Y-122649183D01*
X143643365Y-122663561D01*
X143650346Y-122676345D01*
X143648843Y-122697357D01*
X143652214Y-122718153D01*
X143646401Y-122731508D01*
X143645362Y-122746037D01*
X143632737Y-122762901D01*
X143624330Y-122782217D01*
X143605849Y-122798818D01*
X143603490Y-122801970D01*
X143598074Y-122805803D01*
X143566975Y-122826584D01*
X143500298Y-122847464D01*
X143432917Y-122828981D01*
X143410400Y-122811165D01*
X142674318Y-122075083D01*
X142640833Y-122013760D01*
X142637999Y-121987402D01*
X142637999Y-120825013D01*
X143437500Y-120825013D01*
X143437500Y-121250000D01*
X144250000Y-121250000D01*
X144750000Y-121250000D01*
X145562499Y-121250000D01*
X145562499Y-120825028D01*
X145562498Y-120825013D01*
X145552005Y-120722302D01*
X145496858Y-120555880D01*
X145496856Y-120555875D01*
X145404815Y-120406654D01*
X145280845Y-120282684D01*
X145131624Y-120190643D01*
X145131619Y-120190641D01*
X144965197Y-120135494D01*
X144965190Y-120135493D01*
X144862486Y-120125000D01*
X144750000Y-120125000D01*
X144750000Y-121250000D01*
X144250000Y-121250000D01*
X144250000Y-120125000D01*
X144137527Y-120125000D01*
X144137512Y-120125001D01*
X144034802Y-120135494D01*
X143868380Y-120190641D01*
X143868375Y-120190643D01*
X143719154Y-120282684D01*
X143595184Y-120406654D01*
X143503143Y-120555875D01*
X143503141Y-120555880D01*
X143447994Y-120722302D01*
X143447993Y-120722309D01*
X143437500Y-120825013D01*
X142637999Y-120825013D01*
X142637999Y-120824998D01*
X142637998Y-120824981D01*
X142627499Y-120722203D01*
X142627498Y-120722200D01*
X142609935Y-120669199D01*
X142572314Y-120555666D01*
X142480212Y-120406344D01*
X142356156Y-120282288D01*
X142234402Y-120207190D01*
X142227578Y-120199603D01*
X142218297Y-120195365D01*
X142204608Y-120174065D01*
X142187679Y-120155243D01*
X142185034Y-120143607D01*
X142180523Y-120136587D01*
X142175500Y-120101652D01*
X142175500Y-119924500D01*
X142195185Y-119857461D01*
X142247989Y-119811706D01*
X142299500Y-119800500D01*
X142328844Y-119800500D01*
X142328845Y-119800499D01*
X142483497Y-119769737D01*
X142629179Y-119709394D01*
X142718817Y-119649500D01*
X142760875Y-119621398D01*
X142827553Y-119600520D01*
X142829766Y-119600500D01*
X146199903Y-119600500D01*
X146266942Y-119620185D01*
X146287584Y-119636819D01*
X146720459Y-120069695D01*
X146753944Y-120131018D01*
X146748960Y-120200710D01*
X146709696Y-120254636D01*
X146706349Y-120257282D01*
X146582289Y-120381342D01*
X146490187Y-120530663D01*
X146490185Y-120530668D01*
X146481831Y-120555880D01*
X146435001Y-120697203D01*
X146435001Y-120697204D01*
X146435000Y-120697204D01*
X146424500Y-120799983D01*
X146424500Y-122200001D01*
X146424501Y-122200018D01*
X146435000Y-122302796D01*
X146435001Y-122302799D01*
X146481832Y-122444124D01*
X146490186Y-122469334D01*
X146582288Y-122618656D01*
X146706344Y-122742712D01*
X146855666Y-122834814D01*
X147022203Y-122889999D01*
X147124991Y-122900500D01*
X147875008Y-122900499D01*
X147875016Y-122900498D01*
X147875019Y-122900498D01*
X147931302Y-122894748D01*
X147977797Y-122889999D01*
X148144334Y-122834814D01*
X148293656Y-122742712D01*
X148417712Y-122618656D01*
X148509814Y-122469334D01*
X148564999Y-122302797D01*
X148575500Y-122200009D01*
X148575500Y-122199986D01*
X149375001Y-122199986D01*
X149385494Y-122302697D01*
X149440641Y-122469119D01*
X149440643Y-122469124D01*
X149532684Y-122618345D01*
X149656654Y-122742315D01*
X149805875Y-122834356D01*
X149805880Y-122834358D01*
X149972302Y-122889505D01*
X149972309Y-122889506D01*
X150075019Y-122899999D01*
X150199999Y-122899999D01*
X150700000Y-122899999D01*
X150824972Y-122899999D01*
X150824986Y-122899998D01*
X150927697Y-122889505D01*
X151094119Y-122834358D01*
X151094124Y-122834356D01*
X151243345Y-122742315D01*
X151367315Y-122618345D01*
X151459356Y-122469124D01*
X151459358Y-122469119D01*
X151514505Y-122302697D01*
X151514506Y-122302690D01*
X151524999Y-122199986D01*
X151525000Y-122199973D01*
X151525000Y-121750000D01*
X150700000Y-121750000D01*
X150700000Y-122899999D01*
X150199999Y-122899999D01*
X150200000Y-122899998D01*
X150200000Y-121750000D01*
X149375001Y-121750000D01*
X149375001Y-122199986D01*
X148575500Y-122199986D01*
X148575499Y-121476260D01*
X148575499Y-120800013D01*
X149375000Y-120800013D01*
X149375000Y-121250000D01*
X150200000Y-121250000D01*
X150700000Y-121250000D01*
X151524999Y-121250000D01*
X151524999Y-120800028D01*
X151524998Y-120800013D01*
X151514505Y-120697302D01*
X151459358Y-120530880D01*
X151459356Y-120530875D01*
X151367315Y-120381654D01*
X151243345Y-120257684D01*
X151094124Y-120165643D01*
X151094119Y-120165641D01*
X150927697Y-120110494D01*
X150927690Y-120110493D01*
X150824986Y-120100000D01*
X150700000Y-120100000D01*
X150700000Y-121250000D01*
X150200000Y-121250000D01*
X150200000Y-120100000D01*
X150075027Y-120100000D01*
X150075012Y-120100001D01*
X149972302Y-120110494D01*
X149805880Y-120165641D01*
X149805875Y-120165643D01*
X149656654Y-120257684D01*
X149532684Y-120381654D01*
X149440643Y-120530875D01*
X149440641Y-120530880D01*
X149385494Y-120697302D01*
X149385493Y-120697309D01*
X149375000Y-120800013D01*
X148575499Y-120800013D01*
X148575499Y-120799998D01*
X148575498Y-120799981D01*
X148564999Y-120697203D01*
X148564998Y-120697200D01*
X148518167Y-120555875D01*
X148509814Y-120530666D01*
X148417712Y-120381344D01*
X148293656Y-120257288D01*
X148185607Y-120190643D01*
X148159404Y-120174481D01*
X148152579Y-120166893D01*
X148143299Y-120162655D01*
X148129611Y-120141357D01*
X148112680Y-120122533D01*
X148110035Y-120110898D01*
X148105524Y-120103878D01*
X148100501Y-120068942D01*
X148100501Y-119997127D01*
X148100501Y-119920943D01*
X148100500Y-119920939D01*
X148100500Y-116050097D01*
X148120185Y-115983058D01*
X148136819Y-115962416D01*
X148289662Y-115809573D01*
X148514665Y-115584570D01*
X148575984Y-115551088D01*
X148578151Y-115550637D01*
X148578840Y-115550500D01*
X148578842Y-115550500D01*
X148733497Y-115519737D01*
X148879179Y-115459394D01*
X149010289Y-115371789D01*
X149121789Y-115260289D01*
X149209394Y-115129179D01*
X149269737Y-114983497D01*
X149300500Y-114828842D01*
X149300500Y-114671158D01*
X149300500Y-114671155D01*
X149300499Y-114671153D01*
X149284002Y-114588218D01*
X149269737Y-114516503D01*
X149227200Y-114413810D01*
X149219732Y-114344342D01*
X149251007Y-114281863D01*
X149311096Y-114246211D01*
X149380921Y-114248705D01*
X149429443Y-114278678D01*
X150613181Y-115462416D01*
X150646666Y-115523739D01*
X150649500Y-115550097D01*
X150649500Y-117663330D01*
X150649499Y-117663348D01*
X150649499Y-117829054D01*
X150649498Y-117829054D01*
X150690423Y-117981785D01*
X150719358Y-118031900D01*
X150719359Y-118031904D01*
X150719360Y-118031904D01*
X150769479Y-118118714D01*
X150769481Y-118118717D01*
X150888349Y-118237585D01*
X150888355Y-118237590D01*
X154765139Y-122114374D01*
X154765149Y-122114385D01*
X154769479Y-122118715D01*
X154769480Y-122118716D01*
X154881284Y-122230520D01*
X154948767Y-122269481D01*
X155018215Y-122309577D01*
X155170942Y-122350500D01*
X155170943Y-122350500D01*
X157363445Y-122350500D01*
X157430484Y-122370185D01*
X157476239Y-122422989D01*
X157486183Y-122492147D01*
X157481159Y-122510411D01*
X157482031Y-122510676D01*
X157480261Y-122516510D01*
X157449500Y-122671153D01*
X157449500Y-122828846D01*
X157480261Y-122983489D01*
X157480264Y-122983501D01*
X157540602Y-123129172D01*
X157540609Y-123129185D01*
X157628210Y-123260288D01*
X157628213Y-123260292D01*
X157739707Y-123371786D01*
X157739711Y-123371789D01*
X157870817Y-123459392D01*
X157870819Y-123459392D01*
X157870821Y-123459394D01*
X157886732Y-123465984D01*
X157890026Y-123467349D01*
X157944430Y-123511189D01*
X157966495Y-123577483D01*
X157960280Y-123620913D01*
X157935001Y-123697200D01*
X157935000Y-123697204D01*
X157924500Y-123799983D01*
X157924500Y-125200001D01*
X157924501Y-125200018D01*
X157935000Y-125302796D01*
X157935001Y-125302799D01*
X157954727Y-125362327D01*
X157990186Y-125469334D01*
X158082288Y-125618656D01*
X158206344Y-125742712D01*
X158355666Y-125834814D01*
X158522203Y-125889999D01*
X158624991Y-125900500D01*
X159375008Y-125900499D01*
X159375016Y-125900498D01*
X159375019Y-125900498D01*
X159431302Y-125894748D01*
X159477797Y-125889999D01*
X159644334Y-125834814D01*
X159793656Y-125742712D01*
X159917712Y-125618656D01*
X160009814Y-125469334D01*
X160045271Y-125362333D01*
X182899500Y-125362333D01*
X182899500Y-125637668D01*
X182899501Y-125637685D01*
X182935438Y-125910656D01*
X182935439Y-125910661D01*
X182935440Y-125910667D01*
X182935441Y-125910669D01*
X183006704Y-126176631D01*
X183112075Y-126431018D01*
X183112080Y-126431029D01*
X183181420Y-126551128D01*
X183249751Y-126669480D01*
X183249753Y-126669483D01*
X183249754Y-126669484D01*
X183417370Y-126887927D01*
X183417376Y-126887934D01*
X183612066Y-127082624D01*
X183612072Y-127082629D01*
X183830521Y-127250250D01*
X183983778Y-127338733D01*
X184068971Y-127387920D01*
X184068976Y-127387922D01*
X184068979Y-127387924D01*
X184323368Y-127493296D01*
X184589334Y-127564561D01*
X184862326Y-127600501D01*
X184862333Y-127600501D01*
X185137667Y-127600501D01*
X185137674Y-127600501D01*
X185410666Y-127564561D01*
X185676632Y-127493296D01*
X185931021Y-127387924D01*
X186169479Y-127250250D01*
X186387928Y-127082629D01*
X186582628Y-126887929D01*
X186750249Y-126669480D01*
X186887923Y-126431022D01*
X186993295Y-126176633D01*
X187064560Y-125910667D01*
X187100500Y-125637675D01*
X187100500Y-125362327D01*
X187064560Y-125089335D01*
X186993295Y-124823369D01*
X186887923Y-124568980D01*
X186887921Y-124568977D01*
X186887919Y-124568972D01*
X186818874Y-124449384D01*
X186750249Y-124330522D01*
X186582628Y-124112073D01*
X186582623Y-124112067D01*
X186387933Y-123917377D01*
X186387926Y-123917371D01*
X186169483Y-123749755D01*
X186169480Y-123749753D01*
X186169479Y-123749752D01*
X186063997Y-123688852D01*
X185931028Y-123612081D01*
X185931017Y-123612076D01*
X185676630Y-123506705D01*
X185500060Y-123459394D01*
X185410666Y-123435441D01*
X185410660Y-123435440D01*
X185410655Y-123435439D01*
X185137684Y-123399502D01*
X185137679Y-123399501D01*
X185137674Y-123399501D01*
X184862326Y-123399501D01*
X184862320Y-123399501D01*
X184862315Y-123399502D01*
X184589344Y-123435439D01*
X184589337Y-123435440D01*
X184589334Y-123435441D01*
X184533125Y-123450501D01*
X184323369Y-123506705D01*
X184068982Y-123612076D01*
X184068971Y-123612081D01*
X183830516Y-123749755D01*
X183612073Y-123917371D01*
X183612066Y-123917377D01*
X183417376Y-124112067D01*
X183417370Y-124112074D01*
X183249754Y-124330517D01*
X183112080Y-124568972D01*
X183112075Y-124568983D01*
X183006704Y-124823370D01*
X182973077Y-124948871D01*
X182936946Y-125083717D01*
X182935441Y-125089332D01*
X182935438Y-125089345D01*
X182899501Y-125362316D01*
X182899500Y-125362333D01*
X160045271Y-125362333D01*
X160064999Y-125302797D01*
X160075500Y-125200009D01*
X160075499Y-123799992D01*
X160068706Y-123733497D01*
X160064999Y-123697203D01*
X160064998Y-123697200D01*
X160039719Y-123620913D01*
X160009814Y-123530666D01*
X159917712Y-123381344D01*
X159793656Y-123257288D01*
X159644334Y-123165186D01*
X159477934Y-123110046D01*
X159466838Y-123103202D01*
X159457513Y-123101174D01*
X159429260Y-123080024D01*
X159368716Y-123019480D01*
X159368713Y-123019478D01*
X159084574Y-122735339D01*
X159051089Y-122674016D01*
X159050638Y-122671849D01*
X159019738Y-122516510D01*
X159019737Y-122516503D01*
X159019732Y-122516492D01*
X159017969Y-122510676D01*
X159020720Y-122509841D01*
X159014497Y-122452641D01*
X159045691Y-122390122D01*
X159105734Y-122354392D01*
X159136555Y-122350500D01*
X162163331Y-122350500D01*
X162163347Y-122350501D01*
X162170943Y-122350501D01*
X162329054Y-122350501D01*
X162329057Y-122350501D01*
X162481785Y-122309577D01*
X162551233Y-122269481D01*
X162618716Y-122230520D01*
X162730520Y-122118716D01*
X162730520Y-122118714D01*
X162740724Y-122108511D01*
X162740728Y-122108506D01*
X167233929Y-117615305D01*
X171250000Y-117615305D01*
X171250000Y-117844694D01*
X171250001Y-117844710D01*
X171279942Y-118072137D01*
X171339318Y-118293730D01*
X171427102Y-118505659D01*
X171427106Y-118505669D01*
X171541799Y-118704324D01*
X171541805Y-118704331D01*
X171598381Y-118778064D01*
X172322421Y-118054024D01*
X172335359Y-118085258D01*
X172417437Y-118208097D01*
X172521903Y-118312563D01*
X172644742Y-118394641D01*
X172675974Y-118407578D01*
X171951934Y-119131617D01*
X171951934Y-119131618D01*
X172025666Y-119188194D01*
X172224330Y-119302893D01*
X172224340Y-119302897D01*
X172436269Y-119390681D01*
X172657862Y-119450057D01*
X172885289Y-119479998D01*
X172885306Y-119480000D01*
X173114694Y-119480000D01*
X173114710Y-119479998D01*
X173342137Y-119450057D01*
X173563730Y-119390681D01*
X173775659Y-119302897D01*
X173775668Y-119302893D01*
X173974327Y-119188197D01*
X173974334Y-119188192D01*
X174048064Y-119131617D01*
X173324025Y-118407578D01*
X173355258Y-118394641D01*
X173478097Y-118312563D01*
X173582563Y-118208097D01*
X173664641Y-118085258D01*
X173677578Y-118054025D01*
X174401617Y-118778064D01*
X174458192Y-118704334D01*
X174458197Y-118704327D01*
X174572893Y-118505668D01*
X174572897Y-118505659D01*
X174660681Y-118293730D01*
X174720057Y-118072137D01*
X174749998Y-117844710D01*
X174750000Y-117844694D01*
X174750000Y-117615305D01*
X174749998Y-117615289D01*
X174720057Y-117387862D01*
X174660681Y-117166269D01*
X174572897Y-116954340D01*
X174572893Y-116954330D01*
X174458194Y-116755666D01*
X174401618Y-116681934D01*
X174401617Y-116681934D01*
X173677577Y-117405973D01*
X173664641Y-117374742D01*
X173582563Y-117251903D01*
X173478097Y-117147437D01*
X173355258Y-117065359D01*
X173324023Y-117052421D01*
X174048064Y-116328381D01*
X174048064Y-116328380D01*
X173974331Y-116271805D01*
X173974324Y-116271799D01*
X173775669Y-116157106D01*
X173775659Y-116157102D01*
X173563730Y-116069318D01*
X173342137Y-116009942D01*
X173114710Y-115980001D01*
X173114694Y-115980000D01*
X172885306Y-115980000D01*
X172885289Y-115980001D01*
X172657862Y-116009942D01*
X172436269Y-116069318D01*
X172224340Y-116157102D01*
X172224330Y-116157106D01*
X172025673Y-116271801D01*
X172025659Y-116271810D01*
X171951934Y-116328380D01*
X172675975Y-117052421D01*
X172644742Y-117065359D01*
X172521903Y-117147437D01*
X172417437Y-117251903D01*
X172335359Y-117374742D01*
X172322421Y-117405975D01*
X171598380Y-116681934D01*
X171541810Y-116755659D01*
X171541801Y-116755673D01*
X171427106Y-116954330D01*
X171427102Y-116954340D01*
X171339318Y-117166269D01*
X171279942Y-117387862D01*
X171250001Y-117615289D01*
X171250000Y-117615305D01*
X167233929Y-117615305D01*
X167868713Y-116980521D01*
X167868716Y-116980520D01*
X167980520Y-116868716D01*
X168030639Y-116781904D01*
X168059577Y-116731785D01*
X168100500Y-116579058D01*
X168100500Y-116420943D01*
X168100500Y-111199986D01*
X168475001Y-111199986D01*
X168485494Y-111302697D01*
X168540641Y-111469119D01*
X168540643Y-111469124D01*
X168632684Y-111618345D01*
X168756654Y-111742315D01*
X168905875Y-111834356D01*
X168905880Y-111834358D01*
X169072302Y-111889505D01*
X169072309Y-111889506D01*
X169175019Y-111899999D01*
X169299999Y-111899999D01*
X169800000Y-111899999D01*
X169924972Y-111899999D01*
X169924986Y-111899998D01*
X170027697Y-111889505D01*
X170194119Y-111834358D01*
X170194124Y-111834356D01*
X170343345Y-111742315D01*
X170467315Y-111618345D01*
X170559356Y-111469124D01*
X170559358Y-111469119D01*
X170614505Y-111302697D01*
X170614506Y-111302690D01*
X170624999Y-111199986D01*
X170625000Y-111199973D01*
X170625000Y-110750000D01*
X169800000Y-110750000D01*
X169800000Y-111899999D01*
X169299999Y-111899999D01*
X169300000Y-111899998D01*
X169300000Y-110750000D01*
X168475001Y-110750000D01*
X168475001Y-111199986D01*
X168100500Y-111199986D01*
X168100500Y-109800013D01*
X168475000Y-109800013D01*
X168475000Y-110250000D01*
X169300000Y-110250000D01*
X169800000Y-110250000D01*
X170624999Y-110250000D01*
X170624999Y-109800028D01*
X170624998Y-109800013D01*
X170614505Y-109697302D01*
X170559358Y-109530880D01*
X170559356Y-109530875D01*
X170467315Y-109381654D01*
X170343345Y-109257684D01*
X170194124Y-109165643D01*
X170194119Y-109165641D01*
X170027697Y-109110494D01*
X170027690Y-109110493D01*
X169924986Y-109100000D01*
X169800000Y-109100000D01*
X169800000Y-110250000D01*
X169300000Y-110250000D01*
X169300000Y-109100000D01*
X169175027Y-109100000D01*
X169175012Y-109100001D01*
X169072302Y-109110494D01*
X168905880Y-109165641D01*
X168905875Y-109165643D01*
X168756654Y-109257684D01*
X168632684Y-109381654D01*
X168540643Y-109530875D01*
X168540641Y-109530880D01*
X168485494Y-109697302D01*
X168485493Y-109697309D01*
X168475000Y-109800013D01*
X168100500Y-109800013D01*
X168100500Y-108003439D01*
X168120185Y-107936400D01*
X168172989Y-107890645D01*
X168242147Y-107880701D01*
X168305703Y-107909726D01*
X168327602Y-107934548D01*
X168378210Y-108010288D01*
X168378213Y-108010292D01*
X168489707Y-108121786D01*
X168489711Y-108121789D01*
X168620814Y-108209390D01*
X168620827Y-108209397D01*
X168758695Y-108266503D01*
X168766503Y-108269737D01*
X168921153Y-108300499D01*
X168921156Y-108300500D01*
X168921158Y-108300500D01*
X169078844Y-108300500D01*
X169078845Y-108300499D01*
X169233497Y-108269737D01*
X169379179Y-108209394D01*
X169389286Y-108202641D01*
X169510875Y-108121398D01*
X169577553Y-108100520D01*
X169579766Y-108100500D01*
X172613445Y-108100500D01*
X172680484Y-108120185D01*
X172726239Y-108172989D01*
X172736183Y-108242147D01*
X172731159Y-108260411D01*
X172732031Y-108260676D01*
X172730261Y-108266510D01*
X172699500Y-108421153D01*
X172699500Y-108578846D01*
X172730261Y-108733489D01*
X172730264Y-108733501D01*
X172790602Y-108879172D01*
X172790608Y-108879183D01*
X172808934Y-108906610D01*
X172829811Y-108973288D01*
X172811326Y-109040668D01*
X172759346Y-109087357D01*
X172705831Y-109099500D01*
X172124998Y-109099500D01*
X172124980Y-109099501D01*
X172022203Y-109110000D01*
X172022200Y-109110001D01*
X171855668Y-109165185D01*
X171855663Y-109165187D01*
X171706342Y-109257289D01*
X171582289Y-109381342D01*
X171490187Y-109530663D01*
X171490185Y-109530668D01*
X171474222Y-109578842D01*
X171435001Y-109697203D01*
X171435001Y-109697204D01*
X171435000Y-109697204D01*
X171424500Y-109799983D01*
X171424500Y-110674902D01*
X171404815Y-110741941D01*
X171388181Y-110762583D01*
X171069481Y-111081282D01*
X171069479Y-111081284D01*
X171046625Y-111120870D01*
X171030096Y-111149500D01*
X171006469Y-111190423D01*
X170990715Y-111217710D01*
X170990423Y-111218215D01*
X170949499Y-111370943D01*
X170949499Y-111370945D01*
X170949499Y-111539046D01*
X170949500Y-111539059D01*
X170949500Y-112568942D01*
X170929815Y-112635981D01*
X170890598Y-112674479D01*
X170804209Y-112727764D01*
X170756342Y-112757289D01*
X170632289Y-112881342D01*
X170540187Y-113030663D01*
X170540185Y-113030668D01*
X170540115Y-113030880D01*
X170485001Y-113197203D01*
X170485001Y-113197204D01*
X170485000Y-113197204D01*
X170474500Y-113299983D01*
X170474500Y-114700001D01*
X170474501Y-114700018D01*
X170485000Y-114802796D01*
X170485001Y-114802799D01*
X170540185Y-114969331D01*
X170540187Y-114969336D01*
X170548917Y-114983489D01*
X170632288Y-115118656D01*
X170756344Y-115242712D01*
X170905666Y-115334814D01*
X171072203Y-115389999D01*
X171174991Y-115400500D01*
X171925008Y-115400499D01*
X171925016Y-115400498D01*
X171925019Y-115400498D01*
X171981302Y-115394748D01*
X172027797Y-115389999D01*
X172194334Y-115334814D01*
X172343656Y-115242712D01*
X172467712Y-115118656D01*
X172559814Y-114969334D01*
X172614999Y-114802797D01*
X172625500Y-114700009D01*
X172625500Y-114699986D01*
X173425001Y-114699986D01*
X173435494Y-114802697D01*
X173490641Y-114969119D01*
X173490643Y-114969124D01*
X173582684Y-115118345D01*
X173706654Y-115242315D01*
X173855875Y-115334356D01*
X173855880Y-115334358D01*
X174022302Y-115389505D01*
X174022309Y-115389506D01*
X174125019Y-115399999D01*
X174249999Y-115399999D01*
X174750000Y-115399999D01*
X174874972Y-115399999D01*
X174874986Y-115399998D01*
X174977697Y-115389505D01*
X175144119Y-115334358D01*
X175144124Y-115334356D01*
X175293345Y-115242315D01*
X175417315Y-115118345D01*
X175509356Y-114969124D01*
X175509358Y-114969119D01*
X175564505Y-114802697D01*
X175564506Y-114802690D01*
X175574999Y-114699986D01*
X175575000Y-114699973D01*
X175575000Y-114250000D01*
X174750000Y-114250000D01*
X174750000Y-115399999D01*
X174249999Y-115399999D01*
X174250000Y-115399998D01*
X174250000Y-114250000D01*
X173425001Y-114250000D01*
X173425001Y-114699986D01*
X172625500Y-114699986D01*
X172625499Y-113980264D01*
X172625499Y-113300013D01*
X173425000Y-113300013D01*
X173425000Y-113750000D01*
X174250000Y-113750000D01*
X174750000Y-113750000D01*
X175574999Y-113750000D01*
X175574999Y-113300028D01*
X175574998Y-113300013D01*
X175564505Y-113197302D01*
X175509358Y-113030880D01*
X175509356Y-113030875D01*
X175417315Y-112881654D01*
X175293345Y-112757684D01*
X175144124Y-112665643D01*
X175144119Y-112665641D01*
X174977697Y-112610494D01*
X174977690Y-112610493D01*
X174874986Y-112600000D01*
X174750000Y-112600000D01*
X174750000Y-113750000D01*
X174250000Y-113750000D01*
X174250000Y-112600000D01*
X174125027Y-112600000D01*
X174125012Y-112600001D01*
X174022302Y-112610494D01*
X173855880Y-112665641D01*
X173855875Y-112665643D01*
X173706654Y-112757684D01*
X173582684Y-112881654D01*
X173490643Y-113030875D01*
X173490641Y-113030880D01*
X173435494Y-113197302D01*
X173435493Y-113197309D01*
X173425000Y-113300013D01*
X172625499Y-113300013D01*
X172625499Y-113299998D01*
X172625498Y-113299981D01*
X172614999Y-113197203D01*
X172614998Y-113197200D01*
X172592458Y-113129179D01*
X172559814Y-113030666D01*
X172467712Y-112881344D01*
X172343656Y-112757288D01*
X172209402Y-112674480D01*
X172162679Y-112622533D01*
X172150500Y-112568942D01*
X172150500Y-112024499D01*
X172170185Y-111957460D01*
X172222989Y-111911705D01*
X172274500Y-111900499D01*
X172875002Y-111900499D01*
X172875008Y-111900499D01*
X172977797Y-111889999D01*
X173144334Y-111834814D01*
X173293656Y-111742712D01*
X173412319Y-111624049D01*
X173473642Y-111590564D01*
X173543334Y-111595548D01*
X173587681Y-111624049D01*
X173706344Y-111742712D01*
X173855666Y-111834814D01*
X174022203Y-111889999D01*
X174124991Y-111900500D01*
X174875008Y-111900499D01*
X174875016Y-111900498D01*
X174875019Y-111900498D01*
X174931302Y-111894748D01*
X174977797Y-111889999D01*
X175144334Y-111834814D01*
X175293656Y-111742712D01*
X175417712Y-111618656D01*
X175509814Y-111469334D01*
X175564999Y-111302797D01*
X175575500Y-111200009D01*
X175575500Y-111199986D01*
X176375001Y-111199986D01*
X176385494Y-111302697D01*
X176440641Y-111469119D01*
X176440643Y-111469124D01*
X176532684Y-111618345D01*
X176656654Y-111742315D01*
X176805875Y-111834356D01*
X176805880Y-111834358D01*
X176972302Y-111889505D01*
X176972309Y-111889506D01*
X177075019Y-111899999D01*
X177199999Y-111899999D01*
X177700000Y-111899999D01*
X177824972Y-111899999D01*
X177824986Y-111899998D01*
X177927697Y-111889505D01*
X178094119Y-111834358D01*
X178094124Y-111834356D01*
X178243345Y-111742315D01*
X178367315Y-111618345D01*
X178459356Y-111469124D01*
X178459358Y-111469119D01*
X178514505Y-111302697D01*
X178514506Y-111302690D01*
X178524999Y-111199986D01*
X178525000Y-111199973D01*
X178525000Y-110750000D01*
X177700000Y-110750000D01*
X177700000Y-111899999D01*
X177199999Y-111899999D01*
X177200000Y-111899998D01*
X177200000Y-110750000D01*
X176375001Y-110750000D01*
X176375001Y-111199986D01*
X175575500Y-111199986D01*
X175575499Y-110481392D01*
X175575499Y-109800013D01*
X176375000Y-109800013D01*
X176375000Y-110250000D01*
X177200000Y-110250000D01*
X177200000Y-109100000D01*
X177075027Y-109100000D01*
X177075012Y-109100001D01*
X176972302Y-109110494D01*
X176805880Y-109165641D01*
X176805875Y-109165643D01*
X176656654Y-109257684D01*
X176532684Y-109381654D01*
X176440643Y-109530875D01*
X176440641Y-109530880D01*
X176385494Y-109697302D01*
X176385493Y-109697309D01*
X176375000Y-109800013D01*
X175575499Y-109800013D01*
X175575499Y-109799998D01*
X175575498Y-109799981D01*
X175564999Y-109697203D01*
X175564998Y-109697200D01*
X175509814Y-109530666D01*
X175417712Y-109381344D01*
X175293656Y-109257288D01*
X175144334Y-109165186D01*
X174977934Y-109110046D01*
X174929258Y-109080022D01*
X174334573Y-108485337D01*
X174325712Y-108469110D01*
X174312782Y-108455895D01*
X174302016Y-108425714D01*
X174301088Y-108424014D01*
X174300808Y-108422694D01*
X174300500Y-108421200D01*
X174300500Y-108421158D01*
X174269737Y-108266503D01*
X174267486Y-108261069D01*
X174265109Y-108249538D01*
X174267045Y-108226060D01*
X174264497Y-108202641D01*
X174269863Y-108191884D01*
X174270852Y-108179905D01*
X174285173Y-108161200D01*
X174295691Y-108140122D01*
X174306020Y-108133975D01*
X174313329Y-108124430D01*
X174335492Y-108116436D01*
X174355734Y-108104392D01*
X174375982Y-108101835D01*
X174379055Y-108100727D01*
X174381082Y-108101191D01*
X174386555Y-108100500D01*
X175913331Y-108100500D01*
X175913347Y-108100501D01*
X175920943Y-108100501D01*
X176079054Y-108100501D01*
X176079057Y-108100501D01*
X176231785Y-108059577D01*
X176281904Y-108030639D01*
X176368716Y-107980520D01*
X176480520Y-107868716D01*
X176480520Y-107868714D01*
X176490728Y-107858507D01*
X176490730Y-107858504D01*
X177608506Y-106740728D01*
X177608511Y-106740724D01*
X177618714Y-106730520D01*
X177618716Y-106730520D01*
X177730520Y-106618716D01*
X177787665Y-106519737D01*
X177809577Y-106481785D01*
X177839090Y-106371640D01*
X177840871Y-106366711D01*
X177858534Y-106342596D01*
X177874088Y-106317079D01*
X177881080Y-106311815D01*
X177882158Y-106310345D01*
X177883951Y-106309654D01*
X177892389Y-106303303D01*
X178031156Y-106217712D01*
X178155212Y-106093656D01*
X178155494Y-106093197D01*
X178155770Y-106092949D01*
X178159693Y-106087989D01*
X178160539Y-106088658D01*
X178207431Y-106046470D01*
X178276392Y-106035237D01*
X178340478Y-106063071D01*
X178366577Y-106093185D01*
X178382096Y-106118345D01*
X178382288Y-106118656D01*
X178506344Y-106242712D01*
X178655666Y-106334814D01*
X178822203Y-106389999D01*
X178924991Y-106400500D01*
X179675008Y-106400499D01*
X179762900Y-106391520D01*
X179831590Y-106404289D01*
X179882475Y-106452170D01*
X179899500Y-106514878D01*
X179899500Y-107153415D01*
X179879815Y-107220454D01*
X179827011Y-107266209D01*
X179762898Y-107276773D01*
X179684284Y-107268742D01*
X178934271Y-107268742D01*
X178934253Y-107268743D01*
X178831476Y-107279242D01*
X178831473Y-107279243D01*
X178664941Y-107334427D01*
X178664936Y-107334429D01*
X178515615Y-107426531D01*
X178391562Y-107550584D01*
X178299460Y-107699905D01*
X178299458Y-107699910D01*
X178283278Y-107748739D01*
X178244274Y-107866445D01*
X178244274Y-107866446D01*
X178244273Y-107866446D01*
X178233773Y-107969225D01*
X178233773Y-109040198D01*
X178214088Y-109107237D01*
X178161284Y-109152992D01*
X178092126Y-109162936D01*
X178070769Y-109157904D01*
X177927697Y-109110494D01*
X177927690Y-109110493D01*
X177824986Y-109100000D01*
X177700000Y-109100000D01*
X177700000Y-110250000D01*
X178524999Y-110250000D01*
X178524999Y-110129404D01*
X178544684Y-110062365D01*
X178597488Y-110016610D01*
X178666646Y-110006666D01*
X178687996Y-110011696D01*
X178831476Y-110059241D01*
X178934264Y-110069742D01*
X179684281Y-110069741D01*
X179684289Y-110069740D01*
X179684292Y-110069740D01*
X179755254Y-110062491D01*
X179787070Y-110059241D01*
X179953607Y-110004056D01*
X180102929Y-109911954D01*
X180226985Y-109787898D01*
X180319087Y-109638576D01*
X180374272Y-109472039D01*
X180384773Y-109369251D01*
X180384773Y-109369228D01*
X181184274Y-109369228D01*
X181194767Y-109471939D01*
X181249914Y-109638361D01*
X181249916Y-109638366D01*
X181341957Y-109787587D01*
X181465927Y-109911557D01*
X181615148Y-110003598D01*
X181615153Y-110003600D01*
X181781575Y-110058747D01*
X181781582Y-110058748D01*
X181884292Y-110069241D01*
X182009272Y-110069241D01*
X182509273Y-110069241D01*
X182634245Y-110069241D01*
X182634259Y-110069240D01*
X182736970Y-110058747D01*
X182903392Y-110003600D01*
X182903397Y-110003598D01*
X183052618Y-109911557D01*
X183176588Y-109787587D01*
X183268629Y-109638366D01*
X183268631Y-109638361D01*
X183323778Y-109471939D01*
X183323779Y-109471932D01*
X183334272Y-109369228D01*
X183334273Y-109369215D01*
X183334273Y-108919242D01*
X182509273Y-108919242D01*
X182509273Y-110069241D01*
X182009272Y-110069241D01*
X182009273Y-110069240D01*
X182009273Y-108919242D01*
X181184274Y-108919242D01*
X181184274Y-109369228D01*
X180384773Y-109369228D01*
X180384772Y-108494337D01*
X180404457Y-108427299D01*
X180421086Y-108406662D01*
X180868713Y-107959036D01*
X180868716Y-107959035D01*
X180974882Y-107852868D01*
X181036201Y-107819386D01*
X181036203Y-107819386D01*
X181046171Y-107820099D01*
X181105893Y-107824370D01*
X181105894Y-107824370D01*
X181105895Y-107824371D01*
X181118580Y-107833867D01*
X181161057Y-107865665D01*
X181161828Y-107866242D01*
X181172978Y-107896138D01*
X181186244Y-107931705D01*
X181185918Y-107953151D01*
X181184274Y-107969244D01*
X181184273Y-107969268D01*
X181184273Y-108419242D01*
X182009273Y-108419242D01*
X182509273Y-108419242D01*
X183334272Y-108419242D01*
X183334272Y-107969270D01*
X183334271Y-107969255D01*
X183323778Y-107866544D01*
X183268631Y-107700122D01*
X183268629Y-107700117D01*
X183176588Y-107550896D01*
X183052618Y-107426926D01*
X182903397Y-107334885D01*
X182903392Y-107334883D01*
X182736970Y-107279736D01*
X182736963Y-107279735D01*
X182634259Y-107269242D01*
X182509273Y-107269242D01*
X182509273Y-108419242D01*
X182009273Y-108419242D01*
X182009273Y-107269242D01*
X181884300Y-107269242D01*
X181884285Y-107269243D01*
X181781575Y-107279736D01*
X181615153Y-107334883D01*
X181615148Y-107334885D01*
X181465927Y-107426926D01*
X181341956Y-107550897D01*
X181341953Y-107550901D01*
X181330038Y-107570219D01*
X181278090Y-107616944D01*
X181209127Y-107628165D01*
X181145046Y-107600322D01*
X181106190Y-107542253D01*
X181100500Y-107505122D01*
X181100500Y-106179153D01*
X181120185Y-106112114D01*
X181172989Y-106066359D01*
X181242147Y-106056415D01*
X181305703Y-106085440D01*
X181330040Y-106114059D01*
X181332682Y-106118342D01*
X181332683Y-106118344D01*
X181456654Y-106242315D01*
X181605875Y-106334356D01*
X181605880Y-106334358D01*
X181772302Y-106389505D01*
X181772309Y-106389506D01*
X181875019Y-106399999D01*
X181999999Y-106399999D01*
X182500000Y-106399999D01*
X182624972Y-106399999D01*
X182624986Y-106399998D01*
X182727697Y-106389505D01*
X182894119Y-106334358D01*
X182894124Y-106334356D01*
X183043345Y-106242315D01*
X183167315Y-106118345D01*
X183259356Y-105969124D01*
X183259358Y-105969119D01*
X183314505Y-105802697D01*
X183314506Y-105802690D01*
X183324999Y-105699986D01*
X183325000Y-105699973D01*
X183325000Y-105250000D01*
X182500000Y-105250000D01*
X182500000Y-106399999D01*
X181999999Y-106399999D01*
X182000000Y-106399998D01*
X182000000Y-104750000D01*
X182500000Y-104750000D01*
X183324999Y-104750000D01*
X183324999Y-104300028D01*
X183324998Y-104300013D01*
X183314505Y-104197302D01*
X183259358Y-104030880D01*
X183259356Y-104030875D01*
X183167315Y-103881654D01*
X183043345Y-103757684D01*
X182894124Y-103665643D01*
X182894119Y-103665641D01*
X182727697Y-103610494D01*
X182727690Y-103610493D01*
X182624986Y-103600000D01*
X182500000Y-103600000D01*
X182500000Y-104750000D01*
X182000000Y-104750000D01*
X182000000Y-103600000D01*
X181875027Y-103600000D01*
X181875012Y-103600001D01*
X181772302Y-103610494D01*
X181605880Y-103665641D01*
X181605875Y-103665643D01*
X181456654Y-103757684D01*
X181332680Y-103881658D01*
X181314388Y-103911315D01*
X181304166Y-103920508D01*
X181297747Y-103932665D01*
X181278699Y-103943413D01*
X181262440Y-103958038D01*
X181248872Y-103960245D01*
X181236898Y-103967003D01*
X181215061Y-103965747D01*
X181193477Y-103969259D01*
X181180868Y-103963780D01*
X181167143Y-103962991D01*
X181149454Y-103950131D01*
X181129395Y-103941415D01*
X181120564Y-103929126D01*
X181110631Y-103921905D01*
X181100170Y-103900748D01*
X181093285Y-103891167D01*
X181090833Y-103884865D01*
X181059577Y-103768215D01*
X181021059Y-103701500D01*
X180980520Y-103631284D01*
X180868716Y-103519480D01*
X180868715Y-103519479D01*
X180864385Y-103515149D01*
X180864374Y-103515139D01*
X179737590Y-102388355D01*
X179737588Y-102388352D01*
X179618717Y-102269481D01*
X179618716Y-102269480D01*
X179554467Y-102232386D01*
X179506252Y-102181820D01*
X179493028Y-102113213D01*
X179518996Y-102048348D01*
X179554466Y-102017612D01*
X179618716Y-101980520D01*
X179730520Y-101868716D01*
X179730520Y-101868714D01*
X179740728Y-101858507D01*
X179740730Y-101858504D01*
X179963321Y-101635912D01*
X180024642Y-101602429D01*
X180094334Y-101607413D01*
X180150267Y-101649285D01*
X180174684Y-101714749D01*
X180175000Y-101723595D01*
X180175000Y-102199971D01*
X180175001Y-102199987D01*
X180185494Y-102302697D01*
X180240641Y-102469119D01*
X180240643Y-102469124D01*
X180332684Y-102618345D01*
X180456654Y-102742315D01*
X180605875Y-102834356D01*
X180605880Y-102834358D01*
X180772302Y-102889505D01*
X180772309Y-102889506D01*
X180875019Y-102899999D01*
X180999999Y-102899999D01*
X181000000Y-102899998D01*
X181000000Y-101624000D01*
X181019685Y-101556961D01*
X181072489Y-101511206D01*
X181124000Y-101500000D01*
X181376000Y-101500000D01*
X181443039Y-101519685D01*
X181488794Y-101572489D01*
X181500000Y-101624000D01*
X181500000Y-102899999D01*
X181624972Y-102899999D01*
X181624986Y-102899998D01*
X181727697Y-102889505D01*
X181894119Y-102834358D01*
X181894124Y-102834356D01*
X182043345Y-102742315D01*
X182167315Y-102618345D01*
X182259356Y-102469124D01*
X182259358Y-102469119D01*
X182314505Y-102302697D01*
X182314506Y-102302690D01*
X182324999Y-102199985D01*
X182325000Y-102199974D01*
X182325000Y-102174500D01*
X182327550Y-102165814D01*
X182326262Y-102156853D01*
X182337240Y-102132812D01*
X182344685Y-102107461D01*
X182351525Y-102101533D01*
X182355287Y-102093297D01*
X182377521Y-102079007D01*
X182397489Y-102061706D01*
X182408003Y-102059418D01*
X182414065Y-102055523D01*
X182449000Y-102050500D01*
X182471638Y-102050500D01*
X182510181Y-102058165D01*
X182510367Y-102057473D01*
X182518213Y-102059575D01*
X182518216Y-102059577D01*
X182630019Y-102089534D01*
X182630019Y-102089535D01*
X182630036Y-102089538D01*
X182633012Y-102090336D01*
X182692663Y-102126717D01*
X182723175Y-102189573D01*
X182724244Y-102197500D01*
X182735001Y-102302797D01*
X182735001Y-102302799D01*
X182790185Y-102469331D01*
X182790187Y-102469336D01*
X182801795Y-102488155D01*
X182882288Y-102618656D01*
X183006344Y-102742712D01*
X183155666Y-102834814D01*
X183322203Y-102889999D01*
X183424991Y-102900500D01*
X184175008Y-102900499D01*
X184175016Y-102900498D01*
X184175019Y-102900498D01*
X184231302Y-102894748D01*
X184277797Y-102889999D01*
X184444334Y-102834814D01*
X184593656Y-102742712D01*
X184717712Y-102618656D01*
X184809814Y-102469334D01*
X184864999Y-102302797D01*
X184875500Y-102200009D01*
X184875500Y-102199986D01*
X185675001Y-102199986D01*
X185685494Y-102302697D01*
X185740641Y-102469119D01*
X185740643Y-102469124D01*
X185832684Y-102618345D01*
X185956654Y-102742315D01*
X186105875Y-102834356D01*
X186105880Y-102834358D01*
X186272302Y-102889505D01*
X186272309Y-102889506D01*
X186375019Y-102899999D01*
X186499999Y-102899999D01*
X186500000Y-102899998D01*
X186500000Y-101750000D01*
X185675001Y-101750000D01*
X185675001Y-102199986D01*
X184875500Y-102199986D01*
X184875499Y-101500000D01*
X184875499Y-100800013D01*
X185675000Y-100800013D01*
X185675000Y-101250000D01*
X186500000Y-101250000D01*
X186500000Y-100100000D01*
X186375027Y-100100000D01*
X186375012Y-100100001D01*
X186272302Y-100110494D01*
X186105880Y-100165641D01*
X186105875Y-100165643D01*
X185956654Y-100257684D01*
X185832684Y-100381654D01*
X185740643Y-100530875D01*
X185740641Y-100530880D01*
X185685494Y-100697302D01*
X185685493Y-100697309D01*
X185675000Y-100800013D01*
X184875499Y-100800013D01*
X184875499Y-100799998D01*
X184875498Y-100799981D01*
X184864999Y-100697203D01*
X184864998Y-100697200D01*
X184864047Y-100694331D01*
X184809814Y-100530666D01*
X184717712Y-100381344D01*
X184593656Y-100257288D01*
X184444334Y-100165186D01*
X184277797Y-100110001D01*
X184277795Y-100110000D01*
X184175010Y-100099500D01*
X183424998Y-100099500D01*
X183424980Y-100099501D01*
X183322203Y-100110000D01*
X183322200Y-100110001D01*
X183155668Y-100165185D01*
X183155663Y-100165187D01*
X183006342Y-100257289D01*
X182882287Y-100381344D01*
X182856910Y-100422487D01*
X182804961Y-100469211D01*
X182735999Y-100480432D01*
X182727181Y-100479006D01*
X182578845Y-100449500D01*
X182578842Y-100449500D01*
X182421158Y-100449500D01*
X182421153Y-100449500D01*
X182316830Y-100470251D01*
X182247238Y-100464024D01*
X182192061Y-100421160D01*
X182187100Y-100413730D01*
X182167317Y-100381656D01*
X182043345Y-100257684D01*
X181894124Y-100165643D01*
X181894119Y-100165641D01*
X181739044Y-100114255D01*
X181681599Y-100074483D01*
X181654776Y-100009967D01*
X181667091Y-99941191D01*
X181675981Y-99926133D01*
X181682383Y-99916852D01*
X181730520Y-99868716D01*
X181804589Y-99740424D01*
X181809577Y-99731785D01*
X181850500Y-99579057D01*
X181850500Y-99420943D01*
X181850500Y-98898347D01*
X181870185Y-98831308D01*
X181909401Y-98792810D01*
X182031156Y-98717712D01*
X182155212Y-98593656D01*
X182247314Y-98444334D01*
X182272166Y-98369334D01*
X182311935Y-98311893D01*
X182376451Y-98285069D01*
X182445227Y-98297383D01*
X182496427Y-98344926D01*
X182507576Y-98369336D01*
X182540642Y-98469121D01*
X182540643Y-98469124D01*
X182632684Y-98618345D01*
X182756654Y-98742315D01*
X182905875Y-98834356D01*
X182905880Y-98834358D01*
X183072302Y-98889505D01*
X183072309Y-98889506D01*
X183175019Y-98899999D01*
X183299999Y-98899999D01*
X183800000Y-98899999D01*
X183924972Y-98899999D01*
X183924986Y-98899998D01*
X184027697Y-98889505D01*
X184194119Y-98834358D01*
X184194124Y-98834356D01*
X184343345Y-98742315D01*
X184467315Y-98618345D01*
X184559356Y-98469124D01*
X184559358Y-98469119D01*
X184614505Y-98302697D01*
X184614506Y-98302690D01*
X184624999Y-98199986D01*
X184625000Y-98199973D01*
X184625000Y-97750000D01*
X183800000Y-97750000D01*
X183800000Y-98899999D01*
X183299999Y-98899999D01*
X183300000Y-98899998D01*
X183300000Y-97250000D01*
X183800000Y-97250000D01*
X184624999Y-97250000D01*
X184624999Y-96800028D01*
X184624998Y-96800013D01*
X184614505Y-96697302D01*
X184559358Y-96530880D01*
X184559356Y-96530875D01*
X184467315Y-96381654D01*
X184343345Y-96257684D01*
X184194124Y-96165643D01*
X184194119Y-96165641D01*
X184027697Y-96110494D01*
X184027690Y-96110493D01*
X183924986Y-96100000D01*
X183800000Y-96100000D01*
X183800000Y-97250000D01*
X183300000Y-97250000D01*
X183300000Y-96100000D01*
X183175027Y-96100000D01*
X183175012Y-96100001D01*
X183072302Y-96110494D01*
X182905880Y-96165641D01*
X182905875Y-96165643D01*
X182756654Y-96257684D01*
X182632684Y-96381654D01*
X182540643Y-96530875D01*
X182540641Y-96530880D01*
X182507577Y-96630662D01*
X182467804Y-96688107D01*
X182403288Y-96714930D01*
X182334512Y-96702615D01*
X182283313Y-96655072D01*
X182272165Y-96630662D01*
X182247314Y-96555666D01*
X182155212Y-96406344D01*
X182031156Y-96282288D01*
X181909402Y-96207190D01*
X181862679Y-96155243D01*
X181850500Y-96101652D01*
X181850500Y-95300096D01*
X181870185Y-95233057D01*
X181886814Y-95212420D01*
X182178081Y-94921153D01*
X184199500Y-94921153D01*
X184199500Y-95078846D01*
X184230261Y-95233489D01*
X184230264Y-95233501D01*
X184290602Y-95379172D01*
X184290609Y-95379185D01*
X184378210Y-95510288D01*
X184378213Y-95510292D01*
X184489707Y-95621786D01*
X184489711Y-95621789D01*
X184620814Y-95709390D01*
X184620827Y-95709397D01*
X184737404Y-95757684D01*
X184766503Y-95769737D01*
X184820778Y-95780533D01*
X184921849Y-95800638D01*
X184983760Y-95833023D01*
X184985339Y-95834574D01*
X185493815Y-96343050D01*
X185527300Y-96404373D01*
X185522316Y-96474065D01*
X185511674Y-96495825D01*
X185490188Y-96530661D01*
X185490186Y-96530664D01*
X185490186Y-96530666D01*
X185435001Y-96697203D01*
X185435001Y-96697204D01*
X185435000Y-96697204D01*
X185424500Y-96799983D01*
X185424500Y-98200001D01*
X185424501Y-98200018D01*
X185435000Y-98302796D01*
X185435001Y-98302799D01*
X185490185Y-98469331D01*
X185490187Y-98469336D01*
X185504679Y-98492831D01*
X185582288Y-98618656D01*
X185706344Y-98742712D01*
X185855666Y-98834814D01*
X186022203Y-98889999D01*
X186124991Y-98900500D01*
X186875008Y-98900499D01*
X186875016Y-98900498D01*
X186875019Y-98900498D01*
X186931302Y-98894748D01*
X186977797Y-98889999D01*
X187144334Y-98834814D01*
X187293656Y-98742712D01*
X187417712Y-98618656D01*
X187509814Y-98469334D01*
X187564999Y-98302797D01*
X187575500Y-98200009D01*
X187575499Y-96799992D01*
X187564999Y-96697203D01*
X187509814Y-96530666D01*
X187417712Y-96381344D01*
X187293656Y-96257288D01*
X187170242Y-96181166D01*
X187144336Y-96165187D01*
X187144331Y-96165185D01*
X187140790Y-96164011D01*
X186977934Y-96110046D01*
X186966838Y-96103202D01*
X186957513Y-96101174D01*
X186929260Y-96080024D01*
X186868716Y-96019480D01*
X186868713Y-96019478D01*
X185834574Y-94985339D01*
X185801089Y-94924016D01*
X185800638Y-94921849D01*
X185776475Y-94800376D01*
X185769737Y-94766503D01*
X185738224Y-94690423D01*
X185709397Y-94620827D01*
X185709390Y-94620814D01*
X185621789Y-94489711D01*
X185621786Y-94489707D01*
X185510291Y-94378212D01*
X185510288Y-94378210D01*
X185379185Y-94290609D01*
X185379172Y-94290602D01*
X185233501Y-94230264D01*
X185233489Y-94230261D01*
X185078845Y-94199500D01*
X185078842Y-94199500D01*
X184921158Y-94199500D01*
X184921155Y-94199500D01*
X184766510Y-94230261D01*
X184766498Y-94230264D01*
X184620827Y-94290602D01*
X184620814Y-94290609D01*
X184489711Y-94378210D01*
X184489709Y-94378212D01*
X184378213Y-94489707D01*
X184378210Y-94489711D01*
X184290609Y-94620814D01*
X184290602Y-94620827D01*
X184230264Y-94766498D01*
X184230261Y-94766510D01*
X184199500Y-94921153D01*
X182178081Y-94921153D01*
X184562416Y-92536817D01*
X184623739Y-92503333D01*
X184650097Y-92500499D01*
X185451123Y-92500499D01*
X185451123Y-92500498D01*
X185493889Y-92497600D01*
X185678693Y-92451641D01*
X185849296Y-92367030D01*
X185997722Y-92247722D01*
X186117030Y-92099296D01*
X186201641Y-91928693D01*
X186247600Y-91743889D01*
X186250500Y-91701123D01*
X186250499Y-90298878D01*
X186247600Y-90256111D01*
X186201641Y-90071307D01*
X186166276Y-90000000D01*
X186117032Y-89900707D01*
X186117030Y-89900704D01*
X185997722Y-89752278D01*
X185997721Y-89752277D01*
X185849295Y-89632969D01*
X185849292Y-89632967D01*
X185672671Y-89545372D01*
X185673617Y-89543464D01*
X185625590Y-89507869D01*
X185600860Y-89442522D01*
X185600500Y-89433084D01*
X185600500Y-88420945D01*
X185600500Y-88420943D01*
X185559916Y-88269480D01*
X185559578Y-88268219D01*
X185559577Y-88268216D01*
X185559577Y-88268215D01*
X185531370Y-88219359D01*
X185516259Y-88193186D01*
X185516258Y-88193185D01*
X185480521Y-88131286D01*
X185480520Y-88131284D01*
X185368716Y-88019480D01*
X185368715Y-88019479D01*
X185364385Y-88015149D01*
X185364374Y-88015139D01*
X184737590Y-87388355D01*
X184737588Y-87388352D01*
X184618717Y-87269481D01*
X184618716Y-87269480D01*
X184531904Y-87219360D01*
X184531904Y-87219359D01*
X184531900Y-87219358D01*
X184481785Y-87190423D01*
X184329057Y-87149499D01*
X184170943Y-87149499D01*
X184163347Y-87149499D01*
X184163331Y-87149500D01*
X184136555Y-87149500D01*
X184069516Y-87129815D01*
X184023761Y-87077011D01*
X184013817Y-87007853D01*
X184018840Y-86989588D01*
X184017969Y-86989324D01*
X184019731Y-86983509D01*
X184019737Y-86983497D01*
X184050500Y-86828842D01*
X184050500Y-86671158D01*
X184050500Y-86671155D01*
X184050499Y-86671153D01*
X184028491Y-86560511D01*
X184019737Y-86516503D01*
X183996670Y-86460814D01*
X183959863Y-86371951D01*
X183952394Y-86302482D01*
X183983670Y-86240003D01*
X184043759Y-86204351D01*
X184074424Y-86200499D01*
X184158028Y-86200499D01*
X184158036Y-86200499D01*
X184277418Y-86189886D01*
X184473049Y-86133909D01*
X184653407Y-86039698D01*
X184811109Y-85911109D01*
X184939698Y-85753407D01*
X185033909Y-85573049D01*
X185089886Y-85377418D01*
X185100500Y-85258037D01*
X185100499Y-84141964D01*
X185089886Y-84022582D01*
X185033909Y-83826951D01*
X184939698Y-83646593D01*
X184887684Y-83582803D01*
X184811109Y-83488890D01*
X184695933Y-83394977D01*
X184653407Y-83360302D01*
X184473049Y-83266091D01*
X184473048Y-83266090D01*
X184473045Y-83266089D01*
X184355829Y-83232550D01*
X184277418Y-83210114D01*
X184277415Y-83210113D01*
X184277413Y-83210113D01*
X184211102Y-83204217D01*
X184158037Y-83199500D01*
X184158032Y-83199500D01*
X181241971Y-83199500D01*
X181241965Y-83199500D01*
X181241964Y-83199501D01*
X181230316Y-83200536D01*
X181122584Y-83210113D01*
X180926954Y-83266089D01*
X180836772Y-83313196D01*
X180746593Y-83360302D01*
X180746591Y-83360303D01*
X180746590Y-83360304D01*
X180588890Y-83488890D01*
X180462210Y-83644253D01*
X180460302Y-83646593D01*
X180447336Y-83671415D01*
X180366089Y-83826954D01*
X180310114Y-84022583D01*
X180310113Y-84022586D01*
X180299500Y-84141966D01*
X180299500Y-85258028D01*
X180299500Y-85258033D01*
X180299501Y-85258036D01*
X180301571Y-85281330D01*
X180310113Y-85377415D01*
X180366089Y-85573045D01*
X180366090Y-85573048D01*
X180366091Y-85573049D01*
X180460302Y-85753407D01*
X180478518Y-85775747D01*
X180588890Y-85911109D01*
X180667625Y-85975308D01*
X180746593Y-86039698D01*
X180926951Y-86133909D01*
X181122582Y-86189886D01*
X181241963Y-86200500D01*
X182299902Y-86200499D01*
X182329348Y-86209145D01*
X182359329Y-86215667D01*
X182364342Y-86219419D01*
X182366941Y-86220183D01*
X182387583Y-86236818D01*
X182476448Y-86325683D01*
X182509933Y-86387006D01*
X182504949Y-86456698D01*
X182503329Y-86460814D01*
X182480263Y-86516502D01*
X182480260Y-86516511D01*
X182449500Y-86671153D01*
X182449500Y-86828846D01*
X182480261Y-86983489D01*
X182482031Y-86989324D01*
X182479279Y-86990158D01*
X182485503Y-87047359D01*
X182454309Y-87109878D01*
X182394266Y-87145608D01*
X182363445Y-87149500D01*
X179329057Y-87149500D01*
X179170942Y-87149500D01*
X179018215Y-87190423D01*
X179018214Y-87190423D01*
X179018212Y-87190424D01*
X179018209Y-87190425D01*
X178968096Y-87219359D01*
X178968095Y-87219360D01*
X178932853Y-87239707D01*
X178881285Y-87269479D01*
X178881282Y-87269481D01*
X178779950Y-87370814D01*
X178769480Y-87381284D01*
X178769478Y-87381286D01*
X177513443Y-88637322D01*
X176287584Y-89863181D01*
X176226261Y-89896666D01*
X176199903Y-89899500D01*
X170658231Y-89899500D01*
X170591192Y-89879815D01*
X170583920Y-89874767D01*
X170492331Y-89806204D01*
X170492328Y-89806202D01*
X170357486Y-89755910D01*
X170357485Y-89755909D01*
X170357483Y-89755909D01*
X170297873Y-89749500D01*
X170297863Y-89749500D01*
X169702129Y-89749500D01*
X169702123Y-89749501D01*
X169642516Y-89755908D01*
X169507671Y-89806202D01*
X169507664Y-89806206D01*
X169392455Y-89892452D01*
X169392452Y-89892455D01*
X169306206Y-90007664D01*
X169306202Y-90007671D01*
X169255910Y-90142513D01*
X169255909Y-90142517D01*
X169249500Y-90202127D01*
X169249500Y-90202134D01*
X169249500Y-90202135D01*
X169249500Y-90797870D01*
X169249501Y-90797876D01*
X169255908Y-90857483D01*
X169306202Y-90992328D01*
X169306206Y-90992335D01*
X169392452Y-91107544D01*
X169392455Y-91107547D01*
X169507664Y-91193793D01*
X169507671Y-91193797D01*
X169552618Y-91210561D01*
X169642517Y-91244091D01*
X169702127Y-91250500D01*
X170297872Y-91250499D01*
X170357483Y-91244091D01*
X170492331Y-91193796D01*
X170564030Y-91140122D01*
X170583920Y-91125233D01*
X170649385Y-91100816D01*
X170658231Y-91100500D01*
X171363445Y-91100500D01*
X171430484Y-91120185D01*
X171476239Y-91172989D01*
X171486183Y-91242147D01*
X171481159Y-91260411D01*
X171482031Y-91260676D01*
X171480261Y-91266510D01*
X171449500Y-91421153D01*
X171449500Y-91578846D01*
X171480261Y-91733489D01*
X171480264Y-91733501D01*
X171540602Y-91879172D01*
X171540609Y-91879185D01*
X171628210Y-92010288D01*
X171628213Y-92010292D01*
X171636077Y-92018156D01*
X171643076Y-92029583D01*
X171650790Y-92035898D01*
X171662320Y-92061004D01*
X171666347Y-92067579D01*
X171667340Y-92070643D01*
X171690423Y-92156785D01*
X171694975Y-92164669D01*
X171701507Y-92175984D01*
X171701509Y-92175988D01*
X171769477Y-92293712D01*
X171769481Y-92293717D01*
X171888349Y-92412585D01*
X171888355Y-92412590D01*
X171969065Y-92493300D01*
X172002550Y-92554623D01*
X171997566Y-92624315D01*
X171955694Y-92680248D01*
X171905576Y-92702598D01*
X171766508Y-92730261D01*
X171766498Y-92730264D01*
X171620827Y-92790602D01*
X171620814Y-92790609D01*
X171489125Y-92878602D01*
X171422447Y-92899480D01*
X171420234Y-92899500D01*
X170050098Y-92899500D01*
X169983059Y-92879815D01*
X169962417Y-92863181D01*
X168834573Y-91735337D01*
X168801088Y-91674014D01*
X168800637Y-91671847D01*
X168791418Y-91625499D01*
X168769737Y-91516503D01*
X168760553Y-91494330D01*
X168709397Y-91370827D01*
X168709390Y-91370814D01*
X168621789Y-91239711D01*
X168621786Y-91239707D01*
X168517267Y-91135188D01*
X168483782Y-91073865D01*
X168488766Y-91004173D01*
X168492101Y-90996871D01*
X168493792Y-90992335D01*
X168493796Y-90992331D01*
X168544091Y-90857483D01*
X168550500Y-90797873D01*
X168550499Y-90202128D01*
X168544091Y-90142517D01*
X168539118Y-90129185D01*
X168493797Y-90007671D01*
X168493795Y-90007668D01*
X168425233Y-89916080D01*
X168400816Y-89850615D01*
X168400500Y-89841769D01*
X168400500Y-89500097D01*
X168409144Y-89470656D01*
X168415668Y-89440670D01*
X168419422Y-89435654D01*
X168420185Y-89433058D01*
X168436819Y-89412416D01*
X168462416Y-89386819D01*
X168523739Y-89353334D01*
X168550097Y-89350500D01*
X169163331Y-89350500D01*
X169163347Y-89350501D01*
X169170943Y-89350501D01*
X169329054Y-89350501D01*
X169329057Y-89350501D01*
X169481785Y-89309577D01*
X169534647Y-89279057D01*
X169534648Y-89279057D01*
X169618709Y-89230524D01*
X169618708Y-89230524D01*
X169618716Y-89230520D01*
X169730520Y-89118716D01*
X169730520Y-89118714D01*
X169740724Y-89108511D01*
X169740727Y-89108506D01*
X170264665Y-88584570D01*
X170325984Y-88551088D01*
X170328151Y-88550637D01*
X170328840Y-88550500D01*
X170328842Y-88550500D01*
X170483497Y-88519737D01*
X170629179Y-88459394D01*
X170760289Y-88371789D01*
X170871789Y-88260289D01*
X170959394Y-88129179D01*
X171019737Y-87983497D01*
X171050500Y-87828842D01*
X171050500Y-87671158D01*
X171050500Y-87671155D01*
X171050499Y-87671153D01*
X171043807Y-87637509D01*
X171019737Y-87516503D01*
X171019735Y-87516498D01*
X170959397Y-87370827D01*
X170959390Y-87370814D01*
X170871789Y-87239711D01*
X170871786Y-87239707D01*
X170760292Y-87128213D01*
X170760288Y-87128210D01*
X170629185Y-87040609D01*
X170629172Y-87040602D01*
X170483501Y-86980264D01*
X170483489Y-86980261D01*
X170328845Y-86949500D01*
X170328842Y-86949500D01*
X170171158Y-86949500D01*
X170171155Y-86949500D01*
X170016510Y-86980261D01*
X170016498Y-86980264D01*
X169870827Y-87040602D01*
X169870814Y-87040609D01*
X169739711Y-87128210D01*
X169739707Y-87128213D01*
X169628213Y-87239707D01*
X169628210Y-87239711D01*
X169540609Y-87370814D01*
X169540602Y-87370827D01*
X169480264Y-87516498D01*
X169480261Y-87516508D01*
X169449362Y-87671849D01*
X169416977Y-87733759D01*
X169415426Y-87735338D01*
X169037584Y-88113181D01*
X168976261Y-88146666D01*
X168949903Y-88149500D01*
X168329057Y-88149500D01*
X168170943Y-88149500D01*
X168018215Y-88190423D01*
X168018214Y-88190423D01*
X168018212Y-88190424D01*
X168018209Y-88190425D01*
X167968096Y-88219359D01*
X167968095Y-88219360D01*
X167940812Y-88235112D01*
X167881285Y-88269479D01*
X167881282Y-88269481D01*
X167319479Y-88831284D01*
X167297681Y-88869041D01*
X167288467Y-88885001D01*
X167240423Y-88968215D01*
X167199499Y-89120943D01*
X167199499Y-89120945D01*
X167199499Y-89289046D01*
X167199500Y-89289059D01*
X167199500Y-89841769D01*
X167179815Y-89908808D01*
X167174767Y-89916080D01*
X167106204Y-90007668D01*
X167106202Y-90007671D01*
X167055910Y-90142513D01*
X167055909Y-90142517D01*
X167049500Y-90202127D01*
X167049500Y-90202134D01*
X167049500Y-90202135D01*
X167049500Y-90797870D01*
X167049501Y-90797876D01*
X167055908Y-90857483D01*
X167064423Y-90880312D01*
X167069406Y-90950004D01*
X167035919Y-91011326D01*
X166974595Y-91044810D01*
X166904904Y-91039824D01*
X166860559Y-91011324D01*
X166658812Y-90809577D01*
X166084573Y-90235337D01*
X166051088Y-90174014D01*
X166050637Y-90171847D01*
X166023771Y-90036783D01*
X166019737Y-90016503D01*
X166016078Y-90007669D01*
X165959397Y-89870827D01*
X165959390Y-89870814D01*
X165871789Y-89739711D01*
X165871786Y-89739707D01*
X165760292Y-89628213D01*
X165760288Y-89628210D01*
X165629185Y-89540609D01*
X165629172Y-89540602D01*
X165483501Y-89480264D01*
X165483489Y-89480261D01*
X165328845Y-89449500D01*
X165328842Y-89449500D01*
X165171158Y-89449500D01*
X165171155Y-89449500D01*
X165016510Y-89480261D01*
X165016498Y-89480264D01*
X164870827Y-89540602D01*
X164870814Y-89540609D01*
X164739711Y-89628210D01*
X164739707Y-89628213D01*
X164628213Y-89739707D01*
X164628210Y-89739711D01*
X164540609Y-89870814D01*
X164540602Y-89870827D01*
X164480264Y-90016498D01*
X164480261Y-90016510D01*
X164449500Y-90171153D01*
X164449500Y-90328846D01*
X164480261Y-90483489D01*
X164480264Y-90483501D01*
X164540602Y-90629172D01*
X164540609Y-90629185D01*
X164628210Y-90760288D01*
X164628213Y-90760292D01*
X164739707Y-90871786D01*
X164739711Y-90871789D01*
X164870814Y-90959390D01*
X164870827Y-90959397D01*
X164992549Y-91009815D01*
X165016503Y-91019737D01*
X165081147Y-91032595D01*
X165171849Y-91050638D01*
X165233760Y-91083023D01*
X165235339Y-91084574D01*
X166863181Y-92712416D01*
X166877884Y-92739343D01*
X166894477Y-92765162D01*
X166895368Y-92771362D01*
X166896666Y-92773739D01*
X166899500Y-92800097D01*
X166899500Y-92950500D01*
X166879815Y-93017539D01*
X166827011Y-93063294D01*
X166775501Y-93074500D01*
X166652130Y-93074500D01*
X166652123Y-93074501D01*
X166592516Y-93080908D01*
X166457671Y-93131202D01*
X166457664Y-93131206D01*
X166342455Y-93217452D01*
X166342452Y-93217455D01*
X166256206Y-93332664D01*
X166256202Y-93332671D01*
X166205908Y-93467517D01*
X166202236Y-93501678D01*
X166199501Y-93527123D01*
X166199500Y-93527135D01*
X166199500Y-94472870D01*
X166199501Y-94472872D01*
X166205908Y-94532483D01*
X166256202Y-94667328D01*
X166256206Y-94667335D01*
X166342452Y-94782544D01*
X166347227Y-94787319D01*
X166380712Y-94848642D01*
X166375728Y-94918334D01*
X166347227Y-94962681D01*
X166342452Y-94967455D01*
X166256206Y-95082664D01*
X166256202Y-95082671D01*
X166205908Y-95217517D01*
X166199501Y-95277116D01*
X166199501Y-95277123D01*
X166199500Y-95277135D01*
X166199500Y-96222870D01*
X166199501Y-96222876D01*
X166205908Y-96282483D01*
X166256202Y-96417328D01*
X166256206Y-96417335D01*
X166342452Y-96532544D01*
X166342455Y-96532547D01*
X166457664Y-96618793D01*
X166457671Y-96618797D01*
X166487212Y-96629815D01*
X166592517Y-96669091D01*
X166652127Y-96675500D01*
X166775500Y-96675499D01*
X166842539Y-96695183D01*
X166888294Y-96747987D01*
X166899500Y-96799499D01*
X166899500Y-97163330D01*
X166899499Y-97163348D01*
X166899499Y-97329054D01*
X166899498Y-97329054D01*
X166940423Y-97481786D01*
X166951182Y-97500419D01*
X166951183Y-97500424D01*
X166951184Y-97500424D01*
X167019475Y-97618709D01*
X167019481Y-97618717D01*
X167138349Y-97737585D01*
X167138355Y-97737590D01*
X167567233Y-98166468D01*
X167600718Y-98227791D01*
X167595734Y-98297483D01*
X167553862Y-98353416D01*
X167488398Y-98377833D01*
X167466952Y-98377507D01*
X167437523Y-98374501D01*
X167437514Y-98374500D01*
X167437509Y-98374500D01*
X167437503Y-98374500D01*
X166712498Y-98374500D01*
X166712480Y-98374501D01*
X166609703Y-98385000D01*
X166609700Y-98385001D01*
X166443168Y-98440185D01*
X166443163Y-98440187D01*
X166293842Y-98532289D01*
X166169789Y-98656342D01*
X166077687Y-98805663D01*
X166077686Y-98805666D01*
X166022501Y-98972203D01*
X166022501Y-98972204D01*
X166022500Y-98972204D01*
X166012000Y-99074983D01*
X166012000Y-99863403D01*
X165992315Y-99930442D01*
X165939511Y-99976197D01*
X165870353Y-99986141D01*
X165806797Y-99957116D01*
X165800319Y-99951084D01*
X164737590Y-98888355D01*
X164737588Y-98888352D01*
X164618717Y-98769481D01*
X164618709Y-98769475D01*
X164529050Y-98717711D01*
X164529049Y-98717711D01*
X164509073Y-98706178D01*
X164481785Y-98690423D01*
X164329057Y-98649499D01*
X164170943Y-98649499D01*
X164163347Y-98649499D01*
X164163331Y-98649500D01*
X160294836Y-98649500D01*
X160287221Y-98647264D01*
X160279386Y-98648534D01*
X160254172Y-98637559D01*
X160227797Y-98629815D01*
X160220968Y-98623107D01*
X160215322Y-98620650D01*
X160191736Y-98594394D01*
X160190733Y-98592893D01*
X160169853Y-98526216D01*
X160188336Y-98458835D01*
X160240313Y-98412144D01*
X160293833Y-98399999D01*
X160374972Y-98399999D01*
X160374986Y-98399998D01*
X160477697Y-98389505D01*
X160644119Y-98334358D01*
X160644124Y-98334356D01*
X160793345Y-98242315D01*
X160917315Y-98118345D01*
X161009356Y-97969124D01*
X161009358Y-97969119D01*
X161064505Y-97802697D01*
X161064506Y-97802690D01*
X161074999Y-97699986D01*
X161075000Y-97699973D01*
X161075000Y-97250000D01*
X158925001Y-97250000D01*
X158925001Y-97699986D01*
X158935494Y-97802697D01*
X158990641Y-97969119D01*
X158990643Y-97969124D01*
X159082684Y-98118345D01*
X159094382Y-98130043D01*
X159127867Y-98191366D01*
X159122883Y-98261058D01*
X159081011Y-98316991D01*
X159075592Y-98320826D01*
X158989711Y-98378210D01*
X158989707Y-98378213D01*
X158878213Y-98489707D01*
X158878210Y-98489711D01*
X158790609Y-98620814D01*
X158790602Y-98620827D01*
X158730264Y-98766498D01*
X158730261Y-98766510D01*
X158699500Y-98921153D01*
X158699500Y-99078846D01*
X158730261Y-99233489D01*
X158730264Y-99233501D01*
X158790602Y-99379172D01*
X158790609Y-99379185D01*
X158878210Y-99510288D01*
X158878213Y-99510292D01*
X158966829Y-99598908D01*
X159000314Y-99660231D01*
X158995330Y-99729923D01*
X158993709Y-99734041D01*
X158980263Y-99766501D01*
X158980260Y-99766511D01*
X158949500Y-99921153D01*
X158949500Y-100078846D01*
X158980261Y-100233489D01*
X158980264Y-100233501D01*
X159040602Y-100379172D01*
X159040609Y-100379185D01*
X159128210Y-100510288D01*
X159128213Y-100510292D01*
X159239707Y-100621786D01*
X159239711Y-100621789D01*
X159370814Y-100709390D01*
X159370827Y-100709397D01*
X159444013Y-100739711D01*
X159516503Y-100769737D01*
X159633966Y-100793102D01*
X159671153Y-100800499D01*
X159671156Y-100800500D01*
X159671158Y-100800500D01*
X159828844Y-100800500D01*
X159828845Y-100800499D01*
X159983497Y-100769737D01*
X160129179Y-100709394D01*
X160129185Y-100709390D01*
X160260875Y-100621398D01*
X160327553Y-100600520D01*
X160329766Y-100600500D01*
X161459903Y-100600500D01*
X161526942Y-100620185D01*
X161547584Y-100636819D01*
X161943584Y-101032819D01*
X161977069Y-101094142D01*
X161972085Y-101163834D01*
X161930213Y-101219767D01*
X161864749Y-101244184D01*
X161855903Y-101244500D01*
X161825942Y-101244500D01*
X161673213Y-101285423D01*
X161630434Y-101310123D01*
X161630433Y-101310123D01*
X161536287Y-101364477D01*
X161536282Y-101364481D01*
X160985339Y-101915425D01*
X160924016Y-101948910D01*
X160921850Y-101949361D01*
X160766508Y-101980261D01*
X160766498Y-101980264D01*
X160620827Y-102040602D01*
X160620814Y-102040609D01*
X160489711Y-102128210D01*
X160489707Y-102128213D01*
X160378213Y-102239707D01*
X160378210Y-102239711D01*
X160290609Y-102370814D01*
X160290602Y-102370827D01*
X160230264Y-102516498D01*
X160230261Y-102516510D01*
X160199500Y-102671153D01*
X160199500Y-102828846D01*
X160230261Y-102983489D01*
X160230264Y-102983501D01*
X160290602Y-103129172D01*
X160290609Y-103129185D01*
X160378210Y-103260288D01*
X160378213Y-103260292D01*
X160489707Y-103371786D01*
X160489711Y-103371789D01*
X160620814Y-103459390D01*
X160620827Y-103459397D01*
X160766498Y-103519735D01*
X160766503Y-103519737D01*
X160919132Y-103550097D01*
X160921153Y-103550499D01*
X160921156Y-103550500D01*
X160921158Y-103550500D01*
X161078844Y-103550500D01*
X161143800Y-103537578D01*
X161222712Y-103521882D01*
X161292303Y-103528109D01*
X161347480Y-103570971D01*
X161370725Y-103636861D01*
X161354658Y-103704858D01*
X161334584Y-103731180D01*
X160381286Y-104684479D01*
X160269481Y-104796283D01*
X160269479Y-104796285D01*
X160244566Y-104839438D01*
X160230096Y-104864501D01*
X160190423Y-104933216D01*
X160149499Y-105085944D01*
X160149499Y-105085946D01*
X160149499Y-105254047D01*
X160149500Y-105254060D01*
X160149500Y-115199902D01*
X160129815Y-115266941D01*
X160113181Y-115287583D01*
X159302750Y-116098013D01*
X159241427Y-116131498D01*
X159202467Y-116133690D01*
X159112511Y-116124500D01*
X158387498Y-116124500D01*
X158387480Y-116124501D01*
X158284703Y-116135000D01*
X158284700Y-116135001D01*
X158118168Y-116190185D01*
X158118163Y-116190187D01*
X157968842Y-116282289D01*
X157844789Y-116406342D01*
X157752687Y-116555663D01*
X157752685Y-116555668D01*
X157744934Y-116579060D01*
X157697501Y-116722203D01*
X157697501Y-116722204D01*
X157697500Y-116722204D01*
X157687000Y-116824983D01*
X157687000Y-118175001D01*
X157687001Y-118175018D01*
X157697500Y-118277796D01*
X157697501Y-118277799D01*
X157731306Y-118379815D01*
X157752686Y-118444334D01*
X157844788Y-118593656D01*
X157968844Y-118717712D01*
X158118166Y-118809814D01*
X158284703Y-118864999D01*
X158387491Y-118875500D01*
X159112508Y-118875499D01*
X159112516Y-118875498D01*
X159112519Y-118875498D01*
X159178900Y-118868717D01*
X159215297Y-118864999D01*
X159381834Y-118809814D01*
X159531156Y-118717712D01*
X159655212Y-118593656D01*
X159747314Y-118444334D01*
X159802499Y-118277797D01*
X159813000Y-118175009D01*
X159812999Y-117337595D01*
X159832683Y-117270557D01*
X159849313Y-117249920D01*
X160437820Y-116661414D01*
X160499142Y-116627930D01*
X160568834Y-116632914D01*
X160624767Y-116674786D01*
X160649184Y-116740250D01*
X160649500Y-116749096D01*
X160649500Y-118199902D01*
X160629815Y-118266941D01*
X160613181Y-118287583D01*
X159287584Y-119613181D01*
X159226261Y-119646666D01*
X159199903Y-119649500D01*
X155550098Y-119649500D01*
X155483059Y-119629815D01*
X155462417Y-119613181D01*
X154618716Y-118769481D01*
X153636819Y-117787584D01*
X153603334Y-117726261D01*
X153600500Y-117699903D01*
X153600500Y-115249097D01*
X153620185Y-115182058D01*
X153672989Y-115136303D01*
X153742147Y-115126359D01*
X153805703Y-115155384D01*
X153812181Y-115161416D01*
X154902846Y-116252081D01*
X154936331Y-116313404D01*
X154931347Y-116383096D01*
X154920704Y-116404858D01*
X154827689Y-116555659D01*
X154827685Y-116555668D01*
X154819934Y-116579060D01*
X154772501Y-116722203D01*
X154772501Y-116722204D01*
X154772500Y-116722204D01*
X154762000Y-116824983D01*
X154762000Y-118175001D01*
X154762001Y-118175018D01*
X154772500Y-118277796D01*
X154772501Y-118277799D01*
X154806306Y-118379815D01*
X154827686Y-118444334D01*
X154919788Y-118593656D01*
X155043844Y-118717712D01*
X155193166Y-118809814D01*
X155359703Y-118864999D01*
X155462491Y-118875500D01*
X156187508Y-118875499D01*
X156187516Y-118875498D01*
X156187519Y-118875498D01*
X156253900Y-118868717D01*
X156290297Y-118864999D01*
X156456834Y-118809814D01*
X156606156Y-118717712D01*
X156730212Y-118593656D01*
X156822314Y-118444334D01*
X156877499Y-118277797D01*
X156888000Y-118175009D01*
X156887999Y-116824992D01*
X156877499Y-116722203D01*
X156822314Y-116555666D01*
X156730212Y-116406344D01*
X156606156Y-116282288D01*
X156456834Y-116190186D01*
X156456826Y-116190181D01*
X156456355Y-116189962D01*
X156456085Y-116189725D01*
X156450687Y-116186395D01*
X156451256Y-116185472D01*
X156403916Y-116143789D01*
X156396999Y-116131295D01*
X156391984Y-116120861D01*
X156384577Y-116093216D01*
X156349486Y-116032437D01*
X156347457Y-116028214D01*
X156342536Y-115998184D01*
X156335359Y-115968600D01*
X156336940Y-115964031D01*
X156336159Y-115959264D01*
X156348256Y-115931335D01*
X156358212Y-115902573D01*
X156362009Y-115899586D01*
X156363931Y-115895151D01*
X156389210Y-115878195D01*
X156413133Y-115859382D01*
X156418922Y-115858266D01*
X156421957Y-115856231D01*
X156430335Y-115856066D01*
X156459219Y-115850500D01*
X157329055Y-115850500D01*
X157329057Y-115850500D01*
X157481784Y-115809577D01*
X157618716Y-115730520D01*
X157730520Y-115618716D01*
X157773584Y-115544124D01*
X157793287Y-115518446D01*
X158159749Y-115151984D01*
X158221070Y-115118501D01*
X158260027Y-115116309D01*
X158349991Y-115125500D01*
X159075008Y-115125499D01*
X159075016Y-115125498D01*
X159075019Y-115125498D01*
X159143514Y-115118501D01*
X159177797Y-115114999D01*
X159344334Y-115059814D01*
X159493656Y-114967712D01*
X159617712Y-114843656D01*
X159709814Y-114694334D01*
X159764999Y-114527797D01*
X159775500Y-114425009D01*
X159775499Y-113074992D01*
X159764999Y-112972203D01*
X159709814Y-112805666D01*
X159617712Y-112656344D01*
X159493656Y-112532288D01*
X159344334Y-112440186D01*
X159177797Y-112385001D01*
X159177795Y-112385000D01*
X159075010Y-112374500D01*
X158349998Y-112374500D01*
X158349980Y-112374501D01*
X158247203Y-112385000D01*
X158247200Y-112385001D01*
X158080668Y-112440185D01*
X158080663Y-112440187D01*
X157931342Y-112532289D01*
X157807289Y-112656342D01*
X157715187Y-112805663D01*
X157715186Y-112805666D01*
X157660001Y-112972203D01*
X157660001Y-112972204D01*
X157660000Y-112972204D01*
X157649500Y-113074983D01*
X157649500Y-113912402D01*
X157629815Y-113979441D01*
X157613181Y-114000083D01*
X157058531Y-114554733D01*
X156997208Y-114588218D01*
X156927516Y-114583234D01*
X156871583Y-114541362D01*
X156847166Y-114475898D01*
X156847492Y-114454448D01*
X156850500Y-114425009D01*
X156850499Y-113074992D01*
X156839999Y-112972203D01*
X156784814Y-112805666D01*
X156692712Y-112656344D01*
X156568656Y-112532288D01*
X156419334Y-112440186D01*
X156252797Y-112385001D01*
X156252795Y-112385000D01*
X156150010Y-112374500D01*
X155424998Y-112374500D01*
X155424980Y-112374501D01*
X155335030Y-112383690D01*
X155333107Y-112383332D01*
X155331275Y-112384016D01*
X155298908Y-112376974D01*
X155266337Y-112370920D01*
X155264306Y-112369447D01*
X155263002Y-112369164D01*
X155234748Y-112348013D01*
X155136819Y-112250084D01*
X155103334Y-112188761D01*
X155100500Y-112162403D01*
X155100500Y-111450827D01*
X155120185Y-111383788D01*
X155172989Y-111338033D01*
X155242147Y-111328089D01*
X155263496Y-111333119D01*
X155359703Y-111364999D01*
X155462491Y-111375500D01*
X156187508Y-111375499D01*
X156187516Y-111375498D01*
X156187519Y-111375498D01*
X156249534Y-111369163D01*
X156290297Y-111364999D01*
X156456834Y-111309814D01*
X156606156Y-111217712D01*
X156730212Y-111093656D01*
X156822314Y-110944334D01*
X156877499Y-110777797D01*
X156888000Y-110675009D01*
X156887999Y-109324992D01*
X156883965Y-109285505D01*
X156896734Y-109216814D01*
X156938431Y-109169802D01*
X157010289Y-109121789D01*
X157121789Y-109010289D01*
X157209394Y-108879179D01*
X157269737Y-108733497D01*
X157295963Y-108601652D01*
X157300638Y-108578150D01*
X157333023Y-108516239D01*
X157334524Y-108514710D01*
X157608506Y-108240727D01*
X157608511Y-108240724D01*
X157618714Y-108230520D01*
X157618716Y-108230520D01*
X157730520Y-108118716D01*
X157764664Y-108059577D01*
X157787813Y-108019482D01*
X157787814Y-108019480D01*
X157809574Y-107981790D01*
X157809573Y-107981790D01*
X157809577Y-107981785D01*
X157850500Y-107829057D01*
X157850500Y-107670943D01*
X157850500Y-107670942D01*
X157850500Y-107579765D01*
X157855828Y-107561619D01*
X157856166Y-107542711D01*
X157869665Y-107514495D01*
X157870185Y-107512726D01*
X157871398Y-107510874D01*
X157922398Y-107434548D01*
X157976011Y-107389743D01*
X158045336Y-107381036D01*
X158108363Y-107411191D01*
X158145082Y-107470634D01*
X158149500Y-107503439D01*
X158149500Y-108601652D01*
X158129815Y-108668691D01*
X158090598Y-108707189D01*
X158047941Y-108733501D01*
X157968842Y-108782289D01*
X157844789Y-108906342D01*
X157752687Y-109055663D01*
X157752685Y-109055668D01*
X157734518Y-109110493D01*
X157697501Y-109222203D01*
X157697501Y-109222204D01*
X157697500Y-109222204D01*
X157687000Y-109324983D01*
X157687000Y-110675001D01*
X157687001Y-110675018D01*
X157697500Y-110777796D01*
X157697501Y-110777799D01*
X157752685Y-110944331D01*
X157752687Y-110944336D01*
X157769894Y-110972233D01*
X157844788Y-111093656D01*
X157968844Y-111217712D01*
X158118166Y-111309814D01*
X158284703Y-111364999D01*
X158387491Y-111375500D01*
X159112508Y-111375499D01*
X159112516Y-111375498D01*
X159112519Y-111375498D01*
X159174534Y-111369163D01*
X159215297Y-111364999D01*
X159381834Y-111309814D01*
X159531156Y-111217712D01*
X159655212Y-111093656D01*
X159747314Y-110944334D01*
X159802499Y-110777797D01*
X159813000Y-110675009D01*
X159812999Y-109324992D01*
X159802499Y-109222203D01*
X159747314Y-109055666D01*
X159655212Y-108906344D01*
X159531156Y-108782288D01*
X159409402Y-108707190D01*
X159362679Y-108655243D01*
X159350500Y-108601652D01*
X159350500Y-104585944D01*
X159346855Y-104572343D01*
X159346854Y-104572339D01*
X159324905Y-104490424D01*
X159324905Y-104490423D01*
X159309577Y-104433217D01*
X159309575Y-104433213D01*
X159309574Y-104433210D01*
X159230524Y-104296291D01*
X159230521Y-104296287D01*
X159230520Y-104296285D01*
X159118716Y-104184481D01*
X159118715Y-104184480D01*
X159114385Y-104180150D01*
X159114374Y-104180140D01*
X157720831Y-102786597D01*
X157697070Y-102753291D01*
X157690476Y-102739777D01*
X157690057Y-102736282D01*
X157635490Y-102597908D01*
X157595572Y-102545269D01*
X157590257Y-102534375D01*
X157586352Y-102511401D01*
X157578072Y-102489614D01*
X157580608Y-102477597D01*
X157578551Y-102465493D01*
X157587687Y-102444054D01*
X157592500Y-102421250D01*
X157602892Y-102405078D01*
X157635490Y-102362092D01*
X157690057Y-102223718D01*
X157700500Y-102136759D01*
X157700499Y-101553242D01*
X157690057Y-101466282D01*
X157690055Y-101466278D01*
X157689604Y-101462517D01*
X157701156Y-101393608D01*
X157708959Y-101379992D01*
X157709390Y-101379184D01*
X157709394Y-101379179D01*
X157769737Y-101233497D01*
X157800500Y-101078842D01*
X157800500Y-100921158D01*
X157800500Y-100921155D01*
X157800499Y-100921153D01*
X157776499Y-100800499D01*
X157769737Y-100766503D01*
X157762694Y-100749500D01*
X157709397Y-100620827D01*
X157709390Y-100620814D01*
X157621789Y-100489711D01*
X157621786Y-100489707D01*
X157510292Y-100378213D01*
X157510288Y-100378210D01*
X157379185Y-100290609D01*
X157379172Y-100290602D01*
X157233501Y-100230264D01*
X157233489Y-100230261D01*
X157078845Y-100199500D01*
X157078842Y-100199500D01*
X156921158Y-100199500D01*
X156921155Y-100199500D01*
X156766510Y-100230261D01*
X156766498Y-100230264D01*
X156620827Y-100290602D01*
X156620814Y-100290609D01*
X156489125Y-100378602D01*
X156422447Y-100399480D01*
X156420234Y-100399500D01*
X155249097Y-100399500D01*
X155182058Y-100379815D01*
X155136303Y-100327011D01*
X155126359Y-100257853D01*
X155155384Y-100194297D01*
X155161416Y-100187819D01*
X155712416Y-99636819D01*
X155773739Y-99603334D01*
X155800097Y-99600500D01*
X156420234Y-99600500D01*
X156487273Y-99620185D01*
X156489125Y-99621398D01*
X156620814Y-99709390D01*
X156620827Y-99709397D01*
X156766498Y-99769735D01*
X156766503Y-99769737D01*
X156857568Y-99787851D01*
X156921153Y-99800499D01*
X156921156Y-99800500D01*
X156921158Y-99800500D01*
X157078844Y-99800500D01*
X157078845Y-99800499D01*
X157233497Y-99769737D01*
X157364718Y-99715384D01*
X157379172Y-99709397D01*
X157379172Y-99709396D01*
X157379179Y-99709394D01*
X157510289Y-99621789D01*
X157621789Y-99510289D01*
X157709394Y-99379179D01*
X157769737Y-99233497D01*
X157800500Y-99078842D01*
X157800500Y-98921158D01*
X157800500Y-98921155D01*
X157800499Y-98921153D01*
X157792569Y-98881286D01*
X157769737Y-98766503D01*
X157749527Y-98717711D01*
X157709397Y-98620827D01*
X157709390Y-98620814D01*
X157640416Y-98517588D01*
X157619538Y-98450911D01*
X157638022Y-98383531D01*
X157690001Y-98336840D01*
X157691122Y-98336311D01*
X157694323Y-98334817D01*
X157694334Y-98334814D01*
X157843656Y-98242712D01*
X157967712Y-98118656D01*
X158059814Y-97969334D01*
X158114999Y-97802797D01*
X158125500Y-97700009D01*
X158125499Y-96300013D01*
X158925000Y-96300013D01*
X158925000Y-96750000D01*
X159750000Y-96750000D01*
X160250000Y-96750000D01*
X161074999Y-96750000D01*
X161074999Y-96300028D01*
X161074998Y-96300013D01*
X161067114Y-96222844D01*
X162700000Y-96222844D01*
X162706401Y-96282372D01*
X162706403Y-96282379D01*
X162756645Y-96417086D01*
X162756649Y-96417093D01*
X162842809Y-96532187D01*
X162842812Y-96532190D01*
X162957906Y-96618350D01*
X162957913Y-96618354D01*
X163092620Y-96668596D01*
X163092627Y-96668598D01*
X163152155Y-96674999D01*
X163152172Y-96675000D01*
X163750000Y-96675000D01*
X164250000Y-96675000D01*
X164847828Y-96675000D01*
X164847844Y-96674999D01*
X164907372Y-96668598D01*
X164907379Y-96668596D01*
X165042086Y-96618354D01*
X165042093Y-96618350D01*
X165157187Y-96532190D01*
X165157190Y-96532187D01*
X165243350Y-96417093D01*
X165243354Y-96417086D01*
X165293596Y-96282379D01*
X165293598Y-96282372D01*
X165299999Y-96222844D01*
X165300000Y-96222827D01*
X165300000Y-96000000D01*
X164250000Y-96000000D01*
X164250000Y-96675000D01*
X163750000Y-96675000D01*
X163750000Y-96000000D01*
X162700000Y-96000000D01*
X162700000Y-96222844D01*
X161067114Y-96222844D01*
X161064505Y-96197302D01*
X161009358Y-96030880D01*
X161009353Y-96030871D01*
X160998784Y-96013734D01*
X160998783Y-96013732D01*
X160917319Y-95881659D01*
X160917316Y-95881655D01*
X160793345Y-95757684D01*
X160644124Y-95665643D01*
X160644119Y-95665641D01*
X160477697Y-95610494D01*
X160477690Y-95610493D01*
X160374986Y-95600000D01*
X160250000Y-95600000D01*
X160250000Y-96750000D01*
X159750000Y-96750000D01*
X159750000Y-95600000D01*
X159625027Y-95600000D01*
X159625012Y-95600001D01*
X159522302Y-95610494D01*
X159355880Y-95665641D01*
X159355875Y-95665643D01*
X159206654Y-95757684D01*
X159082684Y-95881654D01*
X158990643Y-96030875D01*
X158990641Y-96030880D01*
X158935494Y-96197302D01*
X158935493Y-96197309D01*
X158925000Y-96300013D01*
X158125499Y-96300013D01*
X158125499Y-96299992D01*
X158123710Y-96282483D01*
X158114999Y-96197203D01*
X158114998Y-96197200D01*
X158104390Y-96165187D01*
X158059814Y-96030666D01*
X157967712Y-95881344D01*
X157843656Y-95757288D01*
X157714263Y-95677478D01*
X157709404Y-95674481D01*
X157662680Y-95622533D01*
X157650501Y-95568942D01*
X157650501Y-95470944D01*
X157644350Y-95447987D01*
X157609577Y-95318216D01*
X157599116Y-95300096D01*
X157530524Y-95181290D01*
X157530518Y-95181282D01*
X156584573Y-94235337D01*
X156551088Y-94174014D01*
X156550637Y-94171847D01*
X156549922Y-94168252D01*
X156519737Y-94016503D01*
X156492652Y-93951113D01*
X156459397Y-93870827D01*
X156459390Y-93870814D01*
X156371789Y-93739711D01*
X156371786Y-93739707D01*
X156260292Y-93628213D01*
X156260288Y-93628210D01*
X156129185Y-93540609D01*
X156129172Y-93540602D01*
X155983501Y-93480264D01*
X155983489Y-93480261D01*
X155828845Y-93449500D01*
X155828842Y-93449500D01*
X155671158Y-93449500D01*
X155671155Y-93449500D01*
X155516510Y-93480261D01*
X155516498Y-93480264D01*
X155370827Y-93540602D01*
X155370814Y-93540609D01*
X155239711Y-93628210D01*
X155239707Y-93628213D01*
X155128213Y-93739707D01*
X155128210Y-93739711D01*
X155040609Y-93870814D01*
X155040602Y-93870827D01*
X154980264Y-94016498D01*
X154980261Y-94016510D01*
X154949500Y-94171153D01*
X154949500Y-94328846D01*
X154980261Y-94483489D01*
X154980264Y-94483501D01*
X155040602Y-94629172D01*
X155040609Y-94629185D01*
X155128210Y-94760288D01*
X155128213Y-94760292D01*
X155239707Y-94871786D01*
X155239711Y-94871789D01*
X155370814Y-94959390D01*
X155370827Y-94959397D01*
X155515885Y-95019481D01*
X155516503Y-95019737D01*
X155581147Y-95032595D01*
X155671849Y-95050638D01*
X155733760Y-95083023D01*
X155735336Y-95084571D01*
X156244518Y-95593753D01*
X156278002Y-95655075D01*
X156273018Y-95724767D01*
X156244518Y-95769114D01*
X156132287Y-95881345D01*
X156040187Y-96030663D01*
X156040185Y-96030668D01*
X156016150Y-96103202D01*
X155985001Y-96197203D01*
X155985001Y-96197204D01*
X155985000Y-96197204D01*
X155974500Y-96299983D01*
X155974500Y-97700001D01*
X155974501Y-97700018D01*
X155985000Y-97802796D01*
X155985001Y-97802799D01*
X156040185Y-97969331D01*
X156040187Y-97969336D01*
X156075069Y-98025888D01*
X156132152Y-98118436D01*
X156132289Y-98118657D01*
X156201451Y-98187819D01*
X156234936Y-98249142D01*
X156229952Y-98318834D01*
X156188080Y-98374767D01*
X156122616Y-98399184D01*
X156113770Y-98399500D01*
X155420943Y-98399500D01*
X155268214Y-98440423D01*
X155247944Y-98452127D01*
X155247941Y-98452128D01*
X155131290Y-98519475D01*
X155131282Y-98519481D01*
X154062181Y-99588583D01*
X154045895Y-99597475D01*
X154032616Y-99610440D01*
X154015864Y-99613874D01*
X154000858Y-99622068D01*
X153982349Y-99620744D01*
X153964170Y-99624471D01*
X153948222Y-99618303D01*
X153931166Y-99617084D01*
X153916310Y-99605963D01*
X153899003Y-99599270D01*
X153888920Y-99585458D01*
X153875233Y-99575212D01*
X153868748Y-99557827D01*
X153857806Y-99542838D01*
X153853114Y-99515911D01*
X153850816Y-99509748D01*
X153850719Y-99508263D01*
X153850500Y-99504580D01*
X153850500Y-99406898D01*
X153839877Y-99318436D01*
X153839351Y-99317103D01*
X153838772Y-99307361D01*
X153839438Y-99304467D01*
X153839438Y-99285215D01*
X153839876Y-99281565D01*
X153839877Y-99281564D01*
X153850500Y-99193102D01*
X153850500Y-99006898D01*
X153839877Y-98918436D01*
X153839876Y-98918434D01*
X153839438Y-98914785D01*
X153839438Y-98885215D01*
X153839876Y-98881565D01*
X153839877Y-98881564D01*
X153850500Y-98793102D01*
X153850500Y-98606898D01*
X153850467Y-98606627D01*
X153844846Y-98559814D01*
X153839877Y-98518436D01*
X153839876Y-98518434D01*
X153839438Y-98514785D01*
X153839438Y-98485215D01*
X153839876Y-98481565D01*
X153839877Y-98481564D01*
X153850500Y-98393102D01*
X153850500Y-98206898D01*
X153848991Y-98194336D01*
X153846671Y-98175016D01*
X153839877Y-98118436D01*
X153839876Y-98118434D01*
X153839438Y-98114785D01*
X153839438Y-98085215D01*
X153839876Y-98081565D01*
X153839877Y-98081564D01*
X153850500Y-97993102D01*
X153850500Y-97806898D01*
X153839877Y-97718436D01*
X153784361Y-97577658D01*
X153784360Y-97577657D01*
X153784360Y-97577656D01*
X153692922Y-97457077D01*
X153572343Y-97365639D01*
X153431561Y-97310122D01*
X153385926Y-97304642D01*
X153343102Y-97299500D01*
X153343097Y-97299500D01*
X152824500Y-97299500D01*
X152757461Y-97279815D01*
X152711706Y-97227011D01*
X152700500Y-97175500D01*
X152700500Y-96656903D01*
X152700500Y-96656898D01*
X152689877Y-96568436D01*
X152634361Y-96427658D01*
X152634360Y-96427657D01*
X152634360Y-96427656D01*
X152542922Y-96307077D01*
X152422343Y-96215639D01*
X152299500Y-96167196D01*
X152281564Y-96160123D01*
X152281563Y-96160122D01*
X152281561Y-96160122D01*
X152235926Y-96154642D01*
X152193102Y-96149500D01*
X152006898Y-96149500D01*
X151963440Y-96154718D01*
X151914783Y-96160561D01*
X151890215Y-96161058D01*
X151882357Y-96160436D01*
X151881564Y-96160123D01*
X151793102Y-96149500D01*
X151744201Y-96149500D01*
X151739312Y-96149113D01*
X151711064Y-96138332D01*
X151682058Y-96129815D01*
X151678752Y-96126000D01*
X151674035Y-96124200D01*
X151656098Y-96099856D01*
X151636303Y-96077011D01*
X151635584Y-96072014D01*
X151632590Y-96067950D01*
X151630661Y-96037778D01*
X151626359Y-96007853D01*
X151628455Y-96003261D01*
X151628134Y-95998223D01*
X151642824Y-95971799D01*
X151655384Y-95944297D01*
X151661416Y-95937819D01*
X152459730Y-95139505D01*
X153264662Y-94334572D01*
X153325983Y-94301089D01*
X153328150Y-94300638D01*
X153386085Y-94289113D01*
X153483497Y-94269737D01*
X153629179Y-94209394D01*
X153760289Y-94121789D01*
X153871789Y-94010289D01*
X153959394Y-93879179D01*
X153962854Y-93870827D01*
X154017163Y-93739711D01*
X154019737Y-93733497D01*
X154050500Y-93578842D01*
X154050500Y-93421158D01*
X154050500Y-93421155D01*
X154050499Y-93421153D01*
X154039038Y-93363536D01*
X154019737Y-93266503D01*
X154001388Y-93222204D01*
X153959397Y-93120827D01*
X153959390Y-93120814D01*
X153871789Y-92989711D01*
X153871786Y-92989707D01*
X153760292Y-92878213D01*
X153760288Y-92878210D01*
X153629185Y-92790609D01*
X153629172Y-92790602D01*
X153483501Y-92730264D01*
X153483489Y-92730261D01*
X153328845Y-92699500D01*
X153328842Y-92699500D01*
X153171158Y-92699500D01*
X153171155Y-92699500D01*
X153016510Y-92730261D01*
X153016498Y-92730264D01*
X152879751Y-92786906D01*
X152810281Y-92794375D01*
X152747802Y-92763099D01*
X152712151Y-92703010D01*
X152712524Y-92640250D01*
X152720057Y-92612134D01*
X152749998Y-92384710D01*
X152750000Y-92384694D01*
X152750000Y-92155305D01*
X152749998Y-92155289D01*
X152720057Y-91927862D01*
X152673971Y-91755867D01*
X152675634Y-91686017D01*
X152714796Y-91628154D01*
X152779025Y-91600650D01*
X152832746Y-91606066D01*
X152859703Y-91614999D01*
X152962491Y-91625500D01*
X153687508Y-91625499D01*
X153687516Y-91625498D01*
X153687519Y-91625498D01*
X153743802Y-91619748D01*
X153790297Y-91614999D01*
X153956834Y-91559814D01*
X154106156Y-91467712D01*
X154230212Y-91343656D01*
X154322314Y-91194334D01*
X154326973Y-91180271D01*
X154366745Y-91122828D01*
X154431260Y-91096004D01*
X154500036Y-91108318D01*
X154532360Y-91131595D01*
X157115139Y-93714374D01*
X157115149Y-93714385D01*
X157119479Y-93718715D01*
X157119480Y-93718716D01*
X157231284Y-93830520D01*
X157297442Y-93868716D01*
X157368215Y-93909577D01*
X157520943Y-93950501D01*
X157520946Y-93950501D01*
X157686653Y-93950501D01*
X157686669Y-93950500D01*
X157739236Y-93950500D01*
X157806275Y-93970185D01*
X157852030Y-94022989D01*
X157855418Y-94031167D01*
X157906202Y-94167328D01*
X157906206Y-94167335D01*
X157992452Y-94282544D01*
X157992455Y-94282547D01*
X158107664Y-94368793D01*
X158107671Y-94368797D01*
X158242517Y-94419091D01*
X158242516Y-94419091D01*
X158249444Y-94419835D01*
X158302127Y-94425500D01*
X159797872Y-94425499D01*
X159857483Y-94419091D01*
X159992331Y-94368796D01*
X160076105Y-94306082D01*
X160141569Y-94281665D01*
X160209842Y-94296516D01*
X160224727Y-94306082D01*
X160307910Y-94368352D01*
X160307913Y-94368354D01*
X160442620Y-94418596D01*
X160442627Y-94418598D01*
X160502155Y-94424999D01*
X160502172Y-94425000D01*
X161000000Y-94425000D01*
X161500000Y-94425000D01*
X161997828Y-94425000D01*
X161997844Y-94424999D01*
X162057372Y-94418598D01*
X162057379Y-94418596D01*
X162192086Y-94368354D01*
X162192093Y-94368350D01*
X162307187Y-94282190D01*
X162307190Y-94282187D01*
X162393350Y-94167093D01*
X162393354Y-94167086D01*
X162443596Y-94032379D01*
X162443598Y-94032372D01*
X162449999Y-93972844D01*
X162450000Y-93972827D01*
X162450000Y-93600000D01*
X161500000Y-93600000D01*
X161500000Y-94425000D01*
X161000000Y-94425000D01*
X161000000Y-93527135D01*
X162699500Y-93527135D01*
X162699500Y-94472870D01*
X162699501Y-94472872D01*
X162705908Y-94532483D01*
X162756202Y-94667328D01*
X162756206Y-94667335D01*
X162842452Y-94782544D01*
X162847584Y-94787676D01*
X162881069Y-94848999D01*
X162876085Y-94918691D01*
X162847584Y-94963038D01*
X162842809Y-94967812D01*
X162756649Y-95082906D01*
X162756645Y-95082913D01*
X162706403Y-95217620D01*
X162706401Y-95217627D01*
X162700000Y-95277155D01*
X162700000Y-95500000D01*
X165300000Y-95500000D01*
X165300000Y-95277172D01*
X165299999Y-95277155D01*
X165293598Y-95217627D01*
X165293596Y-95217620D01*
X165243354Y-95082913D01*
X165243350Y-95082906D01*
X165157190Y-94967812D01*
X165152416Y-94963038D01*
X165118931Y-94901715D01*
X165123915Y-94832023D01*
X165152416Y-94787676D01*
X165157542Y-94782548D01*
X165157546Y-94782546D01*
X165243796Y-94667331D01*
X165294091Y-94532483D01*
X165300500Y-94472873D01*
X165300499Y-93527128D01*
X165294091Y-93467517D01*
X165291295Y-93460021D01*
X165243797Y-93332671D01*
X165243793Y-93332664D01*
X165157547Y-93217455D01*
X165157544Y-93217452D01*
X165042335Y-93131206D01*
X165042328Y-93131202D01*
X164907482Y-93080908D01*
X164907483Y-93080908D01*
X164847883Y-93074501D01*
X164847881Y-93074500D01*
X164847873Y-93074500D01*
X164847864Y-93074500D01*
X163152129Y-93074500D01*
X163152123Y-93074501D01*
X163092516Y-93080908D01*
X162957671Y-93131202D01*
X162957664Y-93131206D01*
X162842455Y-93217452D01*
X162842452Y-93217455D01*
X162756206Y-93332664D01*
X162756202Y-93332671D01*
X162705908Y-93467517D01*
X162702236Y-93501678D01*
X162699501Y-93527123D01*
X162699500Y-93527135D01*
X161000000Y-93527135D01*
X161000000Y-93474000D01*
X161019685Y-93406961D01*
X161072489Y-93361206D01*
X161124000Y-93350000D01*
X161250000Y-93350000D01*
X161250000Y-93224000D01*
X161269685Y-93156961D01*
X161322489Y-93111206D01*
X161374000Y-93100000D01*
X162450000Y-93100000D01*
X162450000Y-92727172D01*
X162449999Y-92727155D01*
X162443598Y-92667623D01*
X162416155Y-92594047D01*
X162411171Y-92524355D01*
X162416148Y-92507399D01*
X162444091Y-92432483D01*
X162450500Y-92372873D01*
X162450499Y-91127128D01*
X162445299Y-91078757D01*
X162444091Y-91067516D01*
X162393797Y-90932671D01*
X162393793Y-90932664D01*
X162307548Y-90817457D01*
X162307546Y-90817454D01*
X162307544Y-90817452D01*
X162307542Y-90817450D01*
X162251188Y-90775263D01*
X162209317Y-90719329D01*
X162201500Y-90675997D01*
X162201500Y-85975308D01*
X162221185Y-85908269D01*
X162273989Y-85862514D01*
X162343147Y-85852570D01*
X162406703Y-85881595D01*
X162428952Y-85908543D01*
X162429586Y-85908120D01*
X162431840Y-85911493D01*
X162537393Y-86049052D01*
X163257912Y-85328532D01*
X163352829Y-85459175D01*
X163480825Y-85587171D01*
X163611465Y-85682086D01*
X162890946Y-86402604D01*
X162890946Y-86402605D01*
X163028506Y-86508159D01*
X163028514Y-86508165D01*
X163273485Y-86649600D01*
X163273496Y-86649605D01*
X163534846Y-86757860D01*
X163808089Y-86831074D01*
X163808102Y-86831077D01*
X164088547Y-86867998D01*
X164088564Y-86868000D01*
X164371436Y-86868000D01*
X164371452Y-86867998D01*
X164651897Y-86831077D01*
X164651910Y-86831074D01*
X164925153Y-86757860D01*
X165186503Y-86649605D01*
X165186514Y-86649600D01*
X165431485Y-86508165D01*
X165431503Y-86508153D01*
X165569052Y-86402606D01*
X165569052Y-86402604D01*
X164848533Y-85682086D01*
X164979175Y-85587171D01*
X165107171Y-85459175D01*
X165202086Y-85328533D01*
X165922604Y-86049052D01*
X165922606Y-86049052D01*
X166028153Y-85911503D01*
X166028165Y-85911485D01*
X166169600Y-85666514D01*
X166169605Y-85666503D01*
X166277860Y-85405153D01*
X166351074Y-85131910D01*
X166351077Y-85131897D01*
X166387998Y-84851452D01*
X166388000Y-84851436D01*
X166388000Y-84568563D01*
X166387998Y-84568547D01*
X166351077Y-84288102D01*
X166351074Y-84288089D01*
X166277860Y-84014846D01*
X166169605Y-83753496D01*
X166169600Y-83753485D01*
X166028165Y-83508514D01*
X166028159Y-83508506D01*
X165922605Y-83370946D01*
X165922604Y-83370946D01*
X165202085Y-84091465D01*
X165107171Y-83960825D01*
X164979175Y-83832829D01*
X164848532Y-83737912D01*
X165569052Y-83017393D01*
X165431493Y-82911840D01*
X165431485Y-82911834D01*
X165186514Y-82770399D01*
X165186503Y-82770394D01*
X164925153Y-82662139D01*
X164651910Y-82588925D01*
X164651897Y-82588922D01*
X164371452Y-82552001D01*
X164371436Y-82552000D01*
X164088564Y-82552000D01*
X164088547Y-82552001D01*
X163808102Y-82588922D01*
X163808089Y-82588925D01*
X163534846Y-82662139D01*
X163273496Y-82770394D01*
X163273485Y-82770399D01*
X163028514Y-82911834D01*
X163028498Y-82911845D01*
X162890946Y-83017392D01*
X162890946Y-83017393D01*
X163611466Y-83737913D01*
X163480825Y-83832829D01*
X163352829Y-83960825D01*
X163257913Y-84091466D01*
X162537393Y-83370946D01*
X162537392Y-83370946D01*
X162431845Y-83508498D01*
X162429915Y-83511386D01*
X162429815Y-83511730D01*
X162405553Y-83532753D01*
X162382296Y-83554919D01*
X162379308Y-83555494D01*
X162377011Y-83557485D01*
X162345226Y-83562055D01*
X162313686Y-83568127D01*
X162310863Y-83566996D01*
X162307853Y-83567429D01*
X162278639Y-83554087D01*
X162248827Y-83542145D01*
X162247063Y-83539667D01*
X162244297Y-83538404D01*
X162226930Y-83511380D01*
X162208311Y-83485221D01*
X162207670Y-83481412D01*
X162206523Y-83479626D01*
X162201500Y-83444691D01*
X162201500Y-83199097D01*
X162221185Y-83132058D01*
X162237819Y-83111416D01*
X163444824Y-81904411D01*
X167785500Y-81904411D01*
X167785500Y-82095588D01*
X167815404Y-82284392D01*
X167815405Y-82284396D01*
X167874479Y-82466206D01*
X167961267Y-82636536D01*
X168073632Y-82791193D01*
X168208807Y-82926368D01*
X168363464Y-83038733D01*
X168533794Y-83125521D01*
X168715604Y-83184595D01*
X168786408Y-83195809D01*
X168904412Y-83214500D01*
X168904417Y-83214500D01*
X169095587Y-83214500D01*
X169176837Y-83201630D01*
X169265989Y-83187510D01*
X169335281Y-83196464D01*
X169373066Y-83222301D01*
X170381284Y-84230520D01*
X170381286Y-84230521D01*
X170381290Y-84230524D01*
X170489213Y-84292833D01*
X170537429Y-84343399D01*
X170550653Y-84412006D01*
X170527532Y-84473105D01*
X170461696Y-84563720D01*
X170374942Y-84733985D01*
X170374938Y-84733993D01*
X170368192Y-84754757D01*
X170328754Y-84812432D01*
X170264395Y-84839629D01*
X170195549Y-84827714D01*
X170144074Y-84780469D01*
X170132331Y-84754754D01*
X170125585Y-84733993D01*
X170125521Y-84733794D01*
X170038733Y-84563464D01*
X169926368Y-84408807D01*
X169791193Y-84273632D01*
X169636536Y-84161267D01*
X169466206Y-84074479D01*
X169284396Y-84015405D01*
X169284394Y-84015404D01*
X169284392Y-84015404D01*
X169095588Y-83985500D01*
X169095583Y-83985500D01*
X168904417Y-83985500D01*
X168904412Y-83985500D01*
X168715607Y-84015404D01*
X168533791Y-84074480D01*
X168363463Y-84161267D01*
X168275226Y-84225375D01*
X168208807Y-84273632D01*
X168208805Y-84273634D01*
X168208804Y-84273634D01*
X168073634Y-84408804D01*
X168073634Y-84408805D01*
X168073632Y-84408807D01*
X168050455Y-84440708D01*
X167961267Y-84563463D01*
X167874480Y-84733791D01*
X167815404Y-84915607D01*
X167785500Y-85104411D01*
X167785500Y-85295588D01*
X167815387Y-85484283D01*
X167815405Y-85484396D01*
X167874479Y-85666206D01*
X167961267Y-85836536D01*
X168073632Y-85991193D01*
X168208807Y-86126368D01*
X168363464Y-86238733D01*
X168533794Y-86325521D01*
X168715604Y-86384595D01*
X168786408Y-86395809D01*
X168904412Y-86414500D01*
X168904417Y-86414500D01*
X169095588Y-86414500D01*
X169200479Y-86397886D01*
X169284396Y-86384595D01*
X169466206Y-86325521D01*
X169636536Y-86238733D01*
X169791193Y-86126368D01*
X169926368Y-85991193D01*
X170038733Y-85836536D01*
X170125521Y-85666206D01*
X170132331Y-85645244D01*
X170171766Y-85587570D01*
X170236124Y-85560371D01*
X170304971Y-85572283D01*
X170356448Y-85619526D01*
X170368193Y-85645244D01*
X170374940Y-85666011D01*
X170374942Y-85666014D01*
X170461696Y-85836279D01*
X170482092Y-85864351D01*
X170482092Y-85864352D01*
X171049696Y-85296747D01*
X171071349Y-85377553D01*
X171131909Y-85482446D01*
X171217554Y-85568091D01*
X171322447Y-85628651D01*
X171403250Y-85650302D01*
X170835646Y-86217905D01*
X170863724Y-86238305D01*
X171033985Y-86325057D01*
X171033988Y-86325059D01*
X171215717Y-86384106D01*
X171404457Y-86414000D01*
X171595543Y-86414000D01*
X171784280Y-86384106D01*
X171784283Y-86384106D01*
X171966011Y-86325059D01*
X171966014Y-86325057D01*
X172124772Y-86244167D01*
X172136274Y-86238305D01*
X172164351Y-86217906D01*
X172164351Y-86217905D01*
X171596750Y-85650302D01*
X171677553Y-85628651D01*
X171782446Y-85568091D01*
X171868091Y-85482446D01*
X171928651Y-85377553D01*
X171950302Y-85296748D01*
X172517905Y-85864351D01*
X172517906Y-85864351D01*
X172538305Y-85836275D01*
X172625057Y-85666014D01*
X172625059Y-85666011D01*
X172684106Y-85484283D01*
X172684106Y-85484280D01*
X172714000Y-85295543D01*
X172714000Y-85104456D01*
X172684106Y-84915719D01*
X172684106Y-84915716D01*
X172625059Y-84733988D01*
X172625057Y-84733985D01*
X172538303Y-84563721D01*
X172526435Y-84547385D01*
X172502955Y-84481579D01*
X172518781Y-84413525D01*
X172568886Y-84364830D01*
X172626753Y-84350500D01*
X173170234Y-84350500D01*
X173237273Y-84370185D01*
X173239125Y-84371398D01*
X173370814Y-84459390D01*
X173370827Y-84459397D01*
X173516498Y-84519735D01*
X173516503Y-84519737D01*
X173655498Y-84547385D01*
X173671153Y-84550499D01*
X173671156Y-84550500D01*
X173671158Y-84550500D01*
X173828844Y-84550500D01*
X173895140Y-84537312D01*
X173963809Y-84523653D01*
X174033400Y-84529880D01*
X174088577Y-84572742D01*
X174111822Y-84638632D01*
X174112000Y-84645270D01*
X174112000Y-84851436D01*
X174112001Y-84851452D01*
X174148922Y-85131897D01*
X174148925Y-85131910D01*
X174222139Y-85405153D01*
X174330394Y-85666503D01*
X174330399Y-85666514D01*
X174471834Y-85911485D01*
X174471840Y-85911493D01*
X174577393Y-86049052D01*
X175297912Y-85328532D01*
X175392829Y-85459175D01*
X175520825Y-85587171D01*
X175651465Y-85682086D01*
X174930946Y-86402604D01*
X174930946Y-86402605D01*
X175068506Y-86508159D01*
X175068514Y-86508165D01*
X175313485Y-86649600D01*
X175313496Y-86649605D01*
X175574846Y-86757860D01*
X175848089Y-86831074D01*
X175848102Y-86831077D01*
X176128547Y-86867998D01*
X176128564Y-86868000D01*
X176411436Y-86868000D01*
X176411452Y-86867998D01*
X176691897Y-86831077D01*
X176691910Y-86831074D01*
X176965153Y-86757860D01*
X177226503Y-86649605D01*
X177226514Y-86649600D01*
X177471485Y-86508165D01*
X177471503Y-86508153D01*
X177609052Y-86402606D01*
X177609052Y-86402604D01*
X176888533Y-85682086D01*
X177019175Y-85587171D01*
X177147171Y-85459175D01*
X177242086Y-85328534D01*
X177962604Y-86049052D01*
X177962606Y-86049052D01*
X178068153Y-85911503D01*
X178068165Y-85911485D01*
X178209600Y-85666514D01*
X178209605Y-85666503D01*
X178317860Y-85405153D01*
X178391074Y-85131910D01*
X178391077Y-85131897D01*
X178427998Y-84851452D01*
X178428000Y-84851436D01*
X178428000Y-84568563D01*
X178427998Y-84568547D01*
X178391077Y-84288102D01*
X178391074Y-84288089D01*
X178317860Y-84014846D01*
X178209605Y-83753496D01*
X178209600Y-83753485D01*
X178068165Y-83508514D01*
X178068159Y-83508506D01*
X177962605Y-83370946D01*
X177962604Y-83370946D01*
X177242085Y-84091464D01*
X177147171Y-83960825D01*
X177019175Y-83832829D01*
X176888532Y-83737912D01*
X177609052Y-83017393D01*
X177471493Y-82911840D01*
X177471485Y-82911834D01*
X177226514Y-82770399D01*
X177226503Y-82770394D01*
X176965153Y-82662139D01*
X176691910Y-82588925D01*
X176691897Y-82588922D01*
X176411452Y-82552001D01*
X176411436Y-82552000D01*
X176128564Y-82552000D01*
X176128547Y-82552001D01*
X175848102Y-82588922D01*
X175848089Y-82588925D01*
X175574846Y-82662139D01*
X175313496Y-82770394D01*
X175313485Y-82770399D01*
X175068514Y-82911834D01*
X175068498Y-82911845D01*
X174930946Y-83017392D01*
X174930946Y-83017393D01*
X175651466Y-83737913D01*
X175520825Y-83832829D01*
X175392829Y-83960825D01*
X175297913Y-84091466D01*
X174577394Y-83370946D01*
X174535862Y-83373668D01*
X174530807Y-83372536D01*
X174525817Y-83373918D01*
X174497062Y-83364984D01*
X174467679Y-83358409D01*
X174462704Y-83354310D01*
X174459093Y-83353189D01*
X174448442Y-83342561D01*
X174432784Y-83329663D01*
X174428418Y-83324463D01*
X174371789Y-83239711D01*
X174281291Y-83149213D01*
X174281286Y-83149207D01*
X174260292Y-83128213D01*
X174260288Y-83128210D01*
X174129185Y-83040609D01*
X174129172Y-83040602D01*
X173983501Y-82980264D01*
X173983489Y-82980261D01*
X173828845Y-82949500D01*
X173828842Y-82949500D01*
X173671158Y-82949500D01*
X173671155Y-82949500D01*
X173516510Y-82980261D01*
X173516498Y-82980264D01*
X173370827Y-83040602D01*
X173370814Y-83040609D01*
X173239125Y-83128602D01*
X173172447Y-83149480D01*
X173170234Y-83149500D01*
X172760912Y-83149500D01*
X172693873Y-83129815D01*
X172648118Y-83077011D01*
X172638174Y-83007853D01*
X172655786Y-82965337D01*
X172653546Y-82964114D01*
X172657793Y-82956334D01*
X172657796Y-82956331D01*
X172708091Y-82821483D01*
X172714500Y-82761873D01*
X172714499Y-81238128D01*
X172708091Y-81178517D01*
X172685764Y-81118656D01*
X172657797Y-81043671D01*
X172657793Y-81043664D01*
X172571547Y-80928455D01*
X172571544Y-80928452D01*
X172456335Y-80842206D01*
X172456328Y-80842202D01*
X172321482Y-80791908D01*
X172321483Y-80791908D01*
X172261883Y-80785501D01*
X172261881Y-80785500D01*
X172261873Y-80785500D01*
X172261864Y-80785500D01*
X170738129Y-80785500D01*
X170738123Y-80785501D01*
X170678516Y-80791908D01*
X170543671Y-80842202D01*
X170543664Y-80842206D01*
X170428455Y-80928452D01*
X170428452Y-80928455D01*
X170342206Y-81043664D01*
X170342202Y-81043671D01*
X170291908Y-81178517D01*
X170288652Y-81208807D01*
X170285501Y-81238123D01*
X170285500Y-81238135D01*
X170285500Y-81331273D01*
X170265815Y-81398312D01*
X170213011Y-81444067D01*
X170143853Y-81454011D01*
X170080297Y-81424986D01*
X170051016Y-81387570D01*
X170038732Y-81363463D01*
X170026260Y-81346297D01*
X169926368Y-81208807D01*
X169791193Y-81073632D01*
X169636536Y-80961267D01*
X169466206Y-80874479D01*
X169284396Y-80815405D01*
X169284394Y-80815404D01*
X169284392Y-80815404D01*
X169095588Y-80785500D01*
X169095583Y-80785500D01*
X168904417Y-80785500D01*
X168904412Y-80785500D01*
X168715607Y-80815404D01*
X168533791Y-80874480D01*
X168363463Y-80961267D01*
X168275226Y-81025375D01*
X168208807Y-81073632D01*
X168208805Y-81073634D01*
X168208804Y-81073634D01*
X168073634Y-81208804D01*
X168073634Y-81208805D01*
X168073632Y-81208807D01*
X168052324Y-81238135D01*
X167961267Y-81363463D01*
X167874480Y-81533791D01*
X167815404Y-81715607D01*
X167785500Y-81904411D01*
X163444824Y-81904411D01*
X163537371Y-81811864D01*
X163985772Y-81363464D01*
X165712417Y-79636819D01*
X165773740Y-79603334D01*
X165800098Y-79600500D01*
X177249903Y-79600500D01*
X177279343Y-79609144D01*
X177309330Y-79615668D01*
X177314345Y-79619422D01*
X177316942Y-79620185D01*
X177337584Y-79636819D01*
X177438181Y-79737416D01*
X177471666Y-79798739D01*
X177474500Y-79825097D01*
X177474500Y-80700001D01*
X177474501Y-80700019D01*
X177485000Y-80802796D01*
X177485001Y-80802799D01*
X177526639Y-80928452D01*
X177540186Y-80969334D01*
X177632288Y-81118656D01*
X177756344Y-81242712D01*
X177905666Y-81334814D01*
X178072203Y-81389999D01*
X178174991Y-81400500D01*
X178925008Y-81400499D01*
X178925016Y-81400498D01*
X178925019Y-81400498D01*
X178981302Y-81394748D01*
X179027797Y-81389999D01*
X179194334Y-81334814D01*
X179343656Y-81242712D01*
X179467712Y-81118656D01*
X179559814Y-80969334D01*
X179614999Y-80802797D01*
X179625500Y-80700009D01*
X179625500Y-80699986D01*
X180425001Y-80699986D01*
X180435494Y-80802697D01*
X180490641Y-80969119D01*
X180490643Y-80969124D01*
X180582684Y-81118345D01*
X180706654Y-81242315D01*
X180855875Y-81334356D01*
X180855880Y-81334358D01*
X181022302Y-81389505D01*
X181022309Y-81389506D01*
X181125019Y-81399999D01*
X181249999Y-81399999D01*
X181750000Y-81399999D01*
X181874972Y-81399999D01*
X181874986Y-81399998D01*
X181977697Y-81389505D01*
X182144119Y-81334358D01*
X182144124Y-81334356D01*
X182293345Y-81242315D01*
X182417315Y-81118345D01*
X182509356Y-80969124D01*
X182509358Y-80969119D01*
X182564505Y-80802697D01*
X182564506Y-80802690D01*
X182574999Y-80699986D01*
X182575000Y-80699973D01*
X182575000Y-80250000D01*
X181750000Y-80250000D01*
X181750000Y-81399999D01*
X181249999Y-81399999D01*
X181250000Y-81399998D01*
X181250000Y-80250000D01*
X180425001Y-80250000D01*
X180425001Y-80699986D01*
X179625500Y-80699986D01*
X179625499Y-79970051D01*
X179625499Y-79300013D01*
X180425000Y-79300013D01*
X180425000Y-79750000D01*
X181250000Y-79750000D01*
X181750000Y-79750000D01*
X182574999Y-79750000D01*
X182574999Y-79362333D01*
X182899500Y-79362333D01*
X182899500Y-79637668D01*
X182899501Y-79637685D01*
X182935438Y-79910656D01*
X182935439Y-79910661D01*
X182935440Y-79910667D01*
X182963317Y-80014706D01*
X183006704Y-80176631D01*
X183112075Y-80431018D01*
X183112080Y-80431029D01*
X183191809Y-80569122D01*
X183249751Y-80669480D01*
X183249753Y-80669483D01*
X183249754Y-80669484D01*
X183417370Y-80887927D01*
X183417376Y-80887934D01*
X183612066Y-81082624D01*
X183612073Y-81082630D01*
X183659025Y-81118657D01*
X183830521Y-81250250D01*
X183976990Y-81334814D01*
X184068971Y-81387920D01*
X184068976Y-81387922D01*
X184068979Y-81387924D01*
X184323368Y-81493296D01*
X184589334Y-81564561D01*
X184862326Y-81600501D01*
X184862333Y-81600501D01*
X185137667Y-81600501D01*
X185137674Y-81600501D01*
X185410666Y-81564561D01*
X185676632Y-81493296D01*
X185931021Y-81387924D01*
X186169479Y-81250250D01*
X186387928Y-81082629D01*
X186582628Y-80887929D01*
X186750249Y-80669480D01*
X186887923Y-80431022D01*
X186993295Y-80176633D01*
X187064560Y-79910667D01*
X187100500Y-79637675D01*
X187100500Y-79362327D01*
X187064560Y-79089335D01*
X186993295Y-78823369D01*
X186887923Y-78568980D01*
X186887921Y-78568977D01*
X186887919Y-78568972D01*
X186828318Y-78465741D01*
X186750249Y-78330522D01*
X186582628Y-78112073D01*
X186582623Y-78112067D01*
X186387933Y-77917377D01*
X186387926Y-77917371D01*
X186169483Y-77749755D01*
X186169482Y-77749754D01*
X186169479Y-77749752D01*
X186074407Y-77694862D01*
X185931028Y-77612081D01*
X185931017Y-77612076D01*
X185676630Y-77506705D01*
X185543649Y-77471073D01*
X185410666Y-77435441D01*
X185410660Y-77435440D01*
X185410655Y-77435439D01*
X185137684Y-77399502D01*
X185137679Y-77399501D01*
X185137674Y-77399501D01*
X184862326Y-77399501D01*
X184862320Y-77399501D01*
X184862315Y-77399502D01*
X184589344Y-77435439D01*
X184589337Y-77435440D01*
X184589334Y-77435441D01*
X184533125Y-77450501D01*
X184323369Y-77506705D01*
X184068982Y-77612076D01*
X184068971Y-77612081D01*
X183830516Y-77749755D01*
X183612073Y-77917371D01*
X183612066Y-77917377D01*
X183417376Y-78112067D01*
X183417370Y-78112074D01*
X183249754Y-78330517D01*
X183112080Y-78568972D01*
X183112075Y-78568983D01*
X183006704Y-78823370D01*
X182935441Y-79089332D01*
X182935438Y-79089345D01*
X182899501Y-79362316D01*
X182899500Y-79362333D01*
X182574999Y-79362333D01*
X182574999Y-79300028D01*
X182574998Y-79300013D01*
X182564505Y-79197302D01*
X182509358Y-79030880D01*
X182509356Y-79030875D01*
X182417315Y-78881654D01*
X182293345Y-78757684D01*
X182144124Y-78665643D01*
X182144119Y-78665641D01*
X181977697Y-78610494D01*
X181977690Y-78610493D01*
X181874986Y-78600000D01*
X181750000Y-78600000D01*
X181750000Y-79750000D01*
X181250000Y-79750000D01*
X181250000Y-78600000D01*
X181125027Y-78600000D01*
X181125012Y-78600001D01*
X181022302Y-78610494D01*
X180855880Y-78665641D01*
X180855875Y-78665643D01*
X180706654Y-78757684D01*
X180582684Y-78881654D01*
X180490643Y-79030875D01*
X180490641Y-79030880D01*
X180435494Y-79197302D01*
X180435493Y-79197309D01*
X180425000Y-79300013D01*
X179625499Y-79300013D01*
X179625499Y-79299998D01*
X179625498Y-79299981D01*
X179614999Y-79197203D01*
X179614998Y-79197200D01*
X179560949Y-79034092D01*
X179559814Y-79030666D01*
X179467712Y-78881344D01*
X179343656Y-78757288D01*
X179228295Y-78686133D01*
X179194336Y-78665187D01*
X179194331Y-78665185D01*
X179190559Y-78663935D01*
X179027797Y-78610001D01*
X179027795Y-78610000D01*
X178925010Y-78599500D01*
X178174998Y-78599500D01*
X178174980Y-78599501D01*
X178073690Y-78609849D01*
X178004998Y-78597079D01*
X177987021Y-78585939D01*
X177979787Y-78580551D01*
X177918716Y-78519480D01*
X177831904Y-78469360D01*
X177815543Y-78459914D01*
X177781785Y-78440423D01*
X177629057Y-78399499D01*
X177470943Y-78399499D01*
X177463347Y-78399499D01*
X177463331Y-78399500D01*
X165586670Y-78399500D01*
X165586654Y-78399499D01*
X165579058Y-78399499D01*
X165420943Y-78399499D01*
X165344579Y-78419961D01*
X165268214Y-78440423D01*
X165268209Y-78440426D01*
X165131290Y-78519475D01*
X165131282Y-78519481D01*
X161712181Y-81938583D01*
X161650858Y-81972068D01*
X161581166Y-81967084D01*
X161525233Y-81925212D01*
X161500816Y-81859748D01*
X161500500Y-81850902D01*
X161500500Y-76624501D01*
X161520185Y-76557462D01*
X161572989Y-76511707D01*
X161624500Y-76500501D01*
X185934109Y-76500501D01*
X185995934Y-76500501D01*
X186004044Y-76500766D01*
X186252894Y-76517076D01*
X186268953Y-76519191D01*
X186509552Y-76567050D01*
X186525195Y-76571242D01*
X186757478Y-76650091D01*
X186772462Y-76656297D01*
X186992464Y-76764791D01*
X187006510Y-76772901D01*
X187210457Y-76909173D01*
X187223326Y-76919047D01*
X187407749Y-77080783D01*
X187419218Y-77092252D01*
X187580951Y-77276672D01*
X187590825Y-77289541D01*
X187727102Y-77493495D01*
X187735212Y-77507541D01*
X187843703Y-77727538D01*
X187849908Y-77742520D01*
X187849910Y-77742524D01*
X187928755Y-77974796D01*
X187932953Y-77990463D01*
X187980806Y-78231037D01*
X187982923Y-78247118D01*
X187999234Y-78495971D01*
X187999500Y-78504081D01*
X187999500Y-100487155D01*
X187979815Y-100554194D01*
X187927011Y-100599949D01*
X187857853Y-100609893D01*
X187794297Y-100580868D01*
X187764617Y-100536390D01*
X187762408Y-100537421D01*
X187759356Y-100530875D01*
X187667315Y-100381654D01*
X187543345Y-100257684D01*
X187394124Y-100165643D01*
X187394119Y-100165641D01*
X187227697Y-100110494D01*
X187227690Y-100110493D01*
X187124986Y-100100000D01*
X187000000Y-100100000D01*
X187000000Y-102899999D01*
X187124972Y-102899999D01*
X187124986Y-102899998D01*
X187227697Y-102889505D01*
X187394119Y-102834358D01*
X187394124Y-102834356D01*
X187543345Y-102742315D01*
X187667315Y-102618345D01*
X187759356Y-102469124D01*
X187762408Y-102462579D01*
X187764815Y-102463701D01*
X187797561Y-102416400D01*
X187862076Y-102389573D01*
X187930852Y-102401884D01*
X187982055Y-102449424D01*
X187999500Y-102512844D01*
X187999500Y-126495934D01*
X187999235Y-126504044D01*
X187982925Y-126752884D01*
X187980807Y-126768966D01*
X187932954Y-127009536D01*
X187928756Y-127025202D01*
X187849909Y-127257479D01*
X187843702Y-127272465D01*
X187735212Y-127492460D01*
X187727102Y-127506506D01*
X187590825Y-127710460D01*
X187580951Y-127723329D01*
X187419218Y-127907749D01*
X187407749Y-127919218D01*
X187223328Y-128080951D01*
X187210460Y-128090825D01*
X187006507Y-128227102D01*
X186992460Y-128235212D01*
X186772464Y-128343702D01*
X186757478Y-128349909D01*
X186525202Y-128428756D01*
X186509535Y-128432954D01*
X186268964Y-128480807D01*
X186252883Y-128482924D01*
X186004030Y-128499235D01*
X185995920Y-128499501D01*
X138004067Y-128499501D01*
X137995957Y-128499236D01*
X137747116Y-128482926D01*
X137731035Y-128480808D01*
X137490464Y-128432955D01*
X137474797Y-128428757D01*
X137242520Y-128349910D01*
X137227534Y-128343703D01*
X137007539Y-128235213D01*
X136993493Y-128227103D01*
X136789539Y-128090826D01*
X136776670Y-128080952D01*
X136592250Y-127919219D01*
X136580781Y-127907750D01*
X136419047Y-127723329D01*
X136409173Y-127710460D01*
X136272897Y-127506507D01*
X136264787Y-127492461D01*
X136158855Y-127277653D01*
X136156294Y-127272461D01*
X136150088Y-127257476D01*
X136090736Y-127082630D01*
X136071241Y-127025199D01*
X136067047Y-127009549D01*
X136019189Y-126768951D01*
X136017074Y-126752896D01*
X136000765Y-126504059D01*
X136000500Y-126495949D01*
X136000500Y-106655513D01*
X136799500Y-106655513D01*
X136799500Y-106844486D01*
X136829059Y-107031118D01*
X136887454Y-107210836D01*
X136950660Y-107334883D01*
X136973240Y-107379199D01*
X137084310Y-107532073D01*
X137217927Y-107665690D01*
X137370801Y-107776760D01*
X137450347Y-107817290D01*
X137539163Y-107862545D01*
X137539165Y-107862545D01*
X137539168Y-107862547D01*
X137625644Y-107890645D01*
X137718881Y-107920940D01*
X137905514Y-107950500D01*
X137905519Y-107950500D01*
X138094486Y-107950500D01*
X138281118Y-107920940D01*
X138315631Y-107909726D01*
X138460832Y-107862547D01*
X138629199Y-107776760D01*
X138782073Y-107665690D01*
X138915690Y-107532073D01*
X139026760Y-107379199D01*
X139112547Y-107210832D01*
X139170940Y-107031118D01*
X139173528Y-107014779D01*
X139200500Y-106844486D01*
X139200500Y-106655513D01*
X139170940Y-106468881D01*
X139143846Y-106385497D01*
X139112547Y-106289168D01*
X139112545Y-106289165D01*
X139112545Y-106289163D01*
X139050393Y-106167184D01*
X139026760Y-106120801D01*
X138915690Y-105967927D01*
X138782073Y-105834310D01*
X138629199Y-105723240D01*
X138460836Y-105637454D01*
X138281118Y-105579059D01*
X138094486Y-105549500D01*
X138094481Y-105549500D01*
X137905519Y-105549500D01*
X137905514Y-105549500D01*
X137718881Y-105579059D01*
X137539163Y-105637454D01*
X137370800Y-105723240D01*
X137312663Y-105765480D01*
X137217927Y-105834310D01*
X137217925Y-105834312D01*
X137217924Y-105834312D01*
X137084312Y-105967924D01*
X137084312Y-105967925D01*
X137084310Y-105967927D01*
X137083288Y-105969334D01*
X136973240Y-106120800D01*
X136887454Y-106289163D01*
X136829059Y-106468881D01*
X136799500Y-106655513D01*
X136000500Y-106655513D01*
X136000500Y-94449986D01*
X136975001Y-94449986D01*
X136985494Y-94552697D01*
X137040641Y-94719119D01*
X137040643Y-94719124D01*
X137132684Y-94868345D01*
X137256654Y-94992315D01*
X137405875Y-95084356D01*
X137405880Y-95084358D01*
X137572302Y-95139505D01*
X137572309Y-95139506D01*
X137675019Y-95149999D01*
X137799999Y-95149999D01*
X138300000Y-95149999D01*
X138424972Y-95149999D01*
X138424986Y-95149998D01*
X138527697Y-95139505D01*
X138694119Y-95084358D01*
X138694124Y-95084356D01*
X138843345Y-94992315D01*
X138967315Y-94868345D01*
X139059356Y-94719124D01*
X139059358Y-94719119D01*
X139114505Y-94552697D01*
X139114506Y-94552690D01*
X139124999Y-94449986D01*
X139125000Y-94449973D01*
X139125000Y-94000000D01*
X138300000Y-94000000D01*
X138300000Y-95149999D01*
X137799999Y-95149999D01*
X137800000Y-95149998D01*
X137800000Y-94000000D01*
X136975001Y-94000000D01*
X136975001Y-94449986D01*
X136000500Y-94449986D01*
X136000500Y-93050013D01*
X136975000Y-93050013D01*
X136975000Y-93500000D01*
X137800000Y-93500000D01*
X138300000Y-93500000D01*
X139124999Y-93500000D01*
X139124999Y-93050028D01*
X139124998Y-93050013D01*
X139114505Y-92947302D01*
X139059358Y-92780880D01*
X139059356Y-92780875D01*
X138967315Y-92631654D01*
X138843345Y-92507684D01*
X138694124Y-92415643D01*
X138694119Y-92415641D01*
X138527697Y-92360494D01*
X138527690Y-92360493D01*
X138424986Y-92350000D01*
X138300000Y-92350000D01*
X138300000Y-93500000D01*
X137800000Y-93500000D01*
X137800000Y-92350000D01*
X137675027Y-92350000D01*
X137675012Y-92350001D01*
X137572302Y-92360494D01*
X137405880Y-92415641D01*
X137405875Y-92415643D01*
X137256654Y-92507684D01*
X137132684Y-92631654D01*
X137040643Y-92780875D01*
X137040641Y-92780880D01*
X136985494Y-92947302D01*
X136985493Y-92947309D01*
X136975000Y-93050013D01*
X136000500Y-93050013D01*
X136000500Y-90679152D01*
X137587501Y-90679152D01*
X137597556Y-90777583D01*
X137650406Y-90937072D01*
X137650408Y-90937077D01*
X137738614Y-91080080D01*
X137857419Y-91198885D01*
X138000422Y-91287091D01*
X138000427Y-91287093D01*
X138159916Y-91339942D01*
X138258356Y-91349999D01*
X138775000Y-91349999D01*
X138791636Y-91349999D01*
X138791652Y-91349998D01*
X138890083Y-91339943D01*
X139049572Y-91287093D01*
X139049577Y-91287091D01*
X139192580Y-91198885D01*
X139311385Y-91080080D01*
X139399591Y-90937077D01*
X139399593Y-90937072D01*
X139452442Y-90777583D01*
X139462499Y-90679150D01*
X139462500Y-90679137D01*
X139462500Y-90500000D01*
X138775000Y-90500000D01*
X138775000Y-91349999D01*
X138258356Y-91349999D01*
X138275000Y-91349998D01*
X138275000Y-90500000D01*
X137587501Y-90500000D01*
X137587501Y-90679152D01*
X136000500Y-90679152D01*
X136000500Y-89820849D01*
X137587500Y-89820849D01*
X137587500Y-90000000D01*
X138275000Y-90000000D01*
X138775000Y-90000000D01*
X139462499Y-90000000D01*
X139462499Y-89820864D01*
X139462498Y-89820847D01*
X139452443Y-89722416D01*
X139399593Y-89562927D01*
X139399591Y-89562922D01*
X139311385Y-89419919D01*
X139192580Y-89301114D01*
X139049577Y-89212908D01*
X139049572Y-89212906D01*
X138890083Y-89160057D01*
X138791650Y-89150000D01*
X138775000Y-89150000D01*
X138775000Y-90000000D01*
X138275000Y-90000000D01*
X138275000Y-89149999D01*
X138258356Y-89150000D01*
X138159915Y-89160057D01*
X138000427Y-89212906D01*
X138000422Y-89212908D01*
X137857419Y-89301114D01*
X137738614Y-89419919D01*
X137650408Y-89562922D01*
X137650406Y-89562927D01*
X137597557Y-89722416D01*
X137587500Y-89820849D01*
X136000500Y-89820849D01*
X136000500Y-79362333D01*
X136899500Y-79362333D01*
X136899500Y-79637668D01*
X136899501Y-79637685D01*
X136935438Y-79910656D01*
X136935439Y-79910661D01*
X136935440Y-79910667D01*
X136963317Y-80014706D01*
X137006704Y-80176631D01*
X137112075Y-80431018D01*
X137112080Y-80431029D01*
X137191809Y-80569122D01*
X137249751Y-80669480D01*
X137249753Y-80669483D01*
X137249754Y-80669484D01*
X137417370Y-80887927D01*
X137417376Y-80887934D01*
X137612066Y-81082624D01*
X137612073Y-81082630D01*
X137659025Y-81118657D01*
X137830521Y-81250250D01*
X137976990Y-81334814D01*
X138068971Y-81387920D01*
X138068976Y-81387922D01*
X138068979Y-81387924D01*
X138323368Y-81493296D01*
X138589334Y-81564561D01*
X138862326Y-81600501D01*
X138862333Y-81600501D01*
X139137667Y-81600501D01*
X139137674Y-81600501D01*
X139410666Y-81564561D01*
X139676632Y-81493296D01*
X139931021Y-81387924D01*
X140169479Y-81250250D01*
X140387928Y-81082629D01*
X140582628Y-80887929D01*
X140750249Y-80669480D01*
X140887923Y-80431022D01*
X140993295Y-80176633D01*
X141064560Y-79910667D01*
X141100500Y-79637675D01*
X141100500Y-79362327D01*
X141064560Y-79089335D01*
X140993295Y-78823369D01*
X140887923Y-78568980D01*
X140887921Y-78568977D01*
X140887919Y-78568972D01*
X140828318Y-78465741D01*
X140750249Y-78330522D01*
X140582628Y-78112073D01*
X140582623Y-78112067D01*
X140387933Y-77917377D01*
X140387926Y-77917371D01*
X140169483Y-77749755D01*
X140169482Y-77749754D01*
X140169479Y-77749752D01*
X140074407Y-77694862D01*
X139931028Y-77612081D01*
X139931017Y-77612076D01*
X139676630Y-77506705D01*
X139543649Y-77471073D01*
X139410666Y-77435441D01*
X139410660Y-77435440D01*
X139410655Y-77435439D01*
X139137684Y-77399502D01*
X139137679Y-77399501D01*
X139137674Y-77399501D01*
X138862326Y-77399501D01*
X138862320Y-77399501D01*
X138862315Y-77399502D01*
X138589344Y-77435439D01*
X138589337Y-77435440D01*
X138589334Y-77435441D01*
X138533125Y-77450501D01*
X138323369Y-77506705D01*
X138068982Y-77612076D01*
X138068971Y-77612081D01*
X137830516Y-77749755D01*
X137612073Y-77917371D01*
X137612066Y-77917377D01*
X137417376Y-78112067D01*
X137417370Y-78112074D01*
X137249754Y-78330517D01*
X137112080Y-78568972D01*
X137112075Y-78568983D01*
X137006704Y-78823370D01*
X136935441Y-79089332D01*
X136935438Y-79089345D01*
X136899501Y-79362316D01*
X136899500Y-79362333D01*
X136000500Y-79362333D01*
X136000500Y-78504066D01*
X136000765Y-78495956D01*
X136003127Y-78459914D01*
X136017075Y-78247102D01*
X136019190Y-78231048D01*
X136067045Y-77990462D01*
X136071243Y-77974797D01*
X136094337Y-77906762D01*
X136150093Y-77742512D01*
X136156291Y-77727547D01*
X136264790Y-77507533D01*
X136272893Y-77493498D01*
X136409182Y-77289527D01*
X136419039Y-77276681D01*
X136580786Y-77092244D01*
X136592244Y-77080786D01*
X136776681Y-76919039D01*
X136789527Y-76909182D01*
X136993498Y-76772893D01*
X137007533Y-76764790D01*
X137227547Y-76656291D01*
X137242512Y-76650093D01*
X137469650Y-76572990D01*
X137474797Y-76571243D01*
X137490464Y-76567045D01*
X137731048Y-76519190D01*
X137747102Y-76517075D01*
X137995942Y-76500766D01*
X138004052Y-76500501D01*
X138065892Y-76500501D01*
X141375500Y-76500501D01*
X141442539Y-76520186D01*
G37*
%TD.AperFunction*%
%TA.AperFunction,Conductor*%
G36*
X168329607Y-98931465D02*
G01*
X168346030Y-98945265D01*
X168900681Y-99499916D01*
X168934166Y-99561239D01*
X168937000Y-99587597D01*
X168937000Y-100425001D01*
X168937001Y-100425019D01*
X168947500Y-100527796D01*
X168947501Y-100527799D01*
X169002685Y-100694331D01*
X169002687Y-100694336D01*
X169011975Y-100709394D01*
X169094788Y-100843656D01*
X169218844Y-100967712D01*
X169368166Y-101059814D01*
X169534703Y-101114999D01*
X169637491Y-101125500D01*
X170025500Y-101125499D01*
X170092539Y-101145183D01*
X170138294Y-101197987D01*
X170149500Y-101249499D01*
X170149500Y-102163330D01*
X170149499Y-102163348D01*
X170149499Y-102329054D01*
X170149498Y-102329054D01*
X170149499Y-102329057D01*
X170190423Y-102481785D01*
X170219290Y-102531784D01*
X170219290Y-102531785D01*
X170269475Y-102618709D01*
X170269481Y-102618717D01*
X170388349Y-102737585D01*
X170388355Y-102737590D01*
X171113181Y-103462416D01*
X171127884Y-103489343D01*
X171144477Y-103515162D01*
X171145368Y-103521362D01*
X171146666Y-103523739D01*
X171149500Y-103550097D01*
X171149500Y-103569551D01*
X171129815Y-103636590D01*
X171077011Y-103682345D01*
X171064507Y-103687256D01*
X171055667Y-103690185D01*
X170906342Y-103782289D01*
X170782289Y-103906342D01*
X170690187Y-104055663D01*
X170690185Y-104055668D01*
X170662349Y-104139670D01*
X170635001Y-104222203D01*
X170635001Y-104222204D01*
X170635000Y-104222204D01*
X170624500Y-104324983D01*
X170624500Y-105675001D01*
X170624501Y-105675018D01*
X170635000Y-105777796D01*
X170635001Y-105777799D01*
X170690185Y-105944331D01*
X170690187Y-105944336D01*
X170705606Y-105969334D01*
X170782288Y-106093656D01*
X170906344Y-106217712D01*
X171055666Y-106309814D01*
X171222203Y-106364999D01*
X171324991Y-106375500D01*
X172175008Y-106375499D01*
X172175016Y-106375498D01*
X172175019Y-106375498D01*
X172261037Y-106366711D01*
X172277797Y-106364999D01*
X172444334Y-106309814D01*
X172593656Y-106217712D01*
X172717712Y-106093656D01*
X172809814Y-105944334D01*
X172864999Y-105777797D01*
X172875500Y-105675009D01*
X172875499Y-104324992D01*
X172864999Y-104222203D01*
X172809814Y-104055666D01*
X172717712Y-103906344D01*
X172593656Y-103782288D01*
X172444334Y-103690186D01*
X172444333Y-103690185D01*
X172444332Y-103690185D01*
X172435493Y-103687256D01*
X172415461Y-103673385D01*
X172393297Y-103663264D01*
X172387247Y-103653851D01*
X172378049Y-103647482D01*
X172368696Y-103624983D01*
X172355523Y-103604486D01*
X172353063Y-103587380D01*
X172351228Y-103582965D01*
X172350500Y-103569551D01*
X172350500Y-103339060D01*
X172350501Y-103339047D01*
X172350501Y-103170944D01*
X172350501Y-103170943D01*
X172309577Y-103018216D01*
X172305000Y-103010289D01*
X172230524Y-102881290D01*
X172230518Y-102881282D01*
X171386819Y-102037583D01*
X171353334Y-101976260D01*
X171350500Y-101949902D01*
X171350500Y-101636555D01*
X171370185Y-101569516D01*
X171422989Y-101523761D01*
X171492147Y-101513817D01*
X171499538Y-101515109D01*
X171511069Y-101517486D01*
X171516503Y-101519737D01*
X171671158Y-101550500D01*
X171671197Y-101550500D01*
X171672696Y-101550809D01*
X171703222Y-101567049D01*
X171733760Y-101583023D01*
X171734364Y-101583616D01*
X171734380Y-101583625D01*
X171734388Y-101583640D01*
X171735339Y-101584574D01*
X173673680Y-103522915D01*
X173707165Y-103584238D01*
X173702181Y-103653930D01*
X173660309Y-103709863D01*
X173651096Y-103716135D01*
X173543842Y-103782289D01*
X173419789Y-103906342D01*
X173327687Y-104055663D01*
X173327685Y-104055668D01*
X173299849Y-104139670D01*
X173272501Y-104222203D01*
X173272501Y-104222204D01*
X173272500Y-104222204D01*
X173262000Y-104324983D01*
X173262000Y-105675001D01*
X173262001Y-105675018D01*
X173272500Y-105777796D01*
X173272501Y-105777799D01*
X173327685Y-105944331D01*
X173327687Y-105944336D01*
X173343106Y-105969334D01*
X173419788Y-106093656D01*
X173543844Y-106217712D01*
X173693166Y-106309814D01*
X173859703Y-106364999D01*
X173962491Y-106375500D01*
X174687508Y-106375499D01*
X174687516Y-106375498D01*
X174687519Y-106375498D01*
X174773537Y-106366711D01*
X174790297Y-106364999D01*
X174956834Y-106309814D01*
X175106156Y-106217712D01*
X175230212Y-106093656D01*
X175322314Y-105944334D01*
X175377499Y-105777797D01*
X175388000Y-105675009D01*
X175387999Y-104324992D01*
X175377499Y-104222203D01*
X175322314Y-104055666D01*
X175312401Y-104039595D01*
X175293962Y-103972205D01*
X175314884Y-103905541D01*
X175368526Y-103860771D01*
X175417941Y-103850500D01*
X176157059Y-103850500D01*
X176224098Y-103870185D01*
X176269853Y-103922989D01*
X176279797Y-103992147D01*
X176262598Y-104039594D01*
X176258417Y-104046373D01*
X176252687Y-104055663D01*
X176252685Y-104055668D01*
X176224849Y-104139670D01*
X176197501Y-104222203D01*
X176197501Y-104222204D01*
X176197500Y-104222204D01*
X176187000Y-104324983D01*
X176187000Y-105675001D01*
X176187001Y-105675018D01*
X176197500Y-105777796D01*
X176197501Y-105777799D01*
X176252685Y-105944331D01*
X176252687Y-105944336D01*
X176268106Y-105969334D01*
X176344596Y-106093345D01*
X176344789Y-106093657D01*
X176363267Y-106112135D01*
X176396752Y-106173458D01*
X176391768Y-106243150D01*
X176363267Y-106287497D01*
X175787584Y-106863181D01*
X175726261Y-106896666D01*
X175699903Y-106899500D01*
X169579766Y-106899500D01*
X169512727Y-106879815D01*
X169510875Y-106878602D01*
X169379185Y-106790609D01*
X169379172Y-106790602D01*
X169233501Y-106730264D01*
X169233489Y-106730261D01*
X169078845Y-106699500D01*
X169078842Y-106699500D01*
X168921158Y-106699500D01*
X168921155Y-106699500D01*
X168766510Y-106730261D01*
X168766498Y-106730264D01*
X168620827Y-106790602D01*
X168620814Y-106790609D01*
X168489711Y-106878210D01*
X168489707Y-106878213D01*
X168378213Y-106989707D01*
X168378210Y-106989711D01*
X168327602Y-107065451D01*
X168273989Y-107110256D01*
X168204664Y-107118963D01*
X168141637Y-107088808D01*
X168104918Y-107029365D01*
X168100500Y-106996560D01*
X168100500Y-106429590D01*
X168120185Y-106362551D01*
X168172989Y-106316796D01*
X168242147Y-106306852D01*
X168263504Y-106311884D01*
X168422302Y-106364505D01*
X168422309Y-106364506D01*
X168525019Y-106374999D01*
X168699999Y-106374999D01*
X169200000Y-106374999D01*
X169374972Y-106374999D01*
X169374986Y-106374998D01*
X169477697Y-106364505D01*
X169644119Y-106309358D01*
X169644124Y-106309356D01*
X169793345Y-106217315D01*
X169917315Y-106093345D01*
X170009356Y-105944124D01*
X170009358Y-105944119D01*
X170064505Y-105777697D01*
X170064506Y-105777690D01*
X170074999Y-105674986D01*
X170075000Y-105674973D01*
X170075000Y-105250000D01*
X169200000Y-105250000D01*
X169200000Y-106374999D01*
X168699999Y-106374999D01*
X168700000Y-106374998D01*
X168700000Y-104750000D01*
X169200000Y-104750000D01*
X170074999Y-104750000D01*
X170074999Y-104325028D01*
X170074998Y-104325013D01*
X170064505Y-104222302D01*
X170009358Y-104055880D01*
X170009356Y-104055875D01*
X169917315Y-103906654D01*
X169793345Y-103782684D01*
X169644124Y-103690643D01*
X169644119Y-103690641D01*
X169477697Y-103635494D01*
X169477690Y-103635493D01*
X169374986Y-103625000D01*
X169200000Y-103625000D01*
X169200000Y-104750000D01*
X168700000Y-104750000D01*
X168700000Y-103625000D01*
X168525029Y-103625000D01*
X168525012Y-103625001D01*
X168422302Y-103635494D01*
X168263504Y-103688115D01*
X168193676Y-103690517D01*
X168133634Y-103654785D01*
X168102441Y-103592265D01*
X168100500Y-103570409D01*
X168100500Y-102839060D01*
X168100501Y-102839047D01*
X168100501Y-102670944D01*
X168100501Y-102670943D01*
X168059577Y-102518216D01*
X168043064Y-102489614D01*
X167980524Y-102381290D01*
X167980518Y-102381282D01*
X167711819Y-102112583D01*
X167678334Y-102051260D01*
X167675500Y-102024902D01*
X167675500Y-101148347D01*
X167695185Y-101081308D01*
X167734401Y-101042810D01*
X167856156Y-100967712D01*
X167980212Y-100843656D01*
X168072314Y-100694334D01*
X168127499Y-100527797D01*
X168138000Y-100425009D01*
X168137999Y-99074992D01*
X168134991Y-99045547D01*
X168147760Y-98976856D01*
X168195640Y-98925971D01*
X168263430Y-98909050D01*
X168329607Y-98931465D01*
G37*
%TD.AperFunction*%
%TA.AperFunction,Conductor*%
G36*
X157903611Y-104667847D02*
G01*
X158113181Y-104877417D01*
X158127884Y-104904344D01*
X158144477Y-104930163D01*
X158145368Y-104936362D01*
X158146666Y-104938740D01*
X158149500Y-104965098D01*
X158149500Y-105075500D01*
X158129815Y-105142539D01*
X158077011Y-105188294D01*
X158025500Y-105199500D01*
X157921153Y-105199500D01*
X157779850Y-105227607D01*
X157710258Y-105221380D01*
X157655081Y-105178517D01*
X157650943Y-105172402D01*
X157596669Y-105086825D01*
X157588401Y-105058031D01*
X157577758Y-105030027D01*
X157578860Y-105024801D01*
X157577387Y-105019669D01*
X157585999Y-104990976D01*
X157592186Y-104961663D01*
X157597087Y-104954035D01*
X157597474Y-104952749D01*
X157598453Y-104951910D01*
X157602574Y-104945498D01*
X157635490Y-104902092D01*
X157690057Y-104763718D01*
X157692816Y-104740741D01*
X157720350Y-104676532D01*
X157778231Y-104637398D01*
X157848082Y-104635769D01*
X157903611Y-104667847D01*
G37*
%TD.AperFunction*%
%TA.AperFunction,Conductor*%
G36*
X182317941Y-88370185D02*
G01*
X182363696Y-88422989D01*
X182373640Y-88492147D01*
X182344615Y-88555703D01*
X182338583Y-88562181D01*
X182224518Y-88676245D01*
X182224516Y-88676247D01*
X182219480Y-88681284D01*
X182169360Y-88768095D01*
X182168849Y-88768978D01*
X182168816Y-88769035D01*
X182140425Y-88818209D01*
X182140424Y-88818210D01*
X182125341Y-88874500D01*
X182099499Y-88970943D01*
X182099499Y-88970945D01*
X182099499Y-89139046D01*
X182099500Y-89139059D01*
X182099500Y-89433084D01*
X182079815Y-89500123D01*
X182027011Y-89545878D01*
X182022887Y-89547574D01*
X181850707Y-89632967D01*
X181850704Y-89632969D01*
X181702280Y-89752276D01*
X181702278Y-89752278D01*
X181688451Y-89769480D01*
X181646326Y-89821885D01*
X181588982Y-89861803D01*
X181519160Y-89864383D01*
X181459027Y-89828804D01*
X181453031Y-89821884D01*
X181397364Y-89752630D01*
X181249025Y-89633392D01*
X181249022Y-89633390D01*
X181078523Y-89548831D01*
X180893824Y-89502897D01*
X180851097Y-89500000D01*
X180650000Y-89500000D01*
X180650000Y-92500000D01*
X180851097Y-92500000D01*
X180893824Y-92497102D01*
X181078523Y-92451168D01*
X181249022Y-92366609D01*
X181249025Y-92366607D01*
X181397366Y-92247367D01*
X181397367Y-92247366D01*
X181453033Y-92178115D01*
X181510376Y-92138196D01*
X181580198Y-92135616D01*
X181640331Y-92171194D01*
X181646305Y-92178089D01*
X181702278Y-92247722D01*
X181702280Y-92247724D01*
X181842572Y-92360493D01*
X181850704Y-92367030D01*
X181952095Y-92417315D01*
X182003407Y-92464734D01*
X182020937Y-92532369D01*
X181999117Y-92598744D01*
X181984681Y-92616083D01*
X179737584Y-94863181D01*
X179676261Y-94896666D01*
X179649903Y-94899500D01*
X178427379Y-94899500D01*
X178360340Y-94879815D01*
X178314585Y-94827011D01*
X178304021Y-94762897D01*
X178304287Y-94760292D01*
X178313000Y-94675009D01*
X178312999Y-93324992D01*
X178302499Y-93222203D01*
X178247314Y-93055666D01*
X178155212Y-92906344D01*
X178031156Y-92782288D01*
X177901957Y-92702598D01*
X177881836Y-92690187D01*
X177881835Y-92690186D01*
X177881834Y-92690186D01*
X177771517Y-92653630D01*
X177760418Y-92646784D01*
X177751097Y-92644757D01*
X177722844Y-92623608D01*
X177618716Y-92519480D01*
X177618713Y-92519478D01*
X176834574Y-91735339D01*
X176815876Y-91701096D01*
X179150000Y-91701096D01*
X179152897Y-91743824D01*
X179198831Y-91928523D01*
X179283390Y-92099022D01*
X179283392Y-92099025D01*
X179402632Y-92247366D01*
X179402633Y-92247367D01*
X179550974Y-92366607D01*
X179550977Y-92366609D01*
X179721476Y-92451168D01*
X179906175Y-92497102D01*
X179948903Y-92500000D01*
X180150000Y-92500000D01*
X180150000Y-91250000D01*
X179150000Y-91250000D01*
X179150000Y-91701096D01*
X176815876Y-91701096D01*
X176801089Y-91674016D01*
X176800638Y-91671849D01*
X176778352Y-91559812D01*
X176769737Y-91516503D01*
X176760553Y-91494330D01*
X176709397Y-91370827D01*
X176709395Y-91370823D01*
X176709394Y-91370821D01*
X176632541Y-91255803D01*
X176611666Y-91189126D01*
X176630152Y-91121747D01*
X176682132Y-91075058D01*
X176703551Y-91067142D01*
X176731785Y-91059577D01*
X176765998Y-91039824D01*
X176786828Y-91027798D01*
X176786829Y-91027797D01*
X176868716Y-90980520D01*
X176980520Y-90868716D01*
X176980520Y-90868714D01*
X176990724Y-90858511D01*
X176990727Y-90858506D01*
X177550330Y-90298903D01*
X179150000Y-90298903D01*
X179150000Y-90750000D01*
X180150000Y-90750000D01*
X180150000Y-89500000D01*
X179948903Y-89500000D01*
X179906175Y-89502897D01*
X179721476Y-89548831D01*
X179550977Y-89633390D01*
X179550974Y-89633392D01*
X179402633Y-89752632D01*
X179402632Y-89752633D01*
X179283392Y-89900974D01*
X179283390Y-89900977D01*
X179198831Y-90071476D01*
X179152897Y-90256175D01*
X179150000Y-90298903D01*
X177550330Y-90298903D01*
X179462416Y-88386819D01*
X179523739Y-88353334D01*
X179550097Y-88350500D01*
X182250902Y-88350500D01*
X182317941Y-88370185D01*
G37*
%TD.AperFunction*%
%TA.AperFunction,Conductor*%
G36*
X152205039Y-89694185D02*
G01*
X152250794Y-89746989D01*
X152262000Y-89798500D01*
X152262000Y-90781093D01*
X152242315Y-90848132D01*
X152189511Y-90893887D01*
X152120353Y-90903831D01*
X152062513Y-90879469D01*
X151974334Y-90811806D01*
X151775668Y-90697106D01*
X151775659Y-90697102D01*
X151563730Y-90609318D01*
X151342137Y-90549942D01*
X151114710Y-90520001D01*
X151114694Y-90520000D01*
X150885306Y-90520000D01*
X150885289Y-90520001D01*
X150657862Y-90549942D01*
X150436269Y-90609318D01*
X150224340Y-90697102D01*
X150224330Y-90697106D01*
X150025673Y-90811801D01*
X150025659Y-90811810D01*
X149951934Y-90868380D01*
X149951934Y-90868381D01*
X150675974Y-91592421D01*
X150644742Y-91605359D01*
X150521903Y-91687437D01*
X150417437Y-91791903D01*
X150335359Y-91914742D01*
X150322421Y-91945974D01*
X149598381Y-91221934D01*
X149598380Y-91221934D01*
X149541810Y-91295659D01*
X149541801Y-91295673D01*
X149427106Y-91494330D01*
X149427102Y-91494340D01*
X149339318Y-91706269D01*
X149279942Y-91927862D01*
X149250001Y-92155289D01*
X149250000Y-92155305D01*
X149250000Y-92384694D01*
X149250001Y-92384710D01*
X149279942Y-92612139D01*
X149311303Y-92729179D01*
X149309640Y-92799029D01*
X149270477Y-92856891D01*
X149260422Y-92864372D01*
X149239709Y-92878212D01*
X149239704Y-92878217D01*
X149128213Y-92989707D01*
X149128210Y-92989711D01*
X149040609Y-93120814D01*
X149040602Y-93120827D01*
X148980264Y-93266498D01*
X148980261Y-93266508D01*
X148960961Y-93363536D01*
X148928576Y-93425447D01*
X148867860Y-93460021D01*
X148863536Y-93460961D01*
X148766508Y-93480261D01*
X148766498Y-93480264D01*
X148620827Y-93540602D01*
X148620814Y-93540609D01*
X148493391Y-93625751D01*
X148426713Y-93646629D01*
X148359333Y-93628144D01*
X148312643Y-93576165D01*
X148300500Y-93522649D01*
X148300500Y-91100097D01*
X148320185Y-91033058D01*
X148336819Y-91012416D01*
X149638417Y-89710819D01*
X149699740Y-89677334D01*
X149726098Y-89674500D01*
X152138000Y-89674500D01*
X152205039Y-89694185D01*
G37*
%TD.AperFunction*%
%TA.AperFunction,Conductor*%
G36*
X159004591Y-90403876D02*
G01*
X159009537Y-90402749D01*
X159037948Y-90413026D01*
X159067083Y-90421018D01*
X159073012Y-90425709D01*
X159075241Y-90426516D01*
X159077090Y-90428936D01*
X159089599Y-90438834D01*
X159263681Y-90612916D01*
X159297166Y-90674239D01*
X159300000Y-90700597D01*
X159300000Y-91626000D01*
X159280315Y-91693039D01*
X159227511Y-91738794D01*
X159176000Y-91750000D01*
X158924000Y-91750000D01*
X158856961Y-91730315D01*
X158811206Y-91677511D01*
X158800000Y-91626000D01*
X158800000Y-90673372D01*
X158789578Y-90654286D01*
X158773893Y-90633760D01*
X158773107Y-90624122D01*
X158768473Y-90615635D01*
X158770315Y-90589869D01*
X158768217Y-90564121D01*
X158772767Y-90555587D01*
X158773457Y-90545943D01*
X158788937Y-90525263D01*
X158801093Y-90502469D01*
X158811021Y-90495763D01*
X158815329Y-90490010D01*
X158829136Y-90481039D01*
X158835467Y-90477499D01*
X158879179Y-90459394D01*
X158937130Y-90420671D01*
X158941415Y-90418277D01*
X158970875Y-90411561D01*
X158999702Y-90402535D01*
X159004591Y-90403876D01*
G37*
%TD.AperFunction*%
%TA.AperFunction,Conductor*%
G36*
X145507539Y-81323185D02*
G01*
X145553294Y-81375989D01*
X145564500Y-81427500D01*
X145564500Y-87180870D01*
X145564501Y-87180876D01*
X145570908Y-87240483D01*
X145621202Y-87375328D01*
X145621203Y-87375330D01*
X145689767Y-87466919D01*
X145714184Y-87532383D01*
X145714500Y-87541230D01*
X145714500Y-88235112D01*
X145694815Y-88302151D01*
X145642011Y-88347906D01*
X145629505Y-88352818D01*
X145562710Y-88374952D01*
X145562709Y-88374952D01*
X145419612Y-88463216D01*
X145419608Y-88463219D01*
X145300719Y-88582108D01*
X145300716Y-88582112D01*
X145295483Y-88590597D01*
X145243535Y-88637322D01*
X145189945Y-88649500D01*
X144586670Y-88649500D01*
X144586654Y-88649499D01*
X144579058Y-88649499D01*
X144420943Y-88649499D01*
X144344579Y-88669961D01*
X144268214Y-88690423D01*
X144268209Y-88690426D01*
X144131290Y-88769475D01*
X144131282Y-88769481D01*
X143712181Y-89188583D01*
X143650858Y-89222068D01*
X143581166Y-89217084D01*
X143525233Y-89175212D01*
X143500816Y-89109748D01*
X143500500Y-89100902D01*
X143500500Y-87758185D01*
X143520185Y-87691146D01*
X143572989Y-87645391D01*
X143642147Y-87635447D01*
X143653019Y-87637509D01*
X143657630Y-87638598D01*
X143717155Y-87644999D01*
X143717172Y-87645000D01*
X143965000Y-87645000D01*
X143965000Y-86723487D01*
X143984685Y-86656448D01*
X144037489Y-86610693D01*
X144106647Y-86600749D01*
X144113159Y-86601864D01*
X144121384Y-86603500D01*
X144121387Y-86603500D01*
X144308615Y-86603500D01*
X144308616Y-86603500D01*
X144316804Y-86601871D01*
X144386394Y-86608095D01*
X144441574Y-86650955D01*
X144464822Y-86716843D01*
X144465000Y-86723487D01*
X144465000Y-87645000D01*
X144712828Y-87645000D01*
X144712844Y-87644999D01*
X144772372Y-87638598D01*
X144772379Y-87638596D01*
X144907086Y-87588354D01*
X144907093Y-87588350D01*
X145022187Y-87502190D01*
X145022190Y-87502187D01*
X145108350Y-87387093D01*
X145108354Y-87387086D01*
X145158596Y-87252379D01*
X145158598Y-87252372D01*
X145164999Y-87192844D01*
X145165000Y-87192827D01*
X145165000Y-86633000D01*
X144867955Y-86633000D01*
X144800916Y-86613315D01*
X144755161Y-86560511D01*
X144745217Y-86491353D01*
X144774242Y-86427797D01*
X144799064Y-86405898D01*
X144806020Y-86401249D01*
X144820908Y-86391302D01*
X144953302Y-86258908D01*
X145000608Y-86188108D01*
X145054219Y-86143304D01*
X145103710Y-86133000D01*
X145165000Y-86133000D01*
X145165000Y-85757783D01*
X145165500Y-85747615D01*
X145165500Y-81427500D01*
X145168050Y-81418814D01*
X145166762Y-81409853D01*
X145177740Y-81385812D01*
X145185185Y-81360461D01*
X145192025Y-81354533D01*
X145195787Y-81346297D01*
X145218021Y-81332007D01*
X145237989Y-81314706D01*
X145248503Y-81312418D01*
X145254565Y-81308523D01*
X145289500Y-81303500D01*
X145440500Y-81303500D01*
X145507539Y-81323185D01*
G37*
%TD.AperFunction*%
%TD*%
M02*
