%TF.GenerationSoftware,KiCad,Pcbnew,9.0.5*%
%TF.CreationDate,2025-12-19T23:17:11-03:00*%
%TF.ProjectId,BillCold_V0.01,42696c6c-436f-46c6-945f-56302e30312e,rev?*%
%TF.SameCoordinates,Original*%
%TF.FileFunction,Profile,NP*%
%FSLAX46Y46*%
G04 Gerber Fmt 4.6, Leading zero omitted, Abs format (unit mm)*
G04 Created by KiCad (PCBNEW 9.0.5) date 2025-12-19 23:17:11*
%MOMM*%
%LPD*%
G01*
G04 APERTURE LIST*
%TA.AperFunction,Profile*%
%ADD10C,0.200000*%
%TD*%
G04 APERTURE END LIST*
D10*
X159499999Y-76000001D02*
G75*
G02*
X159999999Y-76500002I1J-499999D01*
G01*
X142000000Y-88545782D02*
X142000000Y-76000001D01*
X186000001Y-76000001D02*
X161000000Y-76000001D01*
X140600000Y-79500001D02*
G75*
G02*
X137400000Y-79500001I-1600000J0D01*
G01*
X137400000Y-79500001D02*
G75*
G02*
X140600000Y-79500001I1600000J0D01*
G01*
X186000001Y-76000001D02*
G75*
G02*
X188499999Y-78500002I-1J-2499999D01*
G01*
X143000000Y-88000001D02*
X143000000Y-89045782D01*
X186600000Y-79500001D02*
G75*
G02*
X183400000Y-79500001I-1600000J0D01*
G01*
X183400000Y-79500001D02*
G75*
G02*
X186600000Y-79500001I1600000J0D01*
G01*
X161000000Y-76000001D02*
X161000000Y-88545801D01*
X135500000Y-78500000D02*
G75*
G02*
X138000000Y-76000000I2500000J0D01*
G01*
X143000000Y-76500002D02*
G75*
G02*
X143500001Y-76000000I500000J2D01*
G01*
X142000000Y-76000001D02*
X138000000Y-76000001D01*
X188500000Y-126500001D02*
X188500000Y-78500002D01*
X135500000Y-78500000D02*
X135500000Y-126500001D01*
X138000000Y-129000001D02*
X186000000Y-129000001D01*
X142500000Y-89045782D02*
G75*
G02*
X142000018Y-88545782I0J499982D01*
G01*
X160000000Y-89045782D02*
X160000000Y-76500002D01*
X160495642Y-89045782D02*
X160000000Y-89045782D01*
X161000000Y-88545801D02*
G75*
G02*
X160495642Y-89045781I-500000J1D01*
G01*
X159499999Y-76000001D02*
X143500001Y-76000001D01*
X188500000Y-126500001D02*
G75*
G02*
X186000000Y-129000000I-2500000J1D01*
G01*
X138000000Y-129000001D02*
G75*
G02*
X135499999Y-126500001I0J2500001D01*
G01*
X143000000Y-89045782D02*
X142500000Y-89045782D01*
X140600000Y-125500001D02*
G75*
G02*
X137400000Y-125500001I-1600000J0D01*
G01*
X137400000Y-125500001D02*
G75*
G02*
X140600000Y-125500001I1600000J0D01*
G01*
X143000000Y-76500002D02*
X143000000Y-88000001D01*
X186600000Y-125500001D02*
G75*
G02*
X183400000Y-125500001I-1600000J0D01*
G01*
X183400000Y-125500001D02*
G75*
G02*
X186600000Y-125500001I1600000J0D01*
G01*
M02*
