M48
; DRILL file {KiCad 9.0.5} date 2026-03-08T23:30:01-0300
; FORMAT={-:-/ absolute / inch / decimal}
; #@! TF.CreationDate,2026-03-08T23:30:01-03:00
; #@! TF.GenerationSoftware,Kicad,Pcbnew,9.0.5
; #@! TF.FileFunction,Plated,1,2,PTH
FMAT,2
INCH
; #@! TA.AperFunction,Plated,PTH,ViaDrill
T1C0.0118
; #@! TA.AperFunction,Plated,PTH,ComponentDrill
T2C0.0118
; #@! TA.AperFunction,Plated,PTH,ComponentDrill
T3C0.0240
; #@! TA.AperFunction,Plated,PTH,ComponentDrill
T4C0.0276
; #@! TA.AperFunction,Plated,PTH,ComponentDrill
T5C0.0362
; #@! TA.AperFunction,Plated,PTH,ComponentDrill
T6C0.0512
; #@! TA.AperFunction,Plated,PTH,ComponentDrill
T7C0.0551
; #@! TA.AperFunction,Plated,PTH,ComponentDrill
T8C0.0591
; #@! TA.AperFunction,Plated,PTH,ComponentDrill
T9C0.0906
%
G90
G05
T1
X5.397Y-4.912
X5.403Y-4.781
X5.407Y-3.838
X5.4072Y-3.8922
X5.432Y-3.453
X5.446Y-4.705
X5.462Y-3.864
X5.463Y-3.913
X5.47Y-4.743
X5.536Y-4.253
X5.579Y-3.84
X5.582Y-4.01
X5.584Y-3.972
X5.599Y-4.304
X5.608Y-3.513
X5.6512Y-3.8717
X5.6673Y-3.9476
X5.673Y-4.072
X5.6762Y-3.837
X5.687Y-3.6014
X5.709Y-4.011
X5.711Y-3.931
X5.7224Y-3.7067
X5.725Y-3.851
X5.765Y-4.388
X5.7776Y-3.686
X5.815Y-3.342
X5.8356Y-3.7018
X5.887Y-4.302
X5.9033Y-3.6184
X5.9268Y-3.6705
X5.9516Y-4.1055
X5.9535Y-4.5732
X5.955Y-4.418
X5.9598Y-3.6843
X5.9754Y-4.1303
X5.9819Y-3.7484
X5.9945Y-3.8319
X6.01Y-3.724
X6.042Y-4.228
X6.0437Y-4.1634
X6.0697Y-3.6996
X6.0882Y-3.4606
X6.1083Y-3.611
X6.114Y-3.812
X6.1309Y-4.6268
X6.133Y-4.324
X6.1358Y-3.8437
X6.1531Y-4.1941
X6.1585Y-4.0354
X6.161Y-4.5819
X6.1632Y-3.7685
X6.1984Y-3.4642
X6.2037Y-4.06
X6.2059Y-4.4949
X6.206Y-4.379
X6.214Y-3.362
X6.2224Y-3.8677
X6.2398Y-4.3929
X6.2411Y-3.9734
X6.242Y-4.23
X6.251Y-3.5502
X6.2608Y-4.0856
X6.267Y-4.301
X6.2827Y-3.872
X6.3114Y-3.813
X6.313Y-3.9163
X6.337Y-3.698
X6.3484Y-3.9547
X6.3701Y-4.3528
X6.389Y-4.3937
X6.407Y-3.491
X6.4459Y-3.9222
X6.449Y-3.495
X6.45Y-4.3626
X6.452Y-3.6067
X6.4535Y-3.7323
X6.461Y-3.4445
X6.468Y-4.523
X6.497Y-4.0138
X6.508Y-3.939
X6.545Y-4.011
X6.552Y-3.5
X6.5644Y-3.352
X6.621Y-4.322
X6.625Y-3.475
X6.662Y-3.6
X6.663Y-3.902
X6.719Y-4.631
X6.75Y-3.818
X6.755Y-4.521
X6.797Y-3.8945
X6.8189Y-4.6827
X6.828Y-4.551
X6.8291Y-3.8709
X6.8762Y-4.5072
X6.9197Y-3.9059
X6.9675Y-4.0866
X6.9886Y-3.4776
X6.995Y-4.114
X7.005Y-4.244
X7.041Y-4.271
X7.0512Y-4.126
X7.0541Y-3.3474
X7.067Y-4.008
X7.0974Y-3.2234
X7.1526Y-3.628
X7.1772Y-3.4343
X7.19Y-4.127
X7.2413Y-4.8512
X7.2431Y-3.4931
X7.2628Y-3.6811
X7.2972Y-3.5463
T2
X5.7018Y-3.313
T3
X5.4961Y-4.5261
X5.4961Y-4.5921
T4
X7.172Y-3.9429
X7.1736Y-3.7906
X7.372Y-3.9429
X7.3736Y-3.7906
T5
X6.672Y-3.2093
X6.672Y-3.3352
X6.7705Y-3.2093
X6.7705Y-3.3352
T6
X5.7136Y-4.8996
X5.9104Y-4.8996
X6.1073Y-4.8996
X6.3041Y-4.8996
X6.501Y-4.8996
X6.6978Y-4.8996
X6.8947Y-4.8996
X7.0915Y-4.8996
T7
X5.4951Y-3.5433
X5.4951Y-4.3433
T8
X5.936Y-3.4222
X5.936Y-4.1967
X6.8307Y-3.6244
X6.8307Y-4.3988
T9
X6.4843Y-3.3159
X6.9583Y-3.3159
M30
