M48
; DRILL file {KiCad 9.0.5} date 2025-12-19T23:17:11-0300
; FORMAT={-:-/ absolute / inch / decimal}
; #@! TF.CreationDate,2025-12-19T23:17:11-03:00
; #@! TF.GenerationSoftware,Kicad,Pcbnew,9.0.5
; #@! TF.FileFunction,Plated,1,2,PTH
FMAT,2
INCH
; #@! TA.AperFunction,Plated,PTH,ViaDrill
T1C0.0118
; #@! TA.AperFunction,Plated,PTH,ComponentDrill
T2C0.0240
; #@! TA.AperFunction,Plated,PTH,ComponentDrill
T3C0.0276
; #@! TA.AperFunction,Plated,PTH,ComponentDrill
T4C0.0362
; #@! TA.AperFunction,Plated,PTH,ComponentDrill
T5C0.0591
; #@! TA.AperFunction,Plated,PTH,ComponentDrill
T6C0.0906
%
G90
G05
T1
X5.4921Y-4.439
X5.5315Y-4.8327
X5.5512Y-4.311
X5.6004Y-4.685
X5.6299Y-3.9764
X5.6398Y-3.6122
X5.6693Y-3.4843
X5.6693Y-4.8622
X5.6909Y-3.7913
X5.7283Y-3.7106
X5.7815Y-3.7697
X5.7874Y-3.6614
X5.8465Y-4.5177
X5.8661Y-3.7106
X5.8957Y-3.6811
X5.9055Y-3.7402
X5.9055Y-4.2028
X5.9449Y-4.1634
X5.9843Y-3.937
X5.9843Y-4.1831
X5.9843Y-4.0354
X6.0138Y-4.0945
X6.0335Y-3.6811
X6.0591Y-4.2224
X6.063Y-4.0354
X6.0728Y-3.9862
X6.0925Y-4.0551
X6.122Y-4.2323
X6.1319Y-3.7106
X6.1614Y-4.2717
X6.1811Y-3.8976
X6.1811Y-3.9764
X6.1909Y-4.2126
X6.2008Y-3.622
X6.2205Y-4.1339
X6.2205Y-4.1732
X6.2303Y-4.8327
X6.2402Y-3.5335
X6.2402Y-4.0256
X6.2795Y-3.8976
X6.2894Y-3.937
X6.3386Y-4.0453
X6.5059Y-3.5531
X6.6142Y-3.6122
X6.6535Y-4.2323
X6.7028Y-3.4547
X6.7618Y-3.9665
X6.7717Y-3.6811
X6.7815Y-3.6024
X6.7815Y-3.9272
X6.8307Y-4.2717
X6.8406Y-3.2972
X6.8701Y-4.0354
X6.9291Y-3.6122
X6.9587Y-3.8189
X6.9882Y-3.9075
X7.1161Y-3.5039
X7.1161Y-3.6713
X7.1752Y-3.4154
X7.185Y-3.7402
X7.185Y-3.9862
X7.2146Y-3.4154
X7.2146Y-3.4843
X7.2835Y-3.7402
T2
X5.6461Y-4.9508
X5.7121Y-4.9508
T3
X5.4331Y-4.2028
X5.4331Y-4.4028
X5.4331Y-4.526
X5.4331Y-4.726
T4
X6.6535Y-3.2283
X6.6535Y-3.3543
X6.752Y-3.2283
X6.752Y-3.3543
T5
X5.9449Y-3.6327
X5.9449Y-4.4071
X6.811Y-3.8606
X6.811Y-4.635
T6
X6.4657Y-3.335
X6.9398Y-3.335
M30
