%TF.GenerationSoftware,KiCad,Pcbnew,9.0.5*%
%TF.CreationDate,2025-12-19T23:17:11-03:00*%
%TF.ProjectId,BillCold_V0.01,42696c6c-436f-46c6-945f-56302e30312e,rev?*%
%TF.SameCoordinates,Original*%
%TF.FileFunction,Soldermask,Top*%
%TF.FilePolarity,Negative*%
%FSLAX46Y46*%
G04 Gerber Fmt 4.6, Leading zero omitted, Abs format (unit mm)*
G04 Created by KiCad (PCBNEW 9.0.5) date 2025-12-19 23:17:11*
%MOMM*%
%LPD*%
G01*
G04 APERTURE LIST*
G04 Aperture macros list*
%AMRoundRect*
0 Rectangle with rounded corners*
0 $1 Rounding radius*
0 $2 $3 $4 $5 $6 $7 $8 $9 X,Y pos of 4 corners*
0 Add a 4 corners polygon primitive as box body*
4,1,4,$2,$3,$4,$5,$6,$7,$8,$9,$2,$3,0*
0 Add four circle primitives for the rounded corners*
1,1,$1+$1,$2,$3*
1,1,$1+$1,$4,$5*
1,1,$1+$1,$6,$7*
1,1,$1+$1,$8,$9*
0 Add four rect primitives between the rounded corners*
20,1,$1+$1,$2,$3,$4,$5,0*
20,1,$1+$1,$4,$5,$6,$7,0*
20,1,$1+$1,$6,$7,$8,$9,0*
20,1,$1+$1,$8,$9,$2,$3,0*%
G04 Aperture macros list end*
%ADD10RoundRect,0.250000X0.325000X0.650000X-0.325000X0.650000X-0.325000X-0.650000X0.325000X-0.650000X0*%
%ADD11RoundRect,0.250000X0.312500X0.625000X-0.312500X0.625000X-0.312500X-0.625000X0.312500X-0.625000X0*%
%ADD12RoundRect,0.250000X-0.325000X-0.650000X0.325000X-0.650000X0.325000X0.650000X-0.325000X0.650000X0*%
%ADD13RoundRect,0.250000X-0.312500X-0.625000X0.312500X-0.625000X0.312500X0.625000X-0.312500X0.625000X0*%
%ADD14R,1.600000X0.850000*%
%ADD15RoundRect,0.250000X-0.375000X-0.625000X0.375000X-0.625000X0.375000X0.625000X-0.375000X0.625000X0*%
%ADD16RoundRect,0.102000X0.250000X0.250000X-0.250000X0.250000X-0.250000X-0.250000X0.250000X-0.250000X0*%
%ADD17RoundRect,0.050000X-0.350000X-0.050000X0.350000X-0.050000X0.350000X0.050000X-0.350000X0.050000X0*%
%ADD18RoundRect,0.050000X-0.050000X-0.350000X0.050000X-0.350000X0.050000X0.350000X-0.050000X0.350000X0*%
%ADD19R,4.000000X4.000000*%
%ADD20RoundRect,0.102000X-0.558800X-0.558800X0.558800X-0.558800X0.558800X0.558800X-0.558800X0.558800X0*%
%ADD21C,1.321600*%
%ADD22C,1.400000*%
%ADD23RoundRect,0.218750X0.381250X-0.218750X0.381250X0.218750X-0.381250X0.218750X-0.381250X-0.218750X0*%
%ADD24RoundRect,0.102000X-0.250000X-0.250000X0.250000X-0.250000X0.250000X0.250000X-0.250000X0.250000X0*%
%ADD25RoundRect,0.102000X-0.700000X-0.575000X0.700000X-0.575000X0.700000X0.575000X-0.700000X0.575000X0*%
%ADD26RoundRect,0.250000X-0.625000X0.312500X-0.625000X-0.312500X0.625000X-0.312500X0.625000X0.312500X0*%
%ADD27R,1.428000X1.428000*%
%ADD28C,1.428000*%
%ADD29C,3.316000*%
%ADD30RoundRect,0.054880X-0.852120X-0.337120X0.852120X-0.337120X0.852120X0.337120X-0.852120X0.337120X0*%
%ADD31R,0.900000X1.524000*%
%ADD32R,0.500000X1.320000*%
%ADD33RoundRect,0.375000X0.375000X-0.625000X0.375000X0.625000X-0.375000X0.625000X-0.375000X-0.625000X0*%
%ADD34RoundRect,0.500000X1.400000X-0.500000X1.400000X0.500000X-1.400000X0.500000X-1.400000X-0.500000X0*%
%ADD35C,2.500000*%
G04 APERTURE END LIST*
D10*
%TO.C,C14*%
X141062500Y-90250000D03*
X138112500Y-90250000D03*
%TD*%
D11*
%TO.C,R10*%
X165675000Y-110000000D03*
X162750000Y-110000000D03*
%TD*%
%TO.C,R8*%
X158712500Y-113750000D03*
X155787500Y-113750000D03*
%TD*%
D12*
%TO.C,C8*%
X183800000Y-101500000D03*
X186750000Y-101500000D03*
%TD*%
%TO.C,C12*%
X171550000Y-114000000D03*
X174500000Y-114000000D03*
%TD*%
D13*
%TO.C,R9*%
X155825000Y-110000000D03*
X158750000Y-110000000D03*
%TD*%
D14*
%TO.C,D3*%
X164000000Y-94000000D03*
X164000000Y-95750000D03*
X167500000Y-95750000D03*
X167500000Y-94000000D03*
%TD*%
D15*
%TO.C,D2*%
X168950000Y-105000000D03*
X171750000Y-105000000D03*
%TD*%
D13*
%TO.C,R4*%
X153325000Y-90250000D03*
X156250000Y-90250000D03*
%TD*%
%TO.C,R2*%
X174325000Y-94000000D03*
X177250000Y-94000000D03*
%TD*%
D16*
%TO.C,D4*%
X173750000Y-101500000D03*
X175950000Y-101500000D03*
%TD*%
D13*
%TO.C,R12*%
X167075000Y-99750000D03*
X170000000Y-99750000D03*
%TD*%
D11*
%TO.C,R14*%
X144500000Y-121500000D03*
X141575000Y-121500000D03*
%TD*%
D17*
%TO.C,U1*%
X146050000Y-97900000D03*
X146050000Y-98300000D03*
X146050000Y-98700000D03*
X146050000Y-99100000D03*
X146050000Y-99500000D03*
X146050000Y-99900000D03*
X146050000Y-100300000D03*
X146050000Y-100700000D03*
X146050000Y-101100000D03*
X146050000Y-101500000D03*
X146050000Y-101900000D03*
X146050000Y-102300000D03*
X146050000Y-102700000D03*
X146050000Y-103100000D03*
D18*
X146900000Y-103950000D03*
X147300000Y-103950000D03*
X147700000Y-103950000D03*
X148100000Y-103950000D03*
X148500000Y-103950000D03*
X148900000Y-103950000D03*
X149300000Y-103950000D03*
X149700000Y-103950000D03*
X150100000Y-103950000D03*
X150500000Y-103950000D03*
X150900000Y-103950000D03*
X151300000Y-103950000D03*
X151700000Y-103950000D03*
X152100000Y-103950000D03*
D17*
X152950000Y-103100000D03*
X152950000Y-102700000D03*
X152950000Y-102300000D03*
X152950000Y-101900000D03*
X152950000Y-101500000D03*
X152950000Y-101100000D03*
X152950000Y-100700000D03*
X152950000Y-100300000D03*
X152950000Y-99900000D03*
X152950000Y-99500000D03*
X152950000Y-99100000D03*
X152950000Y-98700000D03*
X152950000Y-98300000D03*
X152950000Y-97900000D03*
D18*
X152100000Y-97050000D03*
X151700000Y-97050000D03*
X151300000Y-97050000D03*
X150900000Y-97050000D03*
X150500000Y-97050000D03*
X150100000Y-97050000D03*
X149700000Y-97050000D03*
X149300000Y-97050000D03*
X148900000Y-97050000D03*
X148500000Y-97050000D03*
X148100000Y-97050000D03*
X147700000Y-97050000D03*
X147300000Y-97050000D03*
X146900000Y-97050000D03*
D19*
X149500000Y-100500000D03*
%TD*%
D13*
%TO.C,R1*%
X174325000Y-105000000D03*
X177250000Y-105000000D03*
%TD*%
D20*
%TO.C,R13*%
X143411800Y-125750000D03*
D21*
X145088200Y-125750000D03*
%TD*%
D22*
%TO.C,R16*%
X138000000Y-106750000D03*
X138000000Y-111830000D03*
%TD*%
D11*
%TO.C,R5*%
X141000000Y-97250000D03*
X138075000Y-97250000D03*
%TD*%
D10*
%TO.C,C4*%
X177450000Y-110500000D03*
X174500000Y-110500000D03*
%TD*%
D12*
%TO.C,C3*%
X169550000Y-110500000D03*
X172500000Y-110500000D03*
%TD*%
D23*
%TO.C,L1*%
X146250000Y-91375000D03*
X146250000Y-89250000D03*
%TD*%
D24*
%TO.C,D1*%
X170000000Y-90500000D03*
X167800000Y-90500000D03*
%TD*%
D25*
%TO.C,X1*%
X159050000Y-93350000D03*
X161250000Y-93350000D03*
X161250000Y-91750000D03*
X159050000Y-91750000D03*
%TD*%
D12*
%TO.C,C2*%
X179309273Y-108669242D03*
X182259273Y-108669242D03*
%TD*%
%TO.C,C9*%
X157050000Y-97000000D03*
X160000000Y-97000000D03*
%TD*%
D13*
%TO.C,R3*%
X178325000Y-97500000D03*
X181250000Y-97500000D03*
%TD*%
D26*
%TO.C,R6*%
X145000000Y-107500000D03*
X145000000Y-110425000D03*
%TD*%
D27*
%TO.C,J1*%
X171500000Y-82000000D03*
D28*
X169000000Y-82000000D03*
X169000000Y-85200000D03*
X171500000Y-85200000D03*
D29*
X164230000Y-84710000D03*
X176270000Y-84710000D03*
%TD*%
D13*
%TO.C,R11*%
X162825000Y-113750000D03*
X165750000Y-113750000D03*
%TD*%
D12*
%TO.C,C1*%
X179300000Y-105000000D03*
X182250000Y-105000000D03*
%TD*%
%TO.C,C11*%
X147500000Y-121500000D03*
X150450000Y-121500000D03*
%TD*%
D30*
%TO.C,U3*%
X156395000Y-101845000D03*
X156395000Y-103115000D03*
X156395000Y-104385000D03*
X156395000Y-105655000D03*
X163605000Y-105655000D03*
X163605000Y-104385000D03*
X163605000Y-103115000D03*
X163605000Y-101845000D03*
%TD*%
D12*
%TO.C,C7*%
X178300000Y-101500000D03*
X181250000Y-101500000D03*
%TD*%
D31*
%TO.C,ANTENA1*%
X144215000Y-86383000D03*
D32*
X146315000Y-86473000D03*
%TD*%
D12*
%TO.C,C6*%
X156050000Y-124500000D03*
X159000000Y-124500000D03*
%TD*%
%TO.C,C10*%
X178550000Y-80000000D03*
X181500000Y-80000000D03*
%TD*%
D22*
%TO.C,R15*%
X138000000Y-120040000D03*
X138000000Y-114960000D03*
%TD*%
D33*
%TO.C,U2*%
X180400000Y-91000000D03*
X182700000Y-91000000D03*
D34*
X182700000Y-84700000D03*
D33*
X185000000Y-91000000D03*
%TD*%
D13*
%TO.C,R7*%
X155825000Y-117500000D03*
X158750000Y-117500000D03*
%TD*%
D12*
%TO.C,C5*%
X183550000Y-97500000D03*
X186500000Y-97500000D03*
%TD*%
D10*
%TO.C,C15*%
X141000000Y-93750000D03*
X138050000Y-93750000D03*
%TD*%
D35*
%TO.C,CR1*%
X151000000Y-92270000D03*
X151000000Y-111940000D03*
%TD*%
%TO.C,CR2*%
X173000000Y-117730000D03*
X173000000Y-98060000D03*
%TD*%
M02*
